# Blender 3.6.0
# www.blender.org
mtllib Butelka_3.mtl
o 3
v -0.065180 0.164486 0.063627
v -0.047002 0.146543 0.079591
v 0.006867 0.194882 0.063627
v 0.007034 0.169341 0.079591
v -0.064236 0.019999 0.063627
v -0.046293 0.038178 0.079591
v -0.094632 0.092047 0.063627
v -0.069090 0.092214 0.079591
v -0.058791 0.158180 0.059222
v 0.007535 0.092715 0.069591
v -0.044605 0.144178 0.070175
v 0.006926 0.185905 0.059222
v 0.007056 0.165974 0.070175
v -0.057930 0.026389 0.059222
v -0.043928 0.040574 0.070175
v -0.085655 0.092106 0.059222
v -0.065724 0.092236 0.070175
v 0.004364 0.001062 0.059222
v -0.000356 -0.005972 0.063627
v 0.008203 -0.009452 0.041081
v 0.002256 0.018440 0.079591
v 0.006974 0.019879 0.070175
v 0.008144 -0.000441 0.049296
v 0.014582 0.049634 0.079592
v 0.027490 0.071413 0.069828
v 0.080931 0.161579 0.029405
v 0.075621 0.152620 0.033421
v 0.083942 0.132598 -0.003417
v 0.087938 0.144970 -0.001393
v 0.046233 0.015874 -0.022515
v 0.042762 0.005128 -0.024273
v 0.035951 0.092901 0.069818
v 0.056620 0.145823 0.070175
v 0.054448 0.140245 0.070123
v 0.054153 0.150183 0.079591
v 0.067558 0.161254 0.059222
v 0.072966 0.159007 0.045057
v 0.068909 0.169658 0.063627
v 0.079306 0.165431 0.036475
v -0.064236 0.019999 -0.105117
v -0.086500 0.072773 -0.127182
v -0.057536 0.026787 -0.104551
v 0.065924 0.024310 -0.059938
v 0.060800 0.012738 -0.058662
v -0.076563 0.072037 -0.123447
v 0.008142 -0.000020 -0.073989
v 0.008203 -0.009452 -0.071440
v 0.094289 0.129918 -0.029502
v 0.091514 0.114374 -0.037186
v -0.094632 0.092047 -0.122364
v -0.067829 0.134672 -0.093480
v -0.079218 0.129960 -0.100102
v -0.085048 0.092110 -0.118436
v 0.072795 0.158834 -0.026056
v 0.079306 0.165431 -0.020624
v 0.042597 0.180356 -0.029271
v 0.031287 0.175677 -0.035848
v -0.058453 0.157846 -0.079805
v -0.065180 0.164486 -0.079701
v 0.006867 0.194882 -0.037557
v 0.006928 0.185561 -0.041504
v 0.056620 0.145823 0.070175
v 0.054448 0.140245 0.070123
v 0.042762 0.005128 -0.024273
v 0.060800 0.012738 -0.058662
v 0.083942 0.132598 -0.003417
v 0.091514 0.114374 -0.037186
v -0.000356 -0.005972 0.063627
v 0.008203 -0.009452 0.041081
v 0.002256 0.018440 0.079591
v 0.004364 0.001062 0.059222
v 0.006974 0.019879 0.070175
v 0.008144 -0.000441 0.049296
v 0.014582 0.049634 0.079592
v 0.075621 0.152620 0.033421
v 0.046233 0.015874 -0.022515
v 0.027490 0.071413 0.069828
v 0.035951 0.092901 0.069818
v 0.054153 0.150183 0.079591
v 0.067558 0.161254 0.059222
v 0.072966 0.159007 0.045057
v 0.068909 0.169658 0.063627
v 0.080931 0.161579 0.029405
v 0.079306 0.165431 0.036475
v -0.064236 0.019999 -0.105117
v -0.086500 0.072773 -0.127182
v 0.065924 0.024310 -0.059938
v -0.057536 0.026787 -0.104551
v 0.008142 -0.000020 -0.073989
v 0.008203 -0.009452 -0.071440
v 0.087938 0.144970 -0.001393
v 0.094289 0.129918 -0.029502
v -0.094632 0.092047 -0.122364
v -0.067829 0.134672 -0.093480
v -0.085048 0.092110 -0.118436
v 0.072795 0.158834 -0.026056
v 0.079306 0.165431 -0.020624
v 0.042597 0.180356 -0.029271
v 0.031287 0.175677 -0.035848
v -0.058453 0.157846 -0.079805
v 0.006867 0.194882 -0.037557
v -0.065180 0.164486 -0.079701
v 0.006928 0.185561 -0.041504
v -0.076563 0.072037 -0.123447
v -0.079218 0.129960 -0.100102
v 0.094313 0.059949 -0.068361
v 0.007932 0.032053 -0.333876
v 0.007984 0.024071 -0.282791
v 0.008141 0.000126 -0.262038
v 0.008203 -0.009452 -0.222128
v -0.040686 0.043859 -0.282791
v -0.057507 0.026817 -0.262038
v -0.064236 0.019999 -0.222128
v 0.007869 0.041681 -0.331173
v 0.007928 0.032588 -0.277551
v 0.008084 0.008850 -0.257151
v 0.008138 0.000482 -0.220985
v -0.034703 0.049921 -0.277551
v -0.051378 0.033026 -0.257151
v -0.057257 0.027070 -0.220985
v -0.090019 0.081112 -0.173652
v -0.090933 0.083279 -0.184673
v -0.080244 0.081174 -0.173919
v -0.081062 0.083194 -0.184194
v -0.077787 0.075732 -0.220985
v -0.087729 0.075685 -0.222128
v -0.066237 0.068244 -0.257151
v -0.074635 0.067415 -0.262038
v 0.002698 0.045965 -0.361143
v 0.007846 0.045191 -0.364194
v 0.013032 0.045859 -0.360697
v -0.040498 0.063656 -0.277551
v -0.048657 0.062753 -0.282791
v -0.029706 0.054984 -0.319502
v -0.036203 0.052206 -0.333876
v -0.033519 0.051120 -0.339000
v 0.007823 0.048667 -0.347276
v 0.032414 0.051769 -0.329599
v 0.029518 0.047852 -0.349276
v -0.018536 0.052416 -0.331173
v -0.076519 0.071974 -0.128441
v 0.086924 0.060469 -0.070960
v 0.088078 0.063431 -0.085594
v -0.064236 0.019999 -0.107671
v -0.086211 0.072086 -0.129136
v -0.057530 0.026793 -0.107059
v 0.068011 0.025197 -0.061892
v 0.062975 0.013655 -0.060666
v 0.008141 -0.000011 -0.076634
v 0.008203 -0.009452 -0.074141
v 0.031550 0.046483 -0.344153
v 0.085857 0.058135 -0.105520
v 0.045250 0.049422 -0.283952
v 0.035608 0.043729 -0.333876
v 0.061553 0.031409 -0.257151
v 0.049649 0.041649 -0.282791
v 0.047046 0.049092 -0.277551
v 0.076735 0.019461 -0.222128
v 0.080251 0.020944 -0.205162
v 0.072670 0.027708 -0.220985
v 0.092184 0.050294 -0.096890
v 0.064318 0.023827 -0.262038
v 0.085110 0.055966 -0.066052
v 0.090920 0.047185 -0.067465
v 0.080251 0.020944 -0.064866
v 0.073564 0.027544 -0.063239
v 0.049649 0.041649 -0.282791
v 0.064318 0.023827 -0.262038
v -0.090019 0.081112 -0.173652
v -0.090933 0.083279 -0.184673
v -0.081062 0.083194 -0.184194
v -0.077787 0.075732 -0.220985
v -0.087729 0.075685 -0.222128
v -0.066237 0.068244 -0.257151
v -0.074635 0.067415 -0.262038
v 0.007823 0.048667 -0.347276
v 0.032414 0.051769 -0.329599
v 0.002698 0.045965 -0.361143
v 0.007846 0.045191 -0.364194
v -0.040498 0.063656 -0.277551
v -0.029706 0.054984 -0.319502
v -0.048657 0.062753 -0.282791
v -0.036203 0.052206 -0.333876
v -0.033519 0.051120 -0.339000
v -0.018536 0.052416 -0.331173
v -0.080244 0.081174 -0.173919
v -0.076519 0.071974 -0.128441
v 0.086924 0.060469 -0.070960
v 0.088078 0.063431 -0.085594
v -0.064236 0.019999 -0.107671
v -0.086211 0.072086 -0.129136
v 0.068011 0.025197 -0.061892
v 0.008141 -0.000011 -0.076634
v 0.008203 -0.009452 -0.074141
v 0.029518 0.047852 -0.349276
v 0.031550 0.046483 -0.344153
v 0.035608 0.043729 -0.333876
v 0.045250 0.049422 -0.283952
v 0.047046 0.049092 -0.277551
v 0.076735 0.019461 -0.222128
v 0.080251 0.020944 -0.205162
v 0.061553 0.031409 -0.257151
v 0.072670 0.027708 -0.220985
v 0.094313 0.059949 -0.068361
v 0.092184 0.050294 -0.096890
v 0.090920 0.047185 -0.067465
v 0.080251 0.020944 -0.064866
v 0.085110 0.055966 -0.066052
v 0.073564 0.027544 -0.063239
v 0.085857 0.058135 -0.105520
v -0.057530 0.026793 -0.107059
v 0.013032 0.045859 -0.360697
v 0.062975 0.013655 -0.060666
v 0.079306 0.165431 0.063627
v 0.061363 0.147252 0.079591
v 0.109703 0.093383 0.063627
v 0.084161 0.093216 0.079591
v 0.080251 0.020944 0.063627
v 0.062072 0.038887 0.079591
v 0.008203 -0.009452 0.063627
v 0.100726 0.093324 0.059222
v 0.080794 0.093194 0.070175
v 0.073862 0.027250 0.059222
v 0.059676 0.041252 0.070175
v 0.095561 0.058600 -0.066103
v 0.100086 0.069729 -0.062817
v 0.100352 0.093322 -0.050017
v 0.095908 0.126080 -0.030925
v 0.109703 0.093383 -0.052541
v 0.093192 0.110385 -0.038747
v 0.069480 0.025812 -0.060359
v 0.080251 0.020944 -0.062935
v 0.064366 0.014243 -0.059085
v 0.085748 0.057522 -0.064392
v 0.091557 0.048753 -0.065759
v 0.079306 0.165431 0.041367
v 0.001622 -0.006777 0.063627
v 0.008203 -0.009452 0.046419
v 0.006346 0.000256 0.059222
v 0.008144 -0.000459 0.054533
v 0.004162 0.017664 0.079591
v 0.009251 0.019978 0.070175
v 0.008057 0.012863 0.066552
v 0.029503 0.071033 0.069837
v 0.038120 0.092915 0.069835
v 0.058499 0.145059 0.070175
v 0.056038 0.149417 0.079591
v 0.069435 0.160491 0.059222
v 0.072978 0.159019 0.049931
v 0.070789 0.168893 0.063627
v 0.100086 0.069729 -0.062817
v 0.109703 0.093383 -0.052541
v 0.100352 0.093322 -0.050017
v 0.093192 0.110385 -0.038747
v 0.080251 0.020944 -0.062935
v 0.064366 0.014243 -0.059085
v 0.038120 0.092915 0.069835
v 0.058499 0.145059 0.070175
v 0.095908 0.126080 -0.030925
v 0.079306 0.165431 0.041367
v 0.095561 0.058600 -0.066103
v 0.091557 0.048753 -0.065759
v 0.008203 -0.009452 0.046419
v 0.006346 0.000256 0.059222
v 0.008144 -0.000459 0.054533
v 0.001622 -0.006777 0.063627
v 0.004162 0.017664 0.079591
v 0.009251 0.019978 0.070175
v 0.008057 0.012863 0.066552
v 0.085748 0.057522 -0.064392
v 0.069480 0.025812 -0.060359
v 0.029503 0.071033 0.069837
v 0.069435 0.160491 0.059222
v 0.056038 0.149417 0.079591
v 0.070789 0.168893 0.063627
v 0.072978 0.159019 0.049931
v 0.218403 0.098796 -0.515277
v 0.126072 0.060127 -0.291947
v 0.167337 0.033324 -0.533492
v 0.191924 0.026551 -0.501335
v 0.128000 -0.003374 -0.467674
v 0.210145 0.098796 -0.509637
v 0.164155 0.039493 -0.526294
v 0.186241 0.033576 -0.497050
v 0.128533 0.006561 -0.466663
v 0.275373 0.098796 -0.386783
v 0.283782 0.098796 -0.391116
v 0.267583 0.124020 -0.399454
v 0.265992 0.113362 -0.391585
v 0.250968 0.012662 -0.317239
v 0.276971 0.026551 -0.339822
v 0.269300 0.033147 -0.340233
v 0.252698 0.024260 -0.325801
v 0.224206 0.176470 -0.411897
v 0.237357 0.171041 -0.415054
v 0.233183 0.164258 -0.408424
v 0.218929 0.170132 -0.404994
v 0.218378 0.005902 -0.296038
v 0.220922 -0.003374 -0.291206
v 0.182690 0.012410 -0.282027
v 0.171121 0.025448 -0.284717
v 0.143929 0.042500 -0.288299
v 0.130993 0.065032 -0.292909
v 0.169828 0.016935 -0.283008
v 0.155669 0.030911 -0.285900
v 0.142173 0.026551 -0.285701
v 0.149213 0.033167 -0.286531
v 0.214196 0.172072 -0.403908
v 0.218393 0.178376 -0.413059
v 0.199927 0.168014 -0.451175
v 0.206176 0.174914 -0.454197
v 0.124144 0.061812 -0.308905
v 0.112725 0.023622 -0.356800
v 0.115816 0.026551 -0.335755
v 0.114609 0.033348 -0.352635
v 0.112731 0.031603 -0.365458
v 0.101081 0.020635 -0.445767
v 0.098730 0.010346 -0.453163
v 0.204423 0.172804 -0.468459
v 0.206278 0.171041 -0.474076
v 0.200271 0.164088 -0.470562
v 0.198265 0.166015 -0.464466
v 0.197953 0.132060 -0.503217
v 0.196940 0.126289 -0.507955
v 0.203776 0.137170 -0.508512
v 0.114937 0.003355 -0.492482
v 0.123496 0.009384 -0.501979
v 0.117560 0.012010 -0.487502
v 0.131122 0.021524 -0.502599
v 0.103667 0.018201 -0.453570
v 0.196948 0.098796 -0.539728
v 0.174945 0.068934 -0.531976
v 0.158105 0.043662 -0.528835
v 0.192140 0.098796 -0.530497
v 0.181560 0.072132 -0.540982
v 0.138008 0.019594 -0.518049
v 0.159368 0.038798 -0.536878
v 0.141906 0.029078 -0.514579
v 0.283782 0.098796 -0.391116
v 0.267583 0.124020 -0.399454
v 0.250968 0.012662 -0.317239
v 0.276971 0.026551 -0.339822
v 0.275373 0.098796 -0.386783
v 0.269300 0.033147 -0.340233
v 0.252698 0.024260 -0.325801
v 0.237357 0.171041 -0.415054
v 0.265992 0.113362 -0.391585
v 0.233183 0.164258 -0.408424
v 0.218929 0.170132 -0.404994
v 0.218378 0.005902 -0.296038
v 0.220922 -0.003374 -0.291206
v 0.182690 0.012410 -0.282027
v 0.171121 0.025448 -0.284717
v 0.143929 0.042500 -0.288299
v 0.130993 0.065032 -0.292909
v 0.169828 0.016935 -0.283008
v 0.155669 0.030911 -0.285900
v 0.149213 0.033167 -0.286531
v 0.214196 0.172072 -0.403908
v 0.112725 0.023622 -0.356800
v 0.115816 0.026551 -0.335755
v 0.124144 0.061812 -0.308905
v 0.114609 0.033348 -0.352635
v 0.112731 0.031603 -0.365458
v 0.101081 0.020635 -0.445767
v 0.204423 0.172804 -0.468459
v 0.206278 0.171041 -0.474076
v 0.200271 0.164088 -0.470562
v 0.198265 0.166015 -0.464466
v 0.197953 0.132060 -0.503217
v 0.196940 0.126289 -0.507955
v 0.098730 0.010346 -0.453163
v 0.114937 0.003355 -0.492482
v 0.123496 0.009384 -0.501979
v 0.117560 0.012010 -0.487502
v 0.131122 0.021524 -0.502599
v 0.103667 0.018201 -0.453570
v 0.203776 0.137170 -0.508512
v 0.196948 0.098796 -0.539728
v 0.174945 0.068934 -0.531976
v 0.158105 0.043662 -0.528835
v 0.192140 0.098796 -0.530497
v 0.181560 0.072132 -0.540982
v 0.138008 0.019594 -0.518049
v 0.159368 0.038798 -0.536878
v 0.141906 0.029078 -0.514579
v 0.142173 0.026551 -0.285701
v 0.218393 0.178376 -0.413059
v 0.206176 0.174914 -0.454197
v 0.224206 0.176470 -0.411897
v 0.126072 0.060127 -0.291947
v 0.199927 0.168014 -0.451175
v 0.038384 0.098796 -0.718478
v 0.045275 0.098796 -0.700156
v 0.067958 0.098796 -0.674212
v 0.058070 0.098796 -0.669005
v 0.088934 0.098796 -0.627523
v 0.028650 0.072237 -0.713353
v 0.036174 0.073962 -0.695363
v 0.056787 0.068318 -0.668330
v 0.049796 0.076219 -0.664648
v 0.078591 0.070575 -0.622077
v 0.005150 0.136356 -0.700978
v 0.014200 0.133917 -0.683792
v 0.029819 0.141899 -0.654129
v 0.029819 0.130724 -0.654129
v 0.053621 0.138706 -0.608928
v 0.028650 0.125355 -0.713353
v 0.036174 0.123630 -0.695363
v 0.056787 0.129274 -0.668330
v 0.049796 0.121372 -0.664648
v 0.078591 0.127016 -0.622077
v 0.033910 0.098796 -0.709535
v 0.036707 0.098796 -0.695001
v 0.057995 0.098796 -0.675077
v 0.048766 0.098796 -0.672669
v 0.081794 0.098796 -0.620521
v 0.026282 0.077983 -0.705518
v 0.030192 0.081021 -0.691570
v 0.049005 0.074265 -0.670343
v 0.042182 0.080834 -0.669203
v 0.073934 0.077349 -0.616382
v 0.007866 0.128230 -0.695821
v 0.014465 0.123933 -0.683289
v 0.027300 0.133487 -0.658914
v 0.026289 0.124198 -0.660834
v 0.009809 0.098796 -0.692130
v 0.026282 0.119609 -0.705518
v 0.030192 0.116570 -0.691570
v 0.049005 0.123326 -0.670343
v 0.042182 0.116758 -0.669203
v 0.073934 0.120243 -0.616382
v 0.013461 0.134241 -0.645516
v 0.020897 0.126057 -0.640487
v 0.016800 0.124629 -0.647274
v 0.012923 0.126757 -0.651344
v -0.003073 0.125831 -0.674697
v -0.014763 0.127033 -0.690493
v 0.000001 0.098796 -0.688617
v 0.002561 0.091386 -0.689992
v 0.000231 0.117269 -0.675794
v -0.007226 0.116210 -0.687105
v 0.024161 0.120728 -0.639454
v 0.014474 0.118667 -0.654612
v 0.029653 0.074968 -0.662606
v 0.035880 0.069705 -0.657320
v 0.015252 0.074027 -0.683703
v 0.039218 0.060093 -0.659078
v 0.007681 0.062421 -0.702311
v 0.057312 0.066607 -0.628965
v 0.033653 0.067079 -0.662260
v 0.017914 0.065414 -0.685748
v 0.052739 0.074073 -0.630412
v 0.008543 0.069679 -0.696178
v 0.043325 0.133886 -0.603507
v 0.049056 0.126981 -0.600045
v 0.067120 0.065205 -0.616036
v 0.078202 0.060010 -0.603859
v 0.073939 0.069804 -0.603301
v 0.065888 0.073583 -0.612146
v 0.056796 0.130838 -0.602898
v 0.092717 0.120780 -0.613760
v 0.080364 0.122918 -0.609913
v 0.092589 0.098796 -0.611849
v 0.103856 0.098796 -0.615525
v 0.091840 0.065067 -0.608738
v 0.083526 0.073358 -0.606731
v 0.056395 0.141286 -0.603659
v 0.087629 0.130774 -0.612977
v 0.073939 0.069804 -0.603301
v 0.083526 0.073358 -0.606731
v 0.000231 0.117269 -0.675794
v -0.007226 0.116210 -0.687105
v 0.024161 0.120728 -0.639454
v 0.049056 0.126981 -0.600045
v 0.029653 0.074968 -0.662606
v 0.052739 0.074073 -0.630412
v 0.013461 0.134241 -0.645516
v 0.016800 0.124629 -0.647274
v -0.003073 0.125831 -0.674697
v -0.014763 0.127033 -0.690493
v 0.043325 0.133886 -0.603507
v 0.056395 0.141286 -0.603659
v 0.035880 0.069705 -0.657320
v 0.039218 0.060093 -0.659078
v 0.057312 0.066607 -0.628965
v 0.015252 0.074027 -0.683703
v 0.033653 0.067079 -0.662260
v 0.007681 0.062421 -0.702311
v 0.017914 0.065414 -0.685748
v 0.008543 0.069679 -0.696178
v 0.067120 0.065205 -0.616036
v 0.078202 0.060010 -0.603859
v 0.065888 0.073583 -0.612146
v 0.056796 0.130838 -0.602898
v 0.080364 0.122918 -0.609913
v 0.092717 0.120780 -0.613760
v 0.103856 0.098796 -0.615525
v 0.092589 0.098796 -0.611849
v 0.087629 0.130774 -0.612977
v 0.020897 0.126057 -0.640487
v 0.000001 0.098796 -0.688617
v 0.002561 0.091386 -0.689992
v 0.012923 0.126757 -0.651344
v 0.014474 0.118667 -0.654612
v 0.091840 0.065067 -0.608738
v 0.129611 0.098796 -0.594816
v 0.160475 0.098796 -0.553334
v 0.191333 0.098796 -0.546128
v 0.113890 0.055900 -0.586538
v 0.142685 0.050256 -0.543966
v 0.075935 0.038133 -0.566552
v 0.099736 0.030151 -0.521351
v 0.109405 0.006205 -0.502988
v 0.113890 0.141691 -0.586538
v 0.142685 0.147335 -0.543966
v 0.167337 0.164268 -0.533492
v 0.191924 0.171041 -0.501335
v 0.122352 0.098796 -0.587939
v 0.155381 0.098796 -0.544729
v 0.185890 0.098796 -0.537739
v 0.109125 0.062708 -0.580974
v 0.139798 0.056279 -0.536523
v 0.077194 0.047760 -0.564160
v 0.102178 0.038667 -0.516714
v 0.111682 0.014929 -0.498664
v 0.045263 0.062708 -0.547346
v 0.077194 0.149831 -0.564160
v 0.109125 0.134883 -0.580974
v 0.139798 0.141313 -0.536523
v 0.164155 0.158098 -0.526294
v 0.186241 0.164016 -0.497050
v 0.202296 0.173946 -0.466585
v 0.196239 0.167068 -0.462867
v 0.179176 0.177008 -0.494622
v 0.144556 0.167273 -0.515974
v 0.147034 0.173772 -0.522802
v 0.173480 0.169990 -0.490331
v 0.099868 0.158327 -0.548749
v 0.118030 0.158877 -0.530983
v 0.115915 0.152493 -0.523947
v 0.026540 0.114448 -0.560467
v 0.027961 0.119269 -0.565960
v 0.040796 0.126240 -0.562888
v 0.086873 0.151268 -0.551859
v 0.035936 0.109770 -0.544129
v 0.079803 0.157648 -0.568589
v 0.080320 0.150969 -0.558224
v 0.072023 0.155821 -0.573981
v 0.029275 0.123762 -0.571206
v 0.072215 0.147500 -0.561538
v 0.041843 0.137758 -0.578748
v 0.031542 0.131565 -0.580526
v 0.038059 0.123520 -0.585416
v 0.049080 0.127393 -0.597960
v 0.052965 0.064192 -0.578064
v 0.061816 0.048952 -0.581227
v 0.066227 0.047162 -0.584988
v 0.064633 0.059457 -0.588016
v 0.031005 0.102000 -0.570216
v 0.024238 0.109552 -0.566217
v 0.041352 0.068877 -0.568012
v 0.035882 0.059418 -0.558780
v 0.030782 0.098796 -0.557004
v 0.040834 0.074792 -0.545014
v 0.053935 0.059818 -0.524674
v 0.067047 0.045453 -0.504138
v 0.068424 0.054469 -0.498940
v 0.079829 0.020050 -0.487414
v 0.089492 0.015104 -0.470649
v 0.092844 0.023433 -0.461930
v 0.081013 0.029286 -0.482514
v 0.042061 0.053990 -0.548715
v 0.100631 0.020298 -0.448416
v 0.098419 0.010539 -0.455446
v 0.205351 0.171041 -0.475836
v 0.199345 0.164083 -0.472310
v 0.196651 0.131042 -0.505356
v 0.129416 0.021192 -0.502875
v 0.203309 0.141921 -0.505602
v 0.116846 0.012365 -0.488857
v 0.114231 0.003719 -0.493823
v 0.122132 0.009291 -0.502606
v 0.190979 0.098796 -0.531842
v 0.195756 0.098796 -0.541086
v 0.183610 0.077726 -0.542061
v 0.176951 0.074406 -0.533032
v 0.158260 0.039559 -0.537349
v 0.138087 0.027290 -0.512567
v 0.134184 0.017804 -0.516035
v 0.157013 0.044415 -0.529294
v 0.057124 0.141964 -0.602274
v 0.045902 0.136374 -0.598133
v 0.057522 0.131514 -0.601519
v 0.088856 0.131284 -0.611742
v 0.081573 0.123421 -0.608696
v 0.105297 0.098796 -0.614366
v 0.094038 0.098796 -0.610685
v 0.079132 0.059366 -0.602476
v 0.093092 0.064547 -0.607477
v 0.084786 0.072834 -0.605464
v 0.074903 0.069168 -0.601923
v 0.202296 0.173946 -0.466585
v 0.179176 0.177008 -0.494622
v 0.147034 0.173772 -0.522802
v 0.118030 0.158877 -0.530983
v 0.099868 0.158327 -0.548749
v 0.079803 0.157648 -0.568589
v 0.086873 0.151268 -0.551859
v 0.080320 0.150969 -0.558224
v 0.072023 0.155821 -0.573981
v 0.027961 0.119269 -0.565960
v 0.029275 0.123762 -0.571206
v 0.041843 0.137758 -0.578748
v 0.031542 0.131565 -0.580526
v 0.031542 0.131565 -0.580526
v 0.031542 0.131565 -0.580526
v 0.030782 0.098796 -0.557004
v 0.040834 0.074792 -0.545014
v 0.053935 0.059818 -0.524674
v 0.068424 0.054469 -0.498940
v 0.081013 0.029286 -0.482514
v 0.089492 0.015104 -0.470649
v 0.098419 0.010539 -0.455446
v 0.205351 0.171041 -0.475836
v 0.129416 0.021192 -0.502875
v 0.116846 0.012365 -0.488857
v 0.114231 0.003719 -0.493823
v 0.122132 0.009291 -0.502606
v 0.190979 0.098796 -0.531842
v 0.176951 0.074406 -0.533032
v 0.183610 0.077726 -0.542061
v 0.158260 0.039559 -0.537349
v 0.138087 0.027290 -0.512567
v 0.134184 0.017804 -0.516035
v 0.057124 0.141964 -0.602274
v 0.045902 0.136374 -0.598133
v 0.088856 0.131284 -0.611742
v 0.105297 0.098796 -0.614366
v 0.093092 0.064547 -0.607477
v 0.196239 0.167068 -0.462867
v 0.173480 0.169990 -0.490331
v 0.067047 0.045453 -0.504138
v 0.042061 0.053990 -0.548715
v 0.079132 0.059366 -0.602476
v 0.040796 0.126240 -0.562888
v 0.035936 0.109770 -0.544129
v 0.203309 0.141921 -0.505602
v 0.144556 0.167273 -0.515974
v 0.115915 0.152493 -0.523947
v 0.026540 0.114448 -0.560467
v 0.072215 0.147500 -0.561538
v 0.038059 0.123520 -0.585416
v 0.049080 0.127393 -0.597960
v 0.061816 0.048952 -0.581227
v 0.066227 0.047162 -0.584988
v 0.052965 0.064192 -0.578064
v 0.064633 0.059457 -0.588016
v 0.031005 0.102000 -0.570216
v 0.024238 0.109552 -0.566217
v 0.035882 0.059418 -0.558780
v 0.079829 0.020050 -0.487414
v 0.092844 0.023433 -0.461930
v 0.199345 0.164083 -0.472310
v 0.196651 0.131042 -0.505356
v 0.195756 0.098796 -0.541086
v 0.157013 0.044415 -0.529294
v 0.057522 0.131514 -0.601519
v 0.081573 0.123421 -0.608696
v 0.094038 0.098796 -0.610685
v 0.084786 0.072834 -0.605464
v 0.074903 0.069168 -0.601923
v 0.041352 0.068877 -0.568012
v 0.100631 0.020298 -0.448416
v 0.029819 0.055693 -0.654129
v 0.029819 0.066868 -0.654129
v 0.053621 0.058886 -0.608928
v -0.018350 0.072237 -0.688604
v -0.007774 0.073962 -0.672222
v 0.002851 0.068317 -0.639929
v 0.009843 0.076219 -0.643610
v 0.028650 0.070575 -0.595779
v -0.028084 0.098796 -0.683478
v -0.016876 0.098796 -0.667429
v -0.008319 0.098796 -0.634047
v 0.001569 0.098796 -0.639253
v 0.018307 0.098796 -0.590333
v 0.002851 0.129274 -0.639929
v 0.009843 0.121372 -0.643610
v 0.028650 0.127016 -0.595779
v 0.027300 0.064105 -0.658914
v 0.054957 0.068466 -0.606390
v -0.010550 0.077983 -0.686124
v -0.001263 0.081021 -0.675007
v 0.005595 0.074265 -0.647485
v 0.010395 0.080834 -0.652465
v 0.035981 0.077349 -0.596397
v -0.018178 0.098796 -0.682107
v -0.007777 0.098796 -0.671577
v -0.003396 0.098796 -0.642751
v 0.003812 0.098796 -0.648998
v 0.028120 0.098796 -0.592258
v 0.005595 0.123326 -0.647485
v 0.035981 0.120242 -0.596397
v 0.048024 0.126466 -0.599672
v 0.039935 0.133705 -0.594338
v 0.040999 0.123993 -0.591696
v 0.065190 0.048125 -0.586956
v 0.048568 0.054897 -0.572901
v 0.077088 0.059437 -0.603183
v 0.063569 0.060447 -0.590036
v 0.072830 0.069257 -0.602669
v 0.047231 0.067101 -0.576220
v 0.030868 0.130504 -0.584083
v 0.037598 0.122794 -0.587850
v 0.035129 0.060384 -0.561602
v 0.032743 0.066644 -0.561610
v 0.040819 0.069717 -0.570829
v 0.029735 0.098796 -0.570868
v 0.023326 0.107472 -0.567789
v 0.020083 0.098796 -0.566938
v 0.042381 0.133444 -0.603010
v 0.032275 0.129916 -0.619661
v 0.028481 0.074419 -0.661988
v 0.029683 0.121660 -0.628827
v 0.015445 0.072929 -0.681427
v 0.064763 0.073056 -0.611553
v 0.034698 0.069152 -0.656698
v 0.032454 0.066517 -0.661628
v 0.038001 0.059523 -0.658437
v 0.011348 0.063271 -0.693656
v 0.065971 0.064667 -0.615431
v 0.016667 0.064830 -0.685092
v 0.012405 0.133746 -0.644960
v -0.016072 0.126421 -0.689803
v 0.011840 0.126250 -0.650774
v 0.015744 0.124134 -0.646717
v -0.004290 0.125261 -0.674057
v -0.001617 0.098796 -0.688038
v 0.001366 0.090164 -0.689639
v -0.000983 0.116701 -0.675155
v -0.010057 0.119105 -0.686269
v 0.006369 0.061807 -0.701620
v 0.007023 0.069757 -0.695377
v 0.013381 0.118155 -0.654037
v 0.048024 0.126466 -0.599672
v 0.040999 0.123993 -0.591696
v 0.065190 0.048125 -0.586956
v 0.048568 0.054897 -0.572901
v 0.077088 0.059437 -0.603183
v 0.015445 0.072929 -0.681427
v 0.032454 0.066517 -0.661628
v 0.035129 0.060384 -0.561602
v 0.032743 0.066644 -0.561610
v 0.040819 0.069717 -0.570829
v 0.029735 0.098796 -0.570868
v 0.030868 0.130504 -0.584083
v 0.023326 0.107472 -0.567789
v 0.020083 0.098796 -0.566938
v 0.042381 0.133444 -0.603010
v 0.032275 0.129916 -0.619661
v 0.072830 0.069257 -0.602669
v 0.064763 0.073056 -0.611553
v 0.034698 0.069152 -0.656698
v 0.038001 0.059523 -0.658437
v 0.065971 0.064667 -0.615431
v 0.016667 0.064830 -0.685092
v 0.012405 0.133746 -0.644960
v 0.015744 0.124134 -0.646717
v -0.004290 0.125261 -0.674057
v -0.001617 0.098796 -0.688038
v 0.001366 0.090164 -0.689639
v 0.011840 0.126250 -0.650774
v -0.000983 0.116701 -0.675155
v -0.010057 0.119105 -0.686269
v 0.029683 0.121660 -0.628827
v 0.013381 0.118155 -0.654037
v 0.011348 0.063271 -0.693656
v 0.063569 0.060447 -0.590036
v 0.047231 0.067101 -0.576220
v 0.039935 0.133705 -0.594338
v 0.037598 0.122794 -0.587850
v 0.028481 0.074419 -0.661988
v -0.016072 0.126421 -0.689803
v 0.006369 0.061807 -0.701620
v 0.007023 0.069757 -0.695377
v 0.124619 0.059720 -0.291789
v 0.056787 0.050256 -0.498735
v 0.051474 0.033324 -0.472483
v 0.064076 0.026551 -0.434014
v 0.022258 0.098796 -0.538288
v 0.038997 0.098796 -0.489368
v 0.027478 0.098796 -0.459848
v 0.059210 0.039493 -0.471033
v 0.070824 0.033576 -0.436276
v 0.032036 0.098796 -0.540382
v 0.113917 0.026551 -0.339362
v 0.111305 0.024058 -0.357241
v 0.049544 0.100349 -0.488998
v 0.040845 0.103838 -0.490341
v 0.027088 0.111973 -0.540831
v 0.026244 0.113253 -0.558366
v 0.045330 0.098796 -0.429732
v 0.038995 0.102943 -0.460389
v 0.034086 0.105488 -0.471787
v 0.042139 0.099073 -0.411694
v 0.088163 0.077290 -0.343162
v 0.047323 0.097698 -0.423901
v 0.092720 0.076206 -0.356200
v 0.038407 0.101005 -0.420498
v 0.030266 0.106401 -0.461315
v 0.122232 0.061863 -0.312521
v 0.023313 0.107021 -0.565692
v 0.020239 0.098796 -0.564883
v 0.032234 0.068362 -0.559678
v 0.043887 0.053568 -0.541773
v 0.040487 0.054727 -0.547886
v 0.036479 0.058261 -0.554482
v 0.112694 0.033358 -0.356293
v 0.097220 0.011056 -0.452535
v 0.099567 0.021305 -0.445173
v 0.035501 0.108248 -0.542206
v 0.031060 0.098796 -0.553317
v 0.038742 0.080500 -0.543913
v 0.066671 0.055289 -0.498017
v 0.058572 0.058273 -0.512552
v 0.079109 0.030178 -0.481512
v 0.065282 0.046280 -0.503208
v 0.096993 0.021325 -0.450056
v 0.077910 0.020948 -0.486403
v 0.040845 0.103838 -0.490341
v 0.027088 0.111973 -0.540831
v 0.045330 0.098796 -0.429732
v 0.038995 0.102943 -0.460389
v 0.034086 0.105488 -0.471787
v 0.047323 0.097698 -0.423901
v 0.042139 0.099073 -0.411694
v 0.038407 0.101005 -0.420498
v 0.030266 0.106401 -0.461315
v 0.092720 0.076206 -0.356200
v 0.122232 0.061863 -0.312521
v 0.026244 0.113253 -0.558366
v 0.020239 0.098796 -0.564883
v 0.032234 0.068362 -0.559678
v 0.043887 0.053568 -0.541773
v 0.040487 0.054727 -0.547886
v 0.036479 0.058261 -0.554482
v 0.112694 0.033358 -0.356293
v 0.035501 0.108248 -0.542206
v 0.031060 0.098796 -0.553317
v 0.038742 0.080500 -0.543913
v 0.058572 0.058273 -0.512552
v 0.099567 0.021305 -0.445173
v 0.065282 0.046280 -0.503208
v 0.079109 0.030178 -0.481512
v 0.096993 0.021325 -0.450056
v 0.097220 0.011056 -0.452535
v 0.077910 0.020948 -0.486403
v 0.049544 0.100349 -0.488998
v 0.066671 0.055289 -0.498017
v 0.023313 0.107021 -0.565692
v 0.113917 0.026551 -0.339362
v 0.111305 0.024058 -0.357241
v 0.124619 0.059720 -0.291789
v 0.088163 0.077290 -0.343162
vn 0.8606 -0.3401 0.3792
vn 0.8600 -0.3384 0.3820
vn 0.3252 -0.2447 -0.9134
vn 0.8617 -0.3400 0.3767
vn 0.3511 0.3638 -0.8627
vn 0.3492 0.3674 -0.8620
vn -0.0000 -0.0000 1.0000
vn -0.2178 0.5163 0.8283
vn 0.2110 0.5191 0.8283
vn -0.2110 -0.5191 0.8283
vn -0.5163 -0.2178 0.8283
vn -0.5191 0.2110 0.8283
vn -0.3887 0.9214 -0.0000
vn 0.3766 0.9264 -0.0000
vn 0.9214 0.3887 -0.0000
vn 0.3887 -0.9214 -0.0000
vn -0.3766 -0.9264 -0.0000
vn -0.9214 -0.3887 -0.0000
vn -0.9264 0.3766 -0.0000
vn -0.0034 0.0079 -1.0000
vn 0.0032 0.0080 -1.0000
vn 0.0079 0.0034 -1.0000
vn 0.0080 -0.0036 -1.0000
vn 0.0033 -0.0080 -1.0000
vn -0.0032 -0.0080 -1.0000
vn -0.0079 -0.0034 -1.0000
vn -0.0080 0.0032 -1.0000
vn 0.1987 -0.4710 -0.8595
vn -0.1925 -0.4736 -0.8595
vn 0.1925 0.4736 -0.8595
vn 0.4710 0.1987 -0.8595
vn 0.4736 -0.1925 -0.8595
vn 0.3887 -0.9214 0.0032
vn -0.3766 -0.9264 0.0032
vn -0.9214 -0.3887 0.0032
vn -0.3887 0.9214 0.0032
vn 0.3766 0.9264 0.0032
vn 0.9214 0.3887 0.0032
vn 0.9264 -0.3766 0.0032
vn -0.0009 0.9812 0.1930
vn 0.0193 0.9764 -0.2152
vn -0.0018 0.9801 0.1986
vn -0.0008 0.9801 0.1983
vn -0.2928 0.2627 0.9194
vn 0.8605 0.4604 -0.2183
vn 0.8629 0.4557 -0.2186
vn 0.1154 0.2851 0.9515
vn 0.2364 0.0001 0.9717
vn 0.3609 -0.8554 -0.3717
vn -0.3620 -0.8741 -0.3239
vn 0.2659 -0.6304 -0.7293
vn -0.2577 -0.6338 -0.7293
vn -0.6304 -0.2659 -0.7293
vn 0.9296 -0.3686 0.0010
vn 0.3847 -0.9119 -0.1429
vn -0.3901 -0.9064 -0.1618
vn -0.9119 -0.3847 -0.1429
vn 0.3795 -0.8995 -0.2165
vn -0.3677 -0.9044 -0.2165
vn -0.8995 -0.3795 -0.2165
vn -0.3733 0.8507 0.3701
vn 0.3496 0.8599 0.3720
vn -0.2647 0.6275 0.7322
vn 0.2565 0.6309 0.7322
vn 0.6275 0.2647 0.7322
vn -0.9254 0.3789 0.0051
vn -0.3840 0.9103 0.1548
vn 0.3721 0.9152 0.1548
vn 0.9103 0.3840 0.1548
vn -0.3801 0.9010 0.2091
vn 0.3683 0.9059 0.2091
vn 0.9010 0.3801 0.2091
vn 0.0184 0.9801 -0.1976
vn -0.1981 0.3508 -0.9153
vn -0.2550 0.4634 -0.8487
vn -0.2342 -0.0035 -0.9722
vn -0.1756 0.0371 -0.9838
vn -0.8600 0.3386 -0.3817
vn -0.9176 0.3973 0.0091
vn 0.5163 0.2178 0.8283
vn 0.5191 -0.2110 0.8283
vn 0.1984 -0.4996 0.8432
vn 0.9264 -0.3766 -0.0000
vn 0.0080 -0.0032 -1.0000
vn 0.0034 -0.0079 -1.0000
vn -0.4884 -0.2199 -0.8444
vn -0.4736 0.1925 -0.8595
vn -0.2010 0.4862 -0.8504
vn -0.9202 -0.3911 -0.0172
vn -0.3880 0.9216 -0.0079
vn 0.3948 0.5069 0.7663
vn 0.3935 0.5073 0.7667
vn -0.0052 0.1976 0.9803
vn -0.0387 0.1648 0.9856
vn 0.2453 0.6860 0.6850
vn -0.7026 0.6953 0.1513
vn -0.6833 0.7148 0.1487
vn -0.9827 0.1367 0.1253
vn -0.9830 0.1354 0.1241
vn -0.7829 0.4711 -0.4065
vn -0.7825 0.4708 -0.4075
vn -0.7429 0.6694 -0.0077
vn 0.2195 -0.2618 -0.9398
vn -0.1081 -0.6321 -0.7673
vn 0.8175 -0.3827 -0.4305
vn 0.3386 -0.9239 -0.1783
vn -0.3394 -0.9236 0.1781
vn -0.8383 -0.3199 0.4414
vn 0.3386 0.9239 -0.1783
vn 0.8170 0.3830 -0.4311
vn 0.6972 -0.3736 -0.6118
vn 0.2297 -0.9020 -0.3656
vn -0.4314 -0.9020 -0.0175
vn 0.6972 0.3736 -0.6118
vn -0.2156 0.2606 0.9411
vn 0.1105 0.6292 0.7693
vn -0.8160 0.3827 0.4332
vn -0.3371 0.9239 0.1811
vn 0.3401 0.9239 -0.1755
vn 0.8189 0.3827 -0.4277
vn -0.3371 -0.9239 0.1811
vn -0.8160 -0.3827 0.4332
vn -0.7020 0.3742 0.6059
vn -0.2337 0.9035 0.3593
vn 0.4285 0.9035 0.0106
vn -0.7020 -0.3742 0.6059
vn -0.7620 -0.3628 0.5363
vn -0.7611 -0.3619 0.5382
vn 0.2804 0.0972 0.9549
vn 0.3107 0.0840 0.9468
vn -0.4659 -0.0000 -0.8848
vn 0.7425 -0.3788 -0.5525
vn 0.2686 -0.9144 -0.3029
vn -0.4017 0.9144 0.0501
vn 0.2686 0.9144 -0.3029
vn 0.7425 0.3788 -0.5525
vn 0.4659 -0.0000 0.8848
vn 0.6983 -0.3737 -0.6105
vn 0.2306 -0.9023 -0.3642
vn -0.4308 0.9023 -0.0160
vn 0.2306 0.9023 -0.3642
vn 0.6983 0.3737 -0.6105
vn 0.8657 -0.3801 -0.3256
vn 0.3900 -0.9177 -0.0751
vn -0.2827 0.9177 0.2791
vn 0.3900 0.9177 -0.0751
vn 0.8657 0.3801 -0.3256
vn 0.5857 -0.3553 -0.7285
vn 0.1412 -0.8577 -0.4944
vn -0.4875 0.8577 -0.1633
vn 0.1412 0.8577 -0.4944
vn 0.5857 0.3553 -0.7285
vn 0.5845 -0.0580 0.8093
vn 0.5119 -0.1401 0.8476
vn 0.4117 -0.1430 0.9000
vn 0.3366 -0.0580 0.9399
vn 0.3366 0.0580 0.9399
vn 0.4092 0.1401 0.9016
vn 0.5119 0.1401 0.8476
vn 0.5845 0.0580 0.8093
vn -0.7809 0.3816 0.4946
vn -0.3033 0.9214 0.2431
vn 0.3989 -0.9103 -0.1103
vn -0.3218 -0.9093 0.2640
vn -0.7809 -0.3816 0.4946
vn -0.2513 -0.0938 -0.9633
vn -0.3687 -0.2265 -0.9015
vn -0.5347 0.2265 -0.8141
vn -0.3687 0.2265 -0.9015
vn -0.2513 0.0938 -0.9633
vn -0.6363 0.3644 0.6799
vn -0.1803 0.8798 0.4398
vn 0.4646 -0.8798 0.1002
vn -0.1803 -0.8798 0.4398
vn -0.6363 -0.3644 0.6799
vn -0.9129 0.3685 0.1757
vn -0.4518 0.8896 -0.0671
vn 0.3678 -0.8676 -0.3346
vn -0.4518 -0.8896 -0.0671
vn -0.9129 -0.3685 0.1757
vn -0.5855 0.3552 0.7287
vn -0.1410 0.8576 0.4947
vn -0.1410 -0.8576 0.4947
vn -0.5855 -0.3552 0.7287
vn -0.5035 0.7098 0.4927
vn -0.5042 0.7143 0.4854
vn -0.5123 0.7157 0.4746
vn -0.6841 -0.2566 -0.6828
vn -0.7102 -0.2215 -0.6682
vn -0.6898 -0.2604 -0.6755
vn -0.8752 -0.1343 0.4648
vn -0.8716 -0.1407 0.4696
vn 0.7834 -0.4703 0.4064
vn 0.7839 -0.4706 0.4051
vn -0.3104 -0.0823 -0.9470
vn -0.4875 -0.8577 -0.1633
vn -0.9321 0.3553 0.0708
vn -0.5715 -0.6321 -0.5233
vn -0.1081 0.6321 -0.7673
vn 0.2195 0.2618 -0.9398
vn 0.8175 0.3827 -0.4305
vn -0.4017 -0.9144 0.0501
vn 0.2297 0.9020 -0.3656
vn 0.7015 0.3718 -0.6081
vn 0.4876 0.8576 0.1637
vn 0.9405 0.3392 -0.0188
vn 0.9321 -0.3552 -0.0704
vn 0.5145 -0.8495 0.1172
vn 0.5718 0.6292 0.5264
vn 0.1105 -0.6292 0.7693
vn -0.2156 -0.2606 0.9411
vn -0.8209 -0.3689 0.4358
vn -0.7355 0.3781 0.5622
vn -0.2624 0.9127 0.3131
vn 0.4066 0.9127 -0.0392
vn 0.8797 0.3781 -0.2883
vn 0.4066 -0.9127 -0.0392
vn -0.2624 -0.9127 0.3131
vn -0.7355 -0.3781 0.5622
vn 0.4203 0.9074 0.0016
vn -0.2337 -0.9035 0.3593
vn 0.7390 0.4699 0.4828
vn 0.6831 0.2604 0.6824
vn 0.6814 0.2607 0.6839
vn -0.0870 0.1294 0.9878
vn 0.7623 0.3587 -0.5387
vn 0.7588 0.3625 -0.5411
vn -0.8757 -0.3788 0.2996
vn -0.8757 0.3788 0.2996
vn -0.4142 -0.9084 -0.0566
vn -0.8985 -0.3737 0.2303
vn -0.8924 0.4125 0.1830
vn 0.3910 -0.9173 -0.0750
vn -0.2254 -0.9339 0.2777
vn -0.7583 -0.3801 0.5296
vn -0.7147 0.4527 0.5332
vn -0.9321 -0.3553 0.0708
vn 0.4092 -0.1401 0.9016
vn 0.3435 0.9356 -0.0811
vn 0.8496 0.3816 -0.3640
vn 0.8368 -0.4328 -0.3353
vn 0.4027 -0.9077 -0.1179
vn -0.5224 -0.2092 -0.8266
vn -0.6521 -0.0938 -0.7523
vn -0.6276 0.0933 -0.7729
vn 0.4646 0.8798 0.1002
vn 0.9207 0.3644 -0.1399
vn 0.9197 -0.3686 -0.1352
vn 0.2433 0.8873 -0.3917
vn 0.6614 0.3685 -0.6533
vn 0.6632 -0.3884 -0.6398
vn 0.9321 0.3552 -0.0704
vn 0.4876 -0.8576 0.1637
vn 0.9825 -0.1389 -0.1241
vn 0.3725 0.9268 0.0473
vn 0.3620 0.9308 0.0509
vn 0.3720 0.9267 0.0530
vn 0.0933 -0.1320 -0.9868
vn 0.8768 0.1303 -0.4629
vn 0.9828 -0.1338 -0.1270
vn 0.8772 0.1309 -0.4619
vn -0.9200 -0.3720 0.1233
vn -0.8991 -0.2618 -0.3508
vn -0.8991 0.2618 -0.3508
vn -0.3352 -0.9255 0.1762
vn -0.8206 -0.3798 0.4270
vn -0.8751 -0.3970 0.2767
vn -0.8969 -0.3650 0.2498
vn -0.8989 0.3736 0.2287
vn 0.9031 0.2471 0.3512
vn 0.8707 0.3721 -0.3217
vn 0.8797 -0.3781 -0.2883
vn 0.9138 0.3534 -0.2004
vt 0.672990 0.410217
vt 0.377079 0.000000
vt 0.410163 0.000000
vt 0.734640 0.451034
vt 0.787968 0.509655
vt 0.891164 0.554664
vt 1.000000 0.504175
vt 1.000000 0.584883
vt 0.929642 0.615790
vt 0.794268 0.543304
vt 0.807598 0.000000
vt 1.000000 0.170045
vt 1.000000 0.203247
vt 0.769511 0.000000
vt 0.584883 0.584883
vt 0.504124 0.500413
vt 0.504323 0.434274
vt 0.507361 0.280591
vt 0.507849 0.262500
vt 0.417214 0.201239
vt 0.299770 0.194231
vt 0.203247 0.203247
vt 0.170045 0.170045
vt 0.228696 0.164664
vt 0.453824 0.178356
vt 0.585952 0.257834
vt 0.555616 0.278626
vt 0.397499 0.000000
vt 0.433062 0.000000
vt 0.568415 0.238934
vt 0.837117 0.358542
vt 1.000000 0.202646
vt 1.000000 0.267777
vt 0.851802 0.409921
vt 1.000000 0.622921
vt 0.267777 0.267777
vt 0.202646 0.202646
vt 1.000000 0.589837
vt 0.473010 0.000000
vt 1.000000 0.192401
vt 1.000000 0.230489
vt 0.367377 0.000000
vt 1.000000 0.424430
vt 0.739977 0.130417
vt 0.566938 0.000000
vt 0.602501 0.000000
vt 0.768610 0.125240
vt 1.000000 0.387175
vt 0.750419 0.656282
vt 1.000000 0.748647
vt 1.000000 0.785641
vt 0.779057 0.703757
vt 0.473010 0.473010
vt 0.367377 0.367377
vt 0.737122 0.532486
vt 0.785642 0.785642
vt 0.748647 0.748647
vt 0.715523 0.576145
vt 0.500101 0.365375
vt 0.424430 0.424430
vt 0.387175 0.387175
vt 0.500073 0.299554
vt 1.000000 -1.682853
vt 0.875000 -1.682853
vt 0.750000 -1.682853
vt 0.638299 -1.682853
vt 0.559315 -1.682853
vt 0.233411 -1.682853
vt 0.125000 -1.682853
vt 0.000000 -1.682853
vt 0.125000 -1.590575
vt 0.000000 -1.590575
vt 0.232058 -1.590575
vt 0.233411 -1.682853
vt 0.638299 -1.682853
vt 0.750000 -1.590575
vt 0.639770 -1.590575
vt 0.875000 -1.590575
vt 1.000000 -1.590575
vt 0.000000 -0.762087
vt 0.000000 -1.005697
vt 0.125000 -1.005697
vt 0.250000 -1.590575
vt 0.125000 -1.433625
vt 0.125000 -1.103571
vt 0.125000 -1.053588
vt 0.250000 -1.103571
vt 0.250000 -1.433625
vt 0.250000 -1.392756
vt 0.250000 -1.214736
vt 0.250000 -1.052257
vt 0.500000 -0.883700
vt 0.500000 -1.082479
vt 0.500000 -1.460250
vt 0.500000 -0.809840
vt 0.625000 -0.615174
vt 0.625000 -0.809840
vt 0.625000 -1.460250
vt 0.750000 -0.615174
vt 0.750000 -0.515483
vt 0.750000 -0.487632
vt 0.875000 -0.515483
vt 0.875000 -0.762087
vt 0.875000 -0.644162
vt 0.244276 -1.682853
vt 0.238946 -1.682853
vt 0.298486 -1.682853
vt 0.250000 -1.682853
vt 0.375000 -1.682853
vt 0.423937 -1.682853
vt 0.502758 -1.682853
vt 0.619915 -1.682853
vt 0.500000 -1.682853
vt 0.627504 -1.682853
vt 0.625000 -1.682853
vt 0.244276 -1.682853
vt 0.239705 -1.590575
vt 0.632151 -1.590575
vt 0.627504 -1.682853
vt 0.000000 -0.771039
vt 0.125000 -0.996815
vt 0.125000 -0.996815
vt 0.125000 -1.030650
vt 0.250000 -1.087879
vt 0.250000 -1.507077
vt 0.239705 -1.590575
vt 0.250000 -1.221863
vt 0.250000 -1.438615
vt 0.250000 -1.087879
vt 0.375000 -1.021847
vt 0.625000 -0.805324
vt 0.625000 -1.532063
vt 0.500000 -1.109307
vt 0.500000 -0.888304
vt 0.750000 -0.625168
vt 0.625000 -0.805324
vt 0.875000 -0.543315
vt 0.750000 -0.625168
vt 0.875000 -0.513372
vt 0.875000 -0.543315
vt 1.000000 -0.689964
vt 1.000000 -0.771039
vt 1.000000 0.570902
vt 0.424409 0.000000
vt 0.463261 0.000000
vt 1.000000 0.532228
vt 0.077977 0.077977
vt 0.257073 0.060120
vt 0.132061 0.132061
vt 1.000000 0.536739
vt 1.000000 0.575591
vt 0.620985 0.620985
vt 0.586840 0.586840
vt 0.025384 0.025384
vt 0.000000 0.000000
vt 0.157749 0.000000
vt 0.808020 0.000000
vt 0.646044 0.169151
vt 0.765045 0.436946
vt 1.000000 0.569048
vt 1.000000 0.604628
vt 0.725274 0.449893
vt 0.594634 0.154677
vt 0.743069 0.000000
vt 0.945485 0.000000
vt 1.000000 0.059073
vt 1.000000 0.166923
vt 0.739101 0.000000
vt 0.127388 0.000000
vt 0.157749 0.157749
vt 0.739101 0.739101
vt 0.715595 0.709542
vt 0.600348 0.418485
vt 0.454835 0.222350
vt 0.127388 0.127388
vt 0.077761 0.000000
vt 0.390571 0.086322
vt 0.447148 0.136737
vt 0.599288 0.348311
vt 0.716128 0.642436
vt 0.902357 0.871718
vt 0.945485 0.945485
vt 1.000000 1.000000
vt 0.320075 0.320075
vt 0.052605 0.000000
vt 0.190739 0.000000
vt 1.000000 0.247372
vt 0.809741 0.144631
vt 0.809261 0.000000
vt 0.947395 0.000000
vt 0.947773 0.156604
vt 1.000000 0.184830
vt 0.544130 0.707132
vt 0.625000 0.707132
vt 0.625000 0.882381
vt 0.607972 0.862166
vt 0.557359 0.796152
vt 0.553650 0.766535
vt 0.750000 0.707132
vt 0.750000 0.736751
vt 0.645400 0.864742
vt 0.517451 0.291884
vt 0.625000 0.291884
vt 0.625000 0.411844
vt 0.517410 0.411844
vt 0.750000 0.291884
vt 0.750000 0.411844
vt 0.798788 0.411844
vt 0.827723 0.291884
vt 0.375000 -0.036882
vt 0.375000 -0.662731
vt 0.375000 -0.826284
vt 0.375000 -0.832816
vt 0.375000 -0.847838
vt 0.500000 -0.872116
vt 0.500000 -0.794224
vt 0.500000 0.061190
vt 0.500000 -0.036882
vt 0.500000 -0.847838
vt 0.625000 -0.600414
vt 0.625000 0.061190
vt 0.625000 -0.794224
vt 0.750000 -0.460149
vt 0.750000 -0.219016
vt 0.750000 -0.155313
vt 0.750000 0.061190
vt 0.750000 -0.600414
vt 0.517410 0.411844
vt 0.798788 0.411844
vt 0.506099 0.061190
vt 0.517451 0.291884
vt 0.846612 0.061190
vt 0.827723 0.291884
vt 0.625000 0.800537
vt 0.544358 0.707132
vt 0.716218 0.707132
vt 0.509678 0.411844
vt 0.511987 0.291884
vt 0.790491 0.411844
vt 0.824436 0.291884
vt 0.445171 -0.852120
vt 0.437646 -0.823177
vt 0.432234 -0.736909
vt 0.441895 -0.619458
vt 0.500000 0.046611
vt 0.500000 -0.868691
vt 0.500000 0.061180
vt 0.625000 -0.789729
vt 0.500000 -0.874911
vt 0.500000 -0.868691
vt 0.750000 -0.610385
vt 0.750000 -0.610385
vt 0.750000 0.060208
vt 0.875000 -0.155505
vt 0.875000 -0.216034
vt 0.875000 -0.501893
vt 0.509678 0.411844
vt 0.513162 0.447096
vt 0.750000 0.642861
vt 0.716218 0.707132
vt 0.750000 0.642861
vt 0.500980 0.061190
vt 0.843521 0.061190
vt 0.528637 0.424389
vt 0.762604 0.335021
vt 0.829638 0.267141
vt 0.924733 0.115817
vt 0.833077 0.000000
vt 0.940926 0.000000
vt 1.000000 0.077976
vt 1.000000 0.132061
vt 0.869249 0.339987
vt 0.840346 0.358098
vt 0.555603 0.463301
vt 0.570494 0.136580
vt 0.588879 0.380069
vt 0.570902 0.570902
vt 0.532228 0.532228
vt 0.549394 0.344252
vt 0.533953 0.124909
vt 1.000000 0.149536
vt 1.000000 0.028214
vt 0.149536 0.149536
vt 0.028214 0.028214
vt 0.289623 0.108575
vt 0.348842 0.000000
vt 0.456568 0.000000
vt 0.343511 0.208853
vt 0.837179 0.047550
vt 1.000000 0.032186
vt 1.000000 0.170734
vt 0.848933 0.184847
vt 0.745657 0.000000
vt 1.000000 0.031248
vt 0.170734 0.170734
vt 0.223506 0.000000
vt 0.745657 0.745657
vt 0.435084 0.428996
vt 0.390691 0.340134
vt 0.420807 0.257802
vt 0.848605 0.258435
vt 0.961088 0.340979
vt 0.483745 0.409438
vt 1.000000 0.543432
vt 1.000000 0.651158
vt 0.971273 0.411668
vt 0.947395 0.363692
vt 0.859731 0.307097
vt 0.695239 0.308552
vt 0.624181 0.308436
vt 0.457365 0.306446
vt 0.445440 0.325123
vt 0.427116 0.362922
vt 0.439257 0.387136
vt 0.810589 0.810589
vt 0.237747 -1.682853
vt 0.500000 -0.879830
vt 0.500000 -1.590575
vt 0.375000 -1.590575
vt 0.375000 -0.946637
vt 0.442600 -0.861901
vt 0.237747 -1.682853
vt 0.235303 -1.590575
vt 0.625000 -1.590575
vt 0.633913 -1.682853
vt 0.636357 -1.590575
vt 0.125000 -1.461901
vt 0.250000 -1.461901
vt 0.250000 -0.919080
vt 0.250000 -1.044027
vt 0.375000 -0.842675
vt 0.375000 -0.843730
vt 0.375000 -0.859683
vt 0.375000 -0.919080
vt 0.375000 -0.858999
vt 0.500000 -0.881254
vt 0.500000 -0.858999
vt 0.500000 -1.491108
vt 0.625000 -1.491108
vt 0.302185 -1.682853
vt 0.427664 -1.682853
vt 0.622007 -1.682853
vt 0.622007 -1.682853
vt 0.625000 -1.652331
vt 0.250000 -1.535810
vt 0.375000 -1.012725
vt 0.375000 -0.946637
vt 0.625000 -1.562935
vt 0.500000 -0.885753
vt 0.813582 0.551324
vt 0.844496 0.345232
vt 1.000000 0.417909
vt 1.000000 0.452874
vt 0.910002 0.410704
vt 0.881002 0.597072
vt 1.000000 0.745161
vt 1.000000 0.783206
vt 0.413784 0.091913
vt 0.452874 0.452874
vt 0.417909 0.417909
vt 0.381528 0.084847
vt 0.407902 0.000000
vt 0.442399 0.000000
vt 1.000000 0.348716
vt 1.000000 0.456371
vt 0.923325 0.703032
vt 0.783206 0.783206
vt 0.745161 0.745161
vt 0.905330 0.653742
vt 0.350568 0.000000
vt 1.000000 0.000000
vt 1.000000 0.155235
vt 0.456371 0.456371
vt 0.348716 0.348716
vt 1.000000 0.257293
vt 1.000000 0.380369
vt 0.155235 0.155235
vt 0.038176 0.000000
vt 0.296051 0.156257
vt 0.380369 0.380369
vt 0.257293 0.257293
vt 0.237504 0.204961
vt 1.000000 0.557601
vt 1.000000 0.592098
vt 0.395738 0.000000
vt 0.430959 0.000000
vt 0.463384 0.000000
vt 0.414850 0.414850
vt 0.380916 0.380916
vt 0.424915 0.000000
vt 1.000000 0.855147
vt 0.977344 0.977344
vt 0.321529 0.000000
vt 0.385431 0.000000
vt 0.572272 0.231887
vt 0.855147 0.855147
vt 0.435320 0.140882
vt 0.321529 0.321529
vt 0.409383 0.000000
vt 0.492285 0.003976
vt 0.385431 0.385431
vt 1.000000 0.409616
vt 0.947654 0.359790
vt 0.590991 0.044297
vt 0.526556 0.000000
vt 0.564483 0.000000
vt 0.623834 0.040766
vt 1.000000 0.373810
vt 1.000000 0.754368
vt 1.000000 0.794316
vt 0.904433 0.757862
vt 0.491776 0.491776
vt 0.409383 0.409383
vt 0.491826 0.465957
vt 0.848035 0.696158
vt 0.760762 0.611862
vt 0.794316 0.794316
vt 0.754369 0.754369
vt 0.729543 0.618523
vt 0.681589 0.441183
vt 0.598433 0.340319
vt 0.500156 0.270826
vt 0.409616 0.409616
vt 0.373810 0.373810
vt 0.500183 0.182450
vt 0.587932 0.245134
vt 0.697621 0.377804
vt 0.532612 0.532612
vt 0.536616 0.000000
vt 0.575085 0.000000
vt 0.570937 0.570937
vt 0.125000 0.291884
vt 0.125000 0.330662
vt 0.050906 0.291884
vt 0.188283 0.291884
vt 0.125000 0.330662
vt 0.000000 -0.993928
vt 0.000000 0.061190
vt 0.000000 -0.749925
vt 0.125000 -1.091629
vt 0.125000 0.061190
vt 0.125000 -0.993928
vt 0.125000 -1.039401
vt 0.250000 0.061190
vt 0.250000 -1.091629
vt 0.250000 -1.035609
vt 0.250000 -0.995954
vt 0.250000 -0.907700
vt 0.250000 -0.580707
vt 0.250000 -0.464749
vt 0.375000 -0.907700
vt 0.375000 -0.834609
vt 0.375000 -0.580707
vt 0.750000 -0.475543
vt 0.750000 -0.483189
vt 0.750000 -0.502458
vt 0.750000 -0.116885
vt 0.750000 -0.156769
vt 0.750000 -0.218281
vt 0.875000 -0.116885
vt 0.875000 -0.502458
vt 0.875000 -0.663650
vt 0.875000 -0.749925
vt 0.875000 0.061190
vt 0.050906 0.291884
vt 0.000000 0.244027
vt 0.250000 0.223253
vt 0.228229 0.248776
vt 0.188283 0.291884
vt 0.306741 0.065803
vt 0.931822 0.061190
vt 1.000000 0.061190
vt 1.000000 0.244027
vt 0.062944 0.291884
vt 0.125000 0.321679
vt 0.178001 0.291884
vt 0.125000 -0.984873
vt 0.000000 -0.758750
vt 0.250000 -1.075529
vt 0.125000 -1.014980
vt 0.125000 -0.984873
vt 0.375000 -0.935157
vt 0.375000 -0.956069
vt 0.375000 -1.004416
vt 0.250000 -1.075528
vt 0.250000 0.060624
vt 0.250000 0.026912
vt 0.375000 -0.423199
vt 0.375000 -0.495326
vt 0.375000 -0.911612
vt 0.375000 -0.935157
vt 0.375000 -0.495326
vt 0.431471 -0.749581
vt 0.434518 -0.851858
vt 0.875000 -0.115499
vt 0.875000 -0.530002
vt 0.875000 -0.508456
vt 0.875000 -0.485558
vt 0.875000 -0.215489
vt 0.875000 -0.141697
vt 1.000000 -0.758750
vt 1.000000 -0.707650
vt 0.875000 -0.530002
vt 0.875000 -0.115499
vt 0.875000 0.060547
vt 0.000000 0.232432
vt 0.062944 0.291884
vt 0.178001 0.291884
vt 0.211430 0.256322
vt 0.250000 0.211419
vt 0.303860 0.061190
vt 0.250000 0.211419
vt 0.936246 0.061190
vt 0.947286 0.090941
vt 1.000000 0.232432
vt 0.947178 0.549106
vt 0.974258 0.587237
vt 0.743836 0.519246
vt 0.627455 0.503956
vt 0.445418 0.247633
vt 0.573619 0.279567
vt 0.765355 0.293086
vt 0.792435 0.331217
vt 1.000000 0.355156
vt 1.000000 0.381253
vt 0.760539 0.344272
vt 0.751691 0.315214
vt 0.601396 0.314326
vt 0.509686 0.290964
vt 0.579530 0.371336
vt 0.600548 0.400754
vt 0.644460 0.483315
vt 0.723225 0.485871
vt 0.919825 0.551961
vt 0.883655 0.517628
vt 1.000000 0.544319
vt 1.000000 0.562946
vt 0.884947 0.053724
vt 0.562946 0.562946
vt 0.544319 0.544319
vt 0.877061 0.000000
vt 0.381253 0.381253
vt 0.355156 0.355156
vt 0.447122 0.173851
vt 0.514456 0.000000
vt 0.567484 0.000000
vt 0.518606 0.126273
vt 1.000000 0.075555
vt 1.000000 0.122939
vt 0.926359 0.066067
vt 0.769041 0.032070
vt 0.755541 0.156077
vt 0.912950 0.370731
vt 1.000000 0.432516
vt 1.000000 0.485544
vt 0.876163 0.397644
vt 0.667447 0.113025
vt 0.679736 0.000000
vt 0.902161 0.000000
vt 0.902161 0.902161
vt 0.679736 0.679736
vt 0.738468 0.691906
vt 0.875000 1.585305
vt 0.000000 1.585305
vt 0.125000 1.585305
vt 0.236537 1.585305
vt 0.644077 1.585305
vt 0.750000 1.585305
vt 0.000000 1.279252
vt 0.000000 0.983964
vt 0.125000 0.983964
vt 0.125000 1.279252
vt 0.212079 1.279252
vt 0.182421 0.983964
vt 0.190977 1.076503
vt 0.698460 0.983964
vt 0.750000 0.983964
vt 0.750000 1.279252
vt 0.668534 1.279252
vt 0.674542 1.233509
vt 0.875000 1.279252
vt 0.875000 0.983964
vt 1.000000 1.279252
vt 1.000000 0.983964
vt 0.212079 1.279252
vt 0.206434 1.279252
vt 0.674179 1.279252
vt 0.000000 1.473035
vt 0.125000 1.473035
vt 0.228872 1.473035
vt 0.206434 1.279252
vt 0.750000 1.473035
vt 0.651742 1.473035
vt 0.875000 1.473035
vt 1.000000 1.473035
vt 0.236537 1.585305
vt 0.228872 1.473035
vt 0.651742 1.473035
vt 1.000000 1.585305
vt 0.125000 0.880061
vt 0.000000 0.882412
vt 0.180144 0.891838
vt 0.182421 0.983964
vt 0.125000 0.880061
vt 0.703005 0.958536
vt 0.750000 0.949543
vt 0.875000 0.913085
vt 0.750000 0.949543
vt 1.000000 0.882412
vt 0.918426 0.903387
vt 0.245406 1.585305
vt 0.250000 1.585305
vt 0.375000 1.585305
vt 0.260092 1.585305
vt 0.500000 1.585305
vt 0.455499 1.585305
vt 0.625000 1.585305
vt 0.581192 1.585306
vt 0.645410 1.585305
vt 0.223538 1.279252
vt 0.192983 1.090930
vt 0.177996 0.983964
vt 0.702886 0.983964
vt 0.672118 1.193225
vt 0.657075 1.279252
vt 0.223538 1.279252
vt 0.213410 1.279252
vt 0.667203 1.279252
vt 0.657075 1.279252
vt 0.243743 1.473035
vt 0.636870 1.473035
vt 0.667203 1.279252
vt 0.245405 1.585305
vt 0.243743 1.473035
vt 0.636870 1.473035
vt 0.635208 1.585305
vt 0.125000 0.908506
vt 0.000000 0.910286
vt 0.177996 0.983964
vt 0.176489 0.916814
vt 0.875000 0.933382
vt 1.000000 0.910286
vt 0.956608 0.956608
vt 0.851800 0.851800
vt 1.000000 0.926602
vt 1.000000 0.978520
vt 0.900185 0.550570
vt 1.000000 0.687656
vt 1.000000 0.740221
vt 0.844081 0.523362
vt 0.835760 0.402208
vt 0.696508 0.196449
vt 0.532732 0.000000
vt 0.571173 0.000000
vt 0.738569 0.200219
vt 0.890968 0.427370
vt 0.740221 0.740221
vt 0.687656 0.687656
vt 0.841278 0.692643
vt 0.889757 0.706235
vt 1.000000 0.840756
vt 1.000000 0.945032
vt 0.978520 0.978520
vt 0.940787 0.904471
vt 0.829247 0.768252
vt 0.789843 0.742429
vt 0.945032 0.945032
vt 0.840756 0.840756
vt 0.986279 0.578677
vt 0.452406 0.000000
vt 0.908322 0.483300
vt 1.000000 0.603171
vt 1.000000 0.692854
vt 0.757436 0.375711
vt 0.402999 0.000000
vt 1.000000 0.975236
vt 0.528654 0.525378
vt 0.063473 0.000000
vt 0.107158 0.000000
vt 0.468146 0.407715
vt 1.000000 0.915350
vt 0.975236 0.975236
vt 0.945595 0.896376
vt 0.870553 0.720062
vt 0.692854 0.692854
vt 0.603171 0.603171
vt 1.000000 0.663958
vt 1.000000 0.956608
vt 0.959694 0.959694
vt 0.663958 0.663958
vt 0.648265 0.586233
vt 0.674296 0.322102
vt 0.547294 0.108304
vt 0.546386 0.000000
vt 0.613078 0.000000
vt 0.612835 0.131843
vt 0.739003 0.343028
vt 0.726574 0.497687
vt 0.782949 0.675446
vt 0.909680 0.858649
vt 1.000000 0.851800
vt 0.931677 0.587719
vt 0.613078 0.613078
vt 0.546386 0.546386
vt 1.000000 0.509191
vt 0.929706 0.364649
vt 0.606025 0.000000
vt 0.641855 0.000000
vt 0.931196 0.328293
vt 1.000000 0.428827
vt 1.000000 0.467268
vt 0.205054 0.000000
vt 0.244247 0.000000
vt 0.303033 0.149105
vt 0.587432 0.587432
vt 0.509191 0.509191
vt 0.241744 0.093414
vt 0.313836 0.242736
vt 0.244247 0.244247
vt 0.205054 0.205054
vt 0.301674 0.203174
vt 0.481203 0.227762
vt 0.626852 0.344759
vt 0.688726 0.417431
vt 0.641855 0.641855
vt 0.606025 0.606025
vt 0.640832 0.438322
vt 0.569525 0.354065
vt 0.454894 0.262210
vt 1.000000 0.884538
vt 1.000000 0.931609
vt 0.932935 0.857747
vt 0.799523 0.593733
vt 0.787607 0.400802
vt 0.920340 0.422472
vt 1.000000 0.518043
vt 1.000000 0.570680
vt 0.943606 0.503018
vt 0.842993 0.486593
vt 0.852035 0.632846
vt 0.953162 0.832955
vt 0.000000 0.707132
vt 0.125000 0.707132
vt 0.125000 0.870242
vt 0.000000 0.872602
vt 0.180602 0.882257
vt 0.250000 0.707132
vt 0.250000 0.827573
vt 0.250000 0.827573
vt 0.361558 0.707132
vt 0.374338 0.775249
vt 0.271017 0.820212
vt 0.574028 0.833305
vt 0.591981 0.856600
vt 0.625000 0.904054
vt 0.540728 0.844649
vt 0.555552 0.809036
vt 0.701807 0.948481
vt 0.625000 0.898163
vt 0.664779 0.861327
vt 0.750000 0.755663
vt 0.750000 0.940497
vt 0.762740 0.707132
vt 0.875000 0.707132
vt 0.875000 0.903461
vt 0.875000 0.903461
vt 1.000000 0.707132
vt 1.000000 0.872602
vt 0.125000 0.336054
vt 0.125000 0.411844
vt 0.000000 0.411844
vt 0.000000 0.291884
vt 0.040228 0.291884
vt 0.250000 0.411844
vt 0.196535 0.291884
vt 0.250000 0.291884
vt 0.313819 0.291884
vt 0.345139 0.411844
vt 0.875000 0.291884
vt 0.875000 0.411844
vt 0.803242 0.411844
vt 0.831193 0.291884
vt 1.000000 0.411844
vt 1.000000 0.291884
vt 0.750000 -0.144474
vt 0.750000 -0.105386
vt 0.875000 -0.105386
vt 0.361558 0.707132
vt 0.345139 0.411844
vt 0.785534 0.551619
vt 0.000000 0.254184
vt 0.250000 0.232013
vt 0.196535 0.291884
vt 0.229837 0.255654
vt 0.306001 0.078317
vt 0.310626 0.180116
vt 0.313819 0.291884
vt 0.250000 0.232013
vt 0.850071 0.061190
vt 0.831193 0.291884
vt 1.000000 0.254184
vt 0.928200 0.061190
vt 0.000000 0.900396
vt 0.125000 0.898600
vt 0.191899 0.899590
vt 0.250000 0.863515
vt 0.125000 0.898600
vt 0.375000 0.707132
vt 0.250000 0.863515
vt 0.318276 0.843970
vt 0.375000 0.823763
vt 0.416856 0.707132
vt 0.500000 0.854043
vt 0.500000 0.795837
vt 0.515847 0.863041
vt 0.625000 0.921986
vt 0.611182 0.798968
vt 0.539514 0.715824
vt 0.750000 0.952037
vt 0.730509 0.707132
vt 0.625000 0.814405
vt 0.707627 0.958374
vt 0.875000 0.923869
vt 0.750000 0.952037
vt 0.875000 0.923869
vt 1.000000 0.900396
vt 0.125000 0.327060
vt 0.051409 0.291884
vt 0.187100 0.291884
vt 0.362152 0.411844
vt 0.323060 0.291884
vt 0.795646 0.411844
vt 0.828311 0.291884
vt 0.875000 -0.144420
vt 0.847358 0.061190
vt 0.875000 -0.103845
vt 0.875000 0.060589
vt 0.875000 -0.103845
vt 0.362152 0.411844
vt 0.375000 0.574411
vt 0.416856 0.707132
vt 0.750000 0.670191
vt 0.730509 0.707132
vt 0.795646 0.411844
vt 0.759508 0.622361
vt 0.051409 0.291884
vt 0.000000 0.243478
vt 0.214138 0.262946
vt 0.187100 0.291884
vt 0.250000 0.221190
vt 0.317939 0.140544
vt 0.307346 0.061190
vt 0.847359 0.061190
vt 1.000000 0.243478
vt 0.932265 0.061190
vt 1.000000 0.075482
vt 1.000000 0.123470
vt 0.879222 0.000000
vt 0.926169 0.000000
vt 1.000000 0.404593
vt 1.000000 0.464892
vt 0.737113 0.256199
vt 0.519660 0.000000
vt 0.572335 0.000000
vt 0.741613 0.199459
vt 0.075482 0.075482
vt 0.475547 0.016995
vt 1.000000 0.051395
vt 1.000000 0.292150
vt 0.961536 0.336501
vt 0.464892 0.464892
vt 0.404593 0.404593
vt 0.641565 0.343337
vt 0.820150 0.137335
vt 0.273510 0.101531
vt 0.123470 0.123470
vt 0.292150 0.292150
vt 0.051395 0.051395
vt 0.161459 0.116299
vt 0.802995 0.000000
vt 0.862528 0.000000
vt 1.000000 0.073831
vt 0.983767 0.114826
vt 0.593838 0.097812
vt 0.938087 0.361225
vt 1.000000 0.427665
vt 1.000000 0.480340
vt 0.914651 0.388790
vt 0.631775 0.154293
vt 0.623360 0.199684
vt 0.439789 0.034650
vt 0.381970 0.000000
vt 0.461876 0.007636
vt 0.599113 0.144125
vt 0.455705 0.455705
vt 0.381970 0.381970
vt 0.350525 0.322034
vt 0.618963 0.321115
vt 0.666736 0.445457
vt 0.792762 0.659926
vt 0.752829 0.660063
vt 0.862528 0.862528
vt 0.802995 0.802995
vt 0.707472 0.611645
vt 0.746975 0.625418
vt 0.632715 0.449222
vt 0.604625 0.359173
vt 0.526661 0.374617
vt 0.490726 0.374566
vt 0.399334 0.359229
vt 0.625000 1.279252
vt 0.661922 1.279252
vt 0.669283 1.279252
vt 0.500000 1.279252
vt 0.375000 1.279252
vt 0.250000 1.279252
vt 0.212079 1.279252
vt 0.219472 1.279252
vt 0.250000 0.983964
vt 0.219472 1.279252
vt 0.188176 0.983964
vt 0.375000 0.983964
vt 0.500000 0.983964
vt 0.625000 0.983964
vt 0.693737 0.983964
vt 0.683949 1.096345
vt 0.661922 1.279252
vt 0.637114 1.585305
vt 0.235965 1.473035
vt 0.212079 1.279252
vt 0.250000 1.473035
vt 0.375000 1.473035
vt 0.500000 1.473035
vt 0.625000 1.473035
vt 0.240030 1.531163
vt 0.243517 1.585305
vt 0.250000 0.840429
vt 0.188176 0.983964
vt 0.185173 0.891381
vt 0.375000 0.791712
vt 0.250000 0.840429
vt 0.324607 0.813310
vt 0.500000 0.859523
vt 0.396318 0.798180
vt 0.625000 0.918168
vt 0.533570 0.855143
vt 0.674454 0.946199
vt 0.693737 0.983964
vt 0.625000 0.918168
vt 0.255722 1.585305
vt 0.448157 1.585305
vt 0.573968 1.585305
vt 0.185407 0.983964
vt 0.696506 0.983964
vt 0.648478 1.279252
vt 0.674398 1.135754
vt 0.220317 1.279252
vt 0.232761 1.279252
vt 0.660970 1.279252
vt 0.220317 1.279252
vt 0.250000 1.458231
vt 0.254736 1.473035
vt 0.627220 1.473035
vt 0.255722 1.585305
vt 0.254736 1.473035
vt 0.185407 0.983964
vt 0.250000 0.876758
vt 0.183034 0.916566
vt 0.375000 0.839663
vt 0.344180 0.850006
vt 0.500000 0.869818
vt 0.625000 0.935725
vt 0.700440 0.968224
vt 0.649302 0.946273
vt 1.000000 0.015464
vt 0.764504 0.058910
vt 0.683302 0.000000
vt 0.865263 0.184582
vt 1.000000 0.317427
vt 0.994698 0.519087
vt 0.463130 0.463130
vt 0.371263 0.371263
vt 0.900611 0.424629
vt 0.918260 0.414496
vt 0.950717 0.329437
vt 0.741115 0.123624
vt 0.837630 0.000000
vt 0.945179 0.000000
vt 0.967138 0.070011
vt 0.509951 0.489556
vt 0.517691 0.517691
vt 0.317426 0.317426
vt 0.396539 0.354789
vt 1.000000 0.371263
vt 1.000000 0.463130
vt 0.177046 0.000000
vt 0.099868 0.033190
vt 0.051150 0.000000
vt 0.280175 0.000000
vt 0.340148 0.254584
vt 0.280175 0.280175
vt 0.043073 0.000000
vt 0.368381 0.000000
vt 0.361302 0.132994
vt 1.000000 0.822954
vt 0.683302 0.683302
vt 0.512721 0.000000
vt 0.594904 0.000000
vt 0.753450 0.637736
vt 0.599359 0.345643
vt 0.368381 0.368381
vt 0.043073 0.043073
vt 0.054821 0.000000
vt 0.159000 0.003520
vt 0.136201 0.087321
vt 0.255093 0.192241
vt 0.504659 0.282756
vt 0.592612 0.275772
vt 0.774763 0.413110
vt 0.974178 0.414011
vt 1.000000 0.405096
vt 1.000000 0.487279
vt 0.783922 0.483896
vt 0.375000 0.751661
vt 0.500000 0.707132
vt 0.500000 0.848593
vt 0.403613 0.789667
vt 0.538398 0.707132
vt 0.550806 0.799089
vt 0.531385 0.844456
vt 0.317958 0.291884
vt 0.375000 0.291884
vt 0.375000 0.411844
vt 0.350277 0.411844
vt 0.500000 0.411844
vt 0.500000 0.291884
vt 0.512984 0.411844
vt 0.514520 0.291884
vt 0.515182 0.335152
vt 0.250000 -0.557149
vt 0.250000 -0.458671
vt 0.375000 -0.828508
vt 0.375000 -0.468355
vt 0.375000 -0.001751
vt 0.375000 0.061190
vt 0.375000 -0.557149
vt 0.364383 0.666708
vt 0.350277 0.411844
vt 0.366742 0.707132
vt 0.309955 0.061190
vt 0.317958 0.291884
vt 0.514520 0.291884
vt 0.503822 0.061190
vt 0.500000 0.776161
vt 0.436627 0.707132
vt 0.532739 0.707132
vt 0.500000 0.776161
vt 0.327596 0.291884
vt 0.375000 -0.470982
vt 0.250000 0.027939
vt 0.250000 0.060472
vt 0.375000 -0.470982
vt 0.497893 0.061190
vt 0.500000 -0.416160
vt 0.429299 -0.725493
vt 0.436627 0.707132
vt 0.375000 0.503447
vt 0.533747 0.701964
vt 0.318316 0.061190
vt 0.497895 0.061190
vt 0.500000 0.100027
s 0
usemtl Material
f 69/1/1 64/2/1 76/3/1 73/4/1 18/5/1 72/6/1 25/7/1 74/8/1 70/9/1 68/10/1
f 91/11/1 83/12/1 75/13/1 66/14/1
f 74/15/2 25/16/2 78/17/2 63/18/2 62/19/2 80/20/2 81/21/2 75/22/2 83/23/2 84/24/2 82/25/2 79/26/2
f 40/27/3 86/28/3 104/29/3 42/30/3 89/31/3 87/32/3 65/33/3 90/34/3
f 64/35/4 65/36/4 87/37/4 76/38/4
f 92/39/4 91/40/4 66/41/4 67/42/4
f 94/43/5 95/44/5 104/45/5 86/46/5 93/47/5 105/48/5
f 96/49/5 99/50/5 98/51/5 97/52/5 92/53/5 67/54/5
f 101/55/6 98/56/6 99/57/6 103/58/6 100/59/6 94/60/6 105/61/6 102/62/6
f 2/63/7 8/64/7 6/65/7 21/66/7 24/67/7 35/68/7 4/69/7
f 2/70/8 4/69/8 3/71/8 1/72/8
f 38/73/9 3/71/9 4/69/9 35/74/9
f 21/75/10 6/65/10 5/76/10 19/77/10
f 6/65/11 8/64/11 7/78/11 5/76/11
f 8/64/12 2/63/12 1/79/12 7/78/12
f 59/80/13 1/71/13 3/71/13 60/81/13
f 60/82/14 3/83/14 38/83/14 39/84/14 55/85/14 56/86/14
f 55/87/15 39/88/15 26/89/15 29/90/15 48/91/15
f 44/92/16 31/93/16 20/94/16 47/95/16
f 19/76/17 5/76/17 85/96/17 47/97/17 20/98/17
f 85/99/18 5/78/18 7/78/18 50/100/18 41/101/18
f 50/102/19 7/79/19 1/79/19 59/103/19 52/104/19
f 10/70/20 11/70/20 13/69/20
f 10/69/21 13/69/21 33/105/21 34/106/21
f 32/107/22 10/108/22 34/108/22
f 10/109/23 32/109/23 77/110/23
f 77/111/24 22/112/24 10/113/24
f 22/114/25 15/65/25 10/115/25
f 15/65/26 17/64/26 10/65/26
f 17/64/27 11/63/27 10/64/27
f 13/69/28 11/70/28 9/72/28 12/71/28
f 33/116/29 13/69/29 12/71/29 36/117/29
f 71/118/30 14/76/30 15/65/30 22/119/30
f 15/65/31 14/76/31 16/78/31 17/64/31
f 17/64/32 16/78/32 9/79/32 11/63/32
f 12/71/33 9/72/33 58/120/33 61/121/33
f 12/71/34 61/122/34 57/123/34 54/124/34 37/125/34 36/126/34
f 28/127/35 27/128/35 37/125/35 54/129/35 49/130/35
f 46/131/36 23/132/36 30/133/36 43/134/36
f 88/135/37 14/76/37 71/118/37 23/132/37 46/136/37
f 53/137/38 16/78/38 14/76/38 88/138/38 45/139/38
f 9/79/39 16/78/39 53/140/39 51/141/39 58/142/39
f 170/143/40 169/144/40 186/145/40 171/146/40
f 212/147/41 179/148/41 178/149/41
f 186/150/42 169/151/42 191/152/42 187/153/42
f 188/154/43 204/155/43 189/156/43
f 192/157/44 193/158/44 146/159/44 187/160/44 191/161/44 144/162/44 194/163/44 213/164/44
f 196/165/45 195/166/45 138/167/45 198/168/45
f 210/169/45 189/170/45 204/155/45
f 198/171/46 199/172/46 155/173/46 203/174/46 210/175/46 204/155/46 205/176/46 159/177/46 158/178/46 168/179/46 167/180/46 197/181/46 196/182/46
f 204/183/47 188/184/47 208/185/47 206/186/47
f 213/187/48 165/188/48 206/189/48 208/190/48 209/191/48 192/192/48
f 154/193/49 107/194/49 130/195/49 131/196/49 139/197/49 151/198/49
f 130/195/50 107/194/50 183/199/50 184/200/50 129/201/50
f 162/202/51 109/203/51 108/204/51 156/205/51
f 109/203/52 112/206/52 111/207/52 108/204/52
f 182/208/53 111/207/53 112/206/53 175/209/53
f 201/210/54 161/211/54 106/212/54 164/213/54 207/214/54
f 148/215/16 150/216/16 110/217/16 200/217/16 201/218/16 207/219/16
f 190/220/17 113/221/17 110/221/17 150/222/17
f 145/223/18 121/224/18 122/225/18 173/226/18 113/226/18 190/227/18
f 156/228/55 108/204/55 107/194/55 154/193/55
f 107/194/56 108/204/56 111/207/56 183/199/56
f 183/199/57 111/207/57 182/229/57
f 200/230/58 110/221/58 109/203/58 162/231/58
f 109/203/59 110/221/59 113/226/59 112/206/59
f 112/206/60 113/226/60 173/232/60 175/233/60
f 176/234/61 114/194/61 177/235/61
f 185/236/62 114/194/62 176/234/62
f 157/237/63 115/204/63 116/203/63 202/238/63
f 119/206/64 116/203/64 115/204/64 118/207/64
f 119/206/65 118/207/65 180/239/65 174/240/65
f 163/241/66 142/242/66 143/243/66 152/244/66 160/245/66 166/246/66
f 160/247/36 117/221/36 149/248/36 147/249/36 166/250/36
f 149/248/37 117/221/37 120/226/37 211/251/37
f 211/252/38 120/226/38 172/253/38 124/254/38 123/255/38 141/256/38
f 177/235/67 114/194/67 115/204/67 157/257/67 153/258/67
f 181/259/68 118/207/68 115/204/68 114/194/68 185/260/68
f 180/239/69 118/207/69 181/261/69
f 202/238/70 116/203/70 117/221/70 160/262/70
f 119/206/71 120/226/71 117/221/71 116/203/71
f 172/263/72 120/226/72 119/206/72 174/240/72
f 132/264/73 134/265/73 140/266/73 137/267/73 138/268/73 195/269/73 212/270/73 178/271/73 136/272/73 135/273/73 133/274/73 128/275/73 126/276/73 170/277/73 171/278/73 125/279/73 127/280/73
f 251/281/74 261/155/74 270/282/74
f 251/283/75 270/284/75 253/285/75 254/286/75 259/287/75 252/288/75
f 271/289/76 270/290/76 262/291/76 232/292/76 256/293/76
f 261/294/77 262/295/77 270/296/77
f 256/297/78 263/298/78 237/299/78 241/300/78 274/301/78 275/302/78 260/303/78 259/304/78 254/305/78 276/306/78 273/307/78 258/308/78 257/309/78 272/310/78 242/311/78 269/312/78 264/313/78 265/314/78 271/315/78
f 267/115/7 219/113/7 217/109/7 215/108/7 247/316/7
f 231/317/79 223/318/79 221/319/79 227/320/79 234/321/79
f 247/322/9 215/108/9 214/83/9 250/323/9
f 216/319/80 214/83/80 215/108/80 217/109/80
f 218/318/81 216/319/81 217/109/81 219/113/81
f 220/324/82 218/318/82 219/113/82 267/115/82
f 267/325/10 266/326/10 220/324/10
f 250/83/14 214/83/14 236/327/14
f 236/328/15 214/319/15 216/319/15 229/329/15 228/330/15
f 235/331/83 225/332/83 226/333/83 229/334/83 216/318/83 218/318/83 255/335/83
f 233/336/16 255/337/16 218/324/16 220/324/16 238/338/16
f 220/76/17 266/76/17 238/339/17
f 222/109/22 245/340/22 246/108/22
f 245/109/84 222/109/84 224/113/84 244/341/84
f 244/113/85 224/113/85 268/342/85
f 221/319/86 222/109/86 246/108/86 248/83/86
f 223/318/87 224/113/87 222/109/87 221/319/87
f 268/343/88 224/113/88 223/318/88 239/324/88 243/344/88
f 221/319/89 248/83/89 249/345/89 230/346/89 227/347/89
f 240/348/90 239/324/90 223/318/90 231/349/90
f 342/350/91 287/351/91 340/352/91 347/353/91 286/354/91 344/355/91 345/356/91 341/357/91
f 348/358/92 347/359/92 340/360/92 346/361/92 390/362/92 349/363/92
f 353/364/92 352/365/92 351/366/92 341/367/92 345/368/92 350/369/92
f 355/370/93 391/371/93 354/372/93
f 352/373/93 353/374/93 357/375/93 356/376/93
f 354/377/94 391/378/94 387/379/94 356/380/94 357/381/94 358/382/94
f 349/383/95 390/384/95 388/385/95 359/386/95
f 392/387/96 359/388/96 388/389/96 389/390/96
f 362/391/97 391/183/97 355/392/97
f 364/393/98 360/394/98 361/395/98 391/183/98 362/396/98 363/397/98
f 364/398/99 365/399/99 372/400/99 360/401/99
f 371/402/100 370/403/100 368/404/100 369/405/100 366/406/100 367/407/100 378/408/100
f 376/409/100 374/410/100 373/411/100 372/412/100 365/413/100 377/414/100 328/415/100
f 384/416/101 374/417/101 376/418/101 386/419/101 381/420/101 332/421/101 382/422/101 371/423/101 378/424/101 379/425/101 383/426/101 385/427/101
f 369/428/102 392/429/102 389/430/102 366/431/102
f 279/432/103 337/433/103 335/434/103
f 279/432/104 336/435/104 337/436/104
f 291/437/105 280/438/105 277/438/105 339/439/105
f 299/440/106 281/441/106 280/441/106 291/442/106 290/443/106
f 318/444/107 281/444/107 299/445/107 300/446/107 304/447/107 306/448/107 314/449/107 313/450/107
f 306/451/108 278/452/108 314/453/108
f 309/454/109 294/455/109 295/456/109 320/457/109 319/458/109 311/459/109
f 320/460/110 295/461/110 288/462/110 339/463/110 277/464/110 325/464/110
f 277/438/111 280/441/111 279/432/111 335/465/111 331/466/111
f 279/432/112 280/441/112 281/444/112 326/467/112 327/468/112 336/469/112
f 326/467/113 281/444/113 318/470/113
f 325/471/114 277/472/114 331/473/114
f 283/432/115 380/474/115 333/475/115
f 338/476/116 283/432/116 333/475/116
f 284/441/117 292/477/117 343/478/117 282/438/117
f 284/441/118 285/444/118 298/479/118 293/480/118 292/481/118
f 307/482/119 305/483/119 301/484/119 298/485/119 285/444/119 330/486/119 317/487/119 316/488/119 315/489/119
f 302/490/120 307/491/120 315/492/120 312/493/120 303/494/120
f 321/495/121 296/496/121 297/497/121 308/498/121 310/499/121 322/500/121
f 282/472/122 343/501/122 289/502/122 296/503/122 321/504/122 323/505/122
f 283/432/123 284/441/123 282/438/123 334/506/123 380/507/123
f 285/444/124 284/441/124 283/432/124 338/508/124 329/509/124 375/510/124
f 330/511/125 285/444/125 375/512/125
f 282/472/126 323/513/126 324/514/126 334/515/126
f 479/516/127 433/517/127 480/518/127 481/519/127 489/520/127 490/521/127 485/522/127 446/523/127 486/524/127 477/525/127 476/526/127 451/527/127 487/528/127 491/529/127 440/530/127 439/531/127 442/532/127 472/533/127 436/534/127 444/535/127 474/536/127 501/537/127
f 482/538/128 501/539/128 474/540/128 475/541/128
f 477/542/128 486/543/128 492/544/128 493/545/128 470/546/128 494/547/128
f 482/548/129 475/549/129 461/550/129 496/551/129 499/552/129 471/553/129 470/554/129 493/555/129 466/556/129 498/557/129 497/558/129 483/559/129
f 483/560/130 497/561/130 500/562/130
f 408/563/131 393/564/131 398/565/131 449/566/131 438/567/131 403/568/131
f 396/569/132 397/570/132 402/571/132 401/572/132
f 484/573/133 401/572/133 402/571/133 457/574/133 450/575/133
f 455/576/134 407/577/134 406/578/134 435/579/134 434/580/134
f 411/581/135 406/578/135 407/577/135 412/582/135
f 396/583/136 411/581/136 412/582/136 397/584/136
f 406/578/137 411/581/137 396/569/137 401/572/137 484/585/137 448/586/137 400/572/137 395/583/137 410/581/137 405/578/137 478/587/137 435/579/137
f 394/588/138 395/569/138 400/572/138 399/589/138
f 452/590/139 399/589/139 400/572/139 448/591/139
f 478/587/140 405/578/140 404/592/140 437/593/140
f 409/594/141 404/592/141 405/578/141 410/581/141
f 394/595/142 409/594/142 410/581/142 395/583/142
f 393/564/143 394/588/143 399/589/143 398/565/143
f 449/596/144 398/565/144 399/589/144 452/597/144
f 437/598/145 404/592/145 403/568/145 438/567/145
f 408/563/146 403/568/146 404/592/146 409/594/146
f 393/599/147 408/563/147 409/594/147 394/595/147
f 506/600/148 402/571/148 397/570/148 465/601/148
f 458/602/149 457/603/149 402/571/149 506/604/149
f 407/577/150 455/605/150 468/606/150
f 469/607/151 412/582/151 407/577/151 468/608/151
f 465/609/152 397/584/152 412/582/152 469/607/152 462/610/152
f 427/565/153 418/565/153 413/564/153
f 454/611/154 418/565/154 427/612/154
f 503/613/155 454/614/155 427/613/155
f 502/615/156 503/616/156 427/615/156
f 427/617/157 473/617/157 502/618/157
f 427/568/158 423/568/158 473/619/158
f 423/568/159 427/563/159 428/563/159
f 428/563/160 427/599/160 413/599/160
f 421/572/161 422/571/161 417/570/161 416/569/161
f 422/571/162 421/572/162 445/620/162 453/621/162 460/622/162
f 426/578/163 495/577/163 456/623/163 443/624/163 505/625/163
f 431/581/164 432/582/164 495/577/164 426/578/164
f 431/581/165 416/583/165 417/584/165 432/582/165
f 421/572/166 416/569/166 415/569/166 420/572/166
f 445/626/167 421/572/167 420/572/167 488/627/167
f 504/628/168 425/578/168 426/578/168 505/629/168
f 426/578/169 425/578/169 430/581/169 431/581/169
f 431/581/170 430/581/170 415/583/170 416/583/170
f 419/589/171 420/572/171 415/569/171 414/588/171
f 420/572/172 419/589/172 447/630/172 488/627/172
f 441/631/173 424/592/173 425/578/173 504/632/173
f 429/594/174 430/581/174 425/578/174 424/592/174
f 429/594/175 414/595/175 415/583/175 430/581/175
f 414/588/176 413/564/176 418/565/176 419/589/176
f 419/589/177 418/565/177 454/633/177 447/634/177
f 423/568/178 424/592/178 441/635/178 473/636/178
f 428/563/179 429/594/179 424/592/179 423/568/179
f 428/563/180 413/599/180 414/595/180 429/594/180
f 417/570/181 422/571/181 467/637/181 464/638/181
f 422/571/182 460/639/182 459/640/182 467/637/182
f 495/577/183 432/582/183 463/641/183
f 463/641/184 432/582/184 417/584/184 464/642/184
f 651/643/185 647/644/185 646/645/185 612/646/185
f 606/647/185 607/648/185 609/649/185 650/650/185 536/651/185 642/652/185 641/653/185 603/654/185 604/655/185 605/656/185
f 609/657/186 607/658/186 608/659/186 611/660/186 614/661/186 613/662/186 612/663/186 646/664/186 551/665/186 610/666/186
f 613/667/187 614/668/187 615/669/187
f 645/670/188 558/671/188 655/672/188 657/673/188 559/674/188 672/675/188
f 660/676/189 616/677/189 637/678/189 654/679/189 653/680/189 659/681/189
f 660/682/190 659/683/190 562/684/190 657/685/190 655/686/190 661/687/190
f 651/688/191 660/689/191 661/690/191 644/691/191 567/692/191 569/693/191 623/694/191 663/695/191 622/696/191 621/697/191 620/698/191 619/699/191 618/700/191 647/701/191
f 674/702/192 663/703/192 623/704/192 624/705/192
f 577/706/193 665/707/193 648/708/193 625/709/193 603/710/193 641/711/193
f 629/712/193 626/713/193 627/714/193 674/715/193 624/716/193 628/717/193
f 634/718/194 626/719/194 629/720/194 635/721/194 633/722/194 586/723/194 585/724/194 648/725/194 665/726/194 584/727/194 631/728/194 591/729/194
f 654/730/195 637/731/195 592/732/195 595/733/195 597/734/195 640/735/195 645/736/195 672/737/195 671/738/195 598/739/195 596/740/195 594/741/195
f 507/742/148 510/743/148 600/744/148 639/745/148
f 599/746/149 600/744/149 510/743/149 512/747/149 656/748/149
f 656/749/196 512/747/196 573/750/196 563/751/196 557/752/196
f 543/753/197 550/754/197 617/755/197 561/756/197 542/757/197
f 593/758/150 553/759/150 552/760/150 549/761/150 636/762/150
f 549/761/151 547/763/151 515/764/151 638/765/151 636/762/151
f 638/766/152 515/764/152 507/767/152 639/768/152
f 588/769/103 511/770/103 508/771/103 509/772/103 632/773/103
f 513/774/104 511/770/104 588/769/104 590/775/104 514/776/104
f 513/774/198 514/776/198 662/777/198 643/778/198
f 517/779/199 516/780/199 540/781/199 537/782/199
f 508/783/200 516/780/200 517/779/200 509/784/200
f 518/226/109 535/226/109 533/785/109 576/786/109
f 580/464/201 518/464/201 576/787/201
f 507/742/132 508/771/132 511/770/132 510/743/132
f 510/743/133 511/770/133 513/774/133 512/747/133
f 573/788/202 512/747/202 513/774/202 643/789/202
f 540/781/135 516/780/135 515/764/135 547/763/135 539/790/135
f 507/767/136 515/764/136 516/780/136 508/783/136
f 509/772/111 666/791/111 632/773/111
f 582/792/112 514/776/112 590/793/112 583/794/112
f 575/795/113 570/796/113 662/797/113 514/776/113 582/798/113
f 535/799/203 518/464/203 517/779/203 537/800/203
f 666/801/204 509/784/204 517/779/204 518/464/204 580/802/204
f 522/743/181 519/742/181 670/803/181 601/804/181
f 602/805/182 658/806/182 524/747/182 522/743/182 601/807/182
f 527/808/205 524/747/205 658/809/205 556/810/205 673/811/205
f 565/812/206 527/808/206 673/811/206 560/813/206 564/814/206
f 564/814/207 560/815/207 554/816/207 544/817/207 546/818/207
f 668/819/208 528/199/208 652/820/208 544/821/208 554/816/208 555/822/208
f 669/823/183 529/764/183 528/199/183 668/824/183
f 519/767/184 529/764/184 669/825/184 670/826/184
f 521/772/115 520/771/115 523/770/115 667/827/115 587/828/115
f 523/770/116 525/774/116 526/776/116 589/829/116 667/827/116
f 526/776/209 525/774/209 568/830/209 572/831/209
f 541/832/210 530/780/210 531/779/210 649/833/210
f 530/780/211 520/783/211 521/784/211 531/779/211
f 534/834/121 538/835/121 532/464/121 664/836/121
f 578/837/212 664/838/212 532/464/212
f 522/743/213 523/770/213 520/771/213 519/742/213
f 524/747/214 525/774/214 523/770/214 522/743/214
f 568/839/215 525/774/215 524/747/215 527/808/215 566/840/215
f 566/840/216 527/808/216 565/841/216
f 528/199/217 548/842/217 652/843/217
f 548/842/218 528/199/218 529/764/218 530/780/218 541/844/218 545/845/218
f 529/764/219 519/767/219 520/783/219 530/780/219
f 521/772/123 587/846/123 630/847/123
f 579/848/124 589/849/124 526/776/124 581/850/124
f 526/776/220 572/831/220 571/851/220 574/852/220 581/850/220
f 531/779/221 532/464/221 538/853/221 649/833/221
f 532/464/126 531/779/126 521/784/126 630/854/126 578/855/126
f 781/856/222 747/857/222 746/858/222 760/859/222
f 780/860/223 749/861/223 708/862/223 750/863/223 762/864/223 711/865/223
f 781/866/224 757/867/224 758/868/224 754/869/224 753/870/224 749/871/224 780/872/224 755/873/224 756/874/224 715/875/224 747/876/224
f 754/877/225 758/878/225 759/879/225
f 776/880/226 761/881/226 760/882/226 746/883/226
f 724/884/226 763/885/226 762/886/226 750/887/226 766/888/226 764/889/226 765/890/226 767/891/226 778/892/226 751/893/226 752/894/226
f 751/895/227 778/896/227 743/897/227 735/898/227 770/899/227 768/900/227 737/901/227 761/902/227 776/903/227 777/904/227 773/905/227 774/906/227 775/907/227 739/908/227 772/909/227 744/910/227
f 689/911/137 769/912/137 734/913/137 688/911/137 685/914/137 680/915/137 675/916/137 730/917/137 728/918/137 676/916/137 681/915/137 686/914/137
f 677/919/133 676/916/133 728/920/133 732/921/133
f 676/916/202 677/919/202 682/922/202 681/915/202
f 681/915/228 682/922/228 687/923/228 686/914/228
f 689/911/229 686/914/229 687/923/229 690/924/229
f 689/911/134 690/924/134 722/925/134 723/926/134 769/927/134
f 785/612/131 678/613/131 683/615/131 784/928/131
f 675/916/139 733/929/139 730/930/139
f 733/931/230 675/916/230 680/915/230 679/932/230
f 679/932/231 680/915/231 685/914/231 684/933/231
f 738/934/232 684/933/232 685/914/232 688/911/232
f 738/934/140 688/911/140 734/913/140
f 731/935/233 733/931/233 785/936/233
f 785/612/234 733/931/234 679/932/234 678/613/234
f 683/615/235 678/613/235 679/932/235 684/933/235
f 784/617/236 683/615/236 684/933/236 738/934/236
f 748/937/149 677/919/149 732/938/149 710/939/149
f 716/940/196 682/922/196 677/919/196 748/941/196 709/942/196
f 721/943/237 687/923/237 682/922/237 716/940/237 717/944/237
f 714/945/197 690/924/197 687/923/197 721/943/197 720/946/197
f 706/947/150 722/948/150 690/924/150 714/949/150
f 786/950/238 740/613/238 693/613/238
f 740/951/156 771/615/156 698/615/156 693/613/156
f 742/617/157 698/615/157 771/952/157
f 783/916/162 692/919/162 727/953/162
f 696/915/239 697/922/239 692/919/239 783/916/239
f 701/914/240 702/923/240 697/922/240 696/915/240
f 745/911/241 704/924/241 702/923/241 701/914/241
f 705/954/242 704/924/242 745/955/242 725/956/242
f 729/957/167 691/916/167 783/958/167
f 695/915/243 696/915/243 783/916/243 691/916/243
f 700/914/244 701/914/244 696/915/244 695/915/244
f 703/911/245 745/911/245 701/914/245 700/914/245
f 745/911/168 703/911/168 736/959/168
f 691/916/172 729/960/172 726/961/172
f 726/962/246 694/932/246 695/915/246 691/916/246
f 699/933/247 700/914/247 695/915/247 694/932/247
f 741/934/248 703/911/248 700/914/248 699/933/248
f 736/959/173 703/911/173 741/963/173
f 786/964/249 693/613/249 694/932/249 726/965/249
f 698/615/250 699/933/250 694/932/250 693/613/250
f 742/617/251 741/934/251 699/933/251 698/615/251
f 727/966/182 692/919/182 779/967/182 712/968/182
f 692/919/205 697/922/205 718/969/205 713/970/205 779/967/205
f 718/969/252 697/922/252 702/923/252 719/971/252
f 719/971/207 702/923/207 704/924/207 782/972/207
f 704/924/253 705/973/253 707/974/253 782/972/253
f 864/975/254 797/976/254 863/977/254
f 800/978/255 835/979/255 837/980/255 865/981/255 840/982/255 836/983/255 833/984/255 834/985/255 859/986/255 849/987/255 842/988/255 832/989/255
f 838/990/256 837/991/256 835/992/256 839/993/256
f 840/994/257 865/995/257 864/155/257 841/996/257
f 843/997/258 861/998/258 844/999/258
f 847/1000/259 844/1001/259 861/1002/259 845/1003/259 846/1004/259
f 841/1005/260 864/183/260 863/1006/260 857/1007/260 853/1008/260 848/1009/260
f 854/1010/261 845/1011/261 861/1012/261 842/1013/261 849/1014/261 850/1015/261 851/1016/261 852/1017/261 860/1018/261 855/1019/261 856/1020/261 853/1021/261 857/1022/261 858/1023/261
f 818/1024/262 817/808/262 791/1025/262 814/1026/262 815/1027/262
f 814/1026/197 791/1025/197 801/1028/197 802/1029/197 813/1030/197
f 830/1031/198 789/1032/198 788/1033/198 828/1034/198
f 792/1035/263 788/1033/263 789/1032/263 793/1036/263
f 831/1037/264 792/1035/264 793/1036/264 811/1038/264 805/1039/264
f 862/1040/265 790/444/265 820/444/265 798/1041/265
f 787/1042/266 807/1043/266 806/1044/266 810/1045/266 790/1045/266 862/1046/266
f 816/1047/202 828/1048/202 788/1033/202 817/1049/202
f 817/808/267 788/1033/267 792/1035/267 791/1025/267
f 801/1028/229 791/1025/229 792/1035/229 831/1037/229
f 820/1050/113 790/1045/113 789/1032/113 830/1051/113
f 789/1032/268 790/1045/268 810/217/268 793/1036/268
f 811/1052/269 793/1036/269 810/1053/269
f 823/1054/252 796/1025/252 824/1055/252
f 822/1056/207 796/1025/207 823/1057/207
f 825/1033/209 794/1032/209 827/1058/209
f 804/1036/270 794/1032/270 825/1033/270 799/1035/270
f 795/1045/119 819/1059/119 821/1060/119 829/1061/119
f 819/1062/120 795/1045/120 808/1063/120 809/1064/120 812/1065/120
f 824/1066/271 796/1025/271 799/1035/271 825/1033/271 826/1067/271
f 799/1035/272 796/1025/272 822/1068/272
f 827/1058/125 794/1032/125 795/1045/125 829/1069/125
f 808/1070/273 795/1045/273 794/1032/273 804/1036/273 803/1071/273
