# Blender 3.6.0
# www.blender.org
mtllib Butelka_1.mtl
o 1
v -0.000000 0.413468 0.060663
v -0.000000 0.362383 0.068645
v -0.000000 0.015964 0.102170
v -0.000000 0.341630 0.092591
v -0.000000 0.301720 0.102170
v 0.000000 0.000000 0.000000
v -0.000000 0.000000 0.076627
v 0.042895 0.413468 0.042895
v 0.048539 0.362383 0.048539
v 0.072245 0.015964 0.072245
v 0.065472 0.341630 0.065472
v 0.072245 0.301720 0.072245
v 0.054184 0.000000 0.054184
v 0.060663 0.413468 0.000000
v 0.068645 0.362383 0.000000
v 0.102170 0.015964 0.000000
v 0.092591 0.341630 0.000000
v 0.102170 0.301720 0.000000
v 0.076627 0.000000 0.000000
v 0.042895 0.413468 -0.042895
v 0.048539 0.362383 -0.048539
v 0.072245 0.015964 -0.072245
v 0.065472 0.341630 -0.065472
v 0.072245 0.301720 -0.072245
v 0.054184 0.000000 -0.054184
v 0.000000 0.413468 -0.060663
v 0.000000 0.362383 -0.068645
v -0.000000 0.015964 -0.102170
v 0.000000 0.341630 -0.092591
v -0.000000 0.301720 -0.102170
v -0.000000 0.000000 -0.076627
v -0.048539 0.362383 -0.048539
v -0.072245 0.015964 -0.072245
v -0.065472 0.341630 -0.065472
v -0.072245 0.301720 -0.072245
v -0.054184 0.000000 -0.054184
v -0.060663 0.413468 -0.000000
v -0.068645 0.362383 -0.000000
v -0.102170 0.015964 -0.000000
v -0.092591 0.341630 -0.000000
v -0.102170 0.301720 -0.000000
v -0.076627 0.000000 -0.000000
v -0.042895 0.413468 0.042895
v -0.048539 0.362383 0.048539
v -0.072245 0.015964 0.072245
v -0.065472 0.341630 0.065472
v -0.072245 0.301720 0.072245
v -0.054184 0.000000 0.054184
v -0.000000 0.410765 0.051035
v -0.000000 0.357143 0.060128
v -0.000000 0.020370 0.093192
v -0.000000 0.336743 0.083867
v -0.000000 0.300577 0.092235
v 0.000000 0.010000 0.000000
v -0.000000 0.009417 0.073261
v 0.036087 0.410765 0.036088
v 0.042517 0.357143 0.042517
v 0.065897 0.020370 0.065897
v 0.059303 0.336743 0.059303
v 0.065220 0.300577 0.065220
v 0.051803 0.009417 0.051803
v 0.051035 0.410765 0.000000
v 0.060128 0.357143 0.000000
v 0.093192 0.020370 0.000000
v 0.083867 0.336743 0.000000
v 0.092235 0.300577 0.000000
v 0.073261 0.009417 -0.000000
v 0.036088 0.410765 -0.036087
v 0.042517 0.357143 -0.042517
v 0.065897 0.020370 -0.065897
v 0.059303 0.336743 -0.059303
v 0.065220 0.300577 -0.065220
v 0.051803 0.009417 -0.051803
v 0.000000 0.410765 -0.051035
v 0.000000 0.357143 -0.060128
v -0.000000 0.020370 -0.093192
v 0.000000 0.336743 -0.083867
v -0.000000 0.300577 -0.092235
v -0.000000 0.009417 -0.073261
v -0.036088 0.410765 -0.036088
v -0.042517 0.357143 -0.042517
v -0.065897 0.020370 -0.065897
v -0.059303 0.336743 -0.059303
v -0.065220 0.300577 -0.065220
v -0.051803 0.009417 -0.051803
v -0.051035 0.410765 -0.000000
v -0.060128 0.357143 -0.000000
v -0.093192 0.020370 -0.000000
v -0.083867 0.336743 -0.000000
v -0.092235 0.300577 -0.000000
v -0.073261 0.009417 -0.000000
v -0.036087 0.410765 0.036088
v -0.042517 0.357143 0.042517
v -0.065897 0.020370 0.065897
v -0.059303 0.336743 0.059303
v -0.065220 0.300577 0.065220
v -0.051803 0.009417 0.051803
v -0.000000 0.443255 0.047755
v 0.020248 0.445220 0.038517
v 0.032793 0.446438 0.032793
v 0.048586 0.441338 0.000000
v 0.038074 0.429204 -0.038074
v 0.000000 0.415360 -0.059843
v -0.015557 0.413468 -0.054219
v -0.050086 0.413468 -0.025535
v -0.058588 0.418257 -0.000000
v -0.037063 0.432501 0.037063
v -0.013215 0.439421 0.043943
v -0.043240 0.410353 -0.043240
v 0.014632 0.442155 0.031357
v 0.026116 0.443269 0.026116
v -0.000000 0.440734 0.038034
v 0.038696 0.439208 0.000000
v 0.030327 0.429544 -0.030327
v 0.000000 0.418515 -0.047673
v -0.035017 0.414255 -0.035017
v -0.046672 0.420823 -0.000000
v -0.029521 0.432170 0.029521
v -0.011914 0.437278 0.034598
v 0.000667 0.418758 -0.047292
v 0.000655 0.418699 -0.047508
vn 0.3553 0.3717 0.8577
vn 0.8577 0.3717 0.3553
vn 0.8577 0.3717 -0.3553
vn 0.3553 0.3717 -0.8577
vn -0.3553 0.3717 -0.8577
vn -0.8577 0.3717 -0.3553
vn -0.8577 0.3717 0.3553
vn -0.3553 0.3717 0.8577
vn -0.0000 -1.0000 -0.0000
vn 0.2618 0.7293 0.6321
vn 0.6321 0.7293 0.2618
vn 0.6321 0.7293 -0.2618
vn 0.2618 0.7293 -0.6321
vn -0.2618 0.7293 -0.6321
vn -0.6321 0.7293 -0.2618
vn -0.6321 0.7293 0.2618
vn -0.2618 0.7293 0.6321
vn 0.2144 -0.8283 0.5177
vn 0.5177 -0.8283 0.2144
vn 0.5177 -0.8283 -0.2144
vn 0.2144 -0.8283 -0.5177
vn -0.2144 -0.8283 -0.5177
vn -0.5177 -0.8283 -0.2144
vn -0.5177 -0.8283 0.2144
vn -0.2144 -0.8283 0.5177
vn 0.3827 -0.0000 0.9239
vn 0.9239 -0.0000 0.3827
vn 0.9239 -0.0000 -0.3827
vn 0.3827 -0.0000 -0.9239
vn -0.3827 -0.0000 -0.9239
vn -0.9239 -0.0000 -0.3827
vn -0.9239 -0.0000 0.3827
vn -0.3827 -0.0000 0.9239
vn 0.3788 0.1429 0.9144
vn 0.9144 0.1429 0.3788
vn 0.9144 0.1429 -0.3788
vn 0.3788 0.1429 -0.9144
vn -0.3788 0.1429 -0.9144
vn -0.9144 0.1429 -0.3788
vn -0.9144 0.1429 0.3788
vn -0.3788 0.1429 0.9144
vn 0.3736 0.2165 0.9020
vn 0.9020 0.2165 0.3736
vn 0.9020 0.2165 -0.3736
vn 0.3736 0.2165 -0.9020
vn -0.3736 0.2165 -0.9020
vn -0.9020 0.2165 -0.3736
vn -0.9020 0.2165 0.3736
vn -0.3736 0.2165 0.9020
vn -0.3552 -0.3720 -0.8576
vn -0.8576 -0.3720 -0.3552
vn -0.8576 -0.3720 0.3552
vn -0.3552 -0.3720 0.8576
vn 0.3552 -0.3720 0.8576
vn 0.8576 -0.3720 0.3552
vn 0.8576 -0.3720 -0.3552
vn 0.3552 -0.3720 -0.8576
vn 0.0033 1.0000 0.0080
vn 0.0080 1.0000 0.0033
vn 0.0080 1.0000 -0.0033
vn 0.0033 1.0000 -0.0080
vn -0.0033 1.0000 -0.0080
vn -0.0080 1.0000 -0.0033
vn -0.0080 1.0000 0.0033
vn -0.0033 1.0000 0.0080
vn -0.2606 -0.7322 -0.6292
vn -0.6292 -0.7322 -0.2606
vn -0.6292 -0.7322 0.2606
vn -0.2606 -0.7322 0.6292
vn 0.2606 -0.7322 0.6292
vn 0.6292 -0.7322 0.2606
vn 0.6292 -0.7322 -0.2606
vn 0.2606 -0.7322 -0.6292
vn -0.1956 0.8595 -0.4723
vn -0.4723 0.8595 -0.1956
vn -0.4723 0.8595 0.1956
vn -0.1956 0.8595 0.4723
vn 0.1956 0.8595 0.4723
vn 0.4723 0.8595 0.1956
vn 0.4723 0.8595 -0.1956
vn 0.1956 0.8595 -0.4723
vn -0.3827 -0.0032 -0.9239
vn -0.9239 -0.0032 -0.3827
vn -0.9239 -0.0032 0.3827
vn -0.3827 -0.0032 0.9239
vn 0.3827 -0.0032 0.9239
vn 0.9239 -0.0032 0.3827
vn 0.9239 -0.0032 -0.3827
vn 0.3827 -0.0032 -0.9239
vn -0.3781 -0.1548 -0.9127
vn -0.9127 -0.1548 -0.3781
vn -0.9127 -0.1548 0.3781
vn -0.3781 -0.1548 0.9127
vn 0.3781 -0.1548 0.9127
vn 0.9127 -0.1548 0.3781
vn 0.9127 -0.1548 -0.3781
vn 0.3781 -0.1548 -0.9127
vn -0.3742 -0.2091 -0.9035
vn -0.9035 -0.2091 -0.3742
vn -0.9035 -0.2091 0.3742
vn -0.3742 -0.2091 0.9035
vn 0.3742 -0.2091 0.9035
vn 0.9035 -0.2091 0.3742
vn 0.9035 -0.2091 -0.3742
vn 0.3742 -0.2091 -0.9035
vn -0.2041 0.9476 -0.2457
vn -0.2041 0.9477 -0.2454
vt 0.000000 0.707132
vt 0.125000 0.707132
vt 0.125000 0.897712
vt 0.076460 0.890673
vt 0.000000 0.879311
vt 0.250000 0.707132
vt 0.250000 0.868231
vt 0.375000 0.707132
vt 0.375000 0.798090
vt 0.500000 0.707132
vt 0.500000 0.718071
vt 0.545334 0.707132
vt 0.675589 0.707132
vt 0.750000 0.707132
vt 0.750000 0.734814
vt 0.875000 0.707132
vt 0.875000 0.817150
vt 1.000000 0.707132
vt 1.000000 0.879311
vt 0.952860 0.857148
vt 0.000000 -1.682853
vt 0.125000 -1.682853
vt 0.250000 -1.682853
vt 0.375000 -1.682853
vt 0.500000 -1.682853
vt 0.625000 -1.682853
vt 0.750000 -1.682853
vt 0.875000 -1.682853
vt 1.000000 -1.682853
vt 0.125000 0.411844
vt 0.000000 0.411844
vt 0.000000 0.291884
vt 0.125000 0.291884
vt 0.250000 0.411844
vt 0.250000 0.291884
vt 0.375000 0.291884
vt 0.375000 0.411844
vt 0.500000 0.291884
vt 0.500000 0.411844
vt 0.625000 0.291884
vt 0.625000 0.411844
vt 0.750000 0.291884
vt 0.750000 0.411844
vt 0.875000 0.291884
vt 0.875000 0.411844
vt 1.000000 0.411844
vt 1.000000 0.291884
vt 0.125000 -1.590575
vt 0.000000 -1.590575
vt 0.250000 -1.590575
vt 0.375000 -1.590575
vt 0.500000 -1.590575
vt 0.625000 -1.590575
vt 0.750000 -1.590575
vt 0.875000 -1.590575
vt 1.000000 -1.590575
vt 0.000000 0.061190
vt 0.125000 0.061190
vt 0.250000 0.061190
vt 0.375000 0.061190
vt 0.500000 0.061190
vt 0.625000 0.061190
vt 0.750000 0.061190
vt 0.875000 0.061190
vt 1.000000 0.061190
vt 0.625000 0.689124
vt 0.000000 0.880968
vt 0.069238 0.889206
vt 0.125000 0.895671
vt 0.250000 0.872114
vt 0.375000 0.816056
vt 0.500000 0.752088
vt 0.497252 0.753494
vt 0.625000 0.727378
vt 0.625000 0.707132
vt 0.750000 0.765474
vt 0.875000 0.831290
vt 0.946815 0.860919
vt 1.000000 0.880968
vt 0.222368 0.597368
vt 0.224053 0.597957
vt 0.222539 0.596171
vt 0.225930 0.595946
vt 0.226643 0.596911
vt 0.227398 0.595353
vt 0.219627 0.587013
vt 0.218582 0.585891
vt 0.217698 0.588128
vt 0.224058 0.596701
vt 0.228247 0.596263
vt 0.230281 0.592144
vt 0.229018 0.592072
vt 0.227966 0.588095
vt 0.228959 0.587151
vt 0.224111 0.584062
vt 0.224188 0.585660
vt 0.224104 0.585634
vt 0.222122 0.584675
vt 0.224189 0.585688
vt 0.216599 0.591363
vt 0.218120 0.591450
vt 0.220294 0.595387
vt 0.219327 0.596306
s 0
usemtl Material
f 1/1/1 8/2/1 100/3/1 99/4/1 98/5/1
f 8/2/2 14/6/2 101/7/2 100/3/2
f 14/6/3 20/8/3 102/9/3 101/7/3
f 20/8/4 26/10/4 103/11/4 102/9/4
f 26/10/5 104/12/5 103/11/5
f 105/13/6 37/14/6 106/15/6
f 106/15/7 37/14/7 43/16/7 107/17/7
f 107/17/8 43/16/8 1/18/8 98/19/8 108/20/8
f 6/21/9 13/22/9 7/21/9
f 6/22/9 19/23/9 13/22/9
f 6/23/9 25/24/9 19/23/9
f 6/24/9 31/25/9 25/24/9
f 6/25/9 36/26/9 31/25/9
f 6/26/9 42/27/9 36/26/9
f 6/27/9 48/28/9 42/27/9
f 6/28/9 7/29/9 48/28/9
f 9/30/10 2/31/10 4/32/10 11/33/10
f 15/34/11 9/30/11 11/33/11 17/35/11
f 17/35/12 23/36/12 21/37/12 15/34/12
f 23/36/13 29/38/13 27/39/13 21/37/13
f 27/39/14 29/38/14 34/40/14 32/41/14
f 32/41/15 34/40/15 40/42/15 38/43/15
f 38/43/16 40/42/16 46/44/16 44/45/16
f 2/46/17 44/45/17 46/44/17 4/47/17
f 7/21/18 13/22/18 10/48/18 3/49/18
f 13/22/19 19/23/19 16/50/19 10/48/19
f 19/23/20 25/24/20 22/51/20 16/50/20
f 25/24/21 31/25/21 28/52/21 22/51/21
f 31/25/22 36/26/22 33/53/22 28/52/22
f 36/26/23 42/27/23 39/54/23 33/53/23
f 42/27/24 48/28/24 45/55/24 39/54/24
f 48/28/25 7/29/25 3/56/25 45/55/25
f 5/57/26 3/49/26 10/48/26 12/58/26
f 18/59/27 12/58/27 10/48/27 16/50/27
f 24/60/28 18/59/28 16/50/28 22/51/28
f 30/61/29 24/60/29 22/51/29 28/52/29
f 35/62/30 30/61/30 28/52/30 33/53/30
f 35/62/31 33/53/31 39/54/31 41/63/31
f 41/63/32 39/54/32 45/55/32 47/64/32
f 45/55/33 3/56/33 5/65/33 47/64/33
f 1/1/34 2/31/34 9/30/34 8/2/34
f 8/2/35 9/30/35 15/34/35 14/6/35
f 20/8/36 14/6/36 15/34/36 21/37/36
f 20/8/37 21/37/37 27/39/37 26/10/37
f 104/12/38 26/10/38 27/39/38 32/41/38 109/66/38
f 109/66/39 32/41/39 38/43/39 37/14/39 105/13/39
f 37/14/40 38/43/40 44/45/40 43/16/40
f 1/18/41 43/16/41 44/45/41 2/46/41
f 4/32/42 5/57/42 12/58/42 11/33/42
f 11/33/43 12/58/43 18/59/43 17/35/43
f 23/36/44 17/35/44 18/59/44 24/60/44
f 23/36/45 24/60/45 30/61/45 29/38/45
f 34/40/46 29/38/46 30/61/46 35/62/46
f 34/40/47 35/62/47 41/63/47 40/42/47
f 40/42/48 41/63/48 47/64/48 46/44/48
f 4/47/49 46/44/49 47/64/49 5/65/49
f 56/2/50 49/1/50 112/67/50 110/68/50 111/69/50
f 113/70/51 62/6/51 56/2/51 111/69/51
f 114/71/52 68/8/52 62/6/52 113/70/52
f 115/72/53 74/10/53 68/8/53 114/71/53 120/73/53
f 116/74/54 80/75/54 74/10/54 115/72/54
f 86/14/55 80/75/55 116/74/55 117/76/55
f 118/77/56 92/16/56 86/14/56 117/76/56
f 49/18/57 92/16/57 118/77/57 119/78/57 112/79/57
f 54/21/58 55/21/58 61/22/58
f 54/22/59 61/22/59 67/23/59
f 54/23/60 67/23/60 73/24/60
f 54/24/61 73/24/61 79/25/61
f 54/25/62 79/25/62 85/26/62
f 54/26/63 85/26/63 91/27/63
f 54/27/64 91/27/64 97/28/64
f 54/28/65 97/28/65 55/29/65
f 59/33/66 52/32/66 50/31/66 57/30/66
f 65/35/67 59/33/67 57/30/67 63/34/67
f 71/36/68 65/35/68 63/34/68 69/37/68
f 77/38/69 71/36/69 69/37/69 75/39/69
f 77/38/70 75/39/70 81/41/70 83/40/70
f 87/43/71 89/42/71 83/40/71 81/41/71
f 93/45/72 95/44/72 89/42/72 87/43/72
f 93/45/73 50/46/73 52/47/73 95/44/73
f 55/21/74 51/49/74 58/48/74 61/22/74
f 61/22/75 58/48/75 64/50/75 67/23/75
f 67/23/76 64/50/76 70/51/76 73/24/76
f 73/24/77 70/51/77 76/52/77 79/25/77
f 79/25/78 76/52/78 82/53/78 85/26/78
f 85/26/79 82/53/79 88/54/79 91/27/79
f 91/27/80 88/54/80 94/55/80 97/28/80
f 97/28/81 94/55/81 51/56/81 55/29/81
f 60/58/82 58/48/82 51/49/82 53/57/82
f 66/59/83 64/50/83 58/48/83 60/58/83
f 72/60/84 70/51/84 64/50/84 66/59/84
f 78/61/85 76/52/85 70/51/85 72/60/85
f 84/62/86 82/53/86 76/52/86 78/61/86
f 90/63/87 88/54/87 82/53/87 84/62/87
f 96/64/88 94/55/88 88/54/88 90/63/88
f 96/64/89 53/65/89 51/56/89 94/55/89
f 56/2/90 57/30/90 50/31/90 49/1/90
f 62/6/91 63/34/91 57/30/91 56/2/91
f 68/8/92 69/37/92 63/34/92 62/6/92
f 74/10/93 75/39/93 69/37/93 68/8/93
f 80/75/94 81/41/94 75/39/94 74/10/94
f 86/14/95 87/43/95 81/41/95 80/75/95
f 92/16/96 93/45/96 87/43/96 86/14/96
f 92/16/97 49/18/97 50/46/97 93/45/97
f 59/33/98 60/58/98 53/57/98 52/32/98
f 65/35/99 66/59/99 60/58/99 59/33/99
f 71/36/100 72/60/100 66/59/100 65/35/100
f 77/38/101 78/61/101 72/60/101 71/36/101
f 83/40/102 84/62/102 78/61/102 77/38/102
f 89/42/103 90/63/103 84/62/103 83/40/103
f 95/44/104 96/64/104 90/63/104 89/42/104
f 95/44/105 52/47/105 53/65/105 96/64/105
f 108/80/106 98/81/106 119/82/106
f 110/83/106 99/84/106 111/85/106
f 116/86/106 109/87/106 105/88/106
f 119/82/106 98/81/106 112/89/106
f 112/89/106 98/81/106 99/84/106
f 99/84/106 110/83/106 112/89/106
f 111/85/106 99/84/106 100/90/106
f 100/90/106 101/91/106 113/92/106
f 113/92/106 101/91/106 114/93/106
f 114/93/106 101/91/106 102/94/106
f 102/94/106 103/95/106 121/96/106
f 121/96/106 103/95/106 115/97/106
f 115/97/106 104/98/106 116/86/106
f 116/86/106 104/98/106 109/87/106
f 104/98/106 115/97/106 103/95/106
f 115/97/107 120/99/107 121/96/107
f 120/99/106 114/93/106 102/94/106 121/96/106
f 113/92/106 111/85/106 100/90/106
f 105/88/106 106/100/106 117/101/106
f 117/101/106 106/100/106 118/102/106
f 118/102/106 106/100/106 107/103/106
f 107/103/106 108/80/106 119/82/106
f 119/82/106 118/102/106 107/103/106
f 117/101/106 116/86/106 105/88/106
