# Blender 3.6.0
# www.blender.org
mtllib Butelka_4.mtl
o 4
v -0.016173 0.039919 -0.138038
v 0.012597 0.044946 -0.130669
v 0.039103 -0.006515 -0.121251
v 0.125818 0.050756 0.008508
v 0.119090 0.053074 -0.020761
v -0.198427 -0.002150 0.243939
v -0.160375 0.015386 0.213643
v 0.090477 0.119372 -0.004050
v -0.137691 0.037512 0.213638
v -0.106797 0.053634 0.191955
v 0.092584 0.104536 -0.030179
v -0.231812 0.012840 0.215366
v -0.198153 0.032349 0.181310
v 0.034250 0.144619 -0.052173
v -0.188647 0.060392 0.170026
v -0.163024 0.078881 0.143831
v 0.050414 0.123471 -0.066271
v -0.258042 -0.006700 0.182413
v -0.227833 0.010237 0.144021
v -0.009926 0.111709 -0.107673
v -0.228682 0.030567 0.119729
v -0.207200 0.045971 0.088332
v 0.017282 0.098788 -0.107896
v -0.012976 0.039382 -0.128578
v 0.058940 0.046710 -0.068856
v 0.008436 0.042959 -0.121796
v 0.033777 -0.006242 -0.112792
v 0.116539 0.049267 0.005091
v 0.110250 0.050729 -0.016716
v -0.199921 -0.008505 0.236364
v -0.159729 0.010420 0.204987
v 0.084303 0.111853 -0.006363
v -0.137362 0.032314 0.205101
v -0.109474 0.046698 0.185267
v 0.084909 0.099930 -0.025720
v -0.228007 0.004107 0.212325
v -0.192820 0.025278 0.176666
v 0.033016 0.134882 -0.050258
v -0.183517 0.053039 0.165599
v -0.160234 0.069490 0.141823
v 0.044591 0.118034 -0.060227
v -0.250074 -0.012333 0.184602
v -0.218818 0.005910 0.144003
v -0.007279 0.104863 -0.100881
v -0.219779 0.026024 0.120042
v -0.200115 0.039780 0.091720
v 0.012915 0.094435 -0.100023
v 0.009375 -0.009682 -0.128960
v 0.012051 -0.009209 -0.119685
v 0.105438 -0.000410 -0.038705
v 0.069747 -0.003962 -0.075580
v 0.112321 0.000790 -0.015413
v 0.121532 0.001502 -0.012325
v 0.114476 0.000049 -0.043189
v -0.082595 -0.005489 0.194818
v -0.043423 -0.003897 0.162914
v -0.036110 -0.003204 0.169395
v -0.076676 -0.004845 0.202657
v -0.188786 -0.017601 0.033466
v -0.212793 -0.018305 0.061145
v -0.181459 -0.016912 0.040000
v -0.205108 -0.017599 0.067451
v -0.232945 -0.018432 0.099004
v -0.230220 -0.017193 0.132419
v -0.220768 -0.016504 0.134523
v -0.223587 -0.017736 0.101533
v -0.258994 -0.017651 0.177781
v -0.253736 -0.016845 0.192256
v -0.266768 -0.017438 0.200632
v -0.222420 -0.013403 0.235787
v -0.205613 -0.012186 0.239259
v -0.250474 -0.016935 0.182656
v -0.249131 -0.015833 0.214647
v -0.147790 -0.009049 0.218114
v -0.149489 -0.009461 0.208625
v -0.117008 -0.007205 0.212334
v -0.114885 -0.006767 0.221741
v -0.193763 -0.011205 0.245596
v -0.241898 0.001952 0.225943
v -0.239524 -0.008338 0.224404
v -0.207736 -0.008168 0.248678
v 0.039103 -0.006515 -0.121251
v 0.114476 0.000049 -0.043189
v 0.012051 -0.009209 -0.119685
v 0.033777 -0.006242 -0.112792
v 0.112321 0.000790 -0.015413
v 0.105438 -0.000410 -0.038705
v 0.121532 0.001502 -0.012325
v -0.082595 -0.005489 0.194818
v -0.043423 -0.003897 0.162914
v -0.036110 -0.003204 0.169395
v -0.076676 -0.004845 0.202657
v -0.199921 -0.008505 0.236364
v -0.149489 -0.009461 0.208625
v 0.009375 -0.009682 -0.128960
v -0.188786 -0.017601 0.033466
v -0.212793 -0.018305 0.061145
v -0.181459 -0.016912 0.040000
v -0.205108 -0.017599 0.067451
v -0.232945 -0.018432 0.099004
v -0.230220 -0.017193 0.132419
v -0.220768 -0.016504 0.134523
v -0.223587 -0.017736 0.101533
v -0.258994 -0.017651 0.177781
v -0.266768 -0.017438 0.200632
v -0.222420 -0.013403 0.235787
v -0.205613 -0.012186 0.239259
v -0.250474 -0.016935 0.182656
v -0.117008 -0.007205 0.212334
v -0.249131 -0.015833 0.214647
v -0.239524 -0.008338 0.224404
v -0.241898 0.001952 0.225943
v -0.193763 -0.011205 0.245596
v -0.207736 -0.008168 0.248678
v 0.069747 -0.003962 -0.075580
v -0.114885 -0.006767 0.221741
v -0.253736 -0.016845 0.192256
v -0.147790 -0.009049 0.218114
v 0.600794 -0.018973 -0.089315
v 0.549787 -0.021794 -0.097297
v 0.529065 -0.022940 -0.121243
v 0.489216 -0.025143 -0.130821
v 0.647055 0.011848 -0.056872
v 0.598425 0.023857 -0.071547
v 0.547107 0.026672 -0.077191
v 0.199908 0.031215 -0.100897
v 0.525451 0.042432 -0.094124
v 0.485228 0.046992 -0.100897
v 0.646409 0.023520 -0.028652
v 0.597445 0.041597 -0.028652
v 0.545997 0.046747 -0.028652
v 0.198256 0.061094 -0.028652
v 0.523953 0.069510 -0.028652
v 0.483575 0.076871 -0.028652
v 0.183726 0.034709 -0.028652
v 0.647055 0.011848 -0.000431
v 0.598425 0.023857 0.014244
v 0.547107 0.026672 0.019888
v 0.199908 0.031215 0.043593
v 0.525451 0.042432 0.036820
v 0.485228 0.046992 0.043593
v 0.600794 -0.018973 0.032011
v 0.549787 -0.021794 0.039993
v 0.529065 -0.022940 0.063939
v 0.489216 -0.025143 0.073518
v 0.598095 -0.019123 -0.079687
v 0.544554 -0.022083 -0.088780
v 0.524186 -0.023209 -0.112518
v 0.488075 -0.025206 -0.120887
v 0.644564 0.004926 -0.050099
v 0.596102 0.016910 -0.064739
v 0.542207 0.020369 -0.071169
v 0.204657 0.025120 -0.094549
v 0.520912 0.036003 -0.087954
v 0.484474 0.039915 -0.093872
v 0.644074 0.013796 -0.028652
v 0.595277 0.031835 -0.028652
v 0.541235 0.037954 -0.028652
v 0.203150 0.052374 -0.028652
v 0.519556 0.060529 -0.028652
v 0.482983 0.066888 -0.028652
v 0.193314 0.031868 -0.028652
v 0.644564 0.004926 -0.007205
v 0.596102 0.016910 0.007436
v 0.542207 0.020369 0.013865
v 0.204657 0.025120 0.037245
v 0.520912 0.036003 0.030651
v 0.484474 0.039914 0.036568
v 0.598095 -0.019123 0.022384
v 0.544554 -0.022083 0.031477
v 0.524186 -0.023209 0.055215
v 0.488075 -0.025206 0.063583
v 0.461752 -0.026662 -0.130821
v 0.461063 -0.026700 -0.120979
v 0.488394 -0.030972 -0.118495
v 0.489540 -0.031004 -0.128390
v 0.200891 0.013430 -0.108275
v 0.205349 0.012613 -0.099737
v 0.529867 -0.037446 -0.115225
v 0.196758 0.013707 -0.083589
v 0.187263 0.015208 -0.085612
v 0.194307 0.013917 -0.072055
v 0.194492 0.013249 -0.028652
v 0.184792 0.015438 -0.075247
v 0.186097 0.013733 0.026900
v 0.195760 0.012265 0.024901
v 0.184871 0.014004 0.021413
v 0.194381 0.012581 0.017983
v 0.201023 0.011051 0.051958
v 0.205466 0.010490 0.043314
v 0.658605 0.011215 -0.055602
v 0.654101 0.022750 -0.028652
v 0.658729 0.016856 -0.015448
v 0.648391 -0.012317 -0.066897
v 0.645026 -0.003420 -0.003743
v 0.647571 0.002501 0.003446
v 0.656270 0.004911 -0.049437
v 0.658505 0.013440 -0.028652
v 0.653565 0.011491 -0.001147
v 0.650522 0.004918 -0.007542
v 0.624058 -0.036818 0.003649
v 0.621668 -0.038207 0.015008
v 0.646284 -0.016458 -0.069573
v 0.637027 -0.029280 -0.057975
v 0.639199 -0.028017 -0.068296
v 0.644836 -0.016538 -0.059379
v 0.635534 -0.017052 0.006116
v 0.633897 -0.017143 0.017645
v 0.627282 -0.045139 -0.056240
v 0.617007 -0.048923 0.002148
v 0.624027 -0.052707 -0.065587
v 0.621377 -0.052578 -0.045700
v 0.615888 -0.052312 -0.004506
v 0.613520 -0.052197 0.013268
v 0.524938 -0.036803 -0.106879
v 0.550852 -0.041058 -0.089305
v 0.545565 -0.040355 -0.081200
v 0.602466 -0.049215 -0.076769
v 0.609956 -0.051520 0.004351
v 0.599803 -0.050024 0.009564
v 0.599743 -0.048928 -0.067323
v 0.611726 -0.050868 -0.061102
v 0.545647 -0.041845 0.023278
v 0.602541 -0.050580 0.018900
v 0.525060 -0.039021 0.048656
v 0.550947 -0.042778 0.031288
v 0.447830 -0.027431 0.073518
v 0.489698 -0.033854 0.069904
v 0.448490 -0.027395 0.063719
v 0.488536 -0.033536 0.060128
v 0.530003 -0.039902 0.056903
v 0.489698 -0.033854 0.069904
v 0.530003 -0.039902 0.056903
v 0.461752 -0.026662 -0.130821
v 0.489540 -0.031004 -0.128390
v 0.200891 0.013430 -0.108275
v 0.187263 0.015208 -0.085612
v 0.184792 0.015438 -0.075247
v 0.184871 0.014004 0.021413
v 0.195760 0.012265 0.024901
v 0.194381 0.012581 0.017983
v 0.205466 0.010490 0.043314
v 0.656270 0.004911 -0.049437
v 0.658505 0.013440 -0.028652
v 0.658729 0.016856 -0.015448
v 0.653565 0.011491 -0.001147
v 0.645026 -0.003420 -0.003743
v 0.650522 0.004918 -0.007542
v 0.646284 -0.016458 -0.069573
v 0.639199 -0.028017 -0.068296
v 0.624027 -0.052707 -0.065587
v 0.602466 -0.049215 -0.076769
v 0.635534 -0.017052 0.006116
v 0.624058 -0.036818 0.003649
v 0.617007 -0.048923 0.002148
v 0.615888 -0.052312 -0.004506
v 0.488394 -0.030972 -0.118495
v 0.524938 -0.036803 -0.106879
v 0.550852 -0.041058 -0.089305
v 0.621377 -0.052578 -0.045700
v 0.611726 -0.050868 -0.061102
v 0.599803 -0.050024 0.009564
v 0.545647 -0.041845 0.023278
v 0.613520 -0.052197 0.013268
v 0.602541 -0.050580 0.018900
v 0.550947 -0.042778 0.031288
v 0.186097 0.013733 0.026900
v 0.201023 0.011051 0.051958
v 0.525060 -0.039021 0.048656
v 0.488536 -0.033536 0.060128
v 0.461063 -0.026700 -0.120979
v 0.205349 0.012613 -0.099737
v 0.529867 -0.037446 -0.115225
v 0.196758 0.013707 -0.083589
v 0.194307 0.013917 -0.072055
v 0.194492 0.013249 -0.028652
v 0.448490 -0.027395 0.063719
v 0.658605 0.011215 -0.055602
v 0.654101 0.022750 -0.028652
v 0.648391 -0.012317 -0.066897
v 0.644836 -0.016538 -0.059379
v 0.647571 0.002501 0.003446
v 0.637027 -0.029280 -0.057975
v 0.633897 -0.017143 0.017645
v 0.627282 -0.045139 -0.056240
v 0.621668 -0.038207 0.015008
v 0.545565 -0.040355 -0.081200
v 0.609956 -0.051520 0.004351
v 0.599743 -0.048928 -0.067323
v 0.447830 -0.027431 0.073518
v -0.093920 0.062784 -0.192578
v -0.100033 0.044348 -0.195017
v -0.110583 0.012527 -0.187035
v -0.110583 0.012527 -0.198209
v -0.068711 0.054426 -0.203579
v -0.076460 0.036533 -0.205303
v -0.089154 0.005422 -0.207561
v -0.058269 0.050964 -0.230137
v -0.076460 0.036533 -0.254972
v -0.081653 0.002936 -0.260616
v -0.089154 0.005422 -0.252714
v -0.093920 0.062784 -0.267697
v -0.100033 0.044348 -0.265258
v -0.110583 0.012527 -0.273240
v -0.110583 0.012527 -0.262065
v -0.126659 -0.035962 -0.270047
v -0.119130 0.071142 -0.256696
v -0.123605 0.052164 -0.254972
v -0.139513 0.022119 -0.260616
v -0.132012 0.019632 -0.252714
v -0.153446 -0.027081 -0.258358
v -0.129572 0.074604 -0.230137
v -0.133369 0.055401 -0.230137
v -0.151496 0.026092 -0.230137
v -0.140889 0.022575 -0.230137
v -0.164542 -0.023402 -0.230137
v -0.119130 0.071142 -0.203579
v -0.123605 0.052164 -0.205303
v -0.139513 0.022119 -0.199659
v -0.132012 0.019632 -0.207561
v -0.153446 -0.027081 -0.201917
v -0.095754 0.057252 -0.200704
v -0.100212 0.043808 -0.205000
v -0.108881 0.017660 -0.195446
v -0.108198 0.019720 -0.204735
v -0.075999 0.050702 -0.209324
v -0.083340 0.038214 -0.212363
v -0.085597 0.009940 -0.205607
v -0.091149 0.014067 -0.212175
v -0.067816 0.047989 -0.230137
v -0.076352 0.035897 -0.230137
v -0.084087 0.011725 -0.230137
v -0.075999 0.050702 -0.250950
v -0.083340 0.038214 -0.247912
v -0.085597 0.009940 -0.254668
v -0.091149 0.014067 -0.248100
v -0.095754 0.057252 -0.259571
v -0.100212 0.043808 -0.255274
v -0.108881 0.017660 -0.264828
v -0.108198 0.019720 -0.255540
v -0.127562 -0.038685 -0.260468
v -0.115510 0.063802 -0.250950
v -0.117083 0.049402 -0.247912
v -0.132165 0.025380 -0.254668
v -0.125248 0.025372 -0.248100
v -0.147919 -0.031935 -0.251584
v -0.123693 0.066515 -0.230137
v -0.124072 0.051719 -0.230137
v -0.141810 0.028578 -0.230137
v -0.132310 0.027714 -0.230137
v -0.156351 -0.029140 -0.230137
v -0.097067 0.053292 -0.230137
v -0.115510 0.063802 -0.209325
v -0.117083 0.049402 -0.212363
v -0.132165 0.025380 -0.205607
v -0.125248 0.025372 -0.212175
v -0.147919 -0.031935 -0.208691
v -0.072567 0.021944 -0.218054
v -0.074125 0.007128 -0.242901
v -0.067127 0.028324 -0.230137
v -0.070460 0.050386 -0.256307
v -0.082151 0.058882 -0.262561
v -0.066108 0.053563 -0.250076
v -0.085069 0.004068 -0.198169
v -0.099932 -0.029913 -0.202158
v -0.080024 0.013475 -0.201430
v -0.094395 -0.019156 -0.204801
v -0.081750 0.002968 -0.216140
v -0.077702 0.007323 -0.225688
v -0.095012 -0.031903 -0.229576
v -0.076130 0.001104 -0.246568
v -0.092279 -0.033009 -0.244809
v -0.079164 0.002110 -0.230137
v -0.075983 0.008990 -0.230137
v -0.156089 -0.054385 -0.272469
v -0.141959 -0.040465 -0.191717
v -0.143765 -0.042243 -0.202036
v -0.154101 -0.052426 -0.261107
v -0.126663 -0.035972 -0.190223
v -0.127100 -0.037290 -0.199925
v -0.129975 -0.045962 -0.263794
v -0.130494 -0.047529 -0.275328
v -0.118283 -0.041761 -0.256418
v -0.111910 -0.040852 -0.263611
v -0.098024 -0.036175 -0.257385
v -0.103534 -0.031830 -0.209487
v -0.105031 -0.037376 -0.251112
v -0.185942 -0.047362 -0.230137
v -0.175876 -0.050980 -0.230137
v -0.169791 -0.051337 -0.217573
v -0.170812 -0.055370 -0.247770
v -0.169035 -0.048353 -0.195223
v -0.171587 -0.058429 -0.270680
v -0.158194 -0.046395 -0.203488
v -0.164387 -0.055111 -0.259922
v -0.156089 -0.054385 -0.272469
v -0.171587 -0.058429 -0.270680
v -0.074125 0.007128 -0.242901
v -0.067127 0.028324 -0.230137
v -0.070460 0.050386 -0.256307
v -0.082151 0.058882 -0.262561
v -0.066108 0.053563 -0.250076
v -0.085069 0.004068 -0.198169
v -0.080024 0.013475 -0.201430
v -0.076130 0.001104 -0.246568
v -0.079164 0.002110 -0.230137
v -0.079164 0.002110 -0.230137
v -0.079164 0.002110 -0.230137
v -0.141959 -0.040465 -0.191717
v -0.126663 -0.035972 -0.190223
v -0.130494 -0.047529 -0.275328
v -0.111910 -0.040852 -0.263611
v -0.098024 -0.036175 -0.257385
v -0.127100 -0.037290 -0.199925
v -0.103534 -0.031830 -0.209487
v -0.169791 -0.051337 -0.217573
v -0.158194 -0.046395 -0.203488
v -0.094395 -0.019156 -0.204801
v -0.170812 -0.055370 -0.247770
v -0.164387 -0.055111 -0.259922
v -0.143765 -0.042243 -0.202036
v -0.169035 -0.048353 -0.195223
v -0.072567 0.021944 -0.218054
v -0.099932 -0.029913 -0.202158
v -0.081750 0.002968 -0.216140
v -0.154101 -0.052426 -0.261107
v -0.129975 -0.045962 -0.263794
v -0.118283 -0.041761 -0.256418
v -0.092279 -0.033009 -0.244809
v -0.095012 -0.031903 -0.229576
v -0.105031 -0.037376 -0.251112
v -0.175876 -0.050980 -0.230137
v -0.185942 -0.047362 -0.230137
v 0.020492 0.565392 -0.029072
v 0.026392 0.563513 -0.026392
vn 0.0601 -0.9978 0.0265
vn -0.5873 -0.2501 0.7698
vn 0.2679 0.3052 0.9138
vn -0.1824 0.7668 0.6154
vn -0.6762 0.7291 0.1059
vn -0.9241 0.2142 -0.3164
vn 0.6904 0.2300 -0.6859
vn -0.1170 0.1202 0.9858
vn -0.4488 0.4603 0.7659
vn -0.8127 0.4325 0.3904
vn -0.9954 0.0531 0.0792
vn 0.2553 -0.0453 -0.9658
vn 0.9747 0.0096 -0.2233
vn 0.8883 0.4264 -0.1704
vn 0.6166 0.7050 -0.3505
vn 0.3186 0.6822 -0.6581
vn 0.1689 0.3715 -0.9130
vn -0.5649 -0.4209 -0.7097
vn 0.7190 -0.3229 0.6154
vn 0.5649 0.4209 0.7097
vn 0.0799 0.9181 0.3883
vn -0.4520 0.8775 -0.1606
vn -0.7190 0.3229 -0.6154
vn 0.4605 0.3837 0.8005
vn -0.0196 0.8758 0.4823
vn -0.5460 0.8356 -0.0609
vn -0.8103 0.2867 -0.5111
vn 0.4021 0.3611 0.8414
vn -0.0715 0.8465 0.5276
vn -0.5907 0.8069 -0.0083
vn -0.8514 0.2654 -0.4523
vn 0.1827 -0.7666 -0.6156
vn 0.6763 -0.7289 -0.1061
vn 0.9243 -0.2141 0.3161
vn -0.6952 -0.2337 0.6798
vn -0.6910 -0.2380 0.6825
vn -0.6864 -0.2376 0.6873
vn -0.6841 -0.2328 0.6912
vn -0.6855 -0.2264 0.6920
vn -0.6896 -0.2221 0.6892
vn -0.6942 -0.2225 0.6845
vn -0.6965 -0.2273 0.6806
vn 0.1207 -0.1182 -0.9856
vn 0.4511 -0.4568 -0.7667
vn 0.8133 -0.4292 -0.3929
vn 0.9952 -0.0515 -0.0831
vn -0.3045 0.0174 0.9523
vn -0.9594 -0.0325 0.2800
vn -0.8821 -0.4129 0.2267
vn -0.6342 -0.6670 0.3910
vn -0.3623 -0.6463 0.6716
vn -0.2257 -0.3628 0.9041
vn 0.5671 0.4216 0.7076
vn -0.7169 0.3236 -0.6176
vn -0.5627 -0.4201 -0.7119
vn -0.0777 -0.9173 -0.3905
vn 0.4541 -0.8767 0.1584
vn 0.7212 -0.3221 0.6132
vn -0.4513 -0.3802 -0.8074
vn 0.0279 -0.8714 -0.4898
vn 0.5534 -0.8313 0.0525
vn 0.8172 -0.2834 0.5018
vn -0.4081 -0.3635 -0.8375
vn 0.0662 -0.8497 -0.5231
vn 0.5863 -0.8100 0.0136
vn 0.8475 -0.2676 0.4584
vn -0.1530 -0.9881 -0.0143
vn 0.8581 0.5081 -0.0740
vn 0.8737 -0.4771 0.0947
vn 0.8518 -0.5106 0.1168
vn 0.1217 0.3861 -0.9144
vn 0.0922 0.9209 -0.3788
vn 0.0922 0.9209 0.3788
vn 0.1217 0.3861 0.9144
vn 0.3515 0.3752 -0.8577
vn 0.3237 0.8769 -0.3553
vn 0.3237 0.8769 0.3553
vn 0.3515 0.3752 0.8577
vn 0.3907 -0.3342 0.8577
vn 0.3907 -0.3342 -0.8577
vn 0.7138 0.3017 -0.6321
vn 0.6933 0.6714 -0.2618
vn 0.6933 0.6714 0.2618
vn 0.7138 0.3017 0.6321
vn 0.7427 -0.2212 0.6321
vn 0.7427 -0.2212 -0.6321
vn -0.8388 0.1684 -0.5177
vn -0.8556 0.4712 -0.2144
vn -0.8556 0.4712 0.2144
vn -0.8388 0.1684 0.5177
vn -0.0211 0.3821 -0.9239
vn -0.0510 0.9225 -0.3827
vn -0.0510 0.9225 0.3827
vn -0.0211 0.3821 0.9239
vn 0.0211 -0.3821 0.9239
vn 0.0211 -0.3821 -0.9239
vn 0.1636 -0.3703 0.9144
vn 0.1636 -0.3703 -0.9144
vn 0.1955 0.3850 -0.9020
vn 0.1663 0.9125 -0.3736
vn 0.1663 0.9125 0.3736
vn 0.1955 0.3850 0.9020
vn 0.2368 -0.3611 0.9020
vn 0.2368 -0.3611 -0.9020
vn -0.0523 -0.3969 0.9164
vn -0.0228 -0.9240 0.3816
vn -0.0228 -0.9240 -0.3816
vn -0.0526 -0.3851 -0.9214
vn -0.3519 -0.3752 0.8576
vn -0.3241 -0.8768 0.3552
vn -0.3241 -0.8768 -0.3552
vn -0.3519 -0.3752 -0.8576
vn -0.3911 0.3341 -0.8576
vn -0.4188 0.8357 -0.3552
vn -0.4188 0.8357 0.3552
vn -0.3911 0.3341 0.8576
vn 0.9980 0.0632 -0.0033
vn 0.9980 0.0632 0.0033
vn -0.7167 -0.3007 0.6292
vn -0.6964 -0.6687 0.2606
vn -0.6964 -0.6687 -0.2606
vn -0.7167 -0.3007 -0.6292
vn -0.7455 0.2198 -0.6292
vn -0.7455 0.2198 0.6292
vn 0.8689 -0.1479 0.4723
vn 0.8842 -0.4241 0.1956
vn 0.8842 -0.4241 -0.1956
vn 0.8689 -0.1479 -0.4723
vn 0.0180 -0.3823 0.9239
vn 0.0479 -0.9226 0.3827
vn 0.0479 -0.9226 -0.3827
vn 0.0180 -0.3823 -0.9239
vn -0.0243 0.3819 -0.9239
vn -0.0243 0.3819 0.9239
vn -0.1337 -0.3860 0.9127
vn -0.1041 -0.9199 0.3781
vn -0.1041 -0.9199 -0.3781
vn -0.1337 -0.3860 -0.9127
vn -0.1754 0.3690 -0.9127
vn -0.1754 0.3689 0.9127
vn -0.1881 -0.3852 0.9035
vn -0.1589 -0.9136 0.3742
vn -0.1589 -0.9136 -0.3742
vn -0.1881 -0.3852 -0.9035
vn -0.2294 0.3621 -0.9035
vn -0.2294 0.3621 0.9035
vn -0.9985 -0.0552 -0.0000
vn 0.8937 -0.4077 0.1871
vn 0.6416 0.4021 -0.6532
vn 0.8912 -0.4121 0.1898
vn 0.2692 -0.9559 0.1177
vn -0.3352 -0.9323 0.1358
vn 0.2635 -0.9573 0.1189
vn 0.4045 0.0164 0.9144
vn 0.8969 -0.1443 0.4180
vn 0.9013 -0.1564 -0.4041
vn 0.4045 0.0164 -0.9144
vn -0.3145 0.2548 -0.9144
vn -0.8230 0.4234 -0.3788
vn -0.8230 0.4234 0.3788
vn -0.3146 0.2549 0.9144
vn -0.3147 -0.9492 -0.0000
vn 0.4224 0.0863 0.9023
vn 0.9241 -0.0800 0.3737
vn 0.9241 -0.0800 -0.3737
vn 0.4224 0.0863 -0.9023
vn -0.2871 0.3215 -0.9023
vn -0.7889 0.4879 -0.3737
vn -0.7889 0.4879 0.3737
vn -0.2871 0.3215 0.9023
vn 0.3246 -0.2290 0.9177
vn 0.8398 -0.3613 0.4052
vn 0.8399 -0.3603 -0.4058
vn 0.3246 -0.2290 -0.9177
vn -0.3971 0.0102 -0.9177
vn -0.9074 0.1794 -0.3801
vn -0.9074 0.1794 0.3801
vn -0.3971 0.0102 0.9177
vn 0.4542 0.2410 -0.8577
vn -0.2203 0.4646 -0.8577
vn -0.7065 0.5916 -0.3884
vn -0.6972 0.6227 0.3553
vn -0.2341 0.4541 0.8596
vn -0.2560 -0.9565 0.1401
vn -0.1781 -0.9823 0.0580
vn -0.1781 -0.9823 -0.0580
vn -0.2560 -0.9565 -0.1401
vn -0.3661 -0.9200 -0.1401
vn -0.4440 -0.8941 -0.0580
vn -0.4440 -0.8941 0.0580
vn -0.3661 -0.9200 0.1401
vn -0.3855 0.0501 -0.9214
vn -0.8978 0.2199 -0.3816
vn -0.9006 0.2254 0.3716
vn -0.3855 0.0501 0.9214
vn 0.3390 -0.1901 0.9214
vn 0.8513 -0.3600 0.3816
vn 0.8513 -0.3600 -0.3816
vn 0.3390 -0.1901 -0.9214
vn 0.3941 0.8907 0.2265
vn 0.5201 0.8490 0.0938
vn 0.4048 0.9136 -0.0396
vn 0.3941 0.8907 -0.2265
vn 0.2161 0.9498 -0.2265
vn 0.0901 0.9915 -0.0938
vn 0.0901 0.9915 0.0938
vn 0.2161 0.9498 0.2265
vn -0.4419 -0.1749 -0.8798
vn -0.9311 -0.0128 -0.3644
vn -0.9311 -0.0128 0.3644
vn -0.4419 -0.1749 0.8798
vn 0.2499 -0.4043 0.8798
vn 0.7391 -0.5665 0.3644
vn 0.7391 -0.5665 -0.3644
vn 0.2499 -0.4043 -0.8798
vn -0.2648 0.3721 -0.8896
vn -0.7595 0.5361 -0.3685
vn -0.7595 0.5361 0.3685
vn -0.2648 0.3721 0.8896
vn 0.4347 0.1402 0.8896
vn 0.9293 -0.0238 0.3685
vn 0.9293 -0.0238 -0.3685
vn 0.4347 0.1402 -0.8896
vn -0.4542 -0.2413 0.8576
vn 0.2201 -0.4649 0.8576
vn 0.6969 -0.6230 0.3552
vn 0.6969 -0.6230 -0.3552
vn 0.2328 -0.4595 -0.8571
vn 0.3147 0.9492 -0.0000
vt 0.753768 0.206400
vt 0.669366 0.158784
vt 0.623909 0.047878
vt 0.608725 0.029019
vt 0.545256 0.000000
vt 0.618878 0.000088
vt 0.654996 0.044985
vt 0.696049 0.150461
vt 0.781240 0.198848
vt 0.824374 0.282145
vt 0.834610 0.354406
vt 0.907103 0.763316
vt 0.778651 0.669669
vt 0.429339 0.320559
vt 0.375072 0.231592
vt 0.817326 0.163282
vt 0.943064 0.177560
vt 0.220100 0.153492
vt 0.304257 0.118792
vt 0.344953 0.019924
vt 0.363159 0.000000
vt 0.433957 0.000000
vt 0.387146 0.015216
vt 0.375626 0.027809
vt 0.330576 0.131400
vt 0.247199 0.165455
vt 0.972628 0.209594
vt 0.851022 0.195299
vt 0.413030 0.259943
vt 0.459940 0.330647
vt 0.629032 0.499286
vt 0.804354 0.672917
vt 0.888671 0.735309
vt 0.802344 0.353268
vt 0.791826 0.281800
vt 0.847694 0.501051
vt 1.000000 0.381313
vt 1.000000 0.454745
vt 0.941123 0.501026
vt 1.000000 0.566043
vt 0.965315 0.630912
vt 0.612932 0.768977
vt 0.597217 0.707132
vt 0.625000 0.707132
vt 0.625000 0.771067
vt 0.750000 0.707132
vt 0.750000 0.803796
vt 0.875000 0.707132
vt 0.874854 0.828678
vt 0.750000 0.803796
vt 0.875000 0.828469
vt 0.907113 0.707132
vt 0.125000 -1.682853
vt 1.000000 -1.682853
vt 0.875000 -1.682853
vt 0.750000 -1.682853
vt 0.625000 -1.682853
vt 0.500000 -1.682853
vt 0.376896 -1.682853
vt 0.535991 0.291884
vt 0.625000 0.291884
vt 0.625000 0.411844
vt 0.558747 0.411844
vt 0.750000 0.291884
vt 0.750000 0.411844
vt 0.875000 0.291884
vt 0.875000 0.411844
vt 0.946088 0.411844
vt 0.969143 0.291884
vt 0.000000 -1.682853
vt 0.125000 -1.678658
vt 0.090361 -1.590575
vt 0.000000 -1.590575
vt 0.376896 -1.682853
vt 0.500000 -1.590575
vt 0.414239 -1.590575
vt 0.625000 -1.590575
vt 0.750000 -1.590575
vt 0.875000 -1.590575
vt 1.000000 -1.590575
vt 0.000000 -0.145288
vt 0.125000 -1.590575
vt 0.375000 -0.234751
vt 0.500000 0.061190
vt 0.500000 -0.234751
vt 0.625000 0.061190
vt 0.750000 0.061190
vt 0.875000 0.061190
vt 0.875000 -0.145288
vt 0.558747 0.411844
vt 0.597217 0.707132
vt 0.907113 0.707132
vt 0.518467 0.061190
vt 0.986917 0.061190
vt 0.750000 0.817912
vt 0.625000 0.746359
vt 0.673753 0.801469
vt 0.875000 0.758271
vt 0.812651 0.827562
vt 0.891043 0.707132
vt 0.875000 0.758271
vt 0.132425 -1.682853
vt 0.214140 -1.682853
vt 0.374112 -1.682853
vt 0.250000 -1.682853
vt 0.250000 -1.682853
vt 0.375907 -1.682853
vt 0.375000 -1.682853
vt 0.537295 0.291884
vt 0.563457 0.411844
vt 0.967822 0.291884
vt 0.941316 0.411844
vt 0.097046 -1.590575
vt 0.407462 -1.590575
vt 0.097051 -1.590575
vt 0.000000 -0.146973
vt 0.500000 -0.229378
vt 0.407471 -1.590575
vt 0.500000 0.060983
vt 0.500000 -0.229378
vt 0.985669 0.061190
vt 1.000000 -0.146973
vt 0.563457 0.411844
vt 0.941316 0.411844
vt 0.891043 0.707132
vt 0.519689 0.061190
vt 0.985669 0.061190
vt 0.299638 0.164407
vt 0.341006 0.049646
vt 0.377846 0.000000
vt 0.443262 0.000000
vt 0.392570 0.025206
vt 0.372076 0.052800
vt 0.326290 0.173468
vt 0.241761 0.225263
vt 0.298898 0.095161
vt 0.352986 0.157307
vt 0.859156 0.592950
vt 0.876200 0.556998
vt 0.881081 0.524036
vt 0.880822 0.381410
vt 0.881161 0.228779
vt 0.878449 0.203379
vt 0.859284 0.123847
vt 0.802796 0.340955
vt 0.791081 0.255737
vt 0.753430 0.180364
vt 0.669997 0.143308
vt 0.625014 0.030604
vt 0.607889 0.010234
vt 0.578767 0.000000
vt 0.637233 0.000000
vt 0.655732 0.022028
vt 0.696360 0.129594
vt 0.780574 0.167352
vt 0.823246 0.250428
vt 0.835031 0.339564
vt 0.868101 0.104297
vt 0.897578 0.215919
vt 0.899991 0.236327
vt 0.899904 0.553299
vt 0.894988 0.582390
vt 0.867956 0.629741
vt 0.351598 0.188205
vt 0.296604 0.125328
vt 0.216820 0.002494
vt 0.509793 0.021023
vt 0.487737 0.092101
vt 0.317782 0.000000
vt 0.650105 0.323755
vt 0.461630 0.348599
vt 1.000000 0.356618
vt 1.000000 0.393938
vt 0.494849 0.386435
vt 0.784436 0.374823
vt 0.592711 0.348074
vt 0.393606 0.376620
vt 0.585174 0.484012
vt 0.683579 0.601391
vt 1.000000 0.596403
vt 1.000000 0.630311
vt 0.712953 0.634848
vt 0.976611 0.621378
vt 0.486365 0.486365
vt 0.317782 0.317782
vt 0.443317 0.296531
vt 0.630311 0.630311
vt 0.596403 0.596403
vt 0.591180 0.191519
vt 0.556738 0.000000
vt 0.622154 0.000000
vt 0.362767 0.000000
vt 0.421233 0.000000
vt 0.399245 0.085354
vt 0.393938 0.393938
vt 0.356618 0.356618
vt 0.125000 0.983964
vt 0.115866 1.056409
vt 0.017801 0.983964
vt 0.125000 1.050425
vt 0.250000 0.983964
vt 0.250000 1.028110
vt 0.375000 0.983964
vt 0.375000 1.021427
vt 0.311878 1.052944
vt 0.250000 1.028110
vt 0.416464 0.983964
vt 0.000000 0.970482
vt 0.000000 0.707132
vt 0.125000 0.707132
vt 0.017801 0.983964
vt 0.250000 0.707132
vt 0.375000 0.707132
vt 0.500000 0.707132
vt 0.500000 0.898774
vt 0.416464 0.983964
vt 0.608213 0.769977
vt 0.572444 0.821469
vt 0.500000 0.898774
vt 0.592243 0.707132
vt 0.911739 0.707132
vt 1.000000 0.707132
vt 1.000000 0.970482
vt 0.958580 0.925901
vt 0.880322 0.830456
vt 0.000000 0.411844
vt 0.000000 0.291884
vt 0.125000 0.291884
vt 0.125000 0.411844
vt 0.250000 0.291884
vt 0.250000 0.411844
vt 0.375000 0.411844
vt 0.375000 0.291884
vt 0.500000 0.411844
vt 0.500000 0.291884
vt 0.532434 0.291884
vt 0.554120 0.411844
vt 0.972261 0.291884
vt 1.000000 0.291884
vt 1.000000 0.411844
vt 0.950315 0.411844
vt 0.125000 -1.668666
vt 0.094180 -1.590575
vt 0.250000 -1.590575
vt 0.125000 -1.668666
vt 0.142506 -1.682853
vt 0.365497 -1.682853
vt 0.375000 -1.675863
vt 0.375000 -1.590575
vt 0.409941 -1.590575
vt 0.000000 0.061190
vt 0.000000 -0.097807
vt 0.125000 0.061190
vt 0.250000 0.061190
vt 0.375000 0.061190
vt 0.375000 -0.178402
vt 0.500000 -0.178402
vt 0.875000 -0.097807
vt 0.592243 0.707132
vt 0.554121 0.411844
vt 0.950315 0.411844
vt 0.911739 0.707132
vt 0.532434 0.291884
vt 0.515094 0.061190
vt 0.989844 0.061190
vt 1.000000 0.061190
vt 0.009173 0.983964
vt 0.125000 1.040052
vt 0.125000 1.040052
vt 0.250000 1.053018
vt 0.250000 1.053018
vt 0.375000 1.012510
vt 0.423722 0.983964
vt 0.009174 0.983964
vt 0.500000 0.924628
vt 0.423722 0.983964
vt 0.500000 0.924628
vt 0.586970 0.851833
vt 0.625000 0.807120
vt 0.625000 0.765453
vt 0.607201 0.707132
vt 0.655770 0.799553
vt 0.875000 0.867837
vt 0.875000 0.775911
vt 0.825527 0.831257
vt 0.875000 0.867837
vt 0.940295 0.929356
vt 1.000000 0.978663
vt 0.896603 0.707132
vt 0.218170 -1.682853
vt 0.145269 -1.682853
vt 0.362529 -1.682853
vt 0.250000 -1.682853
vt 0.533378 0.291884
vt 0.558188 0.411844
vt 0.946199 0.411844
vt 0.971304 0.291884
vt 0.101240 -1.590575
vt 0.125000 -1.662332
vt 0.375000 -1.671397
vt 0.375000 -1.671398
vt 0.402794 -1.590575
vt 0.101238 -1.590575
vt 0.000000 -0.098285
vt 0.500000 -0.172513
vt 0.402804 -1.590575
vt 0.500000 -0.172513
vt 0.500000 0.061022
vt 0.988934 0.061190
vt 1.000000 -0.098285
vt 0.558188 0.411844
vt 0.515989 0.061190
vt 0.988933 0.061190
vt 0.365497 -1.682853
vt 0.142506 -1.682853
vt 0.735467 0.209723
vt 0.580601 0.000000
vt 0.683552 0.000000
vt 0.645809 0.495220
vt 0.645806 0.584020
vt 0.614801 0.535294
vt 0.969575 0.270894
vt 1.000000 0.316448
vt 1.000000 0.419399
vt 0.854264 0.342845
vt 0.782345 0.266935
vt 0.840508 0.268165
vt 0.940653 0.310109
vt 0.899881 0.269420
vt 0.868405 0.238010
vt 0.611518 0.086628
vt 0.513740 0.000000
vt 0.630760 0.000000
vt 0.690821 0.000000
vt 0.920170 0.308102
vt 0.372349 0.000000
vt 0.406262 0.000000
vt 0.439111 0.190900
vt 0.532163 0.486567
vt 0.627574 0.627574
vt 0.513740 0.513740
vt 0.404146 0.176129
vt 0.670444 0.409990
vt 0.669287 0.288133
vt 0.600401 0.000000
vt 0.637745 0.000000
vt 0.710854 0.305692
vt 0.712715 0.499386
vt 0.723497 0.649294
vt 0.690821 0.690821
vt 0.630760 0.630760
vt 0.683095 0.554358
vt 0.616211 0.000000
vt 0.501207 0.145865
vt 0.368186 0.000000
vt 0.443489 0.000000
vt 0.501361 0.052497
vt 0.542746 0.000000
vt 1.000000 0.627651
vt 0.383789 0.000000
vt 0.457254 0.000000
vt 0.669910 0.258920
vt 1.000000 0.593738
vt 0.631814 0.000000
vt 1.000000 0.362255
vt 1.000000 0.399598
vt 0.755639 0.159164
vt 0.556511 0.000000
vt 0.110256 1.065770
vt 0.125000 1.134867
vt 0.125000 1.279252
vt 0.000000 1.279252
vt 0.000084 0.983964
vt 0.250000 1.279252
vt 0.125000 1.134867
vt 0.375000 1.034887
vt 0.375000 1.279252
vt 0.250000 1.254129
vt 0.319170 1.062710
vt 0.431172 0.983964
vt 0.500000 0.983964
vt 0.500000 1.279252
vt 0.625000 1.279252
vt 0.625000 0.983964
vt 0.750000 0.983964
vt 0.750000 1.279252
vt 0.875000 1.279252
vt 1.000000 1.279252
vt 0.875000 0.983964
vt 1.000000 0.983964
vt 0.110243 1.279252
vt 0.317385 1.279252
vt 0.181480 1.279252
vt 0.000000 1.473035
vt 0.110243 1.279252
vt 0.125000 1.340039
vt 0.125000 1.473035
vt 0.250000 1.473035
vt 0.195150 1.400076
vt 0.375000 1.473035
vt 0.250000 1.444975
vt 0.305417 1.315950
vt 0.500000 1.473035
vt 0.625000 1.473035
vt 0.750000 1.473035
vt 0.875000 1.473035
vt 1.000000 1.473035
vt 0.000000 1.585305
vt 0.125000 1.585305
vt 0.250000 1.585305
vt 0.375000 1.559959
vt 0.343841 1.585305
vt 0.500000 1.585305
vt 0.441643 1.585305
vt 0.375000 1.559959
vt 0.625000 1.585305
vt 0.750000 1.585305
vt 0.875000 1.585305
vt 1.000000 1.585305
vt 0.500000 0.913526
vt 0.431172 0.983964
vt 0.579203 0.829348
vt 0.625000 0.780689
vt 0.750000 0.813577
vt 0.625000 0.780689
vt 0.875000 0.841781
vt 0.750000 0.813577
vt 0.950457 0.931428
vt 0.375000 1.585305
vt 0.000000 0.991016
vt 0.125000 1.051477
vt 0.246584 1.064014
vt 0.250000 1.067074
vt 0.375000 1.023955
vt 0.443020 0.983964
vt 0.988223 0.983964
vt 0.258180 1.279252
vt 0.250000 1.294187
vt 0.227328 1.279252
vt 0.500000 0.939491
vt 0.443020 0.983964
vt 0.500000 0.939491
vt 0.625000 0.826309
vt 0.595682 0.859864
vt 0.750000 0.828077
vt 0.681094 0.813155
vt 0.875000 0.885596
vt 0.807199 0.837219
vt 0.988223 0.983964
vt 0.929148 0.934796
vt 0.875000 0.885596
vt 0.343841 1.585305
vt 0.441643 1.585305
s 0
usemtl Material
f 103/1/1 102/2/1 108/3/1 68/4/1 110/5/1 69/6/1 67/7/1 101/8/1 100/9/1 97/10/1 96/11/1 95/12/1 3/13/1 83/14/1 53/15/1 91/16/1 92/17/1 77/18/1 74/19/1 78/20/1 81/21/1 106/22/1 107/23/1 30/24/1 94/25/1 109/26/1 55/27/1 56/28/1 52/29/1 87/30/1 51/31/1 27/32/1 84/33/1 61/34/1 99/35/1
f 79/36/2 69/37/2 110/38/2 111/39/2 106/40/2 81/41/2
f 114/42/3 113/43/3 6/44/3
f 114/45/4 6/44/4 12/46/4 112/47/4
f 12/46/5 18/48/5 105/49/5 112/50/5
f 105/51/6 18/48/6 104/52/6
f 82/53/7 2/54/7 23/55/7 17/56/7 11/57/7 5/58/7 54/59/7
f 116/60/8 9/61/8 7/62/8 118/63/8
f 9/61/9 15/64/9 13/65/9 7/62/9
f 15/64/10 21/66/10 19/67/10 13/65/10
f 64/68/11 19/67/11 21/66/11 63/69/11
f 2/70/12 82/71/12 48/72/12 1/73/12
f 54/74/13 5/58/13 4/75/13 88/76/13
f 8/77/14 4/75/14 5/58/14 11/57/14
f 11/57/15 17/56/15 14/78/15 8/77/15
f 17/56/16 23/55/16 20/79/16 14/78/16
f 23/55/17 2/54/17 1/80/17 20/79/17
f 59/81/18 1/82/18 48/82/18
f 57/83/19 88/75/19 4/75/19
f 4/77/20 8/77/20 10/84/20 58/84/20 57/85/20
f 8/78/21 14/78/21 16/86/21 10/86/21
f 14/79/22 20/79/22 22/87/22 16/87/22
f 60/88/23 22/88/23 20/80/23 1/80/23 59/89/23
f 118/90/24 7/62/24 6/44/24 113/91/24
f 6/44/25 7/62/25 13/65/25 12/46/25
f 18/48/26 12/46/26 13/65/26 19/67/26
f 104/92/27 18/48/27 19/67/27 64/68/27
f 58/93/28 10/86/28 9/61/28 116/60/28
f 10/86/29 16/87/29 15/64/29 9/61/29
f 16/87/30 22/88/30 21/66/30 15/64/30
f 63/69/31 21/66/31 22/88/31 60/94/31
f 80/95/32 36/46/32 93/44/32 71/96/32 70/97/32
f 117/98/33 42/48/33 36/46/33 80/95/33 73/99/33
f 72/100/34 42/48/34 117/101/34
f 25/70/35 26/70/35 85/53/35
f 85/102/36 115/103/36 25/53/36
f 50/104/37 25/105/37 115/106/37
f 50/107/38 29/58/38 25/108/38
f 29/58/39 35/57/39 25/58/39
f 35/57/40 41/56/40 25/57/40
f 41/56/41 47/55/41 25/56/41
f 47/55/42 26/54/42 25/55/42
f 31/62/43 33/61/43 76/109/43 75/110/43
f 33/61/44 31/62/44 37/65/44 39/64/44
f 39/64/45 37/65/45 43/67/45 45/66/45
f 66/111/46 45/66/46 43/67/46 65/112/46
f 85/53/47 26/70/47 24/73/47 49/113/47
f 86/114/48 28/75/48 29/58/48 50/107/48
f 32/77/49 35/57/49 29/58/49 28/75/49
f 35/57/50 32/77/50 38/78/50 41/56/50
f 41/56/51 38/78/51 44/79/51 47/55/51
f 47/55/52 44/79/52 24/80/52 26/54/52
f 49/115/53 24/73/53 98/116/53
f 90/117/54 28/75/54 86/118/54
f 89/119/55 34/86/55 32/77/55 28/75/55 90/120/55
f 32/77/56 34/86/56 40/87/56 38/78/56
f 38/78/57 40/87/57 46/88/57 44/79/57
f 24/80/58 44/79/58 46/88/58 62/121/58 98/122/58
f 93/44/59 31/62/59 75/123/59
f 36/46/60 37/65/60 31/62/60 93/44/60
f 42/48/61 43/67/61 37/65/61 36/46/61
f 65/124/62 43/67/62 42/48/62 72/125/62
f 76/109/63 33/61/63 34/86/63 89/126/63
f 34/86/64 33/61/64 39/64/64 40/87/64
f 40/87/65 39/64/65 45/66/65 46/88/65
f 62/127/66 46/88/66 45/66/66 66/111/66
f 259/128/67 218/129/67 251/130/67 260/131/67 222/132/67 221/133/67 217/134/67 258/135/67 175/136/67 174/137/67 178/138/67 180/139/67 275/140/67 276/141/67 241/142/67 240/143/67 242/144/67 277/145/67 270/146/67 225/147/67 263/148/67 220/149/67 219/150/67 256/151/67 264/152/67 265/153/67 266/154/67 233/155/67 232/156/67 227/157/67 189/158/67 185/159/67 239/160/67 238/161/67 237/162/67 236/163/67 234/164/67 235/165/67 179/166/67
f 191/167/68 192/168/68 245/169/68
f 196/170/69 284/171/69 286/172/69 254/173/69 253/174/69 195/175/69 248/176/69 244/177/69 243/178/69 281/179/69 283/180/69 250/181/69 249/182/69 280/183/69 191/184/69 245/185/69 246/186/69
f 250/187/70 283/188/70 209/189/70 260/190/70 251/191/70
f 264/192/70 256/193/70 255/194/70 254/195/70 286/196/70
f 123/197/71 278/198/71 194/199/71
f 278/200/72 123/197/72 129/201/72 279/202/72
f 129/201/73 136/203/73 199/204/73 193/205/73 279/206/73
f 199/204/74 136/203/74 282/207/74
f 203/208/75 119/209/75 124/210/75 123/197/75 194/211/75
f 123/197/76 124/210/76 130/212/76 129/201/76
f 129/201/77 130/212/77 137/213/77 136/203/77
f 136/203/78 137/213/78 142/214/78 208/215/78 282/216/78
f 214/217/79 202/218/79 208/219/79 142/214/79 224/220/79
f 252/221/80 119/222/80 203/223/80 205/224/80 211/225/80
f 120/226/81 121/227/81 127/228/81 125/229/81
f 125/229/82 127/228/82 133/230/82 131/231/82
f 138/232/83 131/231/83 133/230/83 140/233/83
f 143/234/84 138/232/84 140/233/84 144/235/84
f 143/234/85 144/235/85 231/236/85 226/237/85
f 273/238/86 121/239/86 120/240/86 216/241/86
f 181/242/87 126/82/87 177/243/87
f 135/105/88 132/244/88 126/82/88 181/245/88 184/246/88
f 187/247/89 267/248/89 139/249/89 132/244/89 135/105/89
f 267/248/90 268/250/90 139/249/90
f 177/82/91 126/82/91 128/251/91 122/251/91 173/252/91
f 126/244/92 132/244/92 134/253/92 128/253/92
f 132/249/93 139/249/93 141/254/93 134/254/93
f 145/255/94 141/255/94 139/75/94 268/75/94 290/256/94
f 290/257/95 228/84/95 145/84/95
f 173/258/96 122/88/96 176/88/96
f 119/209/71 120/226/71 125/229/71 124/210/71
f 124/210/72 125/229/72 131/231/72 130/212/72
f 130/212/73 131/231/73 138/232/73 137/213/73
f 137/213/74 138/232/74 143/234/74 142/214/74
f 224/259/97 142/214/97 143/234/97 226/260/97
f 216/261/98 120/240/98 119/222/98 252/262/98
f 121/227/99 122/251/99 128/253/99 127/228/99
f 127/228/100 128/253/100 134/254/100 133/230/100
f 133/230/101 134/254/101 141/255/101 140/233/101
f 140/233/102 141/255/102 145/84/102 144/235/102
f 231/263/103 144/235/103 145/84/103 228/264/103
f 176/265/104 122/266/104 121/239/104 273/238/104
f 150/197/105 206/267/105 197/268/105
f 156/201/106 150/197/106 197/269/106 198/270/106
f 163/203/107 156/201/107 198/271/107 200/272/107
f 247/273/108 163/203/108 200/272/108
f 150/197/109 151/210/109 146/209/109 206/274/109
f 156/201/110 157/212/110 151/210/110 150/197/110
f 163/203/111 164/213/111 157/212/111 156/201/111
f 207/275/112 169/214/112 164/213/112 163/203/112 247/276/112
f 169/214/113 207/277/113 201/278/113 210/279/113 288/280/113 262/281/113
f 288/280/114 210/279/114 213/282/114
f 285/283/115 261/284/115 212/285/115
f 261/284/116 285/286/116 204/287/116 206/288/116 146/222/116 289/289/116
f 183/290/117 182/291/117 162/105/117
f 188/292/118 183/293/118 162/105/118
f 152/226/119 154/228/119 148/227/119 147/226/119
f 158/231/120 160/230/120 154/228/120 152/229/120
f 167/233/121 160/230/121 158/231/121 165/232/121
f 171/235/122 167/233/122 165/232/122 170/234/122
f 269/294/123 171/235/123 170/234/123 223/295/123
f 287/296/124 147/240/124 148/239/124 215/297/124
f 272/298/125 153/82/125 274/299/125
f 153/82/126 159/244/126 162/105/126 182/291/126 274/299/126
f 166/249/127 186/300/127 188/292/127 162/105/127 159/244/127
f 186/301/128 166/249/128 190/302/128
f 155/253/129 153/82/129 272/303/129 271/304/129 149/251/129
f 153/82/130 155/253/130 161/254/130 159/244/130
f 168/255/131 166/249/131 159/244/131 161/254/131
f 229/305/132 190/306/132 166/249/132 168/255/132 172/84/132
f 229/307/133 172/84/133 230/308/133
f 257/309/134 149/266/134 271/310/134
f 151/209/135 152/229/135 147/226/135 146/209/135
f 157/212/136 158/231/136 152/229/136 151/210/136
f 164/213/137 165/232/137 158/231/137 157/212/137
f 169/214/138 170/234/138 165/232/138 164/213/138
f 223/311/139 170/234/139 169/214/139 262/281/139
f 289/289/140 146/222/140 147/240/140 287/296/140
f 154/227/141 155/253/141 149/251/141 148/227/141
f 160/230/142 161/254/142 155/253/142 154/228/142
f 167/233/143 168/255/143 161/254/143 160/230/143
f 171/235/144 172/84/144 168/255/144 167/233/144
f 230/312/145 172/84/145 171/235/145 269/294/145
f 257/313/146 215/297/146 148/239/146 149/266/146
f 187/314/147 135/105/147 184/315/147
f 360/316/148 423/317/148 398/318/148
f 401/319/149 402/320/149 400/321/149
f 405/322/150 398/323/150 423/324/150 404/325/150 364/326/150 425/327/150 369/328/150 407/329/150
f 408/330/150 418/331/150 424/332/150 370/333/150 429/334/150
f 369/335/150 425/327/150 407/329/150
f 409/336/151 421/337/151 380/338/151 415/339/151 370/340/151 424/341/151 410/342/151
f 383/343/151 381/344/151 426/345/151 396/346/151 382/347/151 412/348/151 413/349/151 429/350/151 370/351/151 387/352/151
f 422/353/152 388/354/152 393/355/152 419/356/152 389/357/152 416/358/152
f 409/359/153 422/360/153 416/361/153 417/362/153 421/363/153
f 393/364/153 396/365/153 426/366/153 420/367/153 419/368/153
f 365/369/154 367/370/154 297/371/154 294/372/154 379/373/154
f 373/374/155 297/371/155 367/375/155
f 385/376/156 301/377/156 406/378/156 372/379/156
f 384/380/157 306/381/157 305/382/157 301/377/157 385/376/157
f 310/383/158 305/382/158 306/381/158 311/384/158
f 310/383/159 311/384/159 316/385/159 315/386/159
f 320/387/160 315/386/160 316/385/160 321/385/160
f 294/388/161 320/387/161 321/389/161 379/390/161
f 294/372/162 297/371/162 403/391/162 293/372/162
f 315/386/162 320/387/162 294/388/162 293/388/162 319/387/162 314/386/162 309/383/162 304/382/162 300/377/162 371/392/162 406/374/162 301/377/162 305/382/162 310/383/162
f 373/374/162 368/393/162 403/371/162 297/371/162
f 292/394/163 293/372/163 403/395/163 366/396/163 296/397/163
f 399/398/164 296/397/164 366/396/164 358/399/164
f 371/392/165 300/377/165 299/400/165 399/401/165 359/402/165
f 299/400/166 300/377/166 304/382/166 303/403/166
f 308/404/167 303/403/167 304/382/167 309/383/167
f 308/404/168 309/383/168 314/386/168 313/405/168
f 318/406/169 313/405/169 314/386/169 319/386/169
f 292/407/170 318/406/170 319/387/170 293/388/170
f 291/408/171 292/394/171 296/397/171 295/409/171
f 295/409/172 296/397/172 399/398/172 298/410/172
f 298/410/173 399/398/173 299/400/173 361/411/173 363/412/173
f 299/400/174 303/403/174 302/413/174 362/414/174 361/415/174
f 307/416/175 302/413/175 303/403/175 308/404/175
f 312/417/176 307/416/176 308/404/176 313/405/176
f 317/418/177 312/417/177 313/405/177 318/405/177
f 318/406/178 292/407/178 291/419/178 317/418/178
f 411/420/179 306/381/179 384/421/179
f 375/422/180 397/423/180 311/384/180 306/381/180 411/420/180
f 433/424/181 316/385/181 311/384/181 397/425/181
f 392/426/182 321/389/182 316/385/182 433/427/182
f 379/390/183 321/389/183 392/426/183 376/428/183
f 352/409/184 326/409/184 322/408/184
f 352/410/185 330/410/185 326/409/185
f 333/429/186 330/410/186 352/429/186
f 337/413/187 333/429/187 352/413/187
f 342/416/188 337/413/188 352/416/188
f 342/416/189 352/417/189 347/417/189
f 347/417/190 352/418/190 353/418/190
f 353/418/191 352/419/191 322/419/191
f 414/430/192 325/372/192 329/371/192 386/431/192
f 386/431/193 329/371/193 332/374/193 430/432/193
f 430/433/194 332/374/194 336/377/194 431/434/194
f 336/377/195 340/382/195 341/381/195 428/435/195 431/434/195
f 345/383/196 346/384/196 341/381/196 340/382/196
f 350/386/197 351/385/197 346/384/197 345/383/197
f 356/386/198 357/389/198 351/385/198 350/386/198
f 357/389/199 356/387/199 325/388/199 414/436/199
f 329/371/200 325/372/200 324/372/200 328/372/200
f 369/374/201 332/374/201 329/371/201 328/371/201
f 335/377/202 336/377/202 332/374/202 369/374/202 374/437/202
f 339/382/203 340/382/203 336/377/203 335/377/203
f 344/383/204 345/383/204 340/382/204 339/382/204
f 349/386/205 350/386/205 345/383/205 344/383/205
f 350/386/206 349/386/206 355/387/206 356/387/206
f 356/387/207 355/387/207 324/388/207 325/388/207
f 327/394/208 328/371/208 324/372/208 323/394/208
f 328/371/209 327/397/209 331/398/209 374/438/209 369/439/209
f 331/398/210 334/400/210 335/377/210 374/438/210
f 338/403/211 339/382/211 335/377/211 334/400/211
f 343/404/212 344/383/212 339/382/212 338/403/212
f 348/405/213 349/386/213 344/383/213 343/404/213
f 354/405/214 355/387/214 349/386/214 348/405/214
f 354/406/215 323/407/215 324/388/215 355/387/215
f 323/394/216 322/408/216 326/409/216 327/397/216
f 330/410/217 331/398/217 327/397/217 326/409/217
f 331/398/218 330/410/218 333/429/218 334/400/218
f 337/413/219 338/403/219 334/400/219 333/429/219
f 342/416/220 343/404/220 338/403/220 337/413/220
f 347/417/221 348/405/221 343/404/221 342/416/221
f 353/417/222 354/406/222 348/405/222 347/417/222
f 353/418/223 322/419/223 323/407/223 354/406/223
f 341/381/224 427/440/224 428/441/224
f 427/442/225 341/381/225 346/384/225 395/443/225 378/444/225
f 395/443/226 346/384/226 351/385/226 432/445/226 391/446/226
f 432/445/227 351/385/227 357/389/227 394/447/227 390/448/227
f 357/389/228 414/449/228 377/450/228 394/451/228
f 312/417/229 317/418/229 291/408/229 295/409/229 298/410/229 363/452/229 362/453/229 302/413/229 307/416/229
l 434 435
