# Blender 3.6.0
# www.blender.org
mtllib Butelka_2.mtl
o 2
v 0.235876 0.092072 -0.343139
v 0.318546 0.037232 -0.265054
v 0.326732 0.034159 -0.234596
v 0.316513 0.044138 -0.196118
v 0.298099 -0.005153 -0.318888
v 0.277161 0.005833 -0.272907
v 0.270910 -0.008194 -0.245189
v 0.254917 -0.002596 -0.207807
v 0.257656 -0.001166 -0.341341
v 0.231396 0.010344 -0.298314
v 0.209181 -0.002108 -0.279459
v 0.186801 0.004119 -0.245623
v 0.208060 0.048124 -0.326393
v 0.177704 0.048851 -0.317333
v 0.310247 0.042801 -0.265387
v 0.318435 0.039693 -0.235338
v 0.308953 0.048871 -0.200641
v 0.295897 0.004404 -0.320842
v 0.273997 0.015297 -0.272265
v 0.267874 0.001331 -0.244932
v 0.253347 0.006681 -0.211193
v 0.261872 0.007758 -0.339732
v 0.233910 0.019249 -0.294520
v 0.211961 0.006843 -0.275974
v 0.191855 0.012743 -0.245332
v 0.244522 0.035846 -0.360608
v 0.213469 0.052341 -0.319115
v 0.183450 0.053000 -0.310278
v 0.317461 0.070453 -0.273471
v 0.326914 0.062690 -0.266818
v 0.330233 0.096726 -0.211493
v 0.335368 0.067260 -0.244274
v 0.316876 0.133185 -0.184149
v 0.323016 0.102772 -0.216400
v 0.327885 0.075912 -0.245927
v 0.316143 0.122953 -0.200282
v 0.325567 0.025082 -0.323068
v 0.318684 0.018371 -0.330752
v 0.318203 0.007778 -0.325002
v 0.333683 0.024463 -0.308707
v 0.328919 0.018231 -0.313040
v 0.324900 0.061588 -0.272174
v 0.326924 0.028740 -0.315294
v 0.310459 0.129917 -0.198032
v 0.312924 0.131489 -0.174144
v 0.308627 0.129258 -0.185510
v 0.246482 0.100840 -0.077927
v 0.247428 0.101522 -0.061491
v 0.179534 0.069021 -0.048795
v 0.231376 0.089925 -0.340717
v 0.222152 0.085623 -0.328846
v 0.178567 0.068315 -0.065079
v 0.179486 0.065068 -0.319228
v 0.187647 0.069089 -0.314982
v 0.168193 0.059984 -0.292185
v 0.159235 0.055631 -0.292733
v 0.160924 0.056377 -0.297749
v 0.157551 0.055627 -0.236804
v 0.154357 0.055619 -0.130672
v 0.153411 0.055617 -0.099274
v 0.172678 0.065713 -0.047547
v 0.163856 0.058071 -0.279020
v 0.161515 0.045056 -0.276048
v 0.156074 0.048147 -0.122445
v 0.157409 0.047082 -0.157455
v 0.159268 0.045600 -0.206203
v 0.165571 0.021753 -0.204251
v 0.160527 0.038442 -0.184538
v 0.230565 0.067326 -0.355465
v 0.226489 0.085078 -0.348980
v 0.234967 0.087115 -0.345559
v 0.237821 0.035240 -0.367038
v 0.248503 0.034703 -0.363939
v 0.245845 0.040915 -0.362089
v 0.291343 0.007084 -0.362493
v 0.282399 -0.001265 -0.368881
v 0.281641 0.007886 -0.365172
v 0.296215 0.006681 -0.361144
v 0.289858 -0.001882 -0.366816
v 0.302493 0.005661 -0.350617
v 0.305160 0.005205 -0.345762
v 0.295481 -0.002794 -0.357387
v 0.305581 -0.004514 -0.339007
v 0.217090 0.082735 -0.336512
v 0.217334 0.012063 0.200950
v 0.217621 -0.031587 0.193380
v 0.243893 0.031486 0.192388
v 0.242168 0.012063 0.190664
v 0.247812 -0.021461 0.196308
v 0.239911 -0.021461 0.188406
v 0.254894 0.031486 0.165830
v 0.252455 0.012063 0.165830
v 0.243893 0.031486 0.139271
v 0.242168 0.012063 0.140995
v 0.217334 -0.016053 0.200521
v 0.238147 0.025658 0.186642
v 0.235109 0.011494 0.183604
v 0.241864 -0.016053 0.190360
v 0.235296 -0.013884 0.183792
v 0.246768 0.025658 0.165830
v 0.242471 0.011494 0.165830
v 0.242737 -0.013884 0.165830
v 0.214000 -0.010075 0.204841
v 0.217868 -0.020844 0.191568
v 0.216027 -0.024033 0.197618
v 0.213330 -0.021461 0.207274
v 0.217334 -0.029118 0.198954
v 0.222156 -0.031802 0.197376
v 0.224718 -0.036008 0.189945
v 0.238600 -0.040052 0.191854
v 0.233470 -0.040542 0.186683
v 0.215784 0.031486 0.202747
v 0.217334 -0.014489 0.193823
v 0.217334 -0.000286 0.195052
v 0.219173 0.011494 0.190205
v 0.218067 0.025658 0.194960
v 0.231649 0.024355 0.151515
v 0.232697 0.011494 0.147056
v 0.227122 0.022873 0.165829
v 0.224788 0.022980 0.173284
v 0.235481 0.012063 0.138225
v 0.236095 -0.002550 0.135000
v 0.236624 0.031486 0.136260
v 0.234113 -0.008107 0.140844
v 0.234230 0.025658 0.143394
v 0.236984 -0.013884 0.151942
v 0.239463 -0.006262 0.143701
v 0.257150 -0.007654 0.165830
v 0.253743 -0.021461 0.181990
v 0.250830 -0.012606 0.165830
v 0.250234 -0.016053 0.170154
v 0.246146 -0.021461 0.173353
v 0.244103 0.000572 0.139061
v -0.118435 0.028521 0.084774
v -0.121628 0.034208 0.135541
v -0.131059 -0.001768 0.088167
v -0.138961 0.006085 0.087287
v -0.133317 0.006163 0.138683
v -0.131208 0.034528 0.138392
v -0.137007 0.003541 0.082130
v -0.140091 0.013214 0.140779
v -0.143786 0.051015 0.103091
v -0.138536 0.056164 0.101990
v -0.142518 0.012191 0.081126
v -0.135527 0.028523 0.084790
v -0.138888 0.004556 0.074301
v -0.138696 -0.002667 0.070246
v -0.127439 0.029341 0.079240
v -0.131502 0.033061 0.084265
v -0.121149 0.027252 0.073447
v -0.123913 0.041665 0.083301
v -0.134389 -0.000661 0.068142
v -0.134339 0.042041 0.137550
v -0.122139 0.040513 0.161951
v -0.119163 0.048353 0.151492
v -0.127987 0.049465 0.133832
v -0.116698 0.038251 0.171629
v -0.101478 0.040988 0.182973
v -0.146739 0.008627 0.082632
v -0.159987 0.003825 0.103799
v -0.150955 0.001148 0.087840
v -0.148221 -0.001075 0.082648
v -0.144611 0.001599 0.077229
v -0.153615 -0.011053 0.089207
v -0.162705 -0.003521 0.106529
v -0.160447 0.003795 0.108865
v -0.146427 0.006166 0.155540
v -0.149693 0.009262 0.141222
v -0.153214 -0.002027 0.139600
v -0.150450 -0.004639 0.151709
v -0.161538 -0.004267 0.112674
v -0.118984 0.031489 0.173771
v -0.125304 0.001111 0.165563
v -0.133573 0.009102 0.162621
v 0.000000 0.052541 -0.591622
v 0.000000 0.033118 -0.589183
v 0.000000 -0.000406 -0.597165
v 0.000000 -0.000406 -0.585990
v -0.026559 0.052541 -0.580621
v -0.024834 0.033118 -0.578896
v -0.030478 -0.000406 -0.584540
v -0.022576 -0.000406 -0.576638
v -0.037560 0.052541 -0.554062
v -0.035121 0.033118 -0.554062
v -0.026559 0.052541 -0.527503
v -0.024834 0.033118 -0.529228
v 0.000000 0.046713 -0.583496
v 0.000000 0.032549 -0.579199
v 0.000000 0.005002 -0.588753
v 0.000000 0.007171 -0.579464
v -0.020813 0.046713 -0.574875
v -0.017775 0.032549 -0.571836
v -0.024530 0.005002 -0.578592
v -0.017962 0.007171 -0.572024
v -0.029434 0.046713 -0.554062
v -0.025137 0.032549 -0.554062
v -0.034691 0.005002 -0.554062
v -0.025402 0.007171 -0.554062
v -0.000000 0.042541 -0.554062
v -0.020813 0.046713 -0.533249
v -0.017775 0.032549 -0.536287
v -0.024530 0.005002 -0.529532
v -0.017962 0.007171 -0.536100
v 0.010579 0.002802 -0.575432
v 0.011537 0.006015 -0.579638
v 0.013539 0.012730 -0.588429
v 0.014767 0.011922 -0.580236
v 0.016709 0.017432 -0.585996
v -0.001251 -0.016022 -0.580804
v 0.007182 -0.000406 -0.583015
v 0.004649 -0.000406 -0.595239
v -0.002716 -0.016219 -0.587336
v 0.000000 -0.011318 -0.587695
v 0.009923 0.005002 -0.584643
v -0.025109 -0.004544 -0.551089
v -0.023430 -0.008128 -0.577491
v -0.018896 -0.009315 -0.572958
v -0.014385 -0.011228 -0.574979
v -0.015782 -0.011399 -0.581170
v -0.008701 -0.008432 -0.531014
v -0.042602 0.001696 -0.554062
v -0.039582 -0.000406 -0.562561
v -0.032210 -0.002212 -0.554062
v -0.027411 -0.000406 -0.522313
v -0.022876 -0.003120 -0.531185
v -0.018662 -0.005185 -0.535400
v -0.004122 -0.009180 -0.522470
v -0.005850 -0.000406 -0.513382
v -0.002909 0.033118 -0.520146
v -0.003422 0.005002 -0.520788
v -0.003141 0.052541 -0.517803
v -0.002786 -0.000406 -0.523288
v -0.000828 0.007171 -0.529002
v -0.001046 0.046713 -0.525061
v 0.005990 0.043742 -0.548072
v 0.007839 0.043652 -0.554062
v -0.000186 0.032549 -0.529002
v 0.011389 0.044824 -0.565450
v 0.017439 0.052541 -0.584398
v 0.015082 0.046713 -0.577248
v 0.013906 0.028166 -0.574959
v -0.003504 -0.010102 -0.528728
v -0.009983 -0.012908 -0.576937
v -0.010866 -0.013291 -0.583502
v 0.012769 0.007171 -0.574175
v 0.016326 0.033118 -0.582420
v -0.182871 0.004693 0.006063
v -0.284082 0.029967 -0.039910
v -0.274908 0.003280 -0.028221
v -0.271107 -0.007775 -0.000000
v -0.219070 -0.011831 -0.000000
v -0.274908 0.003280 0.028221
v -0.281370 0.030900 -0.030330
v -0.274397 0.010618 -0.021447
v -0.271509 0.002217 -0.000000
v -0.219644 -0.001847 -0.000000
v -0.274397 0.010618 0.021447
v -0.318797 -0.016262 -0.000000
v -0.318633 -0.009876 -0.000000
v -0.321011 -0.007082 0.023031
v -0.320434 -0.002349 0.018742
v -0.315295 0.014553 -0.025501
v -0.314674 0.012582 -0.031816
v -0.316392 -0.001210 -0.018980
v -0.316024 -0.005961 -0.023593
v -0.183275 -0.005460 -0.000000
v -0.182326 -0.000073 0.012555
v -0.183689 -0.003419 -0.005088
v -0.181805 0.002964 0.019636
v -0.224678 0.004483 0.041647
v -0.230884 0.004768 0.041125
v -0.211340 0.006318 0.040350
v -0.277936 0.012088 0.032079
v -0.249747 0.014814 0.030476
v -0.277317 0.019111 0.025167
v -0.317161 0.016346 0.026359
v -0.317945 0.011374 0.031239
v -0.311892 0.019814 -0.027498
v -0.311353 0.018236 -0.034362
v -0.183671 0.016821 0.030799
v -0.182131 0.010290 0.037400
v -0.224293 0.011675 0.034521
v -0.232007 0.012038 0.033885
v -0.183299 0.008382 0.010259
v -0.187149 0.003502 -0.000000
v -0.224174 0.003016 -0.037902
v -0.223552 0.009521 -0.029022
v -0.231666 0.012049 -0.033986
v -0.238384 0.010834 -0.042293
v -0.229908 0.004801 -0.041412
v -0.284326 0.039499 -0.026564
v -0.272962 0.046220 -0.031072
v -0.276356 0.040890 -0.041377
v -0.285897 0.035246 -0.037598
v -0.302891 0.023501 -0.036802
v -0.271823 0.034182 -0.045528
v -0.266146 0.036134 -0.037314
v -0.143730 0.001182 -0.130424
v -0.115510 0.012723 -0.128567
v -0.143730 0.011096 -0.131734
v -0.122284 0.019867 -0.130324
v -0.127416 0.015151 -0.097844
v -0.123744 0.017213 -0.104633
v -0.122217 0.009842 -0.098211
v -0.109233 0.024447 -0.130432
v -0.113412 0.034038 -0.136118
v -0.117392 0.031526 -0.128448
v -0.118081 0.011566 -0.105186
v -0.106758 0.019226 -0.144159
v -0.107732 0.034074 -0.151737
v -0.102800 0.028306 -0.143110
v -0.194886 0.016351 -0.220008
v -0.192426 0.013189 -0.207708
v -0.184177 0.018106 -0.200720
v -0.188185 0.022842 -0.219841
v -0.188766 0.008430 -0.189671
v -0.179937 0.013032 -0.180772
v -0.159942 0.014823 -0.142044
v -0.148347 0.002899 -0.091982
v -0.143868 0.008110 -0.093574
v -0.143730 0.000996 -0.088885
v -0.138814 0.003017 -0.090827
v -0.136108 0.011236 -0.093888
v -0.186862 0.005947 -0.180333
v -0.160680 0.008114 -0.129309
v -0.154207 0.015381 -0.131045
v -0.147966 -0.009970 -0.180725
v -0.143730 -0.010306 -0.175525
v -0.160557 -0.004739 -0.198013
v -0.145770 -0.000933 -0.182009
v -0.115446 0.016656 -0.153417
v -0.153808 0.002257 -0.192981
v -0.110648 0.010443 -0.145006
v -0.181489 0.013249 -0.229828
v -0.187335 0.003911 -0.232766
v -0.192027 0.008271 -0.227304
v -0.185416 0.014879 -0.226755
v -0.012256 0.001719 -0.175557
v -0.011510 0.006669 -0.227018
v -0.014194 -0.011146 -0.253086
v 0.032724 0.012344 -0.171127
v 0.039388 0.018692 -0.222006
v 0.054460 0.005071 -0.246325
v 0.061662 0.007415 -0.286664
v -0.010087 0.016117 -0.229970
v -0.012754 -0.001586 -0.255644
v 0.027075 0.020544 -0.172048
v 0.034496 0.026648 -0.225580
v 0.049431 0.013102 -0.249520
v 0.055771 0.015470 -0.286019
v 0.041596 0.038133 -0.222384
v 0.047502 0.019387 -0.311177
v 0.071442 0.023234 -0.282262
v 0.071219 0.032181 -0.238781
v 0.062967 0.016080 -0.320706
v 0.058851 0.015787 -0.323887
v 0.060956 0.023857 -0.283685
v 0.061075 0.031938 -0.244279
v 0.056506 0.020039 -0.304175
v 0.051598 0.038444 -0.216510
v 0.055299 0.048657 -0.163460
v 0.044946 0.049453 -0.164003
v 0.043382 0.051200 -0.155899
v 0.036384 0.045903 -0.146645
v 0.040961 0.037045 -0.143959
v 0.035793 0.007687 -0.315310
v 0.027202 0.012282 -0.303598
v -0.048443 0.008968 -0.249279
v -0.051281 0.025851 -0.228273
v -0.037761 0.013099 -0.252864
v -0.012637 -0.000809 -0.287643
v -0.016526 -0.009051 -0.293853
v -0.003922 0.001369 -0.291898
v -0.043674 0.035571 -0.223260
v -0.026460 0.012013 -0.192593
v -0.047192 0.027624 -0.223052
v -0.018798 0.017414 -0.186917
v -0.011059 0.011777 -0.175742
v 0.020060 0.022745 -0.147305
v 0.033565 0.043758 -0.142940
v 0.034871 0.032406 -0.135951
v 0.023776 0.015143 -0.139537
v -0.280725 -0.003849 -0.531020
v -0.231495 -0.015875 -0.481979
v -0.227246 -0.011899 -0.469621
v -0.264563 0.006190 -0.491963
v -0.290498 -0.001457 -0.540726
v -0.231495 -0.002056 -0.459370
v -0.216059 0.012255 -0.414302
v -0.199390 0.014340 -0.387615
v -0.298815 0.001935 -0.541326
v -0.231495 0.010894 -0.330808
v -0.231495 0.010601 -0.386440
v -0.086422 0.012552 -0.703026
v -0.079062 0.002622 -0.694504
v -0.072311 -0.021240 -0.674778
v -0.070903 -0.012497 -0.670133
v -0.078669 0.006644 -0.708438
v -0.083243 0.004659 -0.707213
v -0.092238 0.008400 -0.702045
v -0.097842 0.010728 -0.698686
v -0.090397 0.001746 -0.684931
v -0.086675 0.005826 -0.692028
v -0.029299 -0.004031 -0.682819
v -0.067045 0.008041 -0.698454
v -0.027849 -0.001192 -0.689395
v -0.094276 -0.003308 -0.676697
v -0.068423 -0.014296 -0.662616
v -0.076714 -0.010052 -0.668244
v -0.060422 -0.007771 -0.673578
v -0.072935 -0.005255 -0.676069
v -0.056314 -0.026579 -0.645006
v -0.099280 -0.009891 -0.666009
v -0.060578 -0.030069 -0.639230
v 0.000000 0.015964 0.102170
v 0.000000 0.000000 0.076627
v 0.072245 0.015964 0.072245
v 0.054184 0.000000 0.054184
v 0.102170 0.015964 -0.000000
v 0.076627 0.000000 -0.000000
v 0.072245 0.015964 -0.072245
v 0.054184 0.000000 -0.054184
v -0.000000 0.015964 -0.102170
v -0.000000 0.000000 -0.076627
v -0.072245 0.015964 -0.072245
v -0.072245 0.301720 -0.072245
v -0.054184 0.000000 -0.054184
v -0.102170 0.015964 0.000000
v -0.076627 0.000000 0.000000
v -0.072245 0.015964 0.072245
v -0.065472 0.341630 0.065472
v -0.072245 0.301720 0.072245
v -0.054184 0.000000 0.054184
v 0.000000 0.020370 0.093192
v 0.000000 0.300577 0.092235
v 0.000000 0.010000 0.000000
v 0.000000 0.009417 0.073261
v 0.065897 0.020370 0.065897
v 0.051803 0.009417 0.051803
v 0.093192 0.020370 -0.000000
v 0.073261 0.009417 -0.000000
v 0.065897 0.020370 -0.065897
v 0.051803 0.009417 -0.051803
v -0.000000 0.020370 -0.093192
v -0.000000 0.009417 -0.073261
v -0.065897 0.020370 -0.065897
v -0.065220 0.300577 -0.065220
v -0.051803 0.009417 -0.051803
v -0.060128 0.357143 -0.000000
v -0.093192 0.020370 0.000000
v -0.092235 0.300577 -0.000000
v -0.073261 0.009417 0.000000
v -0.042517 0.357143 0.042517
v -0.065897 0.020370 0.065897
v -0.059303 0.336743 0.059303
v -0.065220 0.300577 0.065220
v -0.051803 0.009417 0.051803
v -0.039797 0.261753 -0.075883
v -0.000000 0.082012 -0.102170
v 0.034970 0.142577 -0.087685
v -0.000000 0.136512 -0.092796
v 0.018389 0.169006 -0.085067
v -0.058468 0.366935 -0.000000
v -0.057030 0.357143 -0.007480
v 0.075320 0.108489 -0.064819
v 0.065653 0.121459 -0.065653
v 0.067695 0.123655 -0.060704
v -0.073097 0.335570 -0.050574
v -0.066925 0.336743 -0.040900
v -0.063902 0.308632 -0.063902
v -0.070620 0.311297 -0.070620
v 0.072245 0.105211 -0.072245
v -0.054093 0.370198 0.009225
v 0.080488 0.113933 -0.052344
v 0.073362 0.129676 -0.046974
v 0.068070 0.260291 0.073974
v 0.072245 0.252509 0.072245
v 0.065329 0.255455 0.065329
v 0.056367 0.272104 0.068984
v 0.092751 0.149462 -0.000000
v 0.102170 0.135872 -0.000000
v 0.046545 0.271879 0.082890
v 0.037351 0.282361 0.076826
v -0.040113 0.341630 0.075976
v -0.036855 0.357143 0.044862
v -0.030165 0.336743 0.071372
v 0.000000 0.296052 0.102170
v -0.005678 0.301720 0.099818
v -0.101725 0.301720 0.001073
v -0.085805 0.330423 0.022878
v -0.086665 0.324648 -0.000000
v -0.084277 0.328970 0.003352
v -0.081142 0.325992 -0.036701
v -0.083595 0.328322 -0.005360
v -0.079547 0.341630 0.031490
v -0.060035 0.368832 0.018353
v -0.063509 0.362383 0.012399
v -0.079953 0.336743 0.009449
v -0.076490 0.336743 -0.017809
v -0.072145 0.346816 -0.000000
v -0.045248 0.368086 0.031445
v -0.050600 0.366436 0.042037
v -0.043161 0.364117 0.038108
v -0.048629 0.362274 0.048629
v -0.045421 0.357084 0.055945
vn 0.7261 0.5653 -0.3915
vn 0.8256 -0.2978 -0.4794
vn 0.7327 0.5575 -0.3903
vn -0.4278 0.9037 -0.0153
vn -0.4338 0.9009 -0.0127
vn -0.4364 0.8997 -0.0131
vn -0.9667 -0.2543 -0.0291
vn -0.9658 -0.2577 -0.0290
vn 0.2645 0.3839 -0.8847
vn 0.2752 0.3807 -0.8828
vn 0.2759 0.3799 -0.8829
vn 0.8244 -0.2985 -0.4809
vn 0.8162 -0.2664 -0.5126
vn -0.4943 0.8424 -0.2144
vn 0.5710 -0.7994 0.1870
vn -0.0668 -0.9962 -0.0565
vn -0.5605 -0.6592 -0.5012
vn 0.9073 -0.3174 -0.2759
vn 0.6152 -0.7506 -0.2411
vn 0.1452 -0.8956 -0.4205
vn -0.2276 -0.6675 -0.7090
vn -0.3241 -0.1518 -0.9338
vn 0.8731 -0.0818 0.4807
vn 0.4442 -0.7191 0.5344
vn -0.2429 -0.9311 0.2722
vn -0.7877 -0.5976 -0.1495
vn 0.9231 -0.1357 0.3598
vn 0.5057 -0.7591 0.4099
vn -0.1794 -0.9722 0.1506
vn -0.7167 -0.6315 -0.2958
vn -0.8011 0.0343 -0.5975
vn 0.9428 -0.1606 0.2920
vn 0.5261 -0.7788 0.3417
vn -0.1447 -0.9858 0.0857
vn -0.6766 -0.6602 -0.3260
vn -0.7580 0.0071 -0.6522
vn -0.5698 0.7952 -0.2073
vn 0.0667 0.9962 0.0568
vn 0.5723 0.6867 0.4482
vn 0.6497 0.0522 0.7584
vn -0.9058 0.3181 0.2798
vn -0.6151 0.7494 0.2451
vn -0.1471 0.8938 0.4237
vn 0.2239 0.6667 0.7109
vn 0.2807 0.2011 0.9385
vn -0.7890 -0.5965 -0.1468
vn -0.8724 0.0870 -0.4810
vn -0.4455 0.7202 -0.5318
vn 0.2416 0.9322 -0.2696
vn 0.7864 0.5988 0.1521
vn -0.9266 0.1397 -0.3490
vn -0.5141 0.7617 -0.3944
vn 0.1739 0.9747 -0.1402
vn 0.7121 0.6453 0.2764
vn 0.7945 -0.0300 0.6065
vn 0.5794 -0.4410 0.6855
vn -0.9411 0.1581 -0.2990
vn -0.5236 0.7773 -0.3487
vn 0.1483 0.9846 -0.0923
vn 0.6811 0.6586 0.3201
vn 0.7626 -0.0098 0.6468
vn -0.9285 0.0990 -0.3578
vn -0.5878 -0.7505 0.3022
vn -0.3065 -0.8698 0.3865
vn -0.9968 -0.0774 -0.0181
vn -0.9594 0.0178 -0.2814
vn 0.5079 -0.7037 -0.4969
vn -0.0000 1.0000 -0.0000
vn 0.0541 -0.9956 0.0762
vn 0.4463 -0.7306 -0.5168
vn 0.3641 0.1841 0.9130
vn 0.9239 0.0058 0.3827
vn 0.3322 0.1736 0.9271
vn 0.9023 0.2148 0.3737
vn 0.9023 0.2148 -0.3737
vn 0.3737 0.2148 -0.9023
vn -0.3738 0.2148 0.9023
vn 0.3620 -0.0858 0.9282
vn 0.9177 -0.1152 0.3801
vn 0.9177 -0.1152 -0.3801
vn 0.3801 -0.1152 -0.9177
vn 0.0580 -0.9884 0.1401
vn 0.1401 -0.9884 0.0580
vn 0.1544 -0.9853 -0.0734
vn -0.9237 0.0218 -0.3826
vn 0.0938 0.9695 0.2265
vn 0.1923 0.9693 0.1529
vn -0.1556 0.9857 0.0644
vn -0.3644 -0.3051 -0.8798
vn -0.8798 -0.3051 -0.3644
vn -0.8558 -0.3405 0.3895
vn -0.3644 -0.3051 0.8798
vn -0.3685 0.2699 -0.8896
vn -0.8896 0.2699 -0.3685
vn -0.8546 0.2357 0.4627
vn -0.4142 -0.0259 -0.9098
vn -0.5459 0.3990 -0.7367
vn -0.6166 0.7040 0.3524
vn -0.4669 0.7662 0.4416
vn -0.8366 0.0825 -0.5415
vn -0.5712 0.3902 -0.7222
vn -0.9443 0.3183 -0.0840
vn -0.9314 0.2507 0.2638
vn -0.5900 0.4182 0.6907
vn -0.4264 -0.1522 0.8917
vn 0.8980 0.3947 -0.1943
vn 0.9307 -0.3392 -0.1366
vn 0.3702 -0.9279 -0.0445
vn -0.0000 0.1113 0.9938
vn 0.9023 0.3475 -0.2551
vn 0.9023 -0.3953 -0.1719
vn 0.3737 -0.9206 -0.1130
vn 0.8577 0.3117 -0.4089
vn 0.8657 -0.3856 -0.3191
vn 0.3553 -0.8937 -0.2739
vn -0.9006 -0.4157 0.1268
vn -0.8972 0.4407 0.0289
vn -0.3816 0.9238 -0.0292
vn 0.0041 -0.1128 -0.9936
vn -0.0904 -0.0751 -0.9931
vn -0.8950 0.3612 0.2618
vn -0.3644 0.9083 0.2053
vn -0.8576 -0.3116 0.4093
vn -0.8576 0.3944 0.3302
vn -0.3552 0.8936 0.2743
vn 0.9009 -0.4186 -0.1146
vn 0.8561 -0.4859 -0.1762
vn -0.3452 -0.9328 0.1033
vn -0.3488 -0.9314 0.1042
vn -0.3500 -0.9307 0.1059
vn -0.3500 -0.9307 0.1058
vn 0.9583 -0.0329 0.2838
vn -0.2967 -0.9502 0.0952
vn -0.3168 -0.9435 0.0975
vn 0.9581 -0.0413 0.2834
vn 0.8553 -0.4869 -0.1772
vn 0.3816 -0.0738 -0.9214
vn 0.3788 0.1429 -0.9144
vn -0.3788 0.1429 -0.9144
vn -0.9144 0.1429 -0.3788
vn -0.3788 0.1429 0.9144
vn -0.0803 -0.9960 0.0385
vn 0.3738 0.2148 -0.9023
vn -0.3737 0.2148 -0.9023
vn -0.9023 0.2148 -0.3737
vn -0.8940 0.1820 0.4093
vn -0.3737 0.2148 0.9023
vn -0.3801 -0.1152 -0.9177
vn -0.9177 -0.1152 -0.3801
vn -0.9177 -0.1152 0.3801
vn -0.3801 -0.1152 0.9177
vn 0.0540 -0.9881 0.1441
vn 0.1401 -0.9884 -0.0580
vn 0.0580 -0.9884 -0.1401
vn -0.0580 -0.9884 -0.1401
vn -0.1401 -0.9884 -0.0580
vn -0.1401 -0.9884 0.0580
vn -0.0580 -0.9884 0.1401
vn -0.3706 -0.0411 0.9279
vn 0.3816 -0.0738 0.9214
vn 0.9460 0.0019 0.3241
vn 0.9214 -0.0738 -0.3816
vn 0.0938 0.9695 -0.2265
vn -0.0938 0.9695 -0.2265
vn -0.2265 0.9695 -0.0938
vn -0.2265 0.9695 0.0938
vn -0.0938 0.9695 0.2265
vn -0.3965 -0.2793 0.8745
vn 0.3644 -0.3051 0.8798
vn 0.8798 -0.3051 0.3644
vn 0.8798 -0.3051 -0.3644
vn 0.3644 -0.3051 -0.8798
vn -0.3068 0.1985 0.9309
vn 0.3685 0.2699 0.8896
vn 0.8896 0.2699 0.3685
vn 0.8896 0.2699 -0.3685
vn 0.3685 0.2699 -0.8896
vn 0.9969 0.0071 -0.0783
vn 0.9970 0.0087 -0.0772
vn -0.0275 0.7024 0.7112
vn -0.8692 0.4529 -0.1984
vn -0.0250 0.7077 0.7060
vn 0.9828 0.1764 -0.0547
vn 0.5323 0.6625 -0.5270
vn -0.5609 0.7962 -0.2270
vn 0.5220 0.6753 -0.5211
vn -0.2582 0.3117 -0.9144
vn -0.0120 -0.4046 -0.9144
vn 0.1622 -0.9112 -0.3788
vn 0.1622 -0.9112 0.3788
vn -0.0120 -0.4046 0.9144
vn -0.9955 0.0578 -0.0753
vn -0.4670 0.2151 -0.8577
vn -0.2360 -0.4568 -0.8577
vn -0.0726 -0.9319 -0.3553
vn -0.0726 -0.9319 0.3553
vn -0.2360 -0.4568 0.8577
vn 0.2061 -0.3323 0.9204
vn -0.0543 0.3849 0.9214
vn -0.2298 0.8953 0.3816
vn -0.2298 0.8953 -0.3816
vn 0.4673 -0.2150 0.8576
vn 0.2363 0.4569 0.8576
vn 0.0730 0.9319 0.3552
vn 0.0730 0.9319 -0.3552
vn 0.2363 0.4569 -0.8576
vn -0.1504 0.9135 0.3781
vn -0.1428 0.9135 -0.3809
vn -0.0543 0.3849 -0.9214
vn 0.6293 0.5805 0.5167
vn 0.7538 -0.2588 -0.6040
vn 0.6158 0.7008 0.3601
vn -0.6659 0.6796 0.3079
vn -0.6679 0.6749 0.3136
vn -0.1115 0.4773 0.8716
vn -0.6700 0.6721 0.3153
vn 0.7386 -0.2674 -0.6188
vn 0.7333 -0.2587 -0.6287
vn -0.4240 0.4948 -0.7586
vn -0.4638 0.4977 -0.7329
vn 0.3788 -0.9255 -0.0042
vn 0.8840 -0.4615 0.0744
vn 0.3553 -0.9058 0.2307
vn 0.8577 -0.4098 0.3105
vn -0.3629 -0.9035 0.2280
vn -0.9144 -0.3966 0.0809
vn -0.4029 -0.9148 0.0266
vn -0.3793 0.9224 0.0730
vn -0.9214 0.3885 -0.0122
vn 0.3816 0.9214 0.0735
vn -0.3428 0.9151 -0.2125
vn -0.8576 0.4098 -0.3109
vn 0.3588 0.9048 -0.2295
vn 0.9127 0.3979 -0.0928
vn 0.3781 0.9257 -0.0079
vn 0.3103 0.2403 0.9197
vn -0.3788 -0.9255 -0.0042
vn 0.0853 0.9760 -0.2001
vn 0.0846 0.9773 -0.1942
vn 0.5396 0.4870 0.6868
vn -0.4542 0.6643 -0.5937
vn -0.4557 0.6627 -0.5942
vn -0.7044 0.3254 0.6308
vn -0.7136 0.2287 0.6622
vn 0.5365 0.4863 0.6897
vn 0.2138 -0.9659 0.1461
vn 0.7889 -0.5545 0.2649
vn 0.1406 -0.8241 0.5487
vn 0.5602 -0.5247 0.6410
vn 0.2284 -0.9495 -0.2153
vn 0.8584 -0.5041 -0.0954
vn 0.2373 -0.9673 -0.0896
vn 0.8443 -0.5341 0.0439
vn -0.5118 -0.8544 -0.0896
vn 0.2207 -0.9745 -0.0401
vn 0.8300 -0.5455 0.1165
vn -0.5076 -0.8615 -0.0152
vn -0.2083 0.9672 -0.1451
vn -0.7829 0.5596 -0.2717
vn -0.1398 0.8219 -0.5522
vn -0.5574 0.5238 -0.6441
vn 0.3590 0.7649 -0.5348
vn -0.2450 0.9425 0.2273
vn -0.8582 0.5049 0.0923
vn -0.2336 0.9694 0.0758
vn -0.8423 0.5362 -0.0556
vn -0.2320 0.9725 0.0228
vn -0.8316 0.5445 -0.1092
vn 0.5082 0.8610 0.0228
vn -0.3772 -0.7461 0.5487
vn 0.5113 0.8559 0.0777
vn 0.5901 0.6870 -0.4240
vn 0.5679 0.7116 -0.4136
vn -0.1159 0.9933 -0.0052
vn 0.3827 -0.9097 0.1611
vn -0.3827 -0.9097 0.1611
vn -0.3827 0.9103 -0.1580
vn 0.3827 0.9103 -0.1580
vn -0.3705 0.3143 -0.8740
vn -0.3715 0.3138 -0.8738
vn 0.0753 0.8646 0.4968
vn 0.3038 0.8289 -0.4697
vn -0.3810 0.3295 -0.8639
vn 0.0603 0.8376 0.5429
vn 0.0605 0.8377 0.5427
vn 0.0571 0.8353 0.5468
vn 0.0302 -0.6318 -0.7746
vn -0.4675 -0.6380 -0.6119
vn 0.3271 -0.9103 -0.2535
vn -0.3928 -0.9194 -0.0181
vn 0.2992 -0.8983 -0.3218
vn -0.4109 -0.9072 -0.0897
vn -0.0282 0.6289 0.7770
vn 0.4673 0.6352 0.6150
vn -0.3021 0.8997 0.3150
vn 0.4092 0.9087 0.0824
vn 0.1029 0.1659 -0.9808
vn 0.7052 0.4929 -0.5097
vn 0.7829 0.4982 -0.3726
vn 0.7065 0.4930 -0.5078
vn 0.7112 0.4929 -0.5012
vn 0.5578 0.7240 0.4057
vn 0.5558 0.7316 0.3948
vn -0.7988 0.5870 -0.1319
vn -0.0558 0.9913 0.1196
vn 0.4431 0.8244 0.3522
vn 0.5555 0.7858 0.2720
vn -0.0000 -1.0000 -0.0000
vn -0.8334 0.5425 -0.1056
vn -0.6321 0.7293 0.2618
vn -0.2618 0.7293 0.6321
vn 0.2144 -0.8283 0.5177
vn 0.5177 -0.8283 0.2144
vn 0.5177 -0.8283 -0.2144
vn 0.2144 -0.8283 -0.5177
vn -0.2144 -0.8283 -0.5177
vn -0.5177 -0.8283 -0.2144
vn -0.5177 -0.8283 0.2144
vn -0.2144 -0.8283 0.5177
vn 0.3827 -0.0000 0.9239
vn 0.9239 -0.0000 0.3827
vn 0.9239 -0.0000 -0.3827
vn 0.3827 -0.0000 -0.9239
vn -0.3827 -0.0000 -0.9239
vn -0.9259 0.0014 -0.3779
vn -0.9239 -0.0000 0.3827
vn -0.3827 -0.0000 0.9239
vn -0.9136 0.1521 0.3771
vn -0.9066 0.2066 -0.3680
vn -0.9020 0.2165 0.3736
vn -0.3736 0.2165 0.9020
vn 0.0033 1.0000 0.0080
vn 0.0080 1.0000 0.0033
vn 0.0080 1.0000 -0.0033
vn 0.0033 1.0000 -0.0080
vn -0.0033 1.0000 -0.0080
vn -0.0080 1.0000 -0.0033
vn -0.0080 1.0000 0.0033
vn -0.0033 1.0000 0.0080
vn 0.6292 -0.7322 0.2606
vn 0.6292 -0.7322 -0.2606
vn 0.2606 -0.7322 -0.6292
vn -0.1956 0.8595 -0.4723
vn -0.4723 0.8595 -0.1956
vn -0.4723 0.8595 0.1956
vn -0.1956 0.8594 0.4723
vn 0.1956 0.8594 0.4723
vn 0.4723 0.8594 0.1956
vn 0.4723 0.8594 -0.1956
vn 0.1956 0.8595 -0.4723
vn -0.3827 -0.0032 -0.9239
vn -0.9239 -0.0032 -0.3827
vn -0.9239 -0.0032 0.3827
vn -0.3827 -0.0032 0.9239
vn 0.3827 -0.0032 0.9239
vn 0.9239 -0.0032 0.3827
vn 0.9239 -0.0032 -0.3827
vn 0.3827 -0.0032 -0.9239
vn 0.9127 -0.1548 0.3781
vn 0.9127 -0.1548 -0.3781
vn 0.9035 -0.2091 0.3742
vn 0.9035 -0.2091 -0.3742
vn 0.3742 -0.2091 -0.9035
vt 0.485837 0.000000
vt 0.561780 0.019387
vt 0.607237 0.291204
vt 0.598437 0.506824
vt 0.508038 0.508038
vt 0.432389 0.423002
vt 0.543509 0.422693
vt 0.549721 0.225484
vt 0.523444 0.066109
vt 1.000000 0.096836
vt 0.995101 0.214530
vt 0.960352 0.150770
vt 0.892608 0.000000
vt 0.956507 0.000000
vt 0.940853 0.465265
vt 0.216738 0.216738
vt 0.096836 0.096836
vt 0.204988 0.155914
vt 1.000000 0.432685
vt 1.000000 0.508039
vt 0.576577 0.576577
vt 0.515470 0.515470
vt 1.000000 0.586596
vt 1.000000 0.625494
vt 0.761925 0.374299
vt 0.625494 0.625494
vt 0.586596 0.586596
vt 0.716808 0.350903
vt 0.595392 0.000000
vt 0.632035 0.000000
vt 0.000000 0.000000
vt 0.741046 0.000000
vt 0.979529 0.031801
vt 1.000000 0.041851
vt 1.000000 0.170886
vt 0.932998 0.078475
vt 0.880534 0.052009
vt 0.630707 0.018010
vt 0.176963 0.019803
vt 0.004454 0.004454
vt 0.651444 0.593022
vt 1.000000 0.415743
vt 1.000000 0.488183
vt 0.722803 0.628158
vt 0.632035 0.632035
vt 0.488183 0.488183
vt 0.415743 0.415743
vt 1.000000 0.449964
vt 1.000000 0.518731
vt 1.000000 0.225829
vt 1.000000 0.354211
vt 0.170886 0.170886
vt 0.041851 0.041851
vt 0.468562 0.402215
vt 0.354212 0.354212
vt 0.225829 0.225829
vt 0.577630 0.374707
vt 0.518731 0.518731
vt 0.449964 0.449964
vt 1.000000 0.000000
vt 1.000000 0.144684
vt 0.865388 0.000000
vt 1.000000 0.154520
vt 0.979506 0.248260
vt 0.428810 0.266584
vt 0.144684 0.144684
vt 0.019555 0.000000
vt 0.030040 0.028260
vt 0.442087 0.201793
vt 0.505647 0.219570
vt 0.927918 0.195694
vt 0.236555 0.236555
vt 0.154520 0.154520
vt 0.164393 0.000000
vt 0.251676 0.000000
vt 0.802547 0.000000
vt 0.836538 0.023433
vt 1.000000 0.043493
vt 1.000000 0.107392
vt 0.847445 0.088701
vt 0.718737 0.000000
vt 0.835607 0.000000
vt 0.802547 0.802547
vt 0.718737 0.718737
vt 0.748324 0.000000
vt 1.000000 0.258954
vt 1.000000 1.000000
vt 0.865388 0.865388
vt 0.981651 0.751588
vt 0.317131 0.759634
vt 0.269663 0.707132
vt 0.375000 0.707132
vt 0.375000 0.821030
vt 0.500000 0.707132
vt 0.491424 0.900820
vt 0.466967 0.910559
vt 0.433666 0.880965
vt 0.375000 0.821030
vt 0.625000 0.723921
vt 0.500000 0.897207
vt 0.250000 0.411844
vt 0.187763 0.411844
vt 0.189081 0.388800
vt 0.187291 0.291884
vt 0.250000 0.291884
vt 0.375000 0.411844
vt 0.375000 0.291884
vt 0.500000 0.411844
vt 0.500000 0.291884
vt 0.625000 0.291884
vt 0.625000 0.411844
vt 0.713442 0.411844
vt 0.657189 0.291884
vt 0.125000 -0.874265
vt 0.125000 0.061190
vt 0.125000 -0.199891
vt 0.125000 -0.232368
vt 0.250000 -1.052373
vt 0.250000 0.061190
vt 0.250000 -0.874265
vt 0.250000 -1.036231
vt 0.375000 0.061190
vt 0.375000 -1.052373
vt 0.375000 -0.830485
vt 0.375000 -0.697182
vt 0.375000 -0.226282
vt 0.500000 0.061190
vt 0.500000 -0.226282
vt 0.247791 0.685276
vt 0.187763 0.411844
vt 0.269663 0.707132
vt 0.250000 0.685610
vt 0.625000 0.707132
vt 0.733798 0.490191
vt 0.700651 0.567815
vt 0.187291 0.291884
vt 0.159714 0.061190
vt 0.625000 0.140882
vt 0.591003 0.061190
vt 0.620372 0.114123
vt 0.625000 0.140882
vt 0.296667 0.782649
vt 0.375000 0.848666
vt 0.250000 0.719170
vt 0.259353 0.748809
vt 0.440424 0.897702
vt 0.461610 0.891319
vt 0.500000 0.878572
vt 0.375000 0.848666
vt 0.394443 0.864550
vt 0.625000 0.735414
vt 0.642420 0.707132
vt 0.169331 0.411844
vt 0.174246 0.291884
vt 0.658650 0.291884
vt 0.722091 0.411844
vt 0.125000 -0.105818
vt 0.125000 -0.077325
vt 0.125000 -0.181857
vt 0.125000 -0.077325
vt 0.125000 0.060954
vt 0.250000 -0.806404
vt 0.125000 -0.181857
vt 0.375000 -0.962031
vt 0.250000 -0.806404
vt 0.500000 -0.528016
vt 0.500000 -0.684701
vt 0.375000 -0.972331
vt 0.500000 -0.369484
vt 0.500000 -0.369484
vt 0.611616 0.061190
vt 0.500000 -0.157360
vt 0.500000 -0.281691
vt 0.250000 0.707132
vt 0.171722 0.421017
vt 0.750000 0.515624
vt 0.750000 0.479514
vt 0.722091 0.411844
vt 0.766176 0.489220
vt 0.147492 0.061190
vt 0.625000 0.138532
vt 0.611617 0.061190
vt 0.939316 0.116097
vt 1.000000 0.242073
vt 0.771760 0.000000
vt 0.818285 0.000000
vt 0.862417 0.000000
vt 1.000000 0.141788
vt 0.276562 0.065946
vt 0.040522 0.040522
vt 0.094966 0.000000
vt 1.000000 0.065679
vt 1.000000 0.120107
vt 0.224459 0.000000
vt 0.120107 0.120107
vt 0.065679 0.065679
vt 0.117745 0.000000
vt 0.965521 0.161869
vt 1.000000 0.137583
vt 1.000000 0.181715
vt 0.556281 0.136558
vt 0.652220 0.068522
vt 0.706979 0.000000
vt 0.753990 0.000000
vt 0.687525 0.098865
vt 0.609309 0.140262
vt 0.645331 0.165145
vt 0.705113 0.212161
vt 0.732234 0.240049
vt 0.800294 0.330318
vt 0.847335 0.257897
vt 0.919061 0.230105
vt 1.000000 0.190368
vt 1.000000 0.228240
vt 0.882481 0.297662
vt 0.802532 0.381610
vt 0.753990 0.753990
vt 0.672195 0.000000
vt 0.717795 0.000000
vt 0.250000 1.585305
vt 0.375000 1.585305
vt 0.409212 1.585305
vt 0.000000 1.585305
vt 0.125000 1.585305
vt 0.125000 1.279252
vt 0.208345 1.279252
vt 0.183720 1.279252
vt 0.987256 1.279252
vt 0.000000 1.279252
vt 0.978642 0.922174
vt 0.829298 0.767021
vt 0.778330 0.773177
vt 0.788948 0.682998
vt 0.717795 0.717795
vt 0.672195 0.672195
vt 0.664034 0.639328
vt 0.755879 0.614137
vt 0.870365 0.721867
vt 0.858455 0.766905
vt 1.000000 0.916735
vt 0.125000 1.191956
vt 0.000000 1.234993
vt 0.025754 1.219476
vt 0.208345 1.279252
vt 0.125000 1.191956
vt 0.000000 1.473035
vt 0.125000 1.473035
vt 0.250000 1.359060
vt 0.250000 1.473035
vt 0.183720 1.279252
vt 0.375000 1.406609
vt 0.375000 1.473035
vt 0.408661 1.473035
vt 0.375000 1.406610
vt 0.415110 1.388567
vt 1.000000 1.279252
vt 0.993257 1.473035
vt 0.985890 1.345066
vt 0.408661 1.473035
vt 0.004402 1.585306
vt 0.205230 1.585306
vt 0.333433 1.585305
vt 0.125000 1.168160
vt 0.250000 1.256386
vt 0.250000 1.279252
vt 0.227963 1.279252
vt 0.346642 1.279252
vt 0.000000 1.390167
vt 0.012933 1.473035
vt 0.250000 1.303501
vt 0.375000 1.348133
vt 0.250000 1.303501
vt 0.391957 1.473035
vt 0.408970 1.335153
vt 0.375000 1.348133
vt 0.004402 1.585305
vt 0.012933 1.473035
vt 0.002054 1.217340
vt 0.003653 1.245848
vt 0.006625 1.279252
vt 0.103664 1.151320
vt 0.048169 1.173078
vt 0.752516 0.421749
vt 0.672148 0.080572
vt 0.684085 0.000000
vt 0.723994 0.027835
vt 0.793534 0.305415
vt 0.784272 0.000000
vt 0.835288 0.186995
vt 1.000000 0.145696
vt 0.985297 0.277092
vt 0.838465 0.273746
vt 0.844715 0.437509
vt 0.255537 0.255537
vt 0.214648 0.156305
vt 0.574050 0.068207
vt 1.000000 0.119909
vt 1.000000 0.256412
vt 0.691853 0.219118
vt 0.256412 0.256412
vt 0.119909 0.119909
vt 0.076288 0.000000
vt 0.212950 0.013625
vt 0.943179 0.184637
vt 1.000000 0.229163
vt 1.000000 0.274232
vt 0.835002 0.135505
vt 0.916694 0.138589
vt 0.760963 0.000000
vt 0.811010 0.000000
vt 1.000000 0.198636
vt 1.000000 0.272243
vt 0.274232 0.274232
vt 0.229163 0.229163
vt 1.000000 0.710978
vt 0.230166 0.000000
vt 1.000000 0.656395
vt 0.831791 0.239120
vt 0.710978 0.710978
vt 0.656395 0.656395
vt 0.660604 0.607551
vt 0.743999 0.202191
vt 0.754646 0.000000
vt 0.844325 0.000000
vt 1.000000 0.793599
vt 1.000000 0.923712
vt 0.157424 0.000000
vt 0.245354 0.000000
vt 0.468250 0.201027
vt 0.288402 0.288402
vt 0.157424 0.157424
vt 0.269661 0.102775
vt 0.155675 0.000000
vt 0.181999 0.983964
vt 0.250000 0.983964
vt 0.224707 1.279252
vt 0.125000 1.141143
vt 0.375000 0.983964
vt 0.375000 1.279252
vt 0.500000 1.187165
vt 0.441404 1.279252
vt 0.463131 0.983964
vt 0.500000 1.140081
vt 0.467506 1.279252
vt 0.195757 1.279252
vt 0.250000 1.345134
vt 0.375000 1.393573
vt 0.250000 1.345134
vt 0.396706 1.382775
vt 0.467506 1.279252
vt 0.181999 0.983964
vt 0.207420 0.883230
vt 0.375000 0.832805
vt 0.257598 0.707243
vt 0.463130 0.983964
vt 0.375000 0.832805
vt 0.459532 0.916089
vt 0.125000 1.152866
vt 0.250000 1.242808
vt 0.205935 0.983964
vt 0.359435 1.269010
vt 0.375000 1.272237
vt 0.398138 1.263731
vt 0.497027 1.157199
vt 0.493071 1.141204
vt 0.430965 0.983964
vt 0.367289 1.279252
vt 0.432142 1.279252
vt 0.402699 1.279252
vt 0.250000 1.287341
vt 0.375000 1.333193
vt 0.384541 1.328969
vt 0.411027 1.315041
vt 0.250000 0.789972
vt 0.236928 0.844298
vt 0.250000 0.789972
vt 0.375000 0.860715
vt 0.279513 0.781991
vt 0.430965 0.983964
vt 0.429896 0.903432
vt 0.818291 0.000000
vt 1.000000 0.152770
vt 1.000000 0.180107
vt 0.769655 0.000000
vt 1.000000 0.199164
vt 1.000000 0.237251
vt 0.722777 0.000000
vt 1.000000 0.039193
vt 0.972074 0.000000
vt 0.784300 0.078427
vt 0.685496 0.000000
vt 0.719467 0.000000
vt 0.776620 0.045948
vt 1.000000 0.149081
vt 1.000000 0.186807
vt 0.039193 0.039193
vt 0.010322 0.000000
vt 0.134194 0.077811
vt 0.186807 0.186807
vt 0.149081 0.149081
vt 0.105932 0.080318
vt 0.184121 0.073382
vt 0.266307 0.205793
vt 0.246034 0.225558
vt 0.028465 0.000000
vt 0.151261 0.064770
vt 0.131878 0.084137
vt 0.377141 0.189650
vt 0.498330 0.258525
vt 0.476928 0.174981
vt 0.476183 0.152631
vt 0.486709 0.116744
vt 0.503625 0.082889
vt 0.338529 0.000000
vt 0.388360 0.000000
vt 0.555563 0.085420
vt 0.554985 0.328984
vt 0.382129 0.224841
vt 0.083684 0.083684
vt 0.083767 0.048384
vt 0.219164 0.219164
vt 1.000000 0.332139
vt 1.000000 0.373217
vt 0.268743 0.268743
vt 0.314504 0.000000
vt 0.373218 0.373218
vt 0.332139 0.332139
vt 0.280533 0.000000
vt 1.000000 0.230345
vt 1.000000 0.277222
vt 0.388360 0.388360
vt 0.338530 0.338530
vt 0.180107 0.180107
vt 0.152770 0.152770
vt 0.219164 0.000000
vt 0.268743 0.000000
vt 0.264725 0.040210
vt 0.214416 0.128380
vt 0.306693 0.131396
vt 0.237251 0.237251
vt 0.973696 1.197046
vt 0.942425 1.204374
vt 0.875000 1.219956
vt 0.875000 1.279252
vt 0.994237 1.279252
vt 0.500000 1.216179
vt 0.500000 1.279252
vt 0.460237 1.279252
vt 0.625000 1.234618
vt 0.625000 1.279252
vt 0.500000 1.216179
vt 0.514168 1.187848
vt 0.557115 1.204775
vt 0.583391 1.215710
vt 0.750000 1.279252
vt 0.984575 1.279252
vt 0.875000 1.263562
vt 0.982644 1.233329
vt 0.984575 1.279252
vt 0.976006 1.279252
vt 0.887578 1.279252
vt 0.715143 1.279252
vt 0.480932 1.279252
vt 0.985215 1.585305
vt 0.417921 1.585305
vt 0.500000 1.585305
vt 0.625000 1.585305
vt 0.750000 1.585305
vt 0.875000 1.585305
vt 0.500000 1.473035
vt 0.417824 1.473035
vt 0.425122 1.382364
vt 0.441316 1.355183
vt 0.480932 1.279252
vt 0.625000 1.473035
vt 0.750000 1.291403
vt 0.750000 1.473035
vt 0.875000 1.284639
vt 0.875000 1.473035
vt 0.976087 1.280398
vt 0.985359 1.473035
vt 0.417921 1.585305
vt 0.016401 1.585305
vt 0.214023 1.585305
vt 0.341708 1.585305
vt 0.409417 1.585305
vt 0.431602 1.585305
vt 1.000000 1.585305
vt 0.993719 1.585305
vt 0.500000 1.179069
vt 0.427519 1.258283
vt 0.411137 1.279252
vt 0.625000 1.200132
vt 0.594723 1.190953
vt 0.565476 1.182889
vt 0.750000 1.223624
vt 0.412506 1.279252
vt 0.432936 1.279252
vt 0.449434 1.279252
vt 0.982564 1.279252
vt 0.994236 1.279252
vt 0.404446 1.473035
vt 0.437565 1.302131
vt 0.421339 1.327936
vt 0.998690 1.473035
vt 0.404446 1.473035
vt 0.998690 1.473035
vt 1.000000 0.048939
vt 0.876425 0.029616
vt 0.862095 0.000000
vt 0.048939 0.048939
vt 0.319648 0.000000
vt 0.327561 0.032653
vt 0.234563 0.000000
vt 0.517834 0.000000
vt 0.719149 0.012292
vt 1.000000 0.091305
vt 1.000000 0.126411
vt 0.715664 0.061147
vt 0.372110 0.040076
vt 1.000000 0.711638
vt 1.000000 0.763113
vt 0.295102 0.000000
vt 0.344308 0.000000
vt 0.946483 0.561591
vt 1.000000 0.482166
vt 1.000000 0.765437
vt 0.513585 0.513585
vt 0.224962 0.224962
vt 0.883806 0.558282
vt 1.000000 0.513585
vt 0.319648 0.319648
vt 0.214202 0.000000
vt 1.000000 0.224962
vt 0.988766 0.238453
vt 1.000000 0.219311
vt 1.000000 0.327250
vt 0.675281 0.143022
vt 0.625914 0.103514
vt 0.551459 0.000000
vt 0.607842 0.002330
vt 0.677700 0.058263
vt 0.822326 0.492837
vt 1.000000 0.655692
vt 0.958306 0.667812
vt 0.406242 0.225829
vt 0.169708 0.000000
vt 0.260004 0.000000
vt 0.458596 0.189561
vt 0.394082 0.266250
vt 1.000000 0.393833
vt 1.000000 0.448541
vt 0.409232 0.324208
vt 0.260004 0.260004
vt 0.169708 0.169708
vt 0.500000 1.098929
vt 0.475275 0.983964
vt 0.500000 0.983964
vt 0.625000 0.983964
vt 0.625000 1.226084
vt 0.517110 1.174390
vt 0.511336 1.155080
vt 0.750000 0.983964
vt 0.750000 1.260601
vt 0.875000 0.983964
vt 0.875000 1.255455
vt 0.750000 1.260601
vt 0.965397 1.225065
vt 0.875000 1.255455
vt 0.916257 0.983964
vt 0.370336 0.176770
vt 0.205646 0.167697
vt 0.032239 0.032239
vt 0.014933 0.000000
vt 0.179093 0.140014
vt 0.313622 0.147657
vt 0.305198 0.081143
vt 0.188745 0.000000
vt 0.229058 0.000000
vt 0.364048 0.096237
vt 0.475275 0.983964
vt 0.471548 0.921205
vt 0.500000 0.909028
vt 0.625000 0.735124
vt 0.605498 0.770118
vt 0.639552 0.707132
vt 0.750000 0.707132
vt 0.625000 0.735124
vt 0.871361 0.707132
vt 0.875000 0.740521
vt 0.916257 0.983964
vt 0.875000 0.740521
vt 0.736641 0.497920
vt 0.750000 0.499490
vt 0.639552 0.707132
vt 0.750000 0.499490
vt 0.783694 0.484182
vt 0.802383 0.475626
vt 0.848670 0.463641
vt 0.863885 0.630771
vt 0.500000 1.128839
vt 0.447002 0.983964
vt 0.528744 1.163432
vt 0.625000 1.193007
vt 0.503597 1.139780
vt 0.750000 1.216697
vt 0.875000 1.213125
vt 0.500000 0.890588
vt 0.445621 0.908955
vt 0.624481 0.747665
vt 0.625000 0.746875
vt 0.649475 0.707132
vt 0.875000 0.748767
vt 0.869575 0.707132
vt 0.927344 0.983964
vt 0.891719 0.840839
vt 0.750000 0.528333
vt 0.649475 0.707132
vt 0.750000 0.528333
vt 0.869575 0.707132
vt 0.844598 0.486373
vt 0.782050 0.499548
vt 0.761473 0.517858
vt 0.986249 1.169106
vt 0.927344 0.983964
vt 0.377365 0.377365
vt 0.258426 0.258426
vt 0.405375 0.204854
vt 0.870129 0.172219
vt 1.000000 0.121495
vt 1.000000 0.235510
vt 0.867079 0.295724
vt 1.000000 0.138764
vt 1.000000 0.276812
vt 0.825958 0.000000
vt 1.000000 0.258426
vt 1.000000 0.377365
vt 0.276812 0.276812
vt 0.138764 0.138764
vt 1.000000 0.175494
vt 1.000000 0.272747
vt 0.218697 0.000000
vt 0.492436 0.000000
vt 0.249423 0.000000
vt 0.637062 0.000000
vt 0.356434 0.083267
vt 0.272747 0.272747
vt 0.175494 0.175494
vt 0.258872 0.258872
vt 0.015310 0.000000
vt 0.418923 0.350599
vt 1.000000 0.879423
vt 1.000000 0.935123
vt 0.720613 0.664990
vt 1.000000 0.876820
vt 1.000000 0.912662
vt 0.724391 0.718321
vt 0.637062 0.637062
vt 0.249423 0.249423
vt 0.332375 0.303850
vt 0.938817 0.138822
vt 1.000000 0.087245
vt 1.000000 0.174042
vt 0.969152 0.200048
vt 0.731197 0.125935
vt 0.702088 0.100065
vt 0.617466 0.000000
vt 0.667264 0.000000
vt 0.735369 0.075510
vt 0.667264 0.667264
vt 0.617466 0.617466
vt 0.823144 0.000000
vt 0.902859 0.000000
vt 0.803081 0.000000
vt 0.912183 0.000000
vt 0.877772 0.410345
vt 0.878369 0.878369
vt 0.797328 0.435993
vt 0.803081 0.803081
vt 1.000000 0.507563
vt 0.912183 0.912183
vt 0.000000 1.221199
vt 0.000000 0.983964
vt 0.125000 0.983964
vt 0.125000 1.118465
vt 0.108421 1.159855
vt 0.026026 1.208256
vt 0.125000 1.118465
vt 0.172358 0.983964
vt 0.125000 0.892243
vt 0.000000 0.737120
vt 0.172358 0.983964
vt 0.161478 0.889014
vt 0.196685 0.886666
vt 1.000000 0.737120
vt 1.000000 0.983964
vt 0.924925 0.983964
vt 0.876352 0.707132
vt 0.987658 0.707132
vt 0.875000 0.694761
vt 0.869348 0.639185
vt 0.859242 0.531883
vt 0.853049 0.458784
vt 0.875000 0.424559
vt 0.895076 0.411844
vt 0.953620 0.603665
vt 0.987658 0.707132
vt 0.875000 0.694760
vt 0.875000 0.424559
vt 0.125000 1.107714
vt 0.008293 1.177544
vt 0.049427 1.163180
vt 0.104190 1.141453
vt 0.193829 0.983964
vt 0.938936 0.983964
vt 1.000000 1.169370
vt 0.125000 0.854671
vt 0.000000 0.721619
vt 0.205964 0.848248
vt 0.125000 0.854671
vt 0.209286 0.937730
vt 0.938936 0.983964
vt 0.992935 0.707132
vt 0.875745 0.707132
vt 0.921237 0.921488
vt 0.850123 0.480649
vt 0.861340 0.588751
vt 0.875000 0.701649
vt 0.875000 0.450025
vt 0.992935 0.707132
vt 0.966847 0.644691
vt 0.887603 0.434148
vt 0.935123 0.935123
vt 0.879423 0.879423
vt 0.235510 0.235510
vt 0.121495 0.121495
vt 0.976340 1.201777
vt 1.000000 1.221199
vt 1.000000 0.423822
vt 1.000000 0.494736
vt 0.903609 0.493384
vt 0.678980 0.277842
vt 0.479778 0.038844
vt 0.463068 0.000000
vt 0.527966 0.000000
vt 0.564753 0.085185
vt 0.670916 0.212197
vt 0.874522 0.409332
vt 0.936836 0.147441
vt 1.000000 0.096204
vt 1.000000 0.200996
vt 0.494736 0.494736
vt 0.423822 0.423822
vt 0.200996 0.200996
vt 0.096204 0.096204
vt 0.043496 0.000000
vt 0.093987 0.000000
vt 0.581700 0.000000
vt 0.632432 0.000000
vt 1.000000 0.472034
vt 1.000000 0.536932
vt 0.739673 0.429630
vt 0.931360 0.627897
vt 1.000000 0.803071
vt 0.987363 0.886994
vt 0.901516 0.666308
vt 0.751559 0.513083
vt 0.723187 0.532126
vt 0.632432 0.632432
vt 0.581700 0.581700
vt 0.900385 0.900385
vt 0.812811 0.812811
vt 0.817287 0.763167
vt 0.617470 0.000000
vt 0.667230 0.000000
vt 0.667230 0.667230
vt 0.617470 0.617470
vt 0.696507 0.478570
vt 0.921426 0.566929
vt 1.000000 0.749189
vt 1.000000 0.883954
vt 0.904353 0.662100
vt 0.709826 0.588027
vt 1.000000 0.906013
vt 1.000000 0.956504
vt 0.883954 0.883954
vt 0.749189 0.749189
vt 0.000000 0.707132
vt 0.125000 0.707132
vt 0.125000 0.881904
vt 0.237950 0.707132
vt 0.214492 0.822248
vt 0.199659 0.874994
vt 0.000000 0.411844
vt 0.000000 0.291884
vt 0.125000 0.291884
vt 0.125000 0.411844
vt 0.181774 0.411844
vt 0.182772 0.291884
vt 0.000000 -0.158506
vt 0.000000 -0.142005
vt 0.000000 0.061190
vt 0.000000 0.046022
vt 0.000000 -0.094004
vt 0.125000 -0.142005
vt 0.181774 0.411844
vt 0.957146 0.600144
vt 0.901097 0.411844
vt 1.000000 0.411844
vt 0.992719 0.707132
vt 0.182772 0.291884
vt 0.155551 0.061190
vt 1.000000 0.291884
vt 0.929620 0.291884
vt 1.000000 0.061190
vt 0.000000 0.709359
vt 0.125000 0.844480
vt 0.234623 0.811559
vt 0.248767 0.750494
vt 0.236769 0.707132
vt 0.227883 0.836043
vt 0.169314 0.291884
vt 0.162688 0.411844
vt 0.901616 0.411844
vt 0.943267 0.291884
vt 0.000000 -0.029027
vt 0.000000 0.061023
vt 0.125000 -0.049256
vt 0.125000 -0.086135
vt 0.125000 0.061002
vt 0.125000 -0.049256
vt 0.236769 0.707132
vt 0.162688 0.411844
vt 0.015894 0.061190
vt 0.000000 0.092959
vt 0.142942 0.061190
vt 1.000000 0.092959
vt 0.901097 0.411844
vt 0.899477 0.386024
vt 1.000000 0.707132
vt 0.893278 0.428708
vt 0.971101 0.641464
vt 1.000000 0.357629
vt 0.784909 0.369077
vt 1.000000 0.126017
vt 0.357629 0.357629
vt 0.126016 0.126016
vt 0.083748 0.069208
vt 0.050356 0.000000
vt 0.196774 0.000000
vt 0.339789 0.194580
vt 0.407660 0.000000
vt 0.480130 0.000000
vt 0.934681 0.485150
vt 0.480130 0.480130
vt 0.407660 0.407660
vt 0.629226 0.410807
vt 0.196774 0.196774
vt 0.077928 0.055175
vt 0.375000 -0.258654
vt 0.375000 -0.332999
vt 0.375000 -0.826208
vt 0.375000 -1.146069
vt 0.500000 0.008361
vt 0.500000 -0.258654
vt 0.500000 -1.146069
vt 0.500000 -0.403687
vt 0.500000 -0.840018
vt 0.500000 -0.679682
vt 0.500000 -0.840018
vt 0.500000 -0.223641
vt 0.115509 0.000000
vt 0.074305 0.074305
vt 0.956477 0.000000
vt 0.985377 0.069927
vt 0.740281 0.740281
vt 0.599797 0.396329
vt 0.309535 0.000000
vt 0.782391 0.000000
vt 1.000000 0.291572
vt 1.000000 0.884491
vt 0.324280 0.309773
vt 0.775688 0.771872
vt 0.956477 0.956477
vt 1.000000 0.740281
vt 0.356954 0.222309
vt 0.238056 0.155704
vt 0.165706 0.000000
vt 0.381328 0.000000
vt 0.782391 0.782391
vt 0.309535 0.309535
vt 0.403757 0.322484
vt 0.490399 0.388870
vt 0.372795 0.160659
vt 0.487230 0.393274
vt 0.381328 0.381328
vt 0.206498 0.172441
vt 0.660190 0.291884
vt 0.750000 0.291884
vt 0.750000 0.411844
vt 0.717259 0.411844
vt 0.770516 0.411844
vt 0.802401 0.302848
vt 0.794880 0.341469
vt 0.783393 0.379626
vt 0.717259 0.411844
vt 0.743820 0.488387
vt 0.737577 0.487603
vt 0.793812 0.468364
vt 0.777075 0.476811
vt 0.750000 0.489132
vt 0.658309 0.281083
vt 0.668637 0.258423
vt 0.739804 0.099703
vt 0.750000 0.075704
vt 0.750000 0.075704
vt 0.803878 0.291884
vt 0.726627 0.291884
vt 0.750000 0.328611
vt 0.762816 0.291884
vt 0.750000 0.241441
vt 0.762816 0.291884
vt 1.000000 0.492682
vt 0.510499 0.498310
vt 0.957341 0.045508
vt 1.000000 0.036473
vt 1.000000 0.168205
vt 0.739874 0.424557
vt 1.000000 0.420724
vt 1.000000 0.633270
vt 0.896757 0.629265
vt 0.492682 0.492682
vt 0.420724 0.420724
vt 0.931234 0.594100
vt 1.000000 0.596738
vt 0.038969 0.033966
vt 0.251560 0.000000
vt 1.000000 0.005676
vt 0.915992 0.001030
vt 0.839809 0.015837
vt 0.399350 0.014208
vt 0.156504 0.053933
vt 0.140026 0.071436
vt 0.168205 0.168205
vt 0.633270 0.633270
vt 0.596738 0.596738
vt 1.000000 0.570818
vt 1.000000 0.609776
vt 0.478293 0.000000
vt 0.542322 0.000000
vt 0.565153 0.016260
vt 0.728564 0.410091
vt 0.609776 0.609776
vt 0.570818 0.570818
vt 0.677049 0.391486
vt 0.527300 0.034640
vt 0.457677 0.000000
vt 0.521707 0.000000
vt 1.000000 0.373452
vt 1.000000 0.423649
vt 0.499363 0.255782
vt 0.329335 0.089696
vt 0.104469 0.000000
vt 0.213636 0.000000
vt 0.367742 0.059630
vt 0.565132 0.250088
vt 0.584563 0.278062
vt 0.423649 0.423649
vt 0.373452 0.373452
vt 0.918690 0.000000
vt 1.000000 0.748440
vt 0.850901 0.850901
vt 0.709571 0.709571
vt 0.841944 0.620338
vt 0.832996 0.403968
vt 0.702495 0.528955
vt 0.670285 0.670285
vt 0.582237 0.582237
vt 0.629593 0.379049
vt 0.896544 0.120271
vt 0.668404 0.668404
vt 0.490521 0.000000
vt 0.791103 0.000000
vt 1.000000 0.618664
vt 0.208897 0.000000
vt 1.000000 0.384416
vt 0.778162 0.709494
vt 0.618664 0.618664
vt 0.384416 0.384416
vt 0.653987 0.537356
vt 1.000000 0.745676
vt 1.000000 0.871158
vt 0.625000 -1.682853
vt 0.500000 -1.682853
vt 0.375000 -1.682853
vt 0.250000 -1.682853
vt 0.125000 -1.682853
vt 1.000000 -1.682853
vt 0.875000 -1.682853
vt 0.750000 -1.682853
vt 0.650199 0.230799
vt 0.582237 0.000000
vt 0.670285 0.000000
vt 0.680835 0.034709
vt 0.709571 0.000000
vt 0.850900 0.000000
vt 0.874564 0.411844
vt 0.781931 0.411844
vt 0.810122 0.291884
vt 0.875000 0.291884
vt 0.875000 0.411211
vt 0.923416 0.291884
vt 0.893026 0.381215
vt 0.000000 -1.682853
vt 0.125000 -1.590575
vt 0.000000 -1.590575
vt 0.250000 -1.590575
vt 0.375000 -1.590575
vt 0.500000 -1.590575
vt 0.625000 -1.590575
vt 0.750000 -1.590575
vt 0.875000 -1.590575
vt 1.000000 -1.590575
vt 0.000000 0.028430
vt 0.000000 -0.223269
vt 0.000000 -0.178281
vt 0.000000 -0.111298
vt 0.125000 -0.223269
vt 0.125000 -0.897468
vt 0.250000 -0.897468
vt 0.250000 -1.074699
vt 0.250000 -1.055753
vt 0.250000 -1.024282
vt 0.375000 -1.208800
vt 0.375000 -0.858711
vt 0.375000 -1.074699
vt 0.500000 -1.208800
vt 0.625000 0.061190
vt 0.750000 0.061190
vt 0.750000 0.056035
vt 0.875000 0.061190
vt 0.875000 0.028430
vt 0.798467 0.449124
vt 0.874564 0.411844
vt 0.849456 0.449545
vt 0.625000 0.116547
vt 0.746507 0.061190
vt 0.683849 0.201489
vt 0.655389 0.256853
vt 0.751857 0.061190
vt 0.793470 0.227101
vt 0.990176 0.061190
vt 0.923416 0.291884
vt 0.728008 0.411844
vt 0.750000 0.351117
vt 0.712462 0.291884
vt 0.663790 0.291884
vt 0.875000 0.411844
vt 0.769916 0.291884
vt 0.750000 0.351117
vt 0.936417 0.291884
vt 0.891647 0.411844
vt 0.125000 -0.106475
vt 0.125000 -0.204793
vt 0.000000 0.061143
vt 0.000000 -0.046943
vt 0.125000 -0.204793
vt 0.250000 -0.829606
vt 0.375000 -0.945862
vt 0.375000 -0.981634
vt 0.375000 -0.994674
vt 0.500000 -0.714024
vt 0.500000 -0.905943
vt 0.375000 -0.994674
vt 0.500000 -0.168470
vt 0.750000 0.465769
vt 0.784087 0.485597
vt 0.845835 0.472105
vt 0.864469 0.450250
vt 0.750000 0.214736
vt 0.625000 0.112570
vt 0.739316 0.238171
vt 0.769916 0.291884
vt 0.750000 0.214736
vt 0.757059 0.242304
s 0
usemtl Material
f 44/1/1 33/2/1 31/3/1 32/4/1 30/5/1 29/6/1 35/7/1 34/8/1 36/9/1
f 37/10/2 40/11/2 41/12/2 39/13/2 38/14/2
f 42/15/3 40/16/3 37/17/3 43/18/3 29/19/3 30/20/3
f 33/21/4 44/22/4 46/23/4 45/24/4
f 48/25/5 45/26/5 46/27/5 47/28/5 52/29/5 49/30/5
f 1/31/6 53/32/6 57/33/6 56/34/6 58/35/6 62/36/6 55/37/6 54/38/6 51/39/6 50/40/6
f 52/41/6 59/42/6 60/43/6 61/44/6 49/45/6
f 60/46/7 59/47/7 65/48/7 64/49/7
f 63/50/7 66/51/7 58/52/7 56/53/7
f 68/54/8 66/55/8 63/56/8 67/57/8 64/58/8 65/59/8
f 1/60/9 69/61/9 70/62/9
f 75/63/10 76/64/10 72/65/10 69/66/10 1/67/10 71/68/10 74/69/10 73/70/10 77/71/10
f 76/72/11 75/73/11 78/74/11 79/75/11
f 80/76/12 81/77/12 38/78/12 39/79/12 83/80/12 82/81/12
f 78/82/13 80/83/13 82/84/13 79/85/13
f 53/86/14 1/87/14 70/88/14 84/89/14
f 39/90/15 41/91/15 5/92/15 83/93/15
f 5/92/16 9/94/16 76/95/16 79/96/16 82/97/16 83/98/16
f 9/94/17 72/99/17 76/100/17
f 2/101/18 42/102/18 30/103/18 32/104/18 3/105/18
f 6/106/19 2/101/19 3/105/19 7/107/19
f 10/108/20 6/106/20 7/107/20 11/109/20
f 11/109/21 14/110/21 13/111/21 10/108/21
f 84/112/22 13/111/22 14/110/22 53/113/22
f 48/114/23 4/115/23 31/115/23 33/116/23 45/117/23
f 61/118/24 8/119/24 4/119/24 48/120/24 49/121/24
f 12/122/25 8/122/25 61/123/25 60/124/25 64/125/25 67/126/25
f 63/127/26 12/127/26 67/128/26
f 40/129/27 42/130/27 2/101/27
f 2/101/28 6/106/28 5/92/28 41/131/28 40/132/28
f 5/92/29 6/106/29 10/108/29 9/94/29
f 72/133/30 9/94/30 10/108/30 13/111/30
f 84/112/31 70/134/31 69/135/31 72/133/31 13/111/31
f 4/119/32 3/105/32 32/136/32 31/137/32
f 3/105/33 4/119/33 8/122/33 7/107/33
f 7/107/34 8/122/34 12/127/34 11/109/34
f 57/138/35 14/110/35 11/109/35 12/127/35 63/139/35 56/140/35
f 53/113/36 14/110/36 57/141/36
f 38/142/37 81/143/37 18/92/37 43/144/37 37/145/37
f 78/146/38 75/147/38 77/148/38 22/94/38 18/92/38 81/149/38 80/150/38
f 73/151/39 26/133/39 22/94/39 77/148/39
f 74/152/40 26/133/40 73/151/40
f 29/153/41 15/101/41 16/105/41 35/154/41
f 20/107/42 16/105/42 15/101/42 19/106/42
f 24/109/43 20/107/43 19/106/43 23/108/43
f 28/110/44 24/109/44 23/108/44 27/111/44
f 54/155/45 28/110/45 27/111/45 51/156/45
f 44/157/46 36/158/46 46/159/46
f 36/160/47 34/161/47 17/119/47 47/162/47 46/163/47
f 21/122/48 52/164/48 47/165/48 17/119/48
f 65/166/49 59/167/49 52/168/49 21/122/49 25/127/49 68/169/49
f 68/170/50 25/127/50 62/171/50 58/172/50 66/173/50
f 43/174/51 15/101/51 29/175/51
f 18/92/52 19/106/52 15/101/52 43/174/52
f 22/94/53 23/108/53 19/106/53 18/92/53
f 26/133/54 27/111/54 23/108/54 22/94/54
f 71/176/55 50/177/55 51/178/55 27/111/55 26/133/55 74/152/55
f 1/179/56 50/177/56 71/176/56
f 35/154/57 16/105/57 17/119/57 34/180/57
f 20/107/58 21/122/58 17/119/58 16/105/58
f 24/109/59 25/127/59 21/122/59 20/107/59
f 28/110/60 55/181/60 62/182/60 25/127/60 24/109/60
f 55/181/61 28/110/61 54/155/61
f 105/183/62 106/184/62 103/185/62 95/186/62 104/187/62 86/188/62
f 107/189/63 105/190/63 86/191/63 109/192/63 108/193/63
f 110/194/64 108/195/64 109/196/64 111/197/64
f 113/198/65 104/199/65 95/200/65
f 123/201/66 121/202/66 122/203/66 124/204/66 118/205/66 125/206/66 117/207/66 119/208/66 120/209/66 116/210/66 115/211/66 114/212/66 95/213/66 103/214/66 85/215/66 112/216/66
f 124/217/67 122/218/67 127/219/67
f 91/220/68 93/221/68 123/222/68 112/223/68 87/224/68
f 90/225/69 132/226/69 129/227/69 89/225/69 106/228/69 105/229/69
f 111/230/70 102/231/70 126/232/70 130/233/70 127/234/70 122/235/70 133/236/70 128/237/70 129/238/70 132/239/70 110/240/70
f 110/241/71 90/225/71 105/229/71 107/242/71 108/243/71
f 132/244/72 90/225/72 110/245/72
f 85/246/73 106/229/73 89/225/73 88/247/73
f 128/248/74 92/249/74 88/247/74 89/225/74 129/250/74
f 133/251/75 94/252/75 92/249/75 128/248/75
f 121/253/76 94/252/76 133/254/76 122/255/76
f 106/256/77 85/257/77 103/258/77
f 112/223/78 85/246/78 88/247/78 87/224/78
f 87/224/79 88/247/79 92/249/79 91/220/79
f 91/220/80 92/249/80 94/252/80 93/221/80
f 93/221/81 94/252/81 121/259/81 123/222/81
f 120/224/82 96/224/82 116/260/82
f 100/220/83 96/224/83 120/261/83 119/220/83
f 125/221/84 100/220/84 119/262/84 117/221/84
f 111/263/85 99/225/85 102/264/85
f 113/229/86 95/229/86 98/225/86 99/225/86
f 130/265/87 102/265/87 99/225/87 98/225/87 131/266/87
f 102/265/88 130/265/88 126/267/88
f 97/247/89 98/225/89 95/229/89 114/268/89 115/269/89
f 98/225/90 97/247/90 101/249/90 130/270/90 131/266/90
f 101/249/91 118/252/91 127/271/91 130/272/91
f 118/273/92 124/274/92 127/275/92
f 116/276/93 96/224/93 97/247/93 115/277/93
f 100/220/94 101/249/94 97/247/94 96/224/94
f 101/249/95 100/220/95 125/221/95 118/252/95
f 86/278/96 104/279/96 113/280/96 99/225/96 111/281/96 109/282/96
f 150/283/97 152/284/97 147/285/97 146/286/97 148/287/97 144/288/97 145/289/97 142/290/97 143/291/97 149/292/97 151/293/97
f 143/294/98 142/295/98 153/296/98 154/297/98 155/298/98 156/299/98
f 155/300/99 154/301/99 157/302/99 158/303/99
f 162/304/100 163/305/100 147/306/100 164/307/100 161/308/100 165/309/100 160/310/100 159/311/100
f 146/312/101 147/313/101 163/314/101
f 166/315/102 160/316/102 165/317/102
f 168/318/103 166/319/103 165/320/103 171/321/103 169/322/103 170/323/103 167/324/103
f 158/325/104 157/326/104 172/327/104
f 170/328/105 173/329/105 158/330/105 172/331/105 174/332/105 167/333/105
f 156/334/106 135/335/106 149/336/106 143/337/106
f 149/265/107 135/335/107 138/338/107 137/339/107
f 165/340/108 161/341/108 137/339/108 138/338/108 169/342/108 171/343/108
f 164/344/109 136/339/109 134/265/109 151/345/109 149/265/109 137/339/109 161/341/109
f 134/265/110 150/346/110 151/345/110
f 134/265/111 136/339/111 152/347/111 150/348/111
f 147/349/112 152/347/112 136/339/112 164/350/112
f 158/174/113 135/335/113 156/351/113 155/352/113
f 173/353/114 138/338/114 135/335/114 158/354/114
f 169/355/115 138/338/115 173/356/115 170/357/115
f 142/358/116 145/359/116 139/335/116 153/360/116
f 141/338/117 139/335/117 145/359/117 144/361/117 159/362/117
f 159/363/118 160/364/118 166/365/118 168/366/118 141/338/118
f 148/265/119 140/339/119 144/367/119
f 144/339/120 140/339/120 162/368/120 159/369/120
f 140/339/121 148/370/121 146/371/121
f 140/339/122 146/372/122 163/373/122 162/368/122
f 153/360/123 139/335/123 157/374/123 154/375/123
f 157/376/124 139/335/124 141/338/124 174/377/124 172/378/124
f 174/377/125 141/338/125 168/379/125 167/380/125
f 245/381/126 204/382/126 205/383/126
f 207/384/127 205/385/127 206/386/127 208/387/127
f 227/60/128 220/388/128 242/389/128
f 216/390/129 219/391/129 218/392/129 217/393/129 215/394/129 223/395/129
f 220/396/130 227/397/130 225/398/130 223/399/130 215/400/130 226/401/130
f 224/402/131 221/403/131 222/404/131
f 227/31/132 242/405/132 233/406/132 230/407/132 237/408/132 234/409/132 235/410/132 236/411/132 238/412/132 240/413/132 241/414/132 246/415/132 239/416/132 231/417/132 229/418/132 228/419/132 232/420/132
f 209/421/133 243/422/133 244/423/133 212/424/133
f 219/425/134 244/426/134 243/427/134 218/428/134
f 207/429/135 208/430/135 246/431/135 241/432/135
f 205/433/136 204/434/136 209/435/136 212/436/136 213/437/136 210/438/136 211/439/136 206/440/136
f 242/441/137 220/442/137 226/443/137 203/444/137 233/445/137
f 213/446/138 178/447/138 210/448/138
f 216/449/139 182/450/139 178/447/139 213/451/139 212/452/139 244/453/139 219/454/139
f 223/455/140 182/450/140 216/449/140
f 232/456/141 225/457/141 227/458/141
f 182/450/142 223/455/142 225/444/142 232/459/142 228/460/142 224/461/142 222/462/142 181/450/142 177/447/142 211/463/142 210/448/142 178/447/142
f 231/464/68 239/465/68 175/466/68 179/467/68 183/468/68 185/469/68
f 177/447/143 176/470/143 246/471/143 208/472/143 206/473/143 211/474/143
f 180/475/144 176/470/144 177/447/144 181/450/144
f 222/462/145 221/476/145 184/477/145 180/475/145 181/450/145
f 224/478/146 186/479/146 184/477/146 221/476/146
f 186/479/147 224/461/147 228/480/147 229/481/147
f 176/470/81 175/466/81 239/482/81 246/471/81
f 179/467/148 175/466/148 176/470/148 180/475/148
f 183/468/149 179/467/149 180/475/149 184/477/149
f 185/469/150 183/468/150 184/477/150 186/479/150
f 231/464/151 185/469/151 186/479/151 229/481/151
f 235/224/152 234/483/152 199/224/152
f 199/220/83 236/220/83 235/484/83
f 199/221/153 238/221/153 236/485/153
f 187/466/154 240/486/154 238/487/154 199/466/154
f 191/467/155 187/466/155 199/467/155
f 191/467/156 199/468/156 195/468/156
f 195/468/157 199/469/157 200/469/157
f 200/469/158 199/488/158 234/489/158
f 190/447/159 209/490/159 204/491/159 245/492/159
f 209/490/160 190/447/160 194/450/160 217/493/160 218/494/160 243/495/160
f 217/493/161 194/450/161 198/455/161 215/496/161
f 215/496/162 198/455/162 203/444/162 226/443/162
f 245/497/163 205/498/163 214/499/163 189/447/163 190/447/163
f 193/450/164 194/450/164 190/447/164 189/447/164
f 197/455/165 198/455/165 194/450/165 193/450/165
f 198/455/166 197/455/166 202/444/166 203/444/166
f 203/444/167 202/444/167 230/500/167 233/501/167
f 241/502/168 188/470/168 189/447/168 214/499/168 205/503/168 207/504/168
f 192/475/169 193/450/169 189/447/169 188/470/169
f 196/477/170 197/455/170 193/450/170 192/475/170
f 201/479/171 202/444/171 197/455/171 196/477/171
f 202/444/172 201/479/172 237/505/172 230/500/172
f 187/466/173 188/470/173 241/506/173 240/486/173
f 191/467/174 192/475/174 188/470/174 187/466/174
f 195/468/175 196/477/175 192/475/175 191/467/175
f 200/469/176 201/479/176 196/477/176 195/468/176
f 237/507/177 201/479/177 200/469/177 234/489/177
f 247/60/178 267/508/178 266/509/178 268/510/178
f 267/511/179 247/31/179 269/512/179
f 270/513/180 272/514/180 274/515/180 275/516/180 276/517/180 277/518/180 273/519/180 271/520/180
f 263/521/181 262/522/181 278/523/181 279/524/181
f 283/525/182 274/526/182 272/527/182 281/528/182 280/529/182 282/530/182
f 281/531/183 269/532/183 247/31/183 284/533/183 280/534/183
f 285/535/184 247/536/184 268/537/184 286/538/184 290/539/184 289/540/184 288/541/184 287/542/184
f 295/543/185 279/544/185 278/545/185 291/546/185 292/547/185 293/548/185 294/549/185
f 297/550/186 288/551/186 289/552/186 296/553/186 293/554/186 292/555/186
f 295/556/187 294/557/187 248/558/187
f 248/558/188 249/559/188 265/560/188 263/561/188 279/562/188 295/556/188
f 249/559/189 250/563/189 258/564/189 265/560/189
f 250/563/190 252/565/190 260/566/190 258/567/190
f 277/568/191 260/569/191 252/565/191 273/570/191
f 258/571/192 260/572/192 277/573/192 276/574/192 261/575/192 259/576/192 264/577/192 262/578/192 263/579/192 265/580/192
f 248/558/193 294/581/193 293/582/193 296/583/193
f 290/584/194 249/559/194 248/558/194 296/583/194 289/585/194
f 286/586/195 251/587/195 250/563/195 249/559/195 290/588/195
f 252/565/196 250/563/196 251/587/196 270/589/196 271/590/196
f 273/591/197 252/565/197 271/592/197
f 268/593/189 266/594/189 251/587/189 286/595/189
f 270/589/190 251/587/190 266/596/190 267/597/190 269/598/190 281/599/190 272/600/190
f 278/601/198 253/558/198 291/602/198
f 262/603/199 264/604/199 254/559/199 253/558/199 278/605/199
f 259/606/200 255/563/200 254/559/200 264/604/200
f 261/607/201 257/565/201 255/563/201 259/606/201
f 291/602/202 253/558/202 297/608/202 292/609/202
f 297/608/203 253/558/203 254/559/203 288/610/203
f 288/611/204 254/559/204 255/563/204 256/587/204 287/612/204
f 256/587/205 255/563/205 257/565/205 283/613/205 282/614/205
f 283/613/206 257/565/206 275/615/206 274/616/206
f 256/587/207 285/617/207 287/618/207
f 285/619/208 256/587/208 282/620/208 280/621/208 284/622/208 247/623/208
f 257/565/209 261/607/209 276/624/209 275/625/209
f 305/626/210 306/627/210 307/628/210 303/629/210 302/630/210 304/631/210 308/632/210
f 310/633/211 311/634/211 309/635/211
f 306/636/212 305/637/212 311/638/212 310/639/212
f 313/640/213 314/641/213 315/642/213 312/643/213
f 316/644/214 318/645/214 317/646/214 314/647/214 313/648/214
f 320/649/215 319/650/215 321/651/215 322/652/215 323/653/215
f 325/654/216 319/655/216 320/656/216 326/657/216 318/658/216 316/659/216 324/660/216
f 331/661/217 310/662/217 309/663/217 333/664/217 328/665/217 327/666/217 329/667/217 332/668/217 330/669/217
f 332/670/218 329/671/218 335/672/218 334/673/218
f 336/674/219 315/675/219 337/676/219 334/677/219 335/678/219
f 336/679/220 312/680/220 315/681/220
f 321/682/221 298/683/221 299/684/221 308/685/221 304/686/221 322/687/221
f 308/688/222 299/684/222 305/689/222
f 333/690/223 299/684/223 298/683/223 328/691/223
f 305/692/224 299/684/224 333/690/224 309/693/224 311/694/224
f 328/695/225 298/696/225 325/697/225 324/698/225 327/699/225
f 324/700/226 316/701/226 313/702/226 312/703/226 336/704/226
f 335/705/227 329/706/227 327/707/227 324/708/227 336/709/227
f 303/710/228 301/684/228 300/683/228 320/711/228 323/712/228 302/713/228
f 307/714/229 301/684/229 303/710/229
f 300/696/230 326/715/230 320/716/230
f 300/683/231 301/684/231 331/717/231 330/718/231
f 310/719/232 331/720/232 301/684/232 307/714/232 306/721/232
f 326/722/233 300/696/233 330/723/233 317/724/233 318/725/233
f 315/726/234 314/727/234 317/728/234 337/729/234
f 317/724/235 330/730/235 332/731/235 334/732/235 337/729/235
f 323/733/236 322/734/236 304/735/236 302/736/236
f 319/737/237 325/697/237 298/696/237 321/738/237
f 351/739/238 360/740/238 354/741/238 353/742/238 355/743/238 356/744/238 352/745/238 359/746/238 357/747/238 358/748/238
f 362/749/239 363/750/239 361/751/239 360/752/239 351/753/239
f 361/754/240 363/755/240 364/756/240 365/757/240
f 366/758/241 367/759/241 352/760/241 356/761/241
f 372/762/242 368/763/242 369/764/242 374/765/242 370/766/242 371/767/242 373/768/242 367/769/242 366/770/242
f 374/771/243 369/772/243 376/773/243 375/774/243 377/775/243
f 377/776/244 375/777/244 338/778/244 382/779/244 381/780/244 380/781/244 379/782/244 378/783/244
f 365/784/245 364/785/245 380/786/245 381/787/245
f 338/788/246 341/789/246 382/790/246
f 382/790/247 341/789/247 361/791/247 365/792/247 381/793/247
f 339/794/248 340/795/248 343/796/248 342/797/248
f 360/798/249 342/797/249 343/796/249 354/799/249
f 356/800/250 355/801/250 344/802/250 372/803/250 366/804/250
f 353/115/251 344/115/251 355/805/251
f 338/788/252 339/794/252 342/797/252 341/789/252
f 361/791/253 341/789/253 342/797/253 360/806/253
f 375/807/254 376/808/254 339/809/254 338/810/254
f 340/795/255 372/802/255 344/115/255 343/796/255
f 354/811/256 343/796/256 344/115/256 353/812/256
f 340/813/257 368/814/257 372/815/257
f 347/789/258 378/816/258 379/817/258
f 364/818/259 363/819/259 362/820/259 347/789/259 379/817/259 380/821/259
f 348/794/260 349/796/260 346/795/260 345/794/260
f 358/822/261 349/796/261 348/797/261 351/823/261
f 374/824/262 345/809/262 346/813/262 370/825/262
f 367/826/263 373/827/263 350/115/263 359/828/263 352/829/263
f 357/830/264 359/831/264 350/115/264
f 347/788/265 348/797/265 345/794/265 378/788/265
f 348/797/266 347/789/266 362/832/266 351/833/266
f 346/795/267 349/796/267 350/115/267 373/834/267 371/835/267
f 350/115/268 349/796/268 358/822/268 357/836/268
f 370/825/269 346/813/269 371/837/269
f 376/838/270 369/839/270 368/814/270 340/813/270 339/809/270
f 378/840/271 345/809/271 374/841/271 377/842/271
f 385/843/272 384/844/272 383/845/272
f 385/846/273 383/847/273 387/848/273 391/849/273 386/850/273 388/851/273 389/852/273 390/853/273
f 392/854/274 390/855/274 389/856/274 393/857/274 386/858/274 391/859/274
f 384/860/275 385/861/275 390/862/275 392/863/275
f 383/864/276 384/865/276 392/866/276 391/127/276 387/127/276
f 388/867/277 393/868/277 389/869/277
f 393/870/278 388/867/278 386/871/278
f 398/872/279 399/873/279 394/31/279
f 400/874/280 394/60/280 399/875/280
f 394/87/281 401/876/281 403/877/281 402/878/281 404/879/281 406/880/281
f 398/881/282 394/87/282 406/882/282 405/883/282
f 400/884/283 401/885/283 394/87/283
f 409/886/284 407/887/284 413/888/284 412/889/284 404/890/284 402/891/284 411/892/284 410/893/284 408/894/284
f 402/891/285 407/887/285 409/886/285 411/892/285
f 414/895/286 412/896/286 413/897/286
f 406/898/287 396/899/287 395/900/287 405/901/287
f 403/902/288 395/900/288 396/899/288 413/903/288 407/904/288 402/905/288
f 405/906/289 395/900/289 399/907/289 398/908/289
f 403/902/290 401/909/290 400/910/290 399/911/290 395/900/290
f 406/912/291 404/913/291 412/914/291 414/915/291 396/899/291
f 414/916/292 413/917/292 396/899/292
f 410/918/293 411/919/293 397/899/293
f 397/899/294 411/919/294 409/920/294
f 397/899/295 408/921/295 410/918/295
f 408/921/296 397/899/296 409/922/296
f 460/923/297 459/924/297 426/925/297 471/926/297 458/927/297 461/928/297 462/929/297
f 465/930/298 472/931/298 460/932/298 462/933/298 466/934/298 467/935/298
f 471/936/299 468/937/299 473/938/299 463/939/299 464/940/299 469/941/299 470/942/299 447/943/299 458/944/299
f 465/945/300 467/946/300 475/947/300 474/948/300
f 479/949/301 476/950/301 477/951/301 481/952/301 474/953/301 475/954/301 480/955/301 478/956/301
f 476/957/302 479/958/302 483/959/302 482/960/302
f 435/961/303 486/962/303 485/963/303 505/964/303 484/965/303 488/966/303 487/967/303 482/968/303 483/969/303
f 496/970/304 473/60/304 468/971/304 493/972/304 494/973/304 499/974/304 500/975/304 498/976/304 492/977/304 490/978/304 495/979/304 497/980/304
f 473/87/305 496/981/305 502/982/305 501/983/305
f 503/984/306 501/985/306 502/986/306
f 453/987/307 503/988/307 502/989/307 504/990/307 505/991/307 485/992/307
f 427/993/308 424/994/308 422/995/308 420/996/308 418/997/308 416/998/308 433/999/308 429/1000/308
f 489/1001/309 490/1002/309 492/1003/309 491/1004/309 494/1005/309 493/1006/309
f 504/1007/310 497/1008/310 495/1009/310 431/1010/310
f 504/1011/311 431/1010/311 484/1012/311 505/1013/311
f 416/1014/312 418/997/312 417/1015/312 415/1016/312
f 418/997/313 420/996/313 419/1017/313 417/1015/313
f 421/1018/314 419/1017/314 420/996/314 422/995/314
f 423/1019/315 421/1018/315 422/995/315 424/994/315
f 425/1020/316 423/1019/316 424/994/316 427/993/316
f 425/1020/317 427/993/317 429/1000/317 428/1021/317
f 429/1000/318 433/999/318 430/1022/318 428/1021/318
f 433/999/319 416/998/319 415/1023/319 430/1022/319
f 487/1024/320 415/1015/320 417/1015/320 477/1025/320 476/1026/320 482/1027/320
f 477/1028/321 417/1017/321 419/1017/321 481/1029/321
f 481/1030/322 419/1018/322 421/1018/322 472/1031/322 465/1032/322 474/1033/322
f 421/1019/323 423/1019/323 459/1034/323 460/1035/323 472/1036/323
f 423/1020/324 425/1020/324 426/127/324 459/1037/324
f 426/1038/325 425/1021/325 428/1021/325 489/1038/325
f 428/1022/326 430/1022/326 432/1039/326 489/1040/326
f 488/1041/327 432/1041/327 430/1023/327 415/1023/327 487/1042/327
f 496/1043/328 497/1008/328 504/1044/328 502/1045/328
f 471/1046/329 426/1038/329 489/1047/329 493/1048/329 468/1049/329
f 489/1050/330 432/1041/330 431/1010/330 495/1009/330 490/1051/330
f 431/1010/331 432/1041/331 488/1052/331 484/1053/331
f 436/1014/332 437/1014/332 439/997/332
f 436/997/333 439/997/333 441/996/333
f 443/995/334 436/996/334 441/996/334
f 445/994/335 436/995/335 443/995/335
f 445/994/336 448/993/336 436/994/336
f 448/993/337 452/1000/337 436/993/337
f 452/1000/338 457/999/338 436/1000/338
f 457/999/339 437/998/339 436/999/339
f 464/1054/340 449/900/340 500/1055/340 499/1056/340 469/1057/340
f 449/900/341 453/1058/341 455/1010/341 498/1059/341 500/1060/341
f 486/1061/342 455/1010/342 453/1058/342 485/1062/342
f 439/997/343 437/1014/343 434/1016/343 438/1015/343
f 441/996/344 439/997/344 438/1015/344 440/1017/344
f 442/1018/345 443/995/345 441/996/345 440/1017/345
f 444/1019/346 445/994/346 443/995/346 442/1018/346
f 446/1020/347 448/993/347 445/994/347 444/1019/347
f 450/1021/348 452/1000/348 448/993/348 446/1020/348
f 452/1000/349 450/1021/349 454/1022/349 457/999/349
f 457/999/350 454/1022/350 434/1023/350 437/998/350
f 479/1063/351 478/1064/351 438/1015/351 434/1016/351 435/1065/351 483/1066/351
f 440/1017/352 438/1015/352 478/1067/352 480/1068/352
f 442/1018/353 440/1017/353 480/1068/353 475/1069/353 467/1070/353 466/1071/353
f 462/1072/354 461/1073/354 444/1019/354 442/1018/354 466/1074/354
f 447/1038/355 446/1020/355 444/1019/355 461/1073/355 458/1075/355
f 451/1039/356 450/1021/356 446/1020/356 447/1038/356
f 456/1041/357 454/1022/357 450/1021/357 451/1039/357
f 456/1041/358 435/815/358 434/1023/358 454/1022/358
f 463/1076/359 449/900/359 464/1054/359
f 453/1058/360 449/900/360 463/1076/360 473/1077/360 501/1078/360 503/1079/360
f 491/1080/361 451/1039/361 447/1038/361 470/1081/361 469/1057/361 499/1056/361 494/1082/361
f 498/1083/362 455/1010/362 456/1041/362 451/1039/362 491/1084/362 492/1085/362
f 435/815/363 456/1041/363 455/1010/363 486/1061/363
