# Blender 3.6.0
# www.blender.org
mtllib Butelka_5.mtl
o 5
v -0.107020 0.011013 0.295299
v -0.090412 -0.006857 0.275077
v -0.064370 -0.005953 0.243366
v -0.044200 0.019368 0.321967
v -0.013377 0.022984 0.295107
v -0.125038 0.022984 0.203406
v -0.105180 0.020584 0.293059
v -0.088823 0.002825 0.273142
v -0.065274 0.003945 0.244468
v -0.046965 0.026579 0.315614
v -0.019240 0.030069 0.291178
v -0.036173 0.015855 0.209032
v -0.081221 0.023645 0.186914
v -0.065025 0.025479 0.198791
v -0.008281 0.031901 0.240402
v -0.032295 0.007359 0.204309
v 0.014965 0.034533 0.257448
v -0.109861 0.037308 0.180438
v -0.104711 0.031421 0.178655
v -0.101683 0.037637 0.185922
v 0.007729 0.041119 0.258505
v 0.014957 0.056803 0.276580
v 0.006608 0.058673 0.272876
v -0.134434 0.021315 0.219774
v -0.119585 0.029850 0.208695
v -0.139649 0.016629 0.242646
v -0.128671 0.021832 0.246895
v -0.125924 0.020030 0.282848
v -0.114982 0.025259 0.286603
v -0.101756 0.028374 0.327174
v -0.124296 0.017879 0.316336
v -0.142556 0.007100 0.333140
v -0.142791 0.006472 0.338857
v -0.075719 0.028776 0.327059
v -0.085839 0.025851 0.332311
v -0.076660 0.033682 0.317830
v -0.062617 0.032703 0.319995
v -0.066878 0.028173 0.328396
v -0.042561 0.029367 0.326721
v -0.010288 0.041839 0.304071
v -0.016813 0.044877 0.298218
v -0.045832 0.033494 0.318901
v -0.123252 0.015032 0.351697
v -0.036173 0.015855 0.209032
v -0.008281 0.031901 0.240402
v -0.081221 0.023645 0.186914
v -0.032295 0.007359 0.204309
v -0.104711 0.031421 0.178655
v -0.065025 0.025479 0.198791
v -0.101683 0.037637 0.185922
v 0.007729 0.041119 0.258505
v 0.006608 0.058673 0.272876
v -0.134434 0.021315 0.219774
v -0.139649 0.016629 0.242646
v -0.119585 0.029850 0.208695
v -0.128671 0.021832 0.246895
v -0.125924 0.020030 0.282848
v -0.114982 0.025259 0.286603
v -0.101756 0.028374 0.327174
v -0.124296 0.017879 0.316336
v -0.142556 0.007100 0.333140
v -0.142791 0.006472 0.338857
v -0.075719 0.028776 0.327059
v -0.085839 0.025851 0.332311
v -0.076660 0.033682 0.317830
v -0.062617 0.032703 0.319995
v -0.066878 0.028173 0.328396
v -0.042561 0.029367 0.326721
v -0.010288 0.041839 0.304071
v -0.016813 0.044877 0.298218
v -0.045832 0.033494 0.318901
v -0.123252 0.015032 0.351697
v 0.014957 0.056803 0.276580
v -0.125038 0.022984 0.203406
v 0.014965 0.034533 0.257448
v -0.109861 0.037308 0.180438
v -0.269665 -0.021242 -0.105388
v -0.269472 -0.021126 -0.124962
v -0.279513 -0.027179 -0.157368
v -0.270004 -0.021447 -0.158633
v -0.281746 -0.028525 -0.208486
v -0.228816 0.034393 -0.112643
v -0.231275 0.030896 -0.131746
v -0.232635 0.036667 -0.165694
v -0.235280 0.025846 -0.164800
v -0.238341 0.030591 -0.216195
v -0.238071 0.047889 -0.265440
v -0.241133 0.052634 -0.316836
v -0.237477 0.074608 -0.339371
v -0.239078 0.081551 -0.379791
v -0.257095 0.030191 -0.109638
v -0.257718 0.026968 -0.128936
v -0.265088 0.031845 -0.162245
v -0.259319 0.022275 -0.162245
v -0.268390 0.026127 -0.213002
v -0.283745 0.041103 -0.260587
v -0.292816 0.044955 -0.311343
v -0.307190 0.064250 -0.331963
v -0.316002 0.070122 -0.371617
v -0.274015 0.007146 -0.106633
v -0.273540 0.005419 -0.126126
v -0.284505 0.005399 -0.158797
v -0.273702 0.002685 -0.159691
v -0.286369 0.001640 -0.209809
v -0.311073 0.003883 -0.255733
v -0.323740 0.002837 -0.305851
v -0.263315 -0.017415 -0.112099
v -0.261032 -0.016038 -0.126657
v -0.271831 -0.022548 -0.152947
v -0.263717 -0.017657 -0.151842
v -0.273873 -0.023779 -0.212420
v -0.296116 -0.037187 -0.257498
v -0.231304 0.026184 -0.117784
v -0.233693 0.021196 -0.131513
v -0.234102 0.028838 -0.159648
v -0.236090 0.019970 -0.156749
v -0.240886 0.021148 -0.218279
v -0.240611 0.038408 -0.267356
v -0.243656 0.044081 -0.321361
v -0.240015 0.065875 -0.343529
v -0.241540 0.071865 -0.380132
v -0.253465 0.022891 -0.115429
v -0.252619 0.018384 -0.129502
v -0.260221 0.024957 -0.156872
v -0.255215 0.017129 -0.154717
v -0.263722 0.017755 -0.215852
v -0.279036 0.032699 -0.263272
v -0.288927 0.037354 -0.316550
v -0.303159 0.056493 -0.336819
v -0.310984 0.061547 -0.372752
v -0.266724 0.004832 -0.113074
v -0.263943 0.002961 -0.127491
v -0.275849 0.003672 -0.154097
v -0.266659 0.001543 -0.152684
v -0.277386 -0.000854 -0.213426
v -0.302027 0.001386 -0.259189
v -0.316014 0.000463 -0.311739
v -0.340940 0.005036 -0.330108
v -0.263553 -0.025773 -0.105718
v -0.263158 -0.025938 -0.115395
v -0.258580 -0.020925 -0.112354
v -0.243752 -0.005622 -0.118033
v -0.256384 -0.019483 -0.126908
v -0.239472 -0.001186 -0.119350
v -0.224204 0.014162 -0.132025
v -0.225028 0.011771 -0.157346
v -0.219167 0.017767 -0.160454
v -0.221147 0.015371 -0.165562
v -0.213778 0.018917 -0.235905
v -0.213995 0.022849 -0.166700
v -0.218038 0.015541 -0.217291
v -0.215470 0.024499 -0.113363
v -0.224393 0.009275 -0.209998
v -0.217791 0.020901 -0.132474
v -0.220899 0.018471 -0.118346
v -0.318308 0.068732 -0.395259
v -0.313228 0.060285 -0.395344
v -0.359290 0.013356 -0.394022
v -0.352454 0.007312 -0.394160
v -0.244658 0.070700 -0.397050
v -0.242127 0.080323 -0.397154
v -0.358367 0.012423 -0.364092
v -0.352853 0.007439 -0.336263
v -0.339494 -0.004398 -0.329695
v -0.349971 0.004974 -0.357575
v -0.348273 0.003343 -0.324375
v -0.351504 0.006360 -0.365556
v -0.319971 -0.021757 -0.304772
v -0.311459 -0.029262 -0.310436
v -0.300007 -0.039533 -0.273214
v -0.305098 -0.035105 -0.254023
v -0.282122 -0.055313 -0.281862
v -0.283118 -0.054555 -0.250317
v -0.300079 -0.039576 -0.245674
v -0.278537 -0.050219 -0.258446
v -0.269271 -0.034771 -0.157921
v -0.269313 -0.037741 -0.209157
v -0.263276 -0.031634 -0.212992
v -0.262090 -0.027313 -0.159060
v -0.263644 -0.028617 -0.153389
v -0.262767 -0.026096 -0.125324
v -0.224297 0.008851 -0.219174
v -0.212950 0.017904 -0.268848
v -0.206653 0.024599 -0.267135
v -0.194889 0.032424 -0.345963
v -0.189082 0.038735 -0.341982
v -0.203618 0.024825 -0.318859
v -0.184564 0.041142 -0.382732
v -0.185189 0.039618 -0.397940
v -0.190994 0.034398 -0.382859
v -0.191575 0.032937 -0.397784
v -0.209306 0.018618 -0.323214
v -0.257586 -0.022201 -0.152173
v -0.191575 0.032937 -0.397784
v -0.244658 0.070700 -0.397050
v -0.194889 0.032424 -0.345963
v -0.209306 0.018618 -0.323214
v -0.224204 0.014162 -0.132025
v -0.219167 0.017767 -0.160454
v -0.213778 0.018917 -0.235905
v -0.218038 0.015541 -0.217291
v -0.225028 0.011771 -0.157346
v -0.224393 0.009275 -0.209998
v -0.220899 0.018471 -0.118346
v -0.313228 0.060285 -0.395344
v -0.352454 0.007312 -0.394160
v -0.352853 0.007439 -0.336263
v -0.348273 0.003343 -0.324375
v -0.351504 0.006360 -0.365556
v -0.311459 -0.029262 -0.310436
v -0.300007 -0.039533 -0.273214
v -0.283118 -0.054555 -0.250317
v -0.300079 -0.039576 -0.245674
v -0.269313 -0.037741 -0.209157
v -0.278537 -0.050219 -0.258446
v -0.263276 -0.031634 -0.212992
v -0.262090 -0.027313 -0.159060
v -0.263158 -0.025938 -0.115395
v -0.262767 -0.026096 -0.125324
v -0.224297 0.008851 -0.219174
v -0.206653 0.024599 -0.267135
v -0.190994 0.034398 -0.382859
v -0.212950 0.017904 -0.268848
v -0.243752 -0.005622 -0.118033
v -0.239472 -0.001186 -0.119350
v -0.263644 -0.028617 -0.153389
v -0.257586 -0.022201 -0.152173
v -0.203618 0.024825 -0.318859
v -0.349971 0.004974 -0.357575
v -0.263553 -0.025773 -0.105718
v -0.305098 -0.035105 -0.254023
v -0.258580 -0.020925 -0.112354
v -0.256384 -0.019483 -0.126908
v -0.215470 0.024499 -0.113363
v -0.217791 0.020901 -0.132474
v -0.185189 0.039618 -0.397940
v -0.242127 0.080323 -0.397154
v -0.221147 0.015371 -0.165562
v -0.213995 0.022849 -0.166700
v -0.318308 0.068732 -0.395259
v -0.359290 0.013356 -0.394022
v -0.358367 0.012423 -0.364092
v -0.339494 -0.004398 -0.329695
v -0.319971 -0.021757 -0.304772
v -0.282122 -0.055313 -0.281862
v -0.269271 -0.034771 -0.157921
v -0.189082 0.038735 -0.341982
v -0.184564 0.041142 -0.382732
v 0.010198 0.094636 0.102170
v 0.010198 0.110600 0.076627
v -0.062047 0.094636 0.072245
v -0.043985 0.110600 0.054184
v -0.091971 0.094636 0.000000
v -0.066429 0.110600 0.000000
v -0.062047 0.094636 -0.072245
v -0.043985 0.110600 -0.054184
v 0.010198 0.094636 -0.102169
v 0.010198 0.110600 -0.076627
v 0.082443 0.094636 -0.072245
v 0.064382 0.110600 -0.054183
v 0.112368 0.094636 0.000000
v 0.086825 0.110600 0.000000
v 0.082443 0.094636 0.072245
v 0.064382 0.110600 0.054184
v 0.010198 0.090230 0.093192
v 0.010198 0.100600 0.000000
v 0.010198 0.101184 0.073261
v -0.055699 0.090230 0.065897
v -0.041605 0.101184 0.051803
v -0.082994 0.090230 0.000000
v -0.063062 0.101184 0.000000
v -0.055699 0.090231 -0.065897
v -0.041605 0.101184 -0.051803
v 0.010198 0.090230 -0.093192
v 0.010198 0.101184 -0.073260
v 0.076095 0.090230 -0.065897
v 0.062001 0.101184 -0.051803
v 0.103390 0.090230 0.000000
v 0.083459 0.101184 0.000000
v 0.076095 0.090230 0.065897
v 0.062001 0.101184 0.051803
v -0.061767 -0.156014 -0.049215
v -0.075194 -0.152085 -0.016834
v -0.082428 -0.150872 -0.023040
v -0.067311 -0.155297 -0.059536
v -0.072469 -0.150044 0.047082
v -0.063663 -0.151925 0.044672
v -0.091972 -0.148005 0.000000
v -0.082174 -0.149989 0.000000
v 0.010198 -0.171946 -0.092297
v 0.010198 -0.172316 -0.102170
v 0.015137 -0.172852 -0.090248
v 0.017543 -0.173664 -0.099127
v -0.062047 -0.156821 -0.072245
v -0.055099 -0.157943 -0.065297
v 0.082896 -0.172117 -0.071152
v 0.075964 -0.171399 -0.064056
v 0.112368 -0.165679 0.000000
v 0.102516 -0.165604 0.000000
v 0.085813 -0.159472 0.064109
v 0.082443 -0.156034 0.072245
v 0.057533 -0.149683 0.082563
v 0.048464 -0.151121 0.076518
v 0.075495 -0.158022 0.065297
v 0.010198 -0.137043 0.102170
v 0.010198 -0.140889 0.092403
v -0.060258 -0.141212 0.072986
v -0.053176 -0.144644 0.066140
v 0.017543 -0.173664 -0.099127
v 0.082896 -0.172117 -0.071152
v 0.048464 -0.151121 0.076518
v 0.010198 -0.140889 0.092403
v 0.015137 -0.172852 -0.090248
v 0.075964 -0.171399 -0.064056
v 0.102516 -0.165604 0.000000
v 0.075495 -0.158022 0.065297
v -0.063663 -0.151925 0.044672
v -0.082174 -0.149989 0.000000
v -0.072469 -0.150044 0.047082
v -0.060258 -0.141212 0.072986
v -0.053176 -0.144644 0.066140
v -0.061767 -0.156014 -0.049215
v -0.075194 -0.152085 -0.016834
v -0.082428 -0.150872 -0.023040
v -0.067311 -0.155297 -0.059536
v -0.091972 -0.148005 0.000000
v 0.010198 -0.171946 -0.092297
v 0.010198 -0.172316 -0.102170
v -0.062047 -0.156821 -0.072245
v -0.055099 -0.157943 -0.065297
v 0.112368 -0.165679 0.000000
v 0.085813 -0.159472 0.064109
v 0.082443 -0.156034 0.072245
v 0.057533 -0.149683 0.082563
v 0.010198 -0.137043 0.102170
v 0.186570 0.019922 -0.035906
v 0.202425 0.015851 -0.046642
v 0.235655 0.012434 -0.055110
v 0.230280 0.009127 -0.064332
v 0.278905 0.002682 -0.080687
v 0.330873 0.000565 -0.085068
v 0.181529 0.041620 -0.054077
v 0.197711 0.036140 -0.063633
v 0.229869 0.037333 -0.075962
v 0.225995 0.027571 -0.079779
v 0.273548 0.025737 -0.099995
v 0.322730 0.035610 -0.114416
v 0.370283 0.033775 -0.134632
v 0.396781 0.051116 -0.135774
v 0.435091 0.052603 -0.150426
v 0.168859 0.044097 -0.079762
v 0.185864 0.038457 -0.087650
v 0.215329 0.040176 -0.105438
v 0.215224 0.029677 -0.101612
v 0.260085 0.028369 -0.127287
v 0.302266 0.039611 -0.155900
v 0.347127 0.038303 -0.181574
v 0.365546 0.057223 -0.199092
v 0.400625 0.059342 -0.220294
v 0.155981 0.025903 -0.097915
v 0.173823 0.021444 -0.104624
v 0.200552 0.019297 -0.126270
v 0.204278 0.014211 -0.117044
v 0.281468 0.010225 -0.185219
v 0.323592 0.005051 -0.214751
v 0.333802 0.012371 -0.243842
v 0.365597 0.009850 -0.269674
v 0.187772 0.016513 -0.045230
v 0.198122 0.012799 -0.055137
v 0.226868 0.010877 -0.059623
v 0.220498 0.008503 -0.066315
v 0.276812 -0.000648 -0.089881
v 0.328612 -0.002749 -0.094227
v 0.379995 -0.009304 -0.110804
v 0.183821 0.033516 -0.059470
v 0.194748 0.027321 -0.067298
v 0.222212 0.030918 -0.076407
v 0.217089 0.023177 -0.078604
v 0.272741 0.016874 -0.104555
v 0.321762 0.026733 -0.118917
v 0.371925 0.025432 -0.139894
v 0.398040 0.042652 -0.140948
v 0.432648 0.043727 -0.154332
v 0.173892 0.035457 -0.079598
v 0.186269 0.028979 -0.084488
v 0.210509 0.033206 -0.100130
v 0.208520 0.024853 -0.095976
v 0.262509 0.018874 -0.125296
v 0.304546 0.030099 -0.153818
v 0.351641 0.029398 -0.181012
v 0.369748 0.048184 -0.198300
v 0.401534 0.049811 -0.217406
v 0.163801 0.021199 -0.093823
v 0.177651 0.016802 -0.096637
v 0.198616 0.016401 -0.116896
v 0.252111 0.004182 -0.139955
v 0.340995 0.007558 -0.238833
v 0.369911 0.005131 -0.261985
v 0.350756 -0.021372 -0.102341
v 0.327386 -0.017182 -0.085060
v 0.380276 -0.014629 -0.110318
v 0.363030 -0.010451 -0.096315
v 0.381553 -0.005637 -0.100699
v 0.388940 -0.008233 -0.107621
v 0.407606 0.001480 -0.106468
v 0.435072 0.003823 -0.118462
v 0.433364 0.009882 -0.110608
v 0.406920 0.007478 -0.099229
v 0.473002 0.002057 -0.141011
v 0.441781 0.004418 -0.121413
v 0.478494 0.008315 -0.136826
v 0.444767 0.010957 -0.115550
v 0.325657 -0.017793 -0.094221
v 0.199161 -0.000767 -0.046634
v 0.276336 -0.010393 -0.080681
v 0.232075 -0.005791 -0.055102
v 0.182802 0.000739 -0.035898
v 0.275214 -0.008782 -0.089878
v 0.218535 -0.001494 -0.066311
v 0.227786 -0.003569 -0.064327
v 0.224032 -0.003564 -0.059617
v 0.195836 0.001160 -0.055132
v 0.184874 0.001758 -0.045223
v 0.177259 0.007195 -0.071427
v 0.199037 0.008610 -0.108251
v 0.176542 0.011159 -0.096634
v 0.162282 0.013466 -0.093820
v 0.203280 0.009131 -0.117041
v 0.197404 0.010235 -0.116894
v 0.269407 0.004947 -0.172987
v 0.198991 0.011354 -0.126267
v 0.245703 0.005481 -0.146574
v 0.280943 0.002631 -0.172303
v 0.172204 0.013203 -0.104620
v 0.153973 0.015679 -0.097910
v 0.380270 0.006964 -0.277190
v 0.382432 -0.001805 -0.268884
v 0.377880 0.000274 -0.276657
v 0.429046 0.053752 -0.234853
v 0.427996 0.044704 -0.230997
v 0.466300 0.037233 -0.171503
v 0.471412 0.045460 -0.169032
v 0.286489 0.002529 -0.178482
v 0.330768 -0.001044 -0.210072
v 0.280391 0.004742 -0.185216
v 0.339842 0.001684 -0.238831
v 0.332145 0.003936 -0.243838
v 0.364024 0.001842 -0.269670
v 0.368849 -0.000276 -0.261982
v 0.184874 0.001758 -0.045223
v 0.177259 0.007195 -0.071427
v 0.380276 -0.014629 -0.110318
v 0.388940 -0.008233 -0.107621
v 0.407606 0.001480 -0.106468
v 0.435072 0.003823 -0.118462
v 0.433364 0.009882 -0.110608
v 0.406920 0.007478 -0.099229
v 0.473002 0.002057 -0.141011
v 0.441781 0.004418 -0.121413
v 0.444767 0.010957 -0.115550
v 0.325657 -0.017793 -0.094221
v 0.275214 -0.008782 -0.089878
v 0.276336 -0.010393 -0.080681
v 0.227786 -0.003569 -0.064327
v 0.218535 -0.001494 -0.066311
v 0.224032 -0.003564 -0.059617
v 0.195836 0.001160 -0.055132
v 0.176542 0.011159 -0.096634
v 0.162282 0.013466 -0.093820
v 0.197404 0.010235 -0.116894
v 0.203280 0.009131 -0.117041
v 0.198991 0.011354 -0.126267
v 0.245703 0.005481 -0.146574
v 0.182802 0.000739 -0.035898
v 0.153973 0.015679 -0.097910
v 0.380270 0.006964 -0.277190
v 0.377880 0.000274 -0.276657
v 0.429046 0.053752 -0.234853
v 0.466300 0.037233 -0.171503
v 0.478494 0.008315 -0.136826
v 0.471412 0.045460 -0.169032
v 0.269407 0.004947 -0.172987
v 0.280391 0.004742 -0.185216
v 0.330768 -0.001044 -0.210072
v 0.339842 0.001684 -0.238831
v 0.332145 0.003936 -0.243838
v 0.364024 0.001842 -0.269670
v 0.199037 0.008610 -0.108251
v 0.252111 0.004182 -0.139955
v 0.363030 -0.010451 -0.096315
v 0.381553 -0.005637 -0.100699
v 0.382432 -0.001805 -0.268884
v 0.427996 0.044704 -0.230997
v 0.350756 -0.021372 -0.102341
v 0.199161 -0.000767 -0.046634
v 0.232075 -0.005791 -0.055102
v 0.172204 0.013203 -0.104620
v 0.280943 0.002631 -0.172303
v 0.286489 0.002529 -0.178482
v 0.368849 -0.000276 -0.261982
v 0.327386 -0.017182 -0.085060
v 0.323592 0.005051 -0.214751
vn 0.4374 0.5812 -0.6862
vn 0.4345 0.5870 -0.6831
vn -0.4645 0.8832 0.0654
vn -0.0109 0.8824 0.4703
vn -0.0118 0.8827 0.4699
vn 0.4436 -0.8927 -0.0798
vn -0.1431 -0.7970 0.5868
vn 0.0832 -0.4390 0.8946
vn -0.5478 -0.7970 0.2544
vn 0.4451 -0.8934 0.0610
vn 0.7827 -0.3900 0.4851
vn -0.6521 -0.3701 -0.6617
vn -0.1464 -0.8934 -0.4247
vn 0.3176 -0.9350 0.1580
vn -0.2326 -0.9206 -0.3136
vn 0.3017 -0.9274 0.2213
vn 0.6246 -0.4164 0.6607
vn -0.2758 -0.9274 -0.2529
vn 0.1462 0.7950 -0.5887
vn -0.0790 0.4385 -0.8952
vn 0.5491 0.7950 -0.2579
vn -0.4431 0.8942 -0.0634
vn -0.7739 0.3709 -0.5134
vn 0.1483 0.8942 0.4224
vn -0.3044 0.9348 -0.1829
vn 0.2396 0.9221 0.3039
vn -0.3070 0.9269 -0.2159
vn -0.6304 0.4151 -0.6560
vn 0.2714 0.9269 0.2591
vn 0.7252 -0.6873 0.0413
vn -0.0242 -0.0044 -0.9997
vn -0.6624 -0.7491 -0.0029
vn 0.7229 -0.6898 0.0394
vn 0.7228 -0.6899 0.0394
vn -0.0181 -0.0060 -0.9998
vn -0.0969 -0.0584 -0.9936
vn -0.5687 -0.7851 0.2454
vn 0.5964 0.8018 0.0385
vn -0.1359 0.9857 0.0991
vn -0.7805 0.5972 0.1848
vn -0.9598 -0.1363 0.2454
vn 0.0969 0.0584 0.9936
vn -0.5540 -0.7704 0.3156
vn 0.5957 0.7955 0.1114
vn -0.1270 0.9770 0.1712
vn -0.7630 0.5936 0.2557
vn -0.9399 -0.1302 0.3156
vn -0.5958 -0.8030 -0.0107
vn 0.5735 0.7896 -0.2183
vn -0.1615 0.9742 -0.1575
vn -0.8084 0.5842 -0.0715
vn -0.9883 -0.1519 -0.0107
vn -0.5104 -0.7225 0.4663
vn 0.5824 0.7659 0.2722
vn -0.1045 0.9385 0.3291
vn -0.7091 0.5740 0.4095
vn -0.8772 -0.1140 0.4663
vn 0.4734 0.5911 0.6531
vn -0.0329 0.7182 0.6950
vn -0.5096 0.4493 0.7338
vn -0.6023 -0.0574 0.7962
vn 0.5803 0.8034 -0.1334
vn -0.1513 0.9875 -0.0433
vn -0.8026 0.5949 0.0433
vn 0.5956 0.7953 0.1130
vn -0.1268 0.9768 0.1728
vn -0.7564 0.5859 0.2908
vn -0.1850 -0.1793 -0.9662
vn -0.0094 0.0599 -0.9982
vn -0.1187 0.0920 -0.9887
vn -0.2175 0.0325 -0.9755
vn -0.2430 -0.0752 -0.9671
vn 0.5798 0.7951 -0.1776
vn -0.5941 -0.8038 0.0309
vn 0.1438 -0.9892 -0.0301
vn 0.7933 -0.5976 -0.1165
vn 0.9739 0.1415 -0.1776
vn -0.0503 -0.1399 0.9889
vn 0.2382 0.2531 0.9376
vn 0.0569 0.2987 0.9527
vn -0.1028 0.2025 0.9739
vn -0.1472 0.0208 0.9889
vn 0.5310 0.7456 -0.4027
vn -0.5901 -0.7812 -0.2036
vn 0.1145 -0.9583 -0.2619
vn 0.7348 -0.5844 -0.3444
vn 0.9072 0.1214 -0.4027
vn 0.5929 0.7877 0.1675
vn -0.5406 -0.7561 0.3688
vn 0.1719 -0.9351 0.3098
vn 0.7990 -0.5571 0.2265
vn 0.9734 0.1565 0.1675
vn 0.5103 0.7224 -0.4667
vn -0.5824 -0.7658 -0.2726
vn 0.1044 -0.9384 -0.3295
vn 0.7089 -0.5740 -0.4098
vn 0.8771 0.1139 -0.4667
vn -0.4718 -0.5888 -0.6563
vn 0.0321 -0.7154 -0.6980
vn 0.4757 -0.4480 -0.7570
vn 0.5990 0.0568 -0.7987
vn -0.5793 -0.8041 0.1336
vn 0.1510 -0.9877 0.0402
vn 0.8023 -0.5951 -0.0464
vn 0.5665 0.7829 -0.2571
vn -0.5965 -0.8010 -0.0505
vn 0.1345 -0.9847 -0.1110
vn 0.7779 -0.5968 -0.1966
vn 0.9569 0.1354 -0.2571
vn -0.5958 -0.7961 -0.1055
vn 0.1277 -0.9779 -0.1654
vn 0.7646 -0.5940 -0.2501
vn 0.9417 0.1307 -0.3099
vn -0.1964 -0.9798 0.0375
vn -0.1983 -0.9793 0.0397
vn -0.1950 -0.9801 0.0367
vn -0.0138 -0.9961 0.0873
vn -0.0385 -0.9956 0.0852
vn -0.0898 -0.9302 0.3559
vn -0.0963 -0.9261 0.3647
vn -0.0987 -0.9268 0.3625
vn -0.0000 1.0000 -0.0000
vn -0.2144 0.8283 0.5177
vn -0.5177 0.8283 0.2144
vn -0.5177 0.8283 -0.2144
vn -0.2144 0.8283 -0.5177
vn 0.2144 0.8283 -0.5177
vn 0.5177 0.8283 -0.2144
vn 0.5177 0.8283 0.2144
vn 0.2144 0.8283 0.5177
vn -0.3827 -0.0000 0.9239
vn -0.9205 -0.0010 0.3908
vn -0.9239 -0.0000 -0.3827
vn -0.3827 -0.0000 -0.9239
vn 0.3876 -0.0014 -0.9218
vn 0.9239 -0.0000 -0.3827
vn 0.9239 -0.0000 0.3827
vn 0.3827 -0.0000 0.9239
vn -0.0033 -1.0000 0.0080
vn -0.0080 -1.0000 0.0033
vn -0.0080 -1.0000 -0.0033
vn -0.0033 -1.0000 -0.0080
vn 0.0033 -1.0000 -0.0080
vn 0.0080 -1.0000 -0.0033
vn 0.0080 -1.0000 0.0033
vn 0.0033 -1.0000 0.0080
vn 0.1956 -0.8595 -0.4723
vn 0.4723 -0.8595 -0.1956
vn 0.4723 -0.8595 0.1956
vn 0.1956 -0.8595 0.4723
vn -0.1956 -0.8595 0.4723
vn -0.4723 -0.8595 0.1956
vn -0.4723 -0.8595 -0.1956
vn -0.1956 -0.8595 -0.4723
vn 0.3827 0.0032 -0.9239
vn 0.9198 0.0041 -0.3924
vn 0.9239 0.0032 0.3827
vn 0.3827 0.0032 0.9239
vn -0.3887 0.0048 0.9214
vn -0.9239 0.0032 0.3827
vn -0.9239 0.0032 -0.3827
vn -0.3827 0.0032 -0.9239
vn 0.3301 -0.7126 0.6191
vn 0.3315 -0.7108 0.6204
vn 0.3356 -0.7092 0.6200
vn -0.1700 -0.9794 -0.1085
vn -0.2639 -0.9391 -0.2201
vn 0.3110 -0.0607 0.9485
vn 0.3181 0.6511 0.6892
vn 0.0655 0.9958 0.0637
vn -0.2984 0.7413 -0.6012
vn -0.5615 0.1099 -0.8202
vn -0.8767 0.1724 0.4491
vn 0.8767 -0.1724 -0.4491
vn 0.7775 -0.3208 -0.5409
vn 0.2421 -0.0471 0.9691
vn 0.2491 0.6552 0.7132
vn -0.0001 0.9954 0.0961
vn -0.3596 0.7742 -0.5209
vn -0.6188 0.1212 -0.7761
vn 0.5388 -0.1055 0.8358
vn 0.5460 0.6088 0.5755
vn 0.2925 0.9548 -0.0522
vn -0.0732 0.7299 -0.6796
vn -0.3368 0.0657 -0.9393
vn 0.0833 -0.0159 0.9964
vn 0.0900 0.6517 0.7532
vn -0.1469 0.9750 0.1665
vn -0.5181 0.7429 -0.4239
vn -0.7350 0.1441 -0.6626
vn -0.3329 0.5588 0.7596
vn -0.5075 0.7971 0.3272
vn -0.7594 0.6421 -0.1049
vn -0.9409 0.1847 -0.2837
vn 0.4479 0.6329 0.6315
vn 0.1927 0.9812 -0.0004
vn -0.1754 0.7548 -0.6321
vn -0.4408 0.0862 -0.8935
vn 0.2963 -0.1043 0.9494
vn 0.3042 0.6617 0.6853
vn -0.2988 0.7717 -0.5614
vn 0.2475 0.6552 0.7137
vn -0.0016 0.9953 0.0968
vn -0.3610 0.7742 -0.5199
vn -0.6201 0.1215 -0.7751
vn 0.9331 -0.1834 -0.3092
vn 0.9344 -0.0747 -0.3484
vn 0.8958 -0.0216 -0.4440
vn 0.8400 -0.0560 -0.5398
vn 0.7999 -0.1574 -0.5791
vn -0.3749 0.0732 -0.9242
vn -0.3820 -0.6439 -0.6629
vn -0.1275 -0.9913 -0.0327
vn 0.2853 -0.7271 0.6245
vn -0.7419 0.1460 0.6544
vn -0.7401 0.3223 0.5902
vn -0.8027 0.4077 0.4353
vn -0.8994 0.3218 0.2958
vn -0.9580 0.1883 0.2164
vn -0.1522 0.0295 -0.9879
vn -0.1591 -0.6553 -0.7384
vn 0.0840 -0.9871 -0.1366
vn 0.4345 -0.7714 0.4649
vn 0.6872 -0.1347 0.7138
vn -0.6610 0.1295 -0.7391
vn -0.6679 -0.5629 -0.4868
vn -0.4222 -0.8983 0.1216
vn -0.0677 -0.6802 0.7298
vn 0.1878 -0.0364 0.9815
vn -0.0830 0.0159 -0.9964
vn -0.0896 -0.6516 -0.7532
vn 0.1473 -0.9750 -0.1667
vn 0.4885 -0.7476 0.4500
vn 0.7353 -0.1441 0.6623
vn 0.3417 -0.0675 -0.9374
vn 0.3368 -0.5573 -0.7589
vn 0.5107 -0.7945 -0.3285
vn 0.7688 -0.6320 0.0972
vn 0.9421 -0.1849 0.2797
vn -0.4452 -0.6335 -0.6329
vn -0.1900 -0.9818 -0.0010
vn 0.1321 -0.7241 0.6770
vn 0.4435 -0.0867 0.8921
vn -0.2931 0.0401 -0.9553
vn -0.3069 -0.6520 -0.6934
vn -0.0547 -0.9961 -0.0691
vn 0.3319 -0.7512 0.5706
vn -0.2548 -0.6550 -0.7114
vn -0.0052 -0.9956 -0.0935
vn 0.3548 -0.7741 0.5242
vn 0.6143 -0.1203 0.7799
vt 0.340565 0.000000
vt 0.406397 0.000000
vt 0.500746 0.164872
vt 0.637056 0.000000
vt 0.731546 0.000000
vt 0.500615 0.279169
vt 0.587163 0.546016
vt 1.000000 0.593603
vt 1.000000 0.659435
vt 0.735855 0.629131
vt 0.572070 0.572070
vt 0.812540 0.208597
vt 0.364928 0.000000
vt 0.436195 0.000000
vt 1.000000 0.268454
vt 1.000000 0.362944
vt 0.576006 0.125350
vt 0.589179 0.000000
vt 0.692586 0.000000
vt 0.666808 0.132216
vt 0.753308 0.203208
vt 0.811093 0.405154
vt 0.925718 0.511980
vt 1.000000 0.523997
vt 1.000000 0.572070
vt 0.912066 0.558348
vt 0.858489 0.528377
vt 0.796256 0.465771
vt 0.737456 0.261865
vt 0.589201 0.145377
vt 0.328684 0.102707
vt 0.237777 0.000000
vt 0.291647 0.000000
vt 0.308602 0.045240
vt 0.365647 0.109790
vt 0.484405 0.264731
vt 0.496439 0.384099
vt 0.436195 0.436195
vt 0.364928 0.364928
vt 0.419651 0.315902
vt 0.411098 0.209915
vt 0.914631 0.755332
vt 0.692586 0.692586
vt 0.597174 0.590534
vt 1.000000 0.708354
vt 0.000000 0.707132
vt 0.067071 0.709796
vt 0.000000 0.733587
vt 0.000000 0.411844
vt 0.000000 0.291884
vt 0.125000 0.291884
vt 0.125000 0.387145
vt 0.114199 0.411844
vt 0.144742 0.291884
vt 1.000000 0.291884
vt 1.000000 0.411844
vt 0.942028 0.411844
vt 0.888057 0.291884
vt 0.000000 -0.218378
vt 0.000000 0.061190
vt 0.000000 -0.240911
vt 0.125000 -0.169153
vt 0.125000 0.061190
vt 0.125000 -0.218378
vt 0.750000 -0.112955
vt 0.750000 -0.130258
vt 0.750000 0.061190
vt 0.875000 -0.240911
vt 0.875000 0.061190
vt 0.875000 -0.130258
vt 0.875000 -0.166463
vt 0.067748 0.707132
vt 0.114199 0.411844
vt 0.105529 0.474738
vt 0.989958 0.707132
vt 0.942028 0.411844
vt 0.144742 0.291884
vt 0.158735 0.061190
vt 0.875000 0.167684
vt 1.000000 0.061190
vt 0.107869 0.398151
vt 0.125000 0.358452
vt 0.140073 0.291884
vt 0.125000 0.358452
vt 0.965685 0.411844
vt 0.899979 0.291884
vt 0.125000 -0.196900
vt 0.125000 -0.204407
vt 0.000000 -0.218075
vt 0.125000 0.060882
vt 0.125000 -0.156296
vt 0.125000 -0.196900
vt 0.875000 0.061179
vt 1.000000 -0.218075
vt 0.875000 -0.173996
vt 0.875000 -0.115585
vt 0.076611 0.529736
vt 0.098601 0.411844
vt 0.000000 0.576031
vt 0.965685 0.411844
vt 1.000000 0.576031
vt 0.154350 0.061190
vt 0.140073 0.291884
vt 0.876046 0.061190
vt 0.504405 0.186043
vt 0.468611 0.253661
vt 0.475849 0.320779
vt 0.178321 0.023601
vt 0.184284 0.000000
vt 0.230017 0.013593
vt 0.211233 0.038502
vt 0.304200 0.121148
vt 0.340596 0.156210
vt 0.444391 0.271387
vt 0.429139 0.212480
vt 0.470415 0.168767
vt 0.433354 0.138440
vt 0.456509 0.000000
vt 0.531054 0.000000
vt 0.498129 0.022258
vt 0.460145 0.141835
vt 0.713896 0.378742
vt 1.000000 0.524243
vt 1.000000 0.572722
vt 0.700987 0.420756
vt 0.443313 0.000000
vt 0.482027 0.000000
vt 0.553942 0.119317
vt 0.566870 0.156806
vt 0.535412 0.273715
vt 0.682000 0.478941
vt 0.682347 0.514106
vt 0.646502 0.559466
vt 0.572722 0.572722
vt 0.524243 0.524243
vt 0.594282 0.511094
vt 0.604901 0.498428
vt 0.605954 0.417837
vt 0.460322 0.214582
vt 0.479565 0.124975
vt 0.330512 0.000000
vt 0.422132 0.000000
vt 1.000000 0.773903
vt 1.000000 0.815716
vt 0.971752 0.786883
vt 0.819232 0.691675
vt 0.870792 0.688874
vt 0.657671 0.542747
vt 0.422132 0.422132
vt 0.330512 0.330512
vt 0.431736 0.398829
vt 0.691973 0.532029
vt 0.927050 0.709211
vt 0.876705 0.705247
vt 1.000000 0.468946
vt 1.000000 0.543491
vt 0.971860 0.516828
vt 0.902691 0.373251
vt 0.759597 0.215488
vt 0.798727 0.150388
vt 0.712532 0.043423
vt 0.661103 0.000000
vt 0.709652 0.000000
vt 0.762313 0.044248
vt 0.855847 0.162372
vt 0.816979 0.228549
vt 0.956442 0.378676
vt 0.563598 0.013625
vt 0.709652 0.709652
vt 0.661103 0.661103
vt 0.517973 0.000000
vt 0.875000 1.279252
vt 0.000000 1.279252
vt 0.050437 1.279252
vt 0.048353 1.279252
vt 1.000000 1.279252
vt 0.750000 1.279252
vt 0.625000 1.279252
vt 0.536997 1.279252
vt 0.534930 1.279252
vt 0.050437 1.279252
vt 0.000000 0.983964
vt 0.063392 0.983964
vt 0.521481 0.983964
vt 0.625000 0.983964
vt 0.534930 1.279252
vt 0.750000 0.983964
vt 0.875000 0.983964
vt 1.000000 0.983964
vt 0.875000 1.585305
vt 0.000000 1.585305
vt 0.033115 1.585305
vt 0.552693 1.585305
vt 0.625000 1.585305
vt 0.750000 1.585305
vt 0.038847 1.473035
vt 0.000000 1.473035
vt 0.048353 1.279252
vt 0.625000 1.473035
vt 0.546873 1.473035
vt 0.750000 1.473035
vt 0.875000 1.473035
vt 1.000000 1.473035
vt 0.033115 1.585305
vt 0.038847 1.473035
vt 0.036171 1.529896
vt 0.546873 1.473035
vt 0.552693 1.585305
vt 1.000000 1.585305
vt 0.063392 0.983964
vt 0.000000 0.756388
vt 0.066858 0.734166
vt 0.519610 0.707132
vt 0.625000 0.707132
vt 0.521481 0.983964
vt 0.522472 0.880587
vt 0.750000 0.707132
vt 0.875000 0.707132
vt 1.000000 0.756388
vt 0.981291 0.707132
vt 0.518642 0.291884
vt 0.625000 0.291884
vt 0.625000 0.411844
vt 0.513794 0.411844
vt 0.750000 0.291884
vt 0.750000 0.411844
vt 0.875000 0.291884
vt 0.875000 0.411844
vt 0.934254 0.411844
vt 0.882319 0.291884
vt 0.500000 -0.039972
vt 0.500000 0.061190
vt 0.500000 -0.027017
vt 0.625000 -0.076353
vt 0.625000 0.061190
vt 0.625000 -0.040652
vt 0.750000 -0.076353
vt 0.750000 -0.110902
vt 0.513794 0.411844
vt 0.519610 0.707132
vt 0.934254 0.411844
vt 0.516425 0.061190
vt 0.865056 0.061190
vt 0.875000 0.222429
vt 0.099239 1.585305
vt 0.032740 1.585305
vt 0.553068 1.585305
vt 0.992471 1.585305
vt 0.071097 0.983964
vt 0.049108 1.279252
vt 0.536387 1.279252
vt 0.513704 0.983964
vt 0.516572 1.027789
vt 0.049108 1.279252
vt 0.048023 1.279252
vt 0.537397 1.279252
vt 0.536387 1.279252
vt 0.048023 1.279252
vt 0.040763 1.450957
vt 0.548184 1.473035
vt 0.032740 1.585305
vt 0.037624 1.473035
vt 0.553068 1.585305
vt 0.548184 1.473035
vt 0.070094 0.707132
vt 0.071097 0.983964
vt 0.514708 0.707132
vt 0.513704 0.983964
vt 1.000000 0.707132
vt 0.508750 0.411844
vt 0.515508 0.291884
vt 0.956756 0.411844
vt 0.893605 0.291884
vt 0.500000 0.061049
vt 0.625000 -0.039324
vt 0.500000 -0.027184
vt 0.625000 -0.039324
vt 0.750000 -0.072847
vt 0.875000 -0.106468
vt 0.750000 -0.072847
vt 0.871898 0.061190
vt 0.073595 0.575458
vt 0.000000 0.618307
vt 0.070094 0.707132
vt 0.514708 0.707132
vt 0.508750 0.411844
vt 1.000000 0.618307
vt 0.956756 0.411844
vt 0.515508 0.291884
vt 0.513487 0.061190
vt 0.871898 0.061190
vt 0.875000 0.112202
vt 0.893605 0.291884
vt 0.875000 0.112202
vt 0.502786 0.000000
vt 0.558735 0.000000
vt 1.000000 0.459329
vt 1.000000 0.517479
vt 0.595541 0.372374
vt 0.517479 0.517479
vt 0.459329 0.459329
vt 0.516424 0.353321
vt 0.368893 0.000000
vt 0.440105 0.000000
vt 1.000000 0.441265
vt 1.000000 0.497215
vt 0.918826 0.485009
vt 0.325852 0.054802
vt 0.287508 0.000000
vt 0.335686 0.000000
vt 0.361456 0.036852
vt 0.897235 0.425776
vt 0.335686 0.335686
vt 0.287508 0.287508
vt 1.000000 0.440033
vt 0.987067 0.471917
vt 0.711424 0.331078
vt 0.478486 0.478486
vt 0.440033 0.440033
vt 0.698804 0.276417
vt 1.000000 0.423682
vt 1.000000 0.472072
vt 0.472072 0.472072
vt 0.423682 0.423682
vt 0.584077 0.442191
vt 1.000000 0.580040
vt 1.000000 0.630432
vt 0.669001 0.415816
vt 1.000000 0.658821
vt 1.000000 0.716066
vt 0.702230 0.497381
vt 0.630432 0.630432
vt 0.580040 0.580040
vt 0.673175 0.644351
vt 1.000000 0.559895
vt 1.000000 0.631107
vt 0.716066 0.716066
vt 0.625000 -1.682853
vt 0.500000 -1.682853
vt 0.375000 -1.682853
vt 0.250000 -1.682853
vt 0.125000 -1.682853
vt 1.000000 -1.682853
vt 0.875000 -1.682853
vt 0.750000 -1.682853
vt 0.000000 -1.682853
vt 0.125000 -1.590575
vt 0.000000 -1.590575
vt 0.250000 -1.590575
vt 0.375000 -1.590575
vt 0.500000 -1.590575
vt 0.625000 -1.590575
vt 0.750000 -1.590575
vt 0.875000 -1.590575
vt 1.000000 -1.590575
vt 0.000000 -0.251390
vt 0.000000 -0.227289
vt 0.125000 -0.226715
vt 0.125000 -0.188023
vt 0.125000 -0.176239
vt 0.250000 -0.188023
vt 0.250000 -0.137068
vt 0.250000 -0.145873
vt 0.250000 -0.171454
vt 0.375000 -0.047500
vt 0.375000 -0.137068
vt 0.500000 -0.048133
vt 0.500000 -0.039710
vt 0.500000 -0.047500
vt 0.625000 -0.085862
vt 0.625000 -0.048133
vt 0.750000 -0.121743
vt 0.750000 -0.085862
vt 0.750000 -0.141615
vt 0.875000 -0.141615
vt 0.875000 -0.251390
vt 0.875000 -0.178327
vt 0.000000 -0.228172
vt 0.125000 -0.205393
vt 0.250000 -0.174528
vt 0.125000 -0.205393
vt 0.125000 -0.163533
vt 0.250000 -0.174528
vt 0.250000 -0.162512
vt 0.375000 -0.138687
vt 0.375000 -0.127641
vt 0.500000 -0.045094
vt 0.625000 -0.047735
vt 0.500000 -0.045094
vt 0.500000 -0.039853
vt 0.750000 -0.082482
vt 0.625000 -0.048343
vt 0.875000 -0.127176
vt 0.750000 -0.082482
vt 0.875000 -0.127176
vt 0.875000 -0.168401
vt 1.000000 -0.228172
vt 0.675285 0.000000
vt 1.000000 0.241895
vt 1.000000 0.306680
vt 0.580478 0.000000
vt 0.312625 0.237951
vt 0.306680 0.306680
vt 0.241895 0.241895
vt 0.290219 0.199697
vt 0.355616 0.113400
vt 0.338091 0.000000
vt 0.398248 0.000000
vt 0.413718 0.109350
vt 0.398248 0.398248
vt 0.338091 0.338091
vt 0.352571 0.285108
vt 0.367218 0.000000
vt 0.438389 0.000000
vt 0.423513 0.308680
vt 0.704071 0.528914
vt 0.817888 0.654949
vt 0.807278 0.602868
vt 0.857516 0.572503
vt 0.819781 0.541091
vt 0.867049 0.408272
vt 0.970519 0.372109
vt 1.000000 0.324715
vt 1.000000 0.419522
vt 0.903662 0.453311
vt 0.849022 0.548173
vt 0.893241 0.592426
vt 0.846527 0.643814
vt 0.847412 0.701558
vt 0.550164 0.404078
vt 0.568580 0.365651
vt 0.552125 0.251044
vt 0.596344 0.295297
vt 0.587813 0.137216
vt 0.546456 0.000000
vt 0.576309 0.000000
vt 0.627015 0.168051
vt 0.618746 0.339899
vt 0.582970 0.297743
vt 0.608343 0.403779
vt 0.584948 0.421828
vt 0.755251 0.464225
vt 0.825873 0.342847
vt 0.951887 0.289298
vt 1.000000 0.286838
vt 1.000000 0.335440
vt 0.952754 0.338112
vt 0.838645 0.385102
vt 0.769173 0.505399
vt 0.600877 0.558722
vt 0.576309 0.576309
vt 0.546456 0.546456
vt 0.595102 0.511667
vt 0.070472 0.983964
vt 0.125000 0.983964
vt 0.125000 1.279252
vt 0.058817 1.279252
vt 0.250000 0.983964
vt 0.250000 1.279252
vt 0.375000 0.983964
vt 0.375000 1.279252
vt 0.500000 0.983964
vt 0.500000 1.279252
vt 0.526482 1.279252
vt 0.514826 0.983964
vt 0.250000 1.585305
vt 0.375000 1.585305
vt 0.500000 1.585305
vt 0.545304 1.585305
vt 0.039995 1.585305
vt 0.125000 1.585305
vt 0.054625 1.279252
vt 0.058817 1.279252
vt 0.526482 1.279252
vt 0.530674 1.279252
vt 1.000000 0.561611
vt 1.000000 0.632782
vt 0.769280 0.437840
vt 0.899540 0.474266
vt 0.335440 0.335440
vt 0.286838 0.286838
vt 0.321324 0.272164
vt 0.921739 0.436271
vt 0.756330 0.355773
vt 0.054625 1.279252
vt 0.125000 1.473035
vt 0.046243 1.473035
vt 0.250000 1.473035
vt 0.375000 1.473035
vt 0.500000 1.473035
vt 0.539055 1.473035
vt 0.046243 1.473035
vt 0.039995 1.585305
vt 0.545304 1.585305
vt 0.539055 1.473035
vt 0.076305 0.707132
vt 0.125000 0.707132
vt 0.070472 0.983964
vt 0.250000 0.707132
vt 0.375000 0.707132
vt 0.500000 0.707132
vt 0.515042 0.707132
vt 0.516618 0.794747
vt 0.250000 0.411844
vt 0.125000 0.403543
vt 0.148021 0.291884
vt 0.250000 0.291884
vt 0.375000 0.411844
vt 0.375000 0.291884
vt 0.500000 0.411844
vt 0.500000 0.291884
vt 0.515164 0.291884
vt 0.125000 -0.178289
vt 0.125000 -0.167588
vt 0.250000 -0.126203
vt 0.250000 0.061190
vt 0.250000 -0.178289
vt 0.375000 -0.035554
vt 0.375000 0.061190
vt 0.375000 -0.126203
vt 0.500000 -0.035554
vt 0.500000 -0.028726
vt 0.125000 0.411844
vt 0.076305 0.707132
vt 0.108680 0.503994
vt 0.509334 0.411844
vt 0.161800 0.061190
vt 0.148021 0.291884
vt 0.158808 0.130731
vt 0.513044 0.061190
vt 0.041566 1.585305
vt 0.623406 1.585305
vt 0.543733 1.585305
vt 0.059500 1.279252
vt 0.080360 0.983964
vt 0.055716 1.279252
vt 0.059500 1.279252
vt 0.529583 1.279252
vt 0.047934 1.473035
vt 0.055716 1.279252
vt 0.537364 1.473035
vt 0.041566 1.585305
vt 0.047935 1.473035
vt 0.537364 1.473035
vt 0.543733 1.585305
vt 0.080360 0.983964
vt 0.075939 0.707132
vt 0.504939 0.983964
vt 0.509887 0.751532
vt 0.107109 0.411844
vt 0.125000 0.375226
vt 0.143774 0.291884
vt 0.511657 0.291884
vt 0.503641 0.411844
vt 0.125000 -0.154882
vt 0.125000 0.060846
vt 0.250000 -0.164780
vt 0.375000 -0.116733
vt 0.250000 -0.164780
vt 0.375000 -0.116733
vt 0.500000 -0.033198
vt 0.500000 -0.033198
vt 0.500000 0.061088
vt 0.075939 0.707132
vt 0.107109 0.411844
vt 0.079348 0.562476
vt 0.143774 0.291884
vt 0.157782 0.061190
vt 0.156019 0.106508
vt 0.509757 0.061190
vt 0.511657 0.291884
s 0
usemtl Material
f 46/1/1 49/2/1 12/3/1 45/4/1 75/5/1 47/6/1
f 50/7/2 49/8/2 46/9/2 48/10/2 76/11/2
f 51/12/2 52/13/2 73/14/2 75/15/2 45/16/2
f 62/17/3 72/18/3 59/19/3 60/20/3 58/21/3 56/22/3 25/23/3 50/24/3 76/25/3 6/26/3 53/27/3 54/28/3 57/29/3 61/30/3
f 66/31/4 65/32/4 64/33/4 34/34/4 67/35/4 68/36/4 40/37/4 73/38/4 52/39/4 70/40/4 71/41/4
f 65/42/5 59/43/5 72/44/5 64/45/5
f 32/46/6 43/47/6 33/48/6
f 1/49/7 2/50/7 4/51/7 38/52/7 63/53/7
f 4/51/8 39/54/8 38/52/8
f 2/55/9 1/56/9 28/57/9 26/58/9
f 17/59/10 5/60/10 3/60/10 16/61/10
f 22/62/11 69/63/11 5/63/11 17/64/11
f 18/65/12 19/66/12 74/67/12
f 16/68/13 3/69/13 74/69/13 19/70/13 13/71/13
f 43/72/14 32/46/14 1/49/14 63/73/14 35/74/14
f 1/56/15 32/75/15 28/76/15
f 2/50/16 3/60/16 5/63/16 4/51/16
f 39/77/17 4/51/17 5/63/17 69/78/17
f 2/55/18 26/58/18 24/79/18 74/69/18 3/80/18
f 10/51/19 8/50/19 7/49/19 36/81/19 37/82/19
f 42/83/20 10/51/20 37/84/20
f 29/85/21 7/56/21 8/55/21 27/86/21
f 9/60/22 11/63/22 21/87/22 15/88/22 44/89/22
f 11/63/23 41/90/23 23/91/23 21/92/23
f 55/93/24 9/80/24 44/94/24 14/95/24 20/96/24
f 30/97/25 36/98/25 7/49/25 31/99/25
f 7/56/26 29/100/26 31/101/26
f 10/51/27 11/63/27 9/60/27 8/50/27
f 41/102/28 11/63/28 10/51/28 42/103/28
f 8/55/29 9/80/29 55/104/29 27/86/29
f 150/105/30 154/106/30 152/107/30 139/108/30 218/109/30 143/110/30 232/111/30 224/112/30 144/113/30 204/114/30 145/115/30 199/116/30 146/117/30 203/118/30 200/119/30 201/120/30 238/121/30
f 157/122/31 206/123/31 241/124/31 156/125/31 237/126/31 195/127/31
f 213/128/32 171/129/32 244/130/32 166/131/32 207/132/32 162/133/32 241/134/32 206/135/32 209/136/32 165/137/32 164/138/32 210/139/32 211/140/32 245/141/32 212/142/32
f 143/143/33 218/144/33 219/145/33 176/146/33 217/147/33 177/148/33 212/149/33 245/150/33 175/151/33 216/152/33 193/153/33 226/154/33
f 200/155/34 203/156/34 220/157/34 183/158/34 197/159/34 196/160/34 222/161/34 194/162/34 236/163/34 248/164/34 186/165/34 228/166/34 221/167/34
f 237/168/35 236/169/35 194/170/35 195/171/35
f 103/172/36 80/173/36 179/174/36 246/175/36 79/176/36 102/172/36 93/177/36 84/178/36 239/179/36 148/180/36 85/178/36 94/177/36
f 179/181/37 80/173/37 81/182/37 214/183/37
f 151/184/38 86/185/38 85/178/38 148/186/38
f 85/178/39 86/185/39 95/187/39 94/177/39
f 103/172/40 94/177/40 95/187/40 104/188/40
f 80/176/41 103/172/41 104/188/41 81/189/41
f 100/190/42 77/191/42 230/192/42 234/193/42 82/194/42 91/195/42
f 181/196/43 78/197/43 79/173/43 246/198/43
f 239/179/44 84/178/44 83/199/44 235/200/44
f 83/199/45 84/178/45 93/177/45 92/201/45
f 101/202/46 92/201/46 93/177/46 102/172/46
f 78/203/47 101/202/47 102/172/47 79/176/47
f 230/204/48 77/191/48 78/197/48 181/205/48 140/206/48
f 235/207/49 83/199/49 82/194/49 234/208/49
f 91/195/50 82/194/50 83/199/50 92/201/50
f 100/190/51 91/195/51 92/201/51 101/202/51
f 77/209/52 100/190/52 101/202/52 78/203/52
f 214/210/53 81/182/53 174/211/53 173/212/53
f 184/213/54 87/214/54 86/185/54 151/215/54 149/216/54
f 86/185/55 87/214/55 96/217/55 95/187/55
f 104/188/56 95/187/56 96/217/56 105/218/56
f 174/219/57 81/189/57 104/188/57 105/218/57 231/220/57
f 247/221/58 89/222/58 88/223/58 187/224/58
f 89/222/59 98/225/59 97/226/59 88/223/59
f 97/226/60 98/225/60 208/227/60 106/228/60
f 168/229/61 106/228/61 208/230/61
f 161/231/62 90/232/62 188/232/62 189/233/62
f 240/234/63 99/235/63 90/235/63 161/236/63
f 242/67/64 99/67/64 240/237/64 158/238/64
f 187/239/38 88/223/38 87/214/38 184/240/38
f 87/214/39 88/223/39 97/226/39 96/217/39
f 105/218/40 96/217/40 97/226/40 106/228/40
f 231/220/41 105/218/41 106/228/41 168/241/41
f 188/242/65 90/235/65 89/222/65 247/221/65
f 90/235/66 99/67/66 98/225/66 89/222/66
f 208/227/67 98/225/67 99/67/67 242/243/67 163/244/67
f 142/245/68 141/246/68 107/191/68
f 155/247/69 225/194/69 113/194/69
f 225/195/70 122/195/70 113/194/70
f 122/195/71 225/190/71 131/190/71
f 107/209/72 131/190/72 225/248/72 142/209/72
f 178/249/73 111/182/73 110/173/73 227/250/73
f 202/251/74 116/178/74 117/185/74 182/252/74 153/253/74
f 125/177/75 126/187/75 117/185/75 116/178/75
f 134/172/76 135/188/76 126/187/76 125/177/76
f 134/172/77 110/176/77 111/189/77 135/188/77
f 227/254/78 110/173/78 109/173/78 180/255/78
f 147/256/79 115/178/79 116/178/79 202/257/79
f 124/177/80 125/177/80 116/178/80 115/178/80
f 125/177/81 124/177/81 133/172/81 134/172/81
f 134/172/82 133/172/82 109/176/82 110/176/82
f 180/258/83 109/173/83 108/197/83 233/259/83
f 114/199/84 115/178/84 147/256/84 198/260/84
f 123/201/85 124/177/85 115/178/85 114/199/85
f 132/202/86 133/172/86 124/177/86 123/201/86
f 132/202/87 108/203/87 109/176/87 133/172/87
f 108/197/88 107/191/88 141/261/88 233/262/88
f 155/263/89 113/194/89 114/199/89 198/264/89
f 122/195/90 123/201/90 114/199/90 113/194/90
f 131/190/91 132/202/91 123/201/91 122/195/91
f 131/190/92 107/209/92 108/203/92 132/202/92
f 215/265/93 112/46/93 111/182/93 178/266/93
f 117/185/94 118/214/94 223/267/94 182/268/94
f 126/187/95 127/217/95 118/214/95 117/185/95
f 135/188/96 136/218/96 127/217/96 126/187/96
f 135/188/97 111/189/97 112/269/97 136/218/97
f 192/270/98 119/223/98 120/222/98 185/271/98
f 120/222/99 119/223/99 128/226/99 129/225/99
f 129/225/100 128/226/100 137/228/100 138/227/100
f 138/227/101 137/228/101 169/272/101 243/273/101
f 190/274/102 121/235/102 160/275/102 191/276/102
f 160/277/103 121/235/103 130/67/103 205/278/103
f 159/279/104 205/280/104 130/67/104 167/281/104
f 172/282/105 170/283/105 112/46/105 215/284/105
f 223/285/106 118/214/106 119/223/106 192/286/106
f 127/217/107 128/226/107 119/223/107 118/214/107
f 136/218/108 137/228/108 128/226/108 127/217/108
f 137/228/109 136/218/109 112/269/109 170/287/109 169/288/109
f 185/289/110 120/222/110 121/235/110 190/290/110
f 121/235/111 120/222/111 129/225/111 130/67/111
f 167/291/112 130/67/112 129/225/112 138/227/112 229/292/112
f 243/293/113 229/294/113 138/227/113
f 325/295/114 322/296/114 323/297/114 324/298/114
f 326/299/115 324/300/115 323/301/115 318/302/115 317/303/115 319/304/115
f 322/305/116 325/306/116 294/307/116 291/308/116 309/309/116 313/310/116 327/311/116 330/312/116
f 313/313/117 309/314/117 310/315/117 314/316/117
f 315/317/118 314/318/118 310/319/118 331/320/118 332/321/118 316/322/118
f 316/323/119 332/324/119 333/325/119 334/326/119 311/327/119
f 335/328/120 307/329/120 321/330/120 312/331/120 311/332/120 334/333/120
f 307/334/121 319/335/121 317/336/121 321/337/121
f 260/338/122 258/339/122 256/340/122 254/341/122 252/342/122 250/343/122 264/344/122 262/345/122
f 250/346/123 252/342/123 251/347/123 249/348/123
f 252/342/124 254/341/124 253/349/124 251/347/124
f 254/341/125 256/340/125 255/350/125 253/349/125
f 256/340/126 258/339/126 257/351/126 255/350/126
f 258/339/127 260/338/127 259/352/127 257/351/127
f 260/338/128 262/345/128 261/353/128 259/352/128
f 262/345/129 264/344/129 263/354/129 261/353/129
f 264/344/130 250/343/130 249/355/130 263/354/130
f 305/356/131 249/347/131 251/347/131 320/357/131
f 320/358/132 251/349/132 253/349/132 288/359/132 286/360/132
f 288/361/133 253/350/133 255/350/133 329/362/133 285/363/133 284/364/133
f 255/351/134 257/351/134 328/365/134 329/366/134
f 257/352/135 259/352/135 296/367/135 293/368/135 328/369/135
f 259/353/136 261/353/136 298/370/136 296/371/136
f 300/372/137 298/373/137 261/354/137 263/354/137 301/374/137
f 301/375/138 263/355/138 249/355/138 305/376/138 302/377/138
f 266/346/139 267/346/139 269/342/139
f 266/342/140 269/342/140 271/341/140
f 266/341/141 271/341/141 273/340/141
f 266/340/142 273/340/142 275/339/142
f 266/339/143 275/339/143 277/338/143
f 266/338/144 277/338/144 279/345/144
f 266/345/145 279/345/145 281/344/145
f 266/344/146 281/344/146 267/343/146
f 267/346/147 265/348/147 268/347/147 269/342/147
f 269/342/148 268/347/148 270/349/148 271/341/148
f 271/341/149 270/349/149 272/350/149 273/340/149
f 273/340/150 272/350/150 274/351/150 275/339/150
f 275/339/151 274/351/151 276/352/151 277/338/151
f 277/338/152 276/352/152 278/353/152 279/345/152
f 279/345/153 278/353/153 280/354/153 281/344/153
f 281/344/154 280/354/154 265/355/154 267/343/154
f 268/347/155 265/348/155 306/378/155 308/379/155
f 289/380/156 270/349/156 268/347/156 308/381/156 287/382/156
f 272/350/157 270/349/157 289/383/157 283/384/157 282/385/157 295/386/157
f 290/387/158 274/351/158 272/350/158 295/386/158
f 297/388/159 276/352/159 274/351/159 290/389/159 292/390/159
f 299/391/160 278/353/160 276/352/160 297/392/160
f 304/393/161 280/354/161 278/353/161 299/394/161
f 265/355/162 280/354/162 304/395/162 303/396/162 306/397/162
f 494/398/163 452/399/163 490/400/163 400/401/163
f 491/402/164 490/403/164 452/404/164 453/405/164 454/406/164 455/407/164 456/408/164 408/409/164
f 456/410/165 455/411/165 459/412/165 458/413/165 480/414/165 460/415/165
f 451/416/166 450/417/166 467/418/166 466/419/166 419/420/166 462/421/166 413/422/166 494/423/166 400/424/166 415/425/166 464/426/166 416/427/166 414/428/166 417/429/166 435/430/166 434/431/166 472/432/166 428/433/166 432/434/166 482/435/166 498/436/166 396/437/166 425/438/166 470/439/166 468/440/166 469/441/166
f 365/442/167 447/443/167 487/444/167 477/445/167 437/446/167 449/447/167 485/448/167 484/449/167 443/450/167 498/451/167 482/452/167 483/453/167
f 463/454/168 340/455/168 339/456/168 420/457/168
f 339/456/169 340/455/169 346/458/169 345/459/169
f 345/459/170 346/458/170 355/460/170 354/461/170
f 354/461/171 355/460/171 473/462/171 363/463/171
f 471/464/172 363/463/172 473/465/172
f 342/466/173 351/467/173 360/468/173 475/469/173 474/470/173 336/471/173
f 353/461/174 344/459/174 338/456/174 496/472/174 420/473/174 339/456/174 345/459/174 354/461/174 363/463/174 471/474/174 431/475/174 362/463/174
f 480/476/175 458/477/175 441/478/175 493/479/175 437/480/175 477/481/175 476/482/175 478/483/175 481/484/175
f 496/485/176 338/456/176 337/486/176 495/487/176
f 337/486/177 338/456/177 344/459/177 343/488/177
f 343/488/178 344/459/178 353/461/178 352/489/178
f 352/489/179 353/461/179 362/463/179 361/490/179
f 497/491/180 361/490/180 362/463/180 431/475/180
f 495/492/181 337/486/181 336/471/181 474/493/181
f 336/471/182 337/486/182 343/488/182 342/466/182
f 342/466/183 343/488/183 352/489/183 351/467/183
f 360/468/184 351/467/184 352/489/184 361/490/184
f 475/494/185 360/468/185 361/490/185 497/495/185
f 501/496/186 341/497/186 340/455/186 463/498/186
f 340/455/187 341/497/187 347/499/187 346/458/187
f 346/458/188 347/499/188 356/500/188 355/460/188
f 355/460/189 356/500/189 364/501/189 473/462/189
f 473/462/190 364/501/190 445/502/190 430/503/190
f 348/504/191 403/505/191 457/506/191 349/507/191
f 357/508/192 348/504/192 349/507/192 358/509/192
f 502/510/193 357/508/193 358/509/193 366/511/193
f 502/510/194 366/511/194 486/512/194
f 442/513/195 350/63/195 412/63/195 411/514/195
f 439/515/196 359/516/196 350/516/196 442/517/196
f 436/518/197 367/519/197 359/519/197 439/520/197
f 448/232/198 367/232/198 436/521/198 438/522/198
f 403/523/199 341/497/199 501/524/199 402/525/199
f 341/497/200 403/523/200 348/504/200 347/499/200
f 347/499/170 348/504/170 357/508/170 356/500/170
f 356/500/201 357/508/201 502/510/201 364/501/201
f 445/502/172 364/501/172 502/526/172
f 412/527/202 350/516/202 349/507/202 457/528/202 407/529/202
f 349/507/203 350/516/203 359/519/203 358/509/203
f 358/509/204 359/519/204 367/232/204 366/511/204
f 486/512/205 366/511/205 367/232/205 448/530/205
f 424/471/206 368/471/206 423/531/206
f 424/466/207 375/466/207 368/471/207
f 375/466/208 424/467/208 384/467/208
f 384/467/209 424/468/209 393/468/209
f 424/532/210 427/533/210 393/468/210
f 465/534/211 371/456/211 372/455/211 418/535/211
f 378/459/212 379/458/212 372/455/212 371/456/212
f 387/461/213 388/460/213 379/458/213 378/459/213
f 488/463/214 489/462/214 388/460/214 387/461/214
f 421/536/215 370/456/215 371/456/215 465/537/215
f 378/459/216 371/456/216 370/456/216 377/459/216
f 386/461/217 387/461/217 378/459/217 377/459/217
f 395/463/218 488/463/218 387/461/218 386/461/218
f 488/463/219 395/463/219 429/538/219
f 422/539/220 369/486/220 370/456/220 421/540/220
f 376/488/221 377/459/221 370/456/221 369/486/221
f 385/489/222 386/461/222 377/459/222 376/488/222
f 394/490/223 395/463/223 386/461/223 385/489/223
f 429/538/224 395/463/224 394/490/224 426/541/224
f 423/542/225 368/471/225 369/486/225 422/543/225
f 375/466/226 376/488/226 369/486/226 368/471/226
f 376/488/227 375/466/227 384/467/227 385/489/227
f 393/468/228 394/490/228 385/489/228 384/467/228
f 426/544/229 394/490/229 393/468/229 427/545/229
f 418/546/230 372/455/230 373/497/230 461/547/230
f 379/458/231 380/499/231 373/497/231 372/455/231
f 388/460/232 389/500/232 380/499/232 379/458/232
f 489/462/233 499/501/233 389/500/233 388/460/233
f 499/501/234 489/548/234 433/549/234
f 401/550/235 374/523/235 404/551/235
f 374/523/236 381/504/236 382/507/236 405/552/236 404/551/236
f 391/509/237 382/507/237 381/504/237 390/508/237
f 397/511/238 391/509/238 390/508/238 444/510/238
f 446/553/239 397/511/239 444/554/239
f 409/555/240 410/556/240 383/516/240 479/557/240
f 383/516/241 392/519/241 440/558/241 479/559/241
f 440/560/242 392/519/242 398/232/242 492/561/242
f 492/562/243 398/232/243 500/563/243
f 461/564/244 373/497/244 374/523/244 401/565/244 399/566/244
f 380/499/245 381/504/245 374/523/245 373/497/245
f 389/500/246 390/508/246 381/504/246 380/499/246
f 499/501/247 444/510/247 390/508/247 389/500/247
f 405/567/248 382/507/248 383/516/248 410/568/248 406/569/248
f 391/509/249 392/519/249 383/516/249 382/507/249
f 397/511/250 398/232/250 392/519/250 391/509/250
f 500/570/251 398/232/251 397/511/251 446/571/251
