# Blender 3.6.0
# www.blender.org
mtllib chryzantemy.mtl
o Icosphere
v 0.151652 0.170713 0.062372
v 0.106182 0.170713 0.124955
v 0.085847 0.211122 0.062372
v -0.012457 0.170713 0.163503
v -0.126439 0.118517 0.161841
v -0.062431 0.124067 0.192140
v 0.069097 0.111092 0.212662
v -0.180902 0.111092 0.131431
v -0.180902 0.111092 -0.131431
v 0.069097 0.111092 -0.212662
v 0.223607 0.111091 0.000000
v 0.000000 0.248406 0.000000
v -0.086028 0.170713 0.139598
v -0.032791 0.211123 0.100919
v -0.159350 0.170713 0.038678
v -0.159350 0.170713 -0.038678
v -0.106113 0.211122 0.000000
v -0.086028 0.170713 -0.139598
v -0.012457 0.170713 -0.163503
v -0.032791 0.211123 -0.100919
v 0.106182 0.170713 -0.124955
v 0.007162 0.118517 0.205251
v 0.151652 0.170713 -0.062372
v 0.085847 0.211122 -0.062372
v 0.114849 0.118517 0.170262
v 0.163445 0.124066 0.118749
v 0.197420 0.118517 0.056613
v 0.055320 0.155073 -0.170262
v 0.038583 0.200742 -0.118749
v 0.018394 0.228454 -0.056613
v -0.144834 0.155073 -0.105227
v -0.101014 0.200742 -0.073390
v -0.048158 0.228454 -0.034989
v 0.036926 0.059369 -0.226877
v 0.000053 -0.001452 -0.237586
v 0.139607 -0.001452 -0.192242
v 0.103480 0.059369 -0.205252
v -0.204362 0.059369 -0.105227
v -0.225941 -0.001452 -0.073468
v -0.139692 -0.001452 -0.192180
v -0.163230 0.059369 -0.161841
v -0.163229 0.059369 0.161841
v 0.239156 0.062387 0.036905
v 0.237764 -0.000000 0.077253
v -0.144834 0.155073 0.105227
v -0.139692 -0.001452 0.192180
v 0.237764 0.000000 -0.077253
v 0.239156 0.062387 -0.036905
v 0.038804 0.062388 0.238856
v 0.000000 -0.000000 0.250000
v -0.101014 0.200742 0.073390
v -0.048158 0.228454 0.034989
v 0.146946 0.000000 0.202254
v 0.109002 0.062388 0.216047
v -0.215174 0.062387 0.110714
v -0.237764 -0.000000 0.077253
v 0.059527 0.228454 -0.000000
v 0.124861 0.200742 -0.000000
v -0.146946 0.000000 0.202254
v -0.171790 0.062388 0.170429
v -0.171790 0.062388 -0.170429
v -0.146946 -0.000000 -0.202254
v -0.225941 -0.001452 0.073468
v -0.204362 0.059369 0.105227
v -0.237764 0.000000 -0.077253
v -0.215174 0.062387 -0.110714
v 0.109002 0.062388 -0.216047
v 0.146946 -0.000000 -0.202254
v 0.103480 0.059369 0.205252
v 0.139607 -0.001452 0.192242
v 0.000000 0.000000 -0.250000
v 0.038804 0.062388 -0.238856
v 0.207763 0.124774 0.059713
v 0.172047 0.130596 0.124999
v 0.120993 0.124775 0.179141
v 0.007410 0.124775 0.216046
v -0.065717 0.130597 0.202253
v -0.132985 0.124775 0.170428
v -0.203182 0.124775 0.073809
v -0.212662 0.130596 0.000000
v -0.203182 0.124775 -0.073809
v -0.132985 0.124775 -0.170428
v -0.065717 0.130597 -0.202253
v 0.007410 0.124775 -0.216046
v 0.120993 0.124775 -0.179141
v 0.172047 0.130596 -0.124999
v 0.207763 0.124774 -0.059713
v 0.019402 0.240445 0.059713
v 0.040614 0.211308 0.124999
v 0.058205 0.163332 0.179141
v 0.188360 0.163331 0.000000
v 0.131432 0.211307 0.000000
v 0.062787 0.240445 0.000000
v -0.050795 0.240445 0.036904
v -0.106331 0.211308 0.077253
v -0.152387 0.163332 0.110714
v -0.050795 0.240445 -0.036904
v -0.106331 0.211308 -0.077253
v -0.152387 0.163332 -0.110714
v 0.019402 0.240445 -0.059713
v 0.040614 0.211308 -0.124999
v 0.058205 0.163332 -0.179141
v 0.090450 0.222182 -0.065716
v 0.159548 0.179749 -0.065716
v 0.111802 0.179750 -0.131432
v -0.034549 0.222182 -0.106330
v -0.013197 0.179750 -0.172046
v -0.090451 0.179750 -0.146945
v -0.111802 0.222182 0.000000
v -0.167704 0.179749 -0.040614
v -0.167704 0.179749 0.040614
v -0.034549 0.222182 0.106330
v -0.090451 0.179750 0.146945
v -0.013197 0.179750 0.172046
v 0.090450 0.222182 0.065716
v 0.111802 0.179750 0.131432
v 0.159548 0.179749 0.065716
v 0.215451 0.068659 -0.106331
v 0.202255 0.000000 -0.146946
v 0.167705 0.068659 -0.172047
v -0.034550 0.068659 -0.237764
v -0.077254 -0.000000 -0.237764
v -0.111804 0.068659 -0.212662
v -0.236803 0.068658 -0.040614
v -0.250000 0.000000 0.000000
v -0.236803 0.068659 0.040614
v -0.111804 0.068659 0.212662
v -0.077254 -0.000000 0.237764
v -0.034550 0.068659 0.237764
v 0.167705 0.068659 0.172047
v 0.202255 -0.000000 0.146946
v 0.215451 0.068658 0.106331
v 0.077254 -0.000000 -0.237764
v 0.000053 -0.001452 0.237586
v 0.036926 0.059369 0.226877
v -0.202255 -0.000000 -0.146946
v 0.227184 0.059368 -0.034989
v 0.225974 -0.001452 -0.073366
v -0.202255 0.000000 0.146946
v 0.179025 0.155072 -0.000000
v 0.055320 0.155073 0.170262
v 0.077254 0.000000 0.237764
v 0.038583 0.200742 0.118749
v 0.018394 0.228454 0.056613
v 0.250000 0.000000 0.000000
v 0.197420 0.118517 -0.056613
v 0.225974 -0.001452 0.073366
v 0.227184 0.059368 0.034989
v -0.000000 0.235986 0.000000
v 0.212426 0.105537 -0.000000
v 0.065642 0.105538 -0.202029
v -0.171857 0.105538 -0.124860
v -0.171857 0.105538 0.124860
v 0.163445 0.124066 -0.118749
v 0.114849 0.118517 -0.170262
v 0.007162 0.118517 -0.205251
v 0.065642 0.105538 0.202029
v -0.062431 0.124067 -0.192140
v -0.126439 0.118517 -0.161841
v -0.192992 0.118517 -0.070238
v -0.202029 0.124066 0.000000
v -0.192992 0.118517 0.070238
v 0.204710 0.065275 -0.100920
v 0.192226 -0.001593 -0.139659
v 0.159240 0.065275 -0.163504
v -0.032723 0.065275 -0.225876
v -0.073423 -0.001593 -0.225974
v -0.106294 0.065275 -0.201971
v -0.224933 0.065275 -0.038678
v -0.237603 -0.001593 0.000000
v -0.224933 0.065275 0.038678
v -0.106294 0.065275 0.201971
v -0.073423 -0.001593 0.225974
v -0.032723 0.065275 0.225876
v 0.159240 0.065275 0.163504
v 0.192225 -0.001594 0.139659
v 0.204710 0.065275 0.100920
v 0.073415 -0.001372 -0.225949
v -0.192204 -0.001372 -0.139644
v -0.192204 -0.001372 0.139644
v 0.073415 -0.001372 0.225949
v 0.237576 -0.001372 -0.000000
v 0.000053 -0.001452 -0.237586
v 0.139607 -0.001452 -0.192242
v -0.225941 -0.001452 -0.073468
v -0.139692 -0.001452 -0.192180
v -0.139692 -0.001452 0.192180
v -0.225941 -0.001452 0.073468
v 0.139607 -0.001452 0.192242
v 0.000053 -0.001452 0.237586
v 0.225974 -0.001452 -0.073366
v 0.225974 -0.001452 0.073366
v 0.192226 -0.001593 -0.139659
v -0.073423 -0.001593 -0.225974
v -0.237603 -0.001593 0.000000
v -0.073423 -0.001593 0.225974
v 0.192225 -0.001594 0.139659
v 0.073415 -0.001372 -0.225949
v -0.192204 -0.001372 -0.139644
v -0.192204 -0.001372 0.139644
v 0.073415 -0.001372 0.225949
v 0.237576 -0.001372 -0.000000
v 0.000039 -0.051452 -0.137586
v 0.080839 -0.051452 -0.111332
v -0.130840 -0.051452 -0.042553
v -0.080903 -0.051452 -0.111286
v -0.080903 -0.051452 0.111286
v -0.130840 -0.051452 0.042553
v 0.080839 -0.051452 0.111332
v 0.000039 -0.051452 0.137586
v 0.130864 -0.051452 -0.042478
v 0.130864 -0.051452 0.042478
v 0.111324 -0.051593 -0.080881
v -0.042522 -0.051593 -0.130869
v -0.137603 -0.051593 0.000000
v -0.042522 -0.051594 0.130869
v 0.111324 -0.051594 0.080881
v 0.042514 -0.051372 -0.130843
v -0.111302 -0.051372 -0.080865
v -0.111302 -0.051372 0.080865
v 0.042513 -0.051372 0.130843
v 0.137576 -0.051372 -0.000000
v 0.000035 -0.201452 -0.117586
v 0.069087 -0.201452 -0.095150
v -0.111820 -0.201452 -0.036369
v -0.069144 -0.201452 -0.095108
v -0.069144 -0.201452 0.095108
v -0.111820 -0.201452 0.036369
v 0.069087 -0.201452 0.095150
v 0.000035 -0.201452 0.117586
v 0.111842 -0.201452 -0.036302
v 0.111842 -0.201452 0.036302
v 0.095143 -0.201593 -0.069125
v -0.036341 -0.201593 -0.111847
v -0.117603 -0.201593 0.000000
v -0.036341 -0.201594 0.111847
v 0.095143 -0.201594 0.069125
v 0.036333 -0.201372 -0.111822
v -0.095122 -0.201372 -0.069110
v -0.095122 -0.201372 0.069110
v 0.036333 -0.201372 0.111822
v 0.117576 -0.201372 0.000000
vn 0.9857 0.1687 -0.0000
vn 0.1561 0.0787 0.9846
vn 0.9846 0.0787 -0.1558
vn 0.9846 0.0787 0.1558
vn 0.9525 0.3045 -0.0000
vn 0.2943 0.3045 0.9059
vn -0.7706 0.3045 0.5599
vn 0.1561 0.0787 -0.9846
vn -0.2280 0.6750 0.7017
vn -0.3091 0.8379 0.4500
vn -0.7050 0.0787 0.7048
vn -0.8882 0.0787 -0.4527
vn 0.3046 0.1687 -0.9374
vn -0.3848 0.5977 0.7034
vn 0.0339 0.9168 0.3979
vn 0.3420 0.5570 0.7568
vn -0.6141 0.5570 0.5592
vn -0.7216 0.5570 -0.4113
vn 0.1682 0.5570 -0.8133
vn 0.8255 0.5570 -0.0914
vn 0.1253 0.9879 -0.0910
vn 0.3891 0.9167 -0.0910
vn 0.6417 0.7615 -0.0911
vn 0.2320 0.9580 -0.1686
vn 0.2067 0.9167 -0.3419
vn 0.5145 0.8379 -0.1822
vn 0.4891 0.7965 -0.3554
vn 0.3323 0.8379 -0.4330
vn 0.2850 0.7615 -0.5822
vn 0.7501 0.6394 -0.1691
vn 0.7245 0.5979 -0.3430
vn 0.5970 0.6749 -0.4337
vn 0.5501 0.5979 -0.5830
vn 0.3926 0.6394 -0.6611
vn 0.3420 0.5570 -0.7568
vn -0.0479 0.9879 -0.1473
vn 0.0337 0.9167 -0.3982
vn 0.1117 0.7615 -0.6385
vn -0.0886 0.9580 -0.2727
vn -0.2613 0.9167 -0.3023
vn -0.0143 0.8379 -0.5457
vn -0.1868 0.7965 -0.5750
vn -0.3092 0.8379 -0.4499
vn -0.4656 0.7615 -0.4509
vn 0.0709 0.6394 -0.7656
vn -0.1024 0.5979 -0.7950
vn -0.2280 0.6749 -0.7018
vn -0.3845 0.5979 -0.7033
vn -0.5074 0.6394 -0.5777
vn -0.6141 0.5570 -0.5592
vn -0.1548 0.9879 -0.0000
vn -0.3683 0.9167 -0.1551
vn -0.5727 0.7615 -0.3035
vn -0.2868 0.9580 -0.0000
vn -0.3683 0.9167 0.1551
vn -0.5234 0.8379 -0.1550
vn -0.6046 0.7965 -0.0000
vn -0.5234 0.8379 0.1550
vn -0.5727 0.7615 0.3035
vn -0.7062 0.6394 -0.3041
vn -0.7877 0.5979 -0.1483
vn -0.7379 0.6749 -0.0000
vn -0.7877 0.5979 0.1483
vn -0.7062 0.6394 0.3041
vn -0.7216 0.5570 0.4113
vn -0.0479 0.9879 0.1473
vn -0.2613 0.9167 0.3023
vn -0.4656 0.7615 0.4509
vn -0.0886 0.9580 0.2727
vn 0.0337 0.9167 0.3982
vn -0.3092 0.8379 0.4499
vn -0.1868 0.7965 0.5750
vn -0.0143 0.8379 0.5457
vn 0.1117 0.7615 0.6385
vn -0.5074 0.6394 0.5777
vn -0.3845 0.5979 0.7033
vn -0.2280 0.6749 0.7018
vn -0.1024 0.5979 0.7950
vn 0.0709 0.6394 0.7656
vn 0.1682 0.5570 0.8133
vn 0.1253 0.9879 0.0910
vn 0.2067 0.9167 0.3419
vn 0.2850 0.7615 0.5822
vn 0.2320 0.9580 0.1686
vn 0.3891 0.9167 0.0910
vn 0.3323 0.8379 0.4330
vn 0.4891 0.7965 0.3554
vn 0.5145 0.8379 0.1822
vn 0.6417 0.7615 0.0911
vn 0.3926 0.6394 0.6611
vn 0.5501 0.5979 0.5830
vn 0.5970 0.6749 0.4337
vn 0.7245 0.5979 0.3430
vn 0.7501 0.6394 0.1691
vn 0.8255 0.5570 0.0914
vn 0.9041 0.4008 -0.1480
vn 0.9364 0.1756 -0.3039
vn 0.3419 0.5568 -0.7571
vn 0.8956 0.3504 -0.2741
vn 0.8029 0.4421 -0.3998
vn 0.8868 0.0968 -0.4519
vn 0.7945 0.1888 -0.5772
vn 0.7538 0.3632 -0.5477
vn 0.6284 0.4421 -0.6401
vn 0.3925 0.6392 -0.6613
vn 0.7038 0.0968 -0.7038
vn 0.5784 0.1756 -0.7967
vn 0.5375 0.3504 -0.7670
vn 0.4202 0.4008 -0.8141
vn 0.1386 0.4008 -0.9056
vn 0.0004 0.1756 -0.9845
vn 0.2064 0.9168 -0.3418
vn 0.0160 0.3504 -0.9364
vn -0.1321 0.4421 -0.8872
vn -0.1557 0.0968 -0.9830
vn -0.3035 0.1888 -0.9340
vn -0.2879 0.3632 -0.8861
vn -0.4146 0.4421 -0.7954
vn 0.7247 0.5977 -0.3429
vn 0.5969 0.6750 -0.4337
vn -0.4519 0.0968 -0.8868
vn -0.5789 0.1756 -0.7962
vn -0.5634 0.3504 -0.7482
vn -0.6444 0.4008 -0.6512
vn -0.8185 0.4008 -0.4117
vn -0.9362 0.1756 -0.3046
vn 0.2847 0.7613 -0.5825
vn -0.8857 0.3504 -0.3046
vn -0.8846 0.4421 -0.1485
vn -0.9830 0.0968 -0.1557
vn -0.9820 0.1888 -0.0000
vn -0.9317 0.3632 -0.0000
vn -0.8846 0.4421 0.1485
vn 0.7502 0.6392 0.1690
vn 0.8257 0.5567 0.0912
vn -0.9830 0.0968 0.1557
vn -0.9362 0.1756 0.3046
vn -0.8857 0.3504 0.3046
vn -0.8185 0.4008 0.4117
vn -0.6444 0.4008 0.6512
vn -0.5789 0.1756 0.7962
vn 0.5969 0.6750 0.4337
vn -0.5634 0.3504 0.7482
vn -0.4146 0.4421 0.7954
vn -0.4519 0.0968 0.8868
vn -0.3035 0.1888 0.9340
vn -0.2879 0.3632 0.8861
vn -0.1321 0.4421 0.8872
vn 0.8029 0.4424 -0.3995
vn 0.8870 0.0961 -0.4517
vn -0.1557 0.0968 0.9830
vn 0.0004 0.1756 0.9845
vn 0.0160 0.3504 0.9364
vn 0.1386 0.4008 0.9056
vn 0.4202 0.4008 0.8141
vn 0.5784 0.1756 0.7967
vn 0.9369 0.1731 -0.3038
vn 0.5375 0.3504 0.7670
vn 0.6284 0.4421 0.6401
vn 0.7038 0.0968 0.7038
vn 0.7945 0.1888 0.5772
vn 0.7538 0.3632 0.5477
vn 0.8029 0.4421 0.3998
vn 0.7538 0.3630 -0.5477
vn 0.6281 0.4424 -0.6402
vn 0.8868 0.0968 0.4519
vn 0.9364 0.1756 0.3039
vn 0.8956 0.3504 0.2741
vn 0.9041 0.4008 0.1480
vn 0.2944 0.3041 -0.9060
vn 0.4526 0.0789 -0.8882
vn 0.3325 0.8379 -0.4330
vn 0.3045 0.1712 -0.9370
vn 0.1559 0.0789 -0.9846
vn 0.6420 0.7613 -0.0908
vn 0.2318 0.9581 -0.1684
vn 0.3889 0.9168 -0.0907
vn 0.5145 0.8379 -0.1824
vn 0.0339 0.9168 -0.3979
vn -0.2613 0.9168 -0.3019
vn -0.0885 0.9581 -0.2725
vn -0.3091 0.8379 -0.4500
vn 0.1120 0.7613 0.6386
vn -0.7707 0.3041 -0.5599
vn -0.7049 0.0789 -0.7049
vn 0.5501 0.5977 -0.5833
vn -0.7971 0.1712 -0.5791
vn -0.8882 0.0789 -0.4526
vn 0.8257 0.5567 -0.0912
vn 0.1250 0.9880 -0.0908
vn 0.1684 0.5568 -0.8134
vn 0.7502 0.6392 -0.1690
vn 0.0711 0.6392 -0.7657
vn -0.3848 0.5977 -0.7034
vn -0.2280 0.6750 -0.7017
vn -0.1545 0.9880 -0.0000
vn -0.6144 0.5567 -0.5591
vn 0.2943 0.3045 -0.9059
vn -0.7707 0.3041 0.5599
vn -0.8882 0.0789 0.4526
vn 0.9041 0.4009 -0.1477
vn -0.7971 0.1712 0.5791
vn -0.7049 0.0789 0.7049
vn 0.3925 0.6392 0.6613
vn 0.5501 0.5977 0.5833
vn 0.6420 0.7613 0.0908
vn 0.7247 0.5977 0.3429
vn 0.5785 0.1731 -0.7971
vn 0.1389 0.4010 -0.9055
vn 0.4199 0.4010 -0.8142
vn -0.1318 0.4424 -0.8871
vn 0.0163 0.3505 -0.9364
vn -0.7050 0.0787 -0.7048
vn 0.2944 0.3041 0.9060
vn 0.1559 0.0789 0.9846
vn 0.7949 0.1862 -0.5775
vn 0.3045 0.1712 0.9370
vn 0.4526 0.0789 0.8882
vn 0.5145 0.8379 0.1824
vn 0.3325 0.8379 0.4330
vn 0.8956 0.3505 -0.2739
vn -0.9365 0.1731 0.3049
vn -0.6446 0.4010 0.6509
vn -0.8183 0.4010 0.4119
vn -0.4148 0.4424 0.7951
vn -0.5636 0.3505 0.7480
vn -0.7974 0.1687 0.5794
vn 0.9526 0.3041 -0.0000
vn 0.9846 0.0789 0.1559
vn 0.7037 0.0961 -0.7039
vn 0.9852 0.1712 -0.0000
vn 0.9846 0.0789 -0.1559
vn 0.2318 0.9581 0.1684
vn 0.3889 0.9168 0.0907
vn -0.7216 0.5567 -0.4115
vn -0.0477 0.9880 -0.1470
vn -0.8855 0.3505 -0.3048
vn -0.9825 0.1862 -0.0000
vn -0.9831 0.0961 -0.1559
vn -0.8844 0.4424 0.1487
vn -0.4660 0.7613 0.4508
vn -0.0885 0.9581 0.2725
vn -0.7879 0.5977 0.1486
vn -0.0477 0.9880 0.1470
vn -0.7879 0.5977 -0.1486
vn -0.0145 0.8379 -0.5457
vn -0.7378 0.6750 -0.0000
vn -0.6144 0.5567 0.5591
vn 0.1120 0.7613 -0.6386
vn -0.4660 0.7613 -0.4508
vn -0.7216 0.5567 0.4115
vn -0.3679 0.9168 0.1552
vn -0.2865 0.9581 -0.0000
vn -0.5727 0.7613 0.3039
vn -0.5235 0.8379 0.1549
vn -0.5076 0.6392 0.5777
vn -0.1022 0.5977 0.7952
vn -0.7063 0.6392 -0.3043
vn -0.5235 0.8379 -0.1549
vn -0.5076 0.6392 -0.5777
vn -0.5727 0.7613 -0.3039
vn 0.3419 0.5568 0.7571
vn -0.1022 0.5977 -0.7952
vn -0.3679 0.9168 -0.1552
vn -0.3036 0.1862 -0.9344
vn -0.4520 0.0961 -0.8868
vn -0.4148 0.4424 -0.7951
vn -0.8183 0.4010 -0.4119
vn -0.6446 0.4010 -0.6509
vn 0.4524 0.0787 -0.8883
vn -0.7706 0.3045 -0.5599
vn -0.9365 0.1731 -0.3049
vn -0.5793 0.1731 -0.7965
vn -0.5636 0.3505 -0.7480
vn 0.0005 0.1731 -0.9849
vn -0.2879 0.3630 -0.8862
vn 0.2847 0.7613 0.5825
vn 0.5372 0.3505 -0.7671
vn -0.1556 0.0961 -0.9831
vn 0.6281 0.4424 0.6402
vn 0.7538 0.3630 0.5477
vn 0.7949 0.1862 0.5775
vn 0.8956 0.3505 0.2739
vn 0.9369 0.1731 0.3038
vn -0.7974 0.1687 -0.5794
vn -0.0145 0.8379 0.5457
vn -0.9831 0.0961 0.1559
vn -0.9318 0.3630 -0.0000
vn -0.2613 0.9168 0.3019
vn -0.7063 0.6392 0.3043
vn -0.8844 0.4424 -0.1487
vn 0.2064 0.9168 0.3418
vn 0.1684 0.5568 0.8134
vn 0.1250 0.9880 0.0908
vn -0.2879 0.3630 0.8862
vn 0.0005 0.1731 0.9849
vn -0.1556 0.0961 0.9831
vn 0.4199 0.4010 0.8142
vn 0.1389 0.4010 0.9055
vn 0.4524 0.0787 0.8883
vn -0.8882 0.0787 0.4527
vn 0.9041 0.4009 0.1477
vn 0.8029 0.4424 0.3995
vn 0.8870 0.0961 0.4517
vn -0.5793 0.1731 0.7965
vn 0.7037 0.0961 0.7039
vn 0.0711 0.6392 0.7657
vn -0.8855 0.3505 0.3048
vn -0.4520 0.0961 0.8868
vn 0.5372 0.3505 0.7671
vn 0.5785 0.1731 0.7971
vn -0.1318 0.4424 0.8871
vn 0.0163 0.3505 0.9364
vn -0.3036 0.1862 0.9344
vn 0.3046 0.1687 0.9374
vn -0.0000 1.0000 -0.0000
vn 0.2039 -0.8922 -0.4030
vn -0.4018 -0.8922 0.2062
vn 0.4035 -0.8922 -0.2030
vn 0.3177 -0.8922 0.3210
vn 0.2039 -0.8922 0.4030
vn -0.2071 -0.8922 0.4014
vn 0.0720 -0.8922 -0.4459
vn 0.0720 -0.8922 0.4459
vn -0.0683 -0.8922 0.4465
vn -0.4457 -0.8922 0.0730
vn 0.4463 -0.8922 -0.0693
vn -0.4457 -0.8922 -0.0730
vn 0.4035 -0.8922 0.2030
vn 0.4463 -0.8922 0.0693
vn -0.4018 -0.8922 -0.2062
vn 0.3177 -0.8922 -0.3210
vn -0.3203 -0.8922 -0.3184
vn -0.0683 -0.8922 -0.4465
vn -0.3203 -0.8922 0.3184
vn -0.2071 -0.8922 -0.4014
vn -0.8831 -0.1306 -0.4507
vn 0.7003 -0.1306 -0.7018
vn -0.7015 -0.1306 -0.7006
vn -0.1541 -0.1306 -0.9794
vn -0.7015 -0.1306 0.7006
vn -0.4510 -0.1306 -0.8829
vn 0.4495 -0.1306 -0.8837
vn -0.8831 -0.1306 0.4507
vn 0.8839 -0.1306 -0.4492
vn 0.7003 -0.1306 0.7018
vn 0.4495 -0.1306 0.8837
vn -0.4510 -0.1306 0.8829
vn 0.1557 -0.1306 -0.9791
vn 0.1557 -0.1306 0.9791
vn -0.1541 -0.1306 0.9794
vn -0.9791 -0.1306 0.1561
vn 0.9793 -0.1306 -0.1545
vn -0.9791 -0.1306 -0.1561
vn 0.8839 -0.1306 0.4492
vn 0.9793 -0.1306 0.1545
vn -0.0000 -1.0000 -0.0000
vt 0.416147 0.846315
vt 0.435494 0.901598
vt 0.380178 0.882352
vt 0.435197 0.593131
vt 0.475381 0.648222
vt 0.416825 0.649538
vt 0.380338 0.941671
vt 0.475470 0.846357
vt 0.375623 0.841836
vt 0.439983 0.694883
vt 0.400042 0.686695
vt 0.229889 0.588086
vt 0.280171 0.580073
vt 0.260042 0.615530
vt 0.182193 0.941959
vt 0.127037 0.901886
vt 0.183403 0.883404
vt 0.301035 0.663067
vt 0.335756 0.639871
vt 0.337479 0.681592
vt 0.271387 0.686722
vt 0.304210 0.701930
vt 0.246733 0.531989
vt 0.314910 0.531990
vt 0.065533 0.713529
vt 0.086601 0.648688
vt 0.121596 0.696585
vt 0.228792 0.906476
vt 0.296162 0.623783
vt 0.335841 0.719485
vt 0.305620 0.734919
vt 0.697573 0.122611
vt 0.735748 0.131419
vt 0.703350 0.159338
vt 0.580233 0.239704
vt 0.600405 0.206120
vt 0.616947 0.245559
vt 0.655333 0.387484
vt 0.629627 0.357921
vt 0.672247 0.354376
vt 0.819089 0.361726
vt 0.783028 0.377039
vt 0.792828 0.335410
vt 0.845196 0.198025
vt 0.848616 0.237053
vt 0.812052 0.214868
vt 0.745483 0.248698
vt 0.740083 0.282553
vt 0.719485 0.261910
vt 0.777362 0.232498
vt 0.772779 0.270409
vt 0.810698 0.254660
vt 0.765342 0.307865
vt 0.803919 0.297171
vt 0.845293 0.281973
vt 0.834478 0.325698
vt 0.706218 0.287879
vt 0.727870 0.315222
vt 0.754566 0.346419
vt 0.689950 0.319724
vt 0.712041 0.353108
vt 0.739280 0.387760
vt 0.694353 0.390987
vt 0.690687 0.257318
vt 0.671374 0.286360
vt 0.649953 0.321389
vt 0.655374 0.251686
vt 0.630451 0.283013
vt 0.605911 0.319627
vt 0.588959 0.277896
vt 0.714953 0.233102
vt 0.681365 0.223709
vt 0.641430 0.214162
vt 0.709397 0.197777
vt 0.671902 0.183755
vt 0.629496 0.171731
vt 0.663946 0.142713
vt 0.744037 0.213851
vt 0.740776 0.172921
vt 0.779111 0.192504
vt 0.777443 0.148459
vt 0.815687 0.172256
vt 0.887421 0.206780
vt 0.945647 0.226297
vt 0.891586 0.259919
vt 0.257438 0.869793
vt 0.220529 0.866550
vt 0.236460 0.835209
vt 0.945692 0.297983
vt 0.882430 0.317331
vt 0.274144 0.833906
vt 0.314516 0.827472
vt 0.289104 0.797897
vt 0.923353 0.366100
vt 0.861943 0.366539
vt 0.823811 0.404591
vt 0.823242 0.465998
vt 0.774560 0.424973
vt 0.253196 0.802287
vt 0.268573 0.772037
vt 0.755079 0.488193
vt 0.717129 0.434006
vt 0.341549 0.856390
vt 0.300060 0.866647
vt 0.683393 0.487996
vt 0.663998 0.429728
vt 0.616025 0.405221
vt 0.557447 0.423655
vt 0.581422 0.364679
vt 0.515276 0.365687
vt 0.555084 0.312851
vt 0.361143 0.780757
vt 0.390112 0.807735
vt 0.350738 0.816999
vt 0.493311 0.297450
vt 0.542734 0.261000
vt 0.551217 0.207801
vt 0.515584 0.157786
vt 0.579082 0.162362
vt 0.367500 0.740372
vt 0.400289 0.766227
vt 0.557683 0.099765
vt 0.620235 0.121297
vt 0.333518 0.901802
vt 0.315378 0.962774
vt 0.615794 0.057788
vt 0.665732 0.093528
vt 0.718948 0.085158
vt 0.755504 0.035812
vt 0.770774 0.097617
vt 0.823695 0.057922
vt 0.822547 0.124066
vt 0.279187 0.910460
vt 0.881575 0.100217
vt 0.863016 0.158756
vt 0.881154 0.423923
vt 0.324598 0.790909
vt 0.300581 0.766936
vt 0.235581 0.770690
vt 0.220310 0.737896
vt 0.253832 0.743172
vt 0.196712 0.767588
vt 0.215306 0.803997
vt 0.368731 0.702687
vt 0.615360 0.465731
vt 0.281067 0.747460
vt 0.196158 0.838642
vt 0.173582 0.802354
vt 0.157419 0.762790
vt 0.276728 0.720233
vt 0.149097 0.726685
vt 0.183828 0.732153
vt 0.493463 0.225866
vt 0.403355 0.723599
vt 0.247084 0.962909
vt 0.150487 0.845038
vt 0.065660 0.781718
vt 0.113679 0.746882
vt 0.683920 0.035812
vt 0.331520 0.755401
vt 0.181920 0.553182
vt 0.186778 0.614484
vt 0.228276 0.634601
vt 0.329352 0.591764
vt 0.923527 0.158218
vt 0.168108 0.694883
vt 0.147913 0.653424
vt 0.126750 0.593433
vt 0.195644 0.662199
vt 0.265575 0.650250
vt 0.235855 0.673454
vt 0.206975 0.702389
vt 0.244917 0.711379
vt 0.372088 0.662377
vt 0.086893 0.846627
vt 0.125463 0.796041
vt 0.444063 0.745270
vt 0.435509 0.799617
vt 0.496445 0.781365
vt 0.378396 0.616694
vt 0.379868 0.553099
vt 0.496449 0.713063
vt 0.314921 0.531914
vt 0.379901 0.553031
vt 0.126983 0.901940
vt 0.086825 0.846662
vt 0.246720 0.531914
vt 0.126696 0.593380
vt 0.181885 0.553115
vt 0.496521 0.781376
vt 0.475539 0.846391
vt 0.065585 0.781731
vt 0.247073 0.962985
vt 0.182159 0.942028
vt 0.065457 0.713517
vt 0.086532 0.648654
vt 0.435548 0.901651
vt 0.380373 0.941738
vt 0.496524 0.713050
vt 0.315390 0.962849
vt 0.475449 0.648187
vt 0.435251 0.593077
vt 0.871119 0.701194
vt 0.886678 0.748851
vt 0.814749 0.760404
vt 0.806397 0.734220
vt 0.569705 0.749018
vt 0.585055 0.701366
vt 0.649989 0.734181
vt 0.641457 0.760309
vt 0.886678 0.799314
vt 0.870989 0.847180
vt 0.806282 0.814041
vt 0.814600 0.787925
vt 0.753513 0.932666
vt 0.703079 0.932671
vt 0.714608 0.860849
vt 0.742074 0.860785
vt 0.655491 0.917139
vt 0.688450 0.852422
vt 0.585274 0.847028
vt 0.569699 0.799071
vt 0.641650 0.787739
vt 0.650368 0.813808
vt 0.841660 0.660626
vt 0.790102 0.712088
vt 0.614966 0.887777
vt 0.666357 0.836167
vt 0.614658 0.660529
vt 0.666163 0.711983
vt 0.841597 0.887500
vt 0.790246 0.836247
vt 0.655489 0.631039
vt 0.688244 0.695850
vt 0.801335 0.916934
vt 0.768093 0.852353
vt 0.702962 0.615741
vt 0.714301 0.687413
vt 0.752848 0.615625
vt 0.741702 0.687471
vt 0.800798 0.631012
vt 0.767734 0.696054
vt 0.477101 0.546534
vt 0.450671 0.537452
vt 0.484707 0.445197
vt 0.507296 0.452951
vt 0.325405 0.475831
vt 0.302047 0.460392
vt 0.357697 0.379320
vt 0.377654 0.392527
vt 0.424677 0.527193
vt 0.462495 0.436422
vt 0.399096 0.515810
vt 0.373929 0.503540
vt 0.419121 0.416206
vt 0.440637 0.426682
vt 0.125376 0.283041
vt 0.110103 0.259637
vt 0.193640 0.207762
vt 0.206698 0.227758
vt 0.349356 0.490231
vt 0.398118 0.404839
vt 0.095897 0.235571
vt 0.181507 0.187191
vt 0.279244 0.444145
vt 0.338200 0.365444
vt 0.215450 0.389750
vt 0.195633 0.369971
vt 0.266743 0.302052
vt 0.283689 0.318948
vt 0.176715 0.349401
vt 0.250571 0.284479
vt 0.141665 0.305814
vt 0.220631 0.247214
vt 0.158741 0.328003
vt 0.235215 0.266187
vt 0.082708 0.210874
vt 0.170246 0.166077
vt 0.257198 0.426971
vt 0.319356 0.350774
vt 0.070391 0.185730
vt 0.159707 0.144592
vt 0.235946 0.408825
vt 0.301199 0.335261
vt 0.210165 0.049062
vt 0.233804 0.045659
vt 0.257386 0.049730
vt 0.278540 0.060917
vt 0.295173 0.078054
vt 0.305714 0.099484
vt 0.309130 0.123169
vt 0.305028 0.146746
vt 0.293869 0.167861
vt 0.276745 0.184508
vt 0.255275 0.195076
vt 0.231585 0.198460
vt 0.208055 0.194372
vt 0.186930 0.183230
vt 0.156323 0.120951
vt 0.160392 0.097417
vt 0.171550 0.076248
vt 0.188726 0.059585
s 0
usemtl Material
f 148/1/1 182/2/1 137/3/1
f 134/4/2 181/5/2 135/6/2
f 182/2/3 138/7/3 137/3/3
f 147/8/4 182/2/4 148/1/4
f 148/1/5 137/3/5 150/9/5
f 135/6/6 69/10/6 157/11/6
f 64/12/7 42/13/7 153/14/7
f 178/15/8 35/16/8 34/17/8
f 13/18/9 6/19/9 4/20/9
f 51/21/10 13/18/10 14/22/10
f 180/23/11 46/24/11 42/13/11
f 179/25/12 39/26/12 38/27/12
f 37/28/13 178/15/13 34/17/13
f 5/29/14 6/19/14 13/18/14
f 14/22/15 143/30/15 144/31/15
f 7/32/16 75/33/16 90/34/16
f 8/35/17 78/36/17 96/37/17
f 9/38/18 81/39/18 99/40/18
f 10/41/19 84/42/19 102/43/19
f 11/44/20 87/45/20 91/46/20
f 93/47/21 100/48/21 12/49/21
f 92/50/22 103/51/22 93/47/22
f 91/46/23 104/52/23 92/50/23
f 93/47/24 103/51/24 100/48/24
f 103/51/25 101/53/25 100/48/25
f 92/50/26 104/52/26 103/51/26
f 104/52/27 105/54/27 103/51/27
f 103/51/28 105/54/28 101/53/28
f 105/54/29 102/43/29 101/53/29
f 91/46/30 87/45/30 104/52/30
f 87/45/31 86/55/31 104/52/31
f 104/52/32 86/55/32 105/54/32
f 86/55/33 85/56/33 105/54/33
f 105/54/34 85/56/34 102/43/34
f 85/56/35 10/41/35 102/43/35
f 100/48/36 97/57/36 12/49/36
f 101/53/37 106/58/37 100/48/37
f 102/43/38 107/59/38 101/53/38
f 100/48/39 106/58/39 97/57/39
f 106/58/40 98/60/40 97/57/40
f 101/53/41 107/59/41 106/58/41
f 107/59/42 108/61/42 106/58/42
f 106/58/43 108/61/43 98/60/43
f 108/61/44 99/40/44 98/60/44
f 102/43/45 84/42/45 107/59/45
f 84/42/46 83/62/46 107/59/46
f 107/59/47 83/62/47 108/61/47
f 83/62/48 82/63/48 108/61/48
f 108/61/49 82/63/49 99/40/49
f 82/63/50 9/38/50 99/40/50
f 97/57/51 94/64/51 12/49/51
f 98/60/52 109/65/52 97/57/52
f 99/40/53 110/66/53 98/60/53
f 97/57/54 109/65/54 94/64/54
f 109/65/55 95/67/55 94/64/55
f 98/60/56 110/66/56 109/65/56
f 110/66/57 111/68/57 109/65/57
f 109/65/58 111/68/58 95/67/58
f 111/68/59 96/37/59 95/67/59
f 99/40/60 81/39/60 110/66/60
f 81/39/61 80/69/61 110/66/61
f 110/66/62 80/69/62 111/68/62
f 80/69/63 79/70/63 111/68/63
f 111/68/64 79/70/64 96/37/64
f 79/70/65 8/35/65 96/37/65
f 94/64/66 88/71/66 12/49/66
f 95/67/67 112/72/67 94/64/67
f 96/37/68 113/73/68 95/67/68
f 94/64/69 112/72/69 88/71/69
f 112/72/70 89/74/70 88/71/70
f 95/67/71 113/73/71 112/72/71
f 113/73/72 114/75/72 112/72/72
f 112/72/73 114/75/73 89/74/73
f 114/75/74 90/34/74 89/74/74
f 96/37/75 78/36/75 113/73/75
f 78/36/76 77/76/76 113/73/76
f 113/73/77 77/76/77 114/75/77
f 77/76/78 76/77/78 114/75/78
f 114/75/79 76/77/79 90/34/79
f 76/77/80 7/32/80 90/34/80
f 88/71/81 93/47/81 12/49/81
f 89/74/82 115/78/82 88/71/82
f 90/34/83 116/79/83 89/74/83
f 88/71/84 115/78/84 93/47/84
f 115/78/85 92/50/85 93/47/85
f 89/74/86 116/79/86 115/78/86
f 116/79/87 117/80/87 115/78/87
f 115/78/88 117/80/88 92/50/88
f 117/80/89 91/46/89 92/50/89
f 90/34/90 75/33/90 116/79/90
f 75/33/91 74/81/91 116/79/91
f 116/79/92 74/81/92 117/80/92
f 74/81/93 73/82/93 117/80/93
f 117/80/94 73/82/94 91/46/94
f 73/82/95 11/44/95 91/46/95
f 48/83/96 87/45/96 11/44/96
f 47/84/97 118/85/97 48/83/97
f 155/86/98 151/87/98 28/88/98
f 48/83/99 118/85/99 87/45/99
f 118/85/100 86/55/100 87/45/100
f 47/84/101 119/89/101 118/85/101
f 119/89/102 120/90/102 118/85/102
f 118/85/103 120/90/103 86/55/103
f 120/90/104 85/56/104 86/55/104
f 21/91/105 155/86/105 28/88/105
f 23/92/27 21/91/27 24/93/27
f 119/89/106 68/94/106 120/90/106
f 68/94/107 67/95/107 120/90/107
f 120/90/108 67/95/108 85/56/108
f 67/95/109 10/41/109 85/56/109
f 72/96/110 84/42/110 10/41/110
f 71/97/111 121/98/111 72/96/111
f 24/93/112 29/99/112 30/100/112
f 72/96/113 121/98/113 84/42/113
f 121/98/114 83/62/114 84/42/114
f 71/97/115 122/101/115 121/98/115
f 122/101/116 123/102/116 121/98/116
f 121/98/117 123/102/117 83/62/117
f 123/102/118 82/63/118 83/62/118
f 146/103/119 154/104/119 23/92/119
f 23/92/120 154/104/120 21/91/120
f 122/101/121 62/105/121 123/102/121
f 62/105/122 61/106/122 123/102/122
f 123/102/123 61/106/123 82/63/123
f 61/106/124 9/38/124 82/63/124
f 66/107/125 81/39/125 9/38/125
f 65/108/126 124/109/126 66/107/126
f 21/91/127 28/88/127 29/99/127
f 66/107/128 124/109/128 81/39/128
f 124/109/129 80/69/129 81/39/129
f 65/108/130 125/110/130 124/109/130
f 125/110/131 126/111/131 124/109/131
f 124/109/132 126/111/132 80/69/132
f 126/111/133 79/70/133 80/69/133
f 1/112/134 27/113/134 140/114/134
f 27/113/135 150/9/135 140/114/135
f 125/110/136 56/115/136 126/111/136
f 56/115/137 55/116/137 126/111/137
f 126/111/138 55/116/138 79/70/138
f 55/116/139 8/35/139 79/70/139
f 60/117/140 78/36/140 8/35/140
f 59/118/141 127/119/141 60/117/141
f 2/120/142 26/121/142 1/112/142
f 60/117/143 127/119/143 78/36/143
f 127/119/144 77/76/144 78/36/144
f 59/118/145 128/122/145 127/119/145
f 128/122/146 129/123/146 127/119/146
f 127/119/147 129/123/147 77/76/147
f 129/123/148 76/77/148 77/76/148
f 163/124/149 154/104/149 146/103/149
f 138/7/150 164/125/150 163/124/150
f 128/122/151 50/126/151 129/123/151
f 50/126/152 49/127/152 129/123/152
f 129/123/153 49/127/153 76/77/153
f 49/127/154 7/32/154 76/77/154
f 54/128/155 75/33/155 7/32/155
f 53/129/156 130/130/156 54/128/156
f 138/7/157 163/124/157 137/3/157
f 54/128/158 130/130/158 75/33/158
f 130/130/159 74/81/159 75/33/159
f 53/129/160 131/131/160 130/130/160
f 131/131/161 132/132/161 130/130/161
f 130/130/162 132/132/162 74/81/162
f 132/132/163 73/82/163 74/81/163
f 163/124/164 165/133/164 154/104/164
f 165/133/165 155/86/165 154/104/165
f 131/131/166 44/134/166 132/132/166
f 44/134/167 43/135/167 132/132/167
f 132/132/168 43/135/168 73/82/168
f 43/135/169 11/44/169 73/82/169
f 67/95/170 72/96/170 10/41/170
f 68/94/171 133/136/171 67/95/171
f 24/93/172 21/91/172 29/99/172
f 67/95/173 133/136/173 72/96/173
f 133/136/174 71/97/174 72/96/174
f 140/114/175 23/92/175 58/137/175
f 57/138/176 24/93/176 30/100/176
f 58/137/177 24/93/177 57/138/177
f 58/137/178 23/92/178 24/93/178
f 29/99/179 20/139/179 30/100/179
f 20/139/180 32/140/180 33/141/180
f 30/100/181 20/139/181 33/141/181
f 20/139/182 18/142/182 32/140/182
f 19/143/42 18/142/42 20/139/42
f 4/20/183 141/144/183 143/30/183
f 61/106/184 66/107/184 9/38/184
f 62/105/185 136/145/185 61/106/185
f 154/104/186 155/86/186 21/91/186
f 61/106/187 136/145/187 66/107/187
f 136/145/188 65/108/188 66/107/188
f 150/9/189 146/103/189 140/114/189
f 57/138/190 30/100/190 149/146/190
f 151/87/191 156/147/191 28/88/191
f 140/114/192 146/103/192 23/92/192
f 28/88/193 156/147/193 19/143/193
f 158/148/194 159/149/194 18/142/194
f 19/143/195 158/148/195 18/142/195
f 33/141/196 52/150/196 149/146/196
f 159/149/197 152/151/197 31/152/197
f 37/28/198 34/17/198 151/87/198
f 55/116/199 60/117/199 8/35/199
f 56/115/200 139/153/200 55/116/200
f 137/3/201 146/103/201 150/9/201
f 55/116/202 139/153/202 60/117/202
f 139/153/203 59/118/203 60/117/203
f 141/144/204 25/154/204 2/120/204
f 25/154/205 26/121/205 2/120/205
f 1/112/206 140/114/206 58/137/206
f 26/121/207 27/113/207 1/112/207
f 36/155/208 37/28/208 165/133/208
f 34/17/209 156/147/209 151/87/209
f 37/28/210 151/87/210 155/86/210
f 166/156/211 158/148/211 156/147/211
f 34/17/212 166/156/212 156/147/212
f 40/157/213 179/25/213 41/158/213
f 49/127/214 54/128/214 7/32/214
f 50/126/215 142/159/215 49/127/215
f 164/125/216 165/133/216 163/124/216
f 49/127/217 142/159/217 54/128/217
f 142/159/218 53/129/218 54/128/218
f 2/120/87 1/112/87 3/160/87
f 3/160/219 1/112/219 58/137/219
f 143/30/220 2/120/220 3/160/220
f 137/3/221 163/124/221 146/103/221
f 63/161/222 64/12/222 171/162/222
f 42/13/223 5/29/223 153/14/223
f 64/12/224 153/14/224 162/163/224
f 172/164/225 6/19/225 5/29/225
f 42/13/226 172/164/226 5/29/226
f 64/12/227 180/23/227 42/13/227
f 43/135/228 48/83/228 11/44/228
f 44/134/229 145/165/229 43/135/229
f 164/125/230 36/155/230 165/133/230
f 43/135/231 145/165/231 48/83/231
f 145/165/232 47/84/232 48/83/232
f 144/31/233 3/160/233 57/138/233
f 3/160/234 58/137/234 57/138/234
f 152/151/235 160/166/235 31/152/235
f 30/100/236 33/141/236 149/146/236
f 38/27/237 169/167/237 160/166/237
f 170/168/238 171/162/238 169/167/238
f 39/26/239 170/168/239 169/167/239
f 171/162/240 162/163/240 161/169/240
f 45/170/241 13/18/241 51/21/241
f 52/150/242 14/22/242 144/31/242
f 13/18/72 4/20/72 14/22/72
f 161/169/243 162/163/243 15/171/243
f 52/150/244 144/31/244 149/146/244
f 160/166/245 161/169/245 16/172/245
f 29/99/246 19/143/246 20/139/246
f 16/172/247 161/169/247 15/171/247
f 153/14/248 5/29/248 45/170/248
f 28/88/249 19/143/249 29/99/249
f 18/142/250 31/152/250 32/140/250
f 162/163/251 153/14/251 45/170/251
f 17/173/252 51/21/252 52/150/252
f 33/141/253 17/173/253 52/150/253
f 15/171/254 45/170/254 51/21/254
f 17/173/255 15/171/255 51/21/255
f 45/170/256 5/29/256 13/18/256
f 6/19/257 22/174/257 4/20/257
f 31/152/258 160/166/258 16/172/258
f 32/140/259 16/172/259 17/173/259
f 16/172/57 15/171/57 17/173/57
f 18/142/260 159/149/260 31/152/260
f 31/152/261 16/172/261 32/140/261
f 157/11/262 25/154/262 141/144/262
f 156/147/263 158/148/263 19/143/263
f 32/140/264 17/173/264 33/141/264
f 167/175/265 168/176/265 166/156/265
f 167/175/266 40/157/266 168/176/266
f 168/176/267 159/149/267 158/148/267
f 38/27/268 160/166/268 152/151/268
f 41/158/269 152/151/269 159/149/269
f 36/155/270 178/15/270 37/28/270
f 41/158/271 38/27/271 152/151/271
f 39/26/272 169/167/272 38/27/272
f 40/157/273 41/158/273 168/176/273
f 168/176/274 41/158/274 159/149/274
f 35/16/275 166/156/275 34/17/275
f 166/156/276 168/176/276 158/148/276
f 141/144/277 2/120/277 143/30/277
f 165/133/278 37/28/278 155/86/278
f 35/16/279 167/175/279 166/156/279
f 175/177/280 26/121/280 25/154/280
f 175/177/281 177/178/281 26/121/281
f 176/179/282 177/178/282 175/177/282
f 177/178/283 148/1/283 27/113/283
f 147/8/284 148/1/284 177/178/284
f 41/158/285 179/25/285 38/27/285
f 14/22/286 4/20/286 143/30/286
f 170/168/287 63/161/287 171/162/287
f 169/167/288 171/162/288 161/169/288
f 51/21/289 14/22/289 52/150/289
f 15/171/290 162/163/290 45/170/290
f 169/167/291 161/169/291 160/166/291
f 143/30/292 3/160/292 144/31/292
f 22/174/293 157/11/293 141/144/293
f 144/31/294 57/138/294 149/146/294
f 172/164/295 174/180/295 6/19/295
f 134/4/296 135/6/296 174/180/296
f 173/181/297 134/4/297 174/180/297
f 69/10/298 25/154/298 157/11/298
f 135/6/299 157/11/299 22/174/299
f 181/5/300 70/182/300 69/10/300
f 63/161/301 180/23/301 64/12/301
f 148/1/302 150/9/302 27/113/302
f 177/178/303 27/113/303 26/121/303
f 176/179/304 147/8/304 177/178/304
f 46/24/305 172/164/305 42/13/305
f 70/182/306 176/179/306 175/177/306
f 4/20/307 22/174/307 141/144/307
f 171/162/308 64/12/308 162/163/308
f 46/24/309 173/181/309 172/164/309
f 69/10/310 175/177/310 25/154/310
f 70/182/311 175/177/311 69/10/311
f 174/180/312 22/174/312 6/19/312
f 174/180/313 135/6/313 22/174/313
f 173/181/314 174/180/314 172/164/314
f 135/6/315 181/5/315 69/10/315
f 173/181/316 46/24/316 187/183/316 196/184/316
f 167/175/316 35/16/316 183/185/316 194/186/316
f 46/24/316 180/23/316 200/187/316 187/183/316
f 63/161/316 170/168/316 195/188/316 188/189/316
f 180/23/316 63/161/316 188/189/316 200/187/316
f 147/8/316 176/179/316 197/190/316 192/191/316
f 40/157/316 167/175/316 194/186/316 186/192/316
f 178/15/316 36/155/316 184/193/316 198/194/316
f 39/26/316 179/25/316 199/195/316 185/196/316
f 138/7/316 182/2/316 202/197/316 191/198/316
f 176/179/316 70/182/316 189/199/316 197/190/316
f 179/25/316 40/157/316 186/192/316 199/195/316
f 182/2/316 147/8/316 192/191/316 202/197/316
f 36/155/316 164/125/316 193/200/316 184/193/316
f 70/182/316 181/5/316 201/201/316 189/199/316
f 164/125/316 138/7/316 191/198/316 193/200/316
f 134/4/316 173/181/316 196/184/316 190/202/316
f 35/16/316 178/15/316 198/194/316 183/185/316
f 170/168/316 39/26/316 185/196/316 195/188/316
f 181/5/316 134/4/316 190/202/316 201/201/316
f 198/203/317 184/204/317 204/205/317 218/206/317
f 200/207/318 188/208/318 208/209/318 220/210/318
f 193/211/319 191/212/319 211/213/319 213/214/319
f 197/215/320 189/216/320 209/217/320 217/218/320
f 189/216/321 201/219/321 221/220/321 209/217/321
f 196/221/322 187/222/322 207/223/322 216/224/322
f 183/225/323 198/203/323 218/206/323 203/226/323
f 201/219/324 190/227/324 210/228/324 221/220/324
f 190/227/325 196/221/325 216/224/325 210/228/325
f 188/208/326 195/229/326 215/230/326 208/209/326
f 191/212/327 202/231/327 222/232/327 211/213/327
f 195/229/328 185/233/328 205/234/328 215/230/328
f 192/235/329 197/215/329 217/218/329 212/236/329
f 202/231/330 192/235/330 212/236/330 222/232/330
f 185/233/331 199/237/331 219/238/331 205/234/331
f 184/204/332 193/211/332 213/214/332 204/205/332
f 199/237/333 186/239/333 206/240/333 219/238/333
f 194/241/334 183/225/334 203/226/334 214/242/334
f 187/222/335 200/207/335 220/210/335 207/223/335
f 186/239/336 194/241/336 214/242/336 206/240/336
f 205/243/337 219/244/337 239/245/337 225/246/337
f 204/247/338 213/248/338 233/249/338 224/250/338
f 219/244/339 206/251/339 226/252/339 239/245/339
f 214/253/340 203/254/340 223/255/340 234/256/340
f 207/257/341 220/258/341 240/259/341 227/260/341
f 206/251/342 214/253/342 234/256/342 226/252/342
f 218/261/343 204/247/343 224/250/343 238/262/343
f 220/258/344 208/263/344 228/264/344 240/259/344
f 213/248/345 211/265/345 231/266/345 233/249/345
f 217/267/346 209/268/346 229/269/346 237/270/346
f 209/268/347 221/271/347 241/272/347 229/269/347
f 216/273/348 207/257/348 227/260/348 236/274/348
f 203/254/349 218/261/349 238/262/349 223/255/349
f 221/271/350 210/275/350 230/276/350 241/272/350
f 210/275/351 216/273/351 236/274/351 230/276/351
f 208/263/352 215/277/352 235/278/352 228/264/352
f 211/265/353 222/279/353 242/280/353 231/266/353
f 215/277/354 205/281/354 225/282/354 235/278/354
f 212/283/355 217/267/355 237/270/355 232/284/355
f 222/279/356 212/283/356 232/284/356 242/280/356
f 238/285/357 224/286/357 233/287/357 231/288/357 242/289/357 232/290/357 237/291/357 229/292/357 241/293/357 230/294/357 236/295/357 227/296/357 240/297/357 228/298/357 235/278/357 225/282/357 239/299/357 226/300/357 234/301/357 223/302/357
