# Blender 3.6.0
# www.blender.org
mtllib kupkalisci.mtl
o Grid
v -1.118870 0.020000 1.070260
v -0.910187 0.020000 1.160510
v -0.686361 0.020000 1.273333
v -0.453679 0.020000 1.385690
v -0.221588 0.020000 1.469086
v 0.000080 0.020000 1.500000
v 0.221588 0.020000 1.469129
v 0.453679 0.020000 1.385760
v 0.686361 0.020000 1.273415
v 0.910187 0.020000 1.160587
v 1.118870 0.020000 1.070320
v -1.215292 0.020000 0.833790
v -1.002832 0.020000 0.908952
v -0.768185 0.020000 1.018407
v -0.518816 0.035533 1.138289
v -0.265075 0.060718 1.233589
v 0.003590 0.071969 1.272924
v 0.265469 0.060718 1.233522
v 0.518816 0.035533 1.138361
v 0.768185 0.020000 1.018486
v 0.994372 0.045838 0.914038
v 1.215292 0.020000 0.833833
v -1.316910 0.020000 0.605168
v -1.100703 0.020000 0.652024
v -0.855264 0.050922 0.744104
v -0.588197 0.114921 0.857355
v -0.302195 0.172892 0.953630
v 0.012744 0.195896 0.992894
v 0.313654 0.172892 0.950515
v 0.587539 0.116502 0.858769
v 0.834057 0.095989 0.807693
v 1.092763 0.043376 0.656224
v 1.316910 0.020000 0.605185
v -1.408431 0.020000 0.400000
v -1.188430 0.035533 0.411567
v -0.929903 0.114921 0.473293
v -0.641537 0.220900 0.564927
v -0.321224 0.309272 0.646165
v 0.020798 0.343808 0.674810
v 0.345695 0.309272 0.640593
v 0.637292 0.230072 0.572468
v 0.909393 0.160084 0.509675
v 1.184111 0.046723 0.419221
v 1.408431 0.020000 0.400000
v -1.474559 0.020000 0.200000
v -1.250294 0.060718 0.200000
v -0.977329 0.172892 0.223498
v -0.655517 0.336095 0.295905
v -0.326092 0.423965 0.318802
v 0.022692 0.467735 0.326789
v 0.356179 0.422389 0.315214
v 0.668785 0.309520 0.281417
v 0.974799 0.200209 0.244116
v 1.249928 0.061927 0.200707
v 1.474559 0.020000 0.200000
v -1.500000 0.020000 0.000000
v -1.272931 0.071969 0.000000
v -0.988461 0.207003 0.004442
v -0.615105 0.436957 0.031257
v -0.321364 0.482917 -0.007257
v 0.021961 0.519704 -0.021923
v 0.356551 0.467735 -0.016447
v 0.677523 0.349329 0.000419
v 1.008347 0.240708 0.035598
v 1.276142 0.079564 0.005741
v 1.500000 0.020000 0.000000
v -1.474559 0.020000 -0.200000
v -1.250294 0.060718 -0.200000
v -0.965622 0.175188 -0.232455
v -0.481588 0.381595 -0.406452
v -0.270220 0.441911 -0.372543
v 0.022692 0.467735 -0.356420
v 0.368090 0.432982 -0.336497
v 0.670949 0.311472 -0.284317
v 0.984695 0.186642 -0.209987
v 1.250315 0.060753 -0.199974
v 1.474559 0.020000 -0.200000
v -1.408431 0.020000 -0.400000
v -1.188430 0.035533 -0.411567
v -0.929903 0.114921 -0.473293
v -0.598617 0.239388 -0.597527
v -0.239337 0.361145 -0.675330
v 0.070811 0.378793 -0.682357
v 0.405730 0.365042 -0.643162
v 0.655500 0.233927 -0.565199
v 0.929903 0.114921 -0.473343
v 1.188430 0.035533 -0.411591
v 1.408431 0.020000 -0.400000
v -1.316910 0.020000 -0.605168
v -1.100703 0.020000 -0.652024
v -0.855264 0.050922 -0.744104
v -0.588197 0.114921 -0.857355
v -0.291486 0.180522 -0.958581
v 0.013712 0.196599 -0.993091
v 0.322620 0.181003 -0.950995
v 0.588197 0.114921 -0.857422
v 0.855264 0.050922 -0.744172
v 1.100703 0.020000 -0.652074
v 1.316910 0.020000 -0.605185
v -1.215292 0.020000 -0.833790
v -1.002832 0.020000 -0.908952
v -0.768185 0.020000 -1.018407
v -0.518816 0.035533 -1.138289
v -0.265075 0.060718 -1.233589
v 0.003590 0.071969 -1.272924
v 0.265469 0.060718 -1.233522
v 0.518816 0.035533 -1.138361
v 0.768185 0.020000 -1.018486
v 1.002832 0.020000 -0.909020
v 1.215292 0.020000 -0.833833
v -1.118870 0.020000 -1.070260
v -0.910187 0.020000 -1.160510
v -0.686361 0.020000 -1.273333
v -0.453679 0.020000 -1.385690
v -0.221588 0.020000 -1.469086
v 0.000080 0.020000 -1.500000
v 0.221588 0.020000 -1.469129
v 0.453679 0.020000 -1.385760
v 0.686361 0.020000 -1.273415
v 0.910187 0.020000 -1.160587
v 1.118870 0.020000 -1.070320
v -1.118870 -0.030000 1.070260
v -0.910187 -0.030000 1.160510
v -0.686361 -0.030000 1.273333
v -0.453679 -0.030000 1.385690
v -0.221588 -0.030000 1.469086
v 0.000080 -0.030000 1.500000
v 0.221588 -0.030000 1.469129
v 0.453679 -0.030000 1.385760
v 0.686361 -0.030000 1.273415
v 0.910187 -0.030000 1.160587
v 1.118870 -0.030000 1.070320
v -1.215292 -0.030000 0.833790
v 1.215292 -0.030000 0.833833
v -1.316910 -0.030000 0.605168
v 1.316910 -0.030000 0.605185
v -1.408431 -0.030000 0.400000
v 1.408431 -0.030000 0.400000
v -1.474559 -0.030000 0.200000
v 1.474559 -0.030000 0.200000
v -1.500000 -0.030000 0.000000
v 1.500000 -0.030000 0.000000
v -1.474559 -0.030000 -0.200000
v 1.474559 -0.030000 -0.200000
v -1.408431 -0.030000 -0.400000
v 1.408431 -0.030000 -0.400000
v -1.316910 -0.030000 -0.605168
v 1.316910 -0.030000 -0.605185
v -1.215292 -0.030000 -0.833790
v 1.215292 -0.030000 -0.833833
v -1.118870 -0.030000 -1.070260
v -0.910187 -0.030000 -1.160510
v -0.686361 -0.030000 -1.273333
v -0.453679 -0.030000 -1.385690
v -0.221588 -0.030000 -1.469086
v 0.000080 -0.030000 -1.500000
v 0.221588 -0.030000 -1.469129
v 0.453679 -0.030000 -1.385760
v 0.686361 -0.030000 -1.273415
v 0.910187 -0.030000 -1.160587
v 1.118870 -0.030000 -1.070320
vn -0.0000 1.0000 -0.0000
vn -0.0547 0.9974 0.0468
vn -0.1017 0.9852 0.1376
vn -0.0512 0.9784 0.2005
vn 0.0520 0.9782 0.2013
vn 0.1018 0.9852 0.1377
vn 0.0547 0.9974 0.0468
vn -0.0387 0.9985 0.0386
vn 0.0947 0.9916 0.0885
vn -0.1030 0.9903 0.0935
vn -0.2598 0.9305 0.2581
vn -0.2645 0.8961 0.3563
vn -0.1063 0.9143 0.3908
vn 0.1128 0.9122 0.3940
vn 0.2666 0.8932 0.3620
vn 0.1860 0.9198 0.3455
vn 0.1633 0.9643 0.2085
vn 0.1231 0.9914 0.0456
vn -0.0425 0.9978 0.0519
vn -0.2751 0.9329 0.2325
vn -0.3889 0.8538 0.3460
vn -0.3220 0.8637 0.3878
vn -0.1217 0.9028 0.4124
vn 0.1336 0.8996 0.4158
vn 0.3196 0.8574 0.4033
vn 0.2318 0.9158 0.3281
vn 0.3834 0.8939 0.2321
vn 0.1197 0.9912 0.0570
vn -0.1275 0.9868 0.1001
vn -0.3634 0.8980 0.2480
vn -0.4539 0.8277 0.3300
vn -0.2971 0.8877 0.3516
vn -0.1236 0.9355 0.3311
vn 0.1363 0.9337 0.3312
vn 0.3347 0.8927 0.3017
vn 0.3262 0.9109 0.2525
vn 0.4498 0.8654 0.2208
vn 0.1543 0.9844 0.0844
vn -0.2009 0.9782 0.0517
vn -0.4074 0.9039 0.1307
vn -0.5038 0.8394 0.2037
vn -0.1979 0.9499 0.2419
vn -0.1126 0.9806 0.1605
vn 0.1440 0.9796 0.1400
vn 0.3430 0.9297 0.1343
vn 0.3190 0.9305 0.1802
vn 0.4937 0.8474 0.1952
vn 0.2211 0.9726 0.0723
vn -0.2009 0.9782 -0.0517
vn -0.4034 0.9055 -0.1313
vn -0.4722 0.8537 -0.2198
vn -0.2046 0.9652 -0.1629
vn -0.0967 0.9857 -0.1381
vn 0.1302 0.9832 -0.1278
vn 0.3672 0.9238 -0.1079
vn 0.3618 0.9149 -0.1792
vn 0.4597 0.8674 -0.1905
vn 0.2170 0.9735 -0.0726
vn -0.1275 0.9868 -0.1001
vn -0.3635 0.8980 -0.2480
vn -0.4522 0.8373 -0.3074
vn -0.3092 0.8858 -0.3460
vn -0.0653 0.9613 -0.2677
vn 0.0890 0.9695 -0.2284
vn 0.4458 0.8727 -0.1992
vn 0.4353 0.8523 -0.2899
vn 0.3830 0.8821 -0.2741
vn 0.1276 0.9868 -0.1002
vn -0.0425 0.9978 -0.0519
vn -0.2751 0.9329 -0.2325
vn -0.4079 0.8378 -0.3629
vn -0.3553 0.8264 -0.4369
vn -0.0813 0.8572 -0.5086
vn 0.1047 0.8452 -0.5241
vn 0.4490 0.7472 -0.4899
vn 0.4211 0.8260 -0.3746
vn 0.2752 0.9329 -0.2325
vn 0.0425 0.9978 -0.0519
vn -0.1030 0.9903 -0.0935
vn -0.2598 0.9305 -0.2581
vn -0.2772 0.8883 -0.3661
vn -0.0953 0.9099 -0.4037
vn 0.1009 0.9077 -0.4074
vn 0.2917 0.8791 -0.3770
vn 0.2598 0.9305 -0.2581
vn 0.1030 0.9903 -0.0935
vn -0.0547 0.9974 -0.0468
vn -0.1017 0.9852 -0.1376
vn -0.0512 0.9784 -0.2005
vn 0.0520 0.9782 -0.2013
vn 0.1018 0.9852 -0.1377
vn 0.0547 0.9974 -0.0468
vn -0.9260 -0.0000 -0.3776
vn 0.9494 -0.0000 0.3139
vn 0.4501 -0.0000 0.8930
vn -0.9133 -0.0000 0.4074
vn 0.3381 -0.0000 -0.9411
vn -0.1381 -0.0000 0.9904
vn -0.3969 -0.0000 -0.9178
vn 0.9920 -0.0000 -0.1262
vn -0.9260 -0.0000 0.3776
vn -0.9920 -0.0000 0.1262
vn 0.4348 -0.0000 -0.9005
vn -0.3969 -0.0000 0.9178
vn 0.3970 -0.0000 0.9178
vn 0.9133 -0.0000 -0.4074
vn -0.4501 -0.0000 -0.8930
vn -0.9494 -0.0000 -0.3139
vn 0.9260 -0.0000 0.3776
vn 0.4501 -0.0000 -0.8930
vn 0.1380 -0.0000 0.9904
vn 0.9260 -0.0000 -0.3776
vn -0.9138 -0.0000 -0.4062
vn -0.4348 -0.0000 -0.9005
vn 0.9133 -0.0000 0.4074
vn -0.4501 -0.0000 0.8930
vn -0.9138 -0.0000 0.4062
vn 0.3970 -0.0000 -0.9178
vn 0.3381 -0.0000 0.9411
vn 0.9920 -0.0000 0.1262
vn -0.3382 -0.0000 -0.9411
vn -0.9494 -0.0000 0.3139
vn -0.4348 -0.0000 0.9005
vn 0.9494 -0.0000 -0.3139
vn -0.9920 -0.0000 -0.1262
vn -0.1381 -0.0000 -0.9904
vn 0.4348 -0.0000 0.9005
vn 0.9138 -0.0000 -0.4061
vn -0.9133 -0.0000 -0.4074
vn 0.9138 -0.0000 0.4061
vn 0.1380 -0.0000 -0.9904
vn -0.3382 -0.0000 0.9411
vt 0.000000 0.000000
vt 0.100000 0.000000
vt 0.100000 0.100000
vt 0.000000 0.100000
vt 0.200000 0.000000
vt 0.200000 0.100000
vt 0.300000 0.000000
vt 0.300000 0.100000
vt 0.200000 0.100000
vt 0.400000 0.000000
vt 0.400000 0.100000
vt 0.500000 0.000000
vt 0.500000 0.100000
vt 0.600000 0.000000
vt 0.600000 0.100000
vt 0.700000 0.000000
vt 0.700000 0.100000
vt 0.800000 0.000000
vt 0.800000 0.100000
vt 0.900000 0.000000
vt 0.900000 0.100000
vt 1.000000 0.000000
vt 1.000000 0.100000
vt 0.100000 0.200000
vt 0.000000 0.200000
vt 0.200000 0.200000
vt 0.300000 0.200000
vt 0.200000 0.200000
vt 0.400000 0.200000
vt 0.500000 0.200000
vt 0.600000 0.200000
vt 0.700000 0.200000
vt 0.800000 0.200000
vt 0.900000 0.200000
vt 1.000000 0.200000
vt 0.000000 0.200000
vt 0.100000 0.200000
vt 0.100000 0.300000
vt 0.000000 0.300000
vt 0.200000 0.200000
vt 0.200000 0.300000
vt 0.300000 0.200000
vt 0.300000 0.300000
vt 0.200000 0.300000
vt 0.400000 0.200000
vt 0.400000 0.300000
vt 0.500000 0.200000
vt 0.500000 0.300000
vt 0.600000 0.200000
vt 0.600000 0.300000
vt 0.700000 0.200000
vt 0.700000 0.300000
vt 0.800000 0.200000
vt 0.800000 0.300000
vt 0.900000 0.200000
vt 0.900000 0.300000
vt 1.000000 0.200000
vt 1.000000 0.300000
vt 0.100000 0.400000
vt 0.000000 0.400000
vt 0.200000 0.400000
vt 0.300000 0.400000
vt 0.200000 0.400000
vt 0.400000 0.400000
vt 0.500000 0.400000
vt 0.600000 0.400000
vt 0.700000 0.400000
vt 0.800000 0.400000
vt 0.900000 0.400000
vt 1.000000 0.400000
vt 0.100000 0.500000
vt 0.000000 0.500000
vt 0.200000 0.500000
vt 0.300000 0.500000
vt 0.200000 0.500000
vt 0.400000 0.500000
vt 0.500000 0.500000
vt 0.600000 0.500000
vt 0.700000 0.500000
vt 0.800000 0.500000
vt 0.900000 0.500000
vt 1.000000 0.500000
vt 0.100000 0.600000
vt 0.000000 0.600000
vt 0.200000 0.600000
vt 0.300000 0.600000
vt 0.200000 0.600000
vt 0.400000 0.600000
vt 0.500000 0.600000
vt 0.600000 0.600000
vt 0.700000 0.600000
vt 0.800000 0.600000
vt 0.900000 0.600000
vt 1.000000 0.600000
vt 0.100000 0.700000
vt 0.000000 0.700000
vt 0.200000 0.700000
vt 0.300000 0.700000
vt 0.200000 0.700000
vt 0.400000 0.700000
vt 0.500000 0.700000
vt 0.600000 0.700000
vt 0.700000 0.700000
vt 0.800000 0.700000
vt 0.900000 0.700000
vt 1.000000 0.700000
vt 0.100000 0.800000
vt 0.000000 0.800000
vt 0.200000 0.800000
vt 0.300000 0.800000
vt 0.200000 0.800000
vt 0.400000 0.800000
vt 0.500000 0.800000
vt 0.600000 0.800000
vt 0.700000 0.800000
vt 0.800000 0.800000
vt 0.900000 0.800000
vt 1.000000 0.800000
vt 0.100000 0.900000
vt 0.000000 0.900000
vt 0.200000 0.900000
vt 0.300000 0.900000
vt 0.200000 0.900000
vt 0.400000 0.900000
vt 0.500000 0.900000
vt 0.600000 0.900000
vt 0.700000 0.900000
vt 0.800000 0.900000
vt 0.900000 0.900000
vt 1.000000 0.900000
vt 0.100000 1.000000
vt 0.000000 1.000000
vt 0.200000 1.000000
vt 0.300000 1.000000
vt 0.200000 1.000000
vt 0.400000 1.000000
vt 0.500000 1.000000
vt 0.600000 1.000000
vt 0.700000 1.000000
vt 0.800000 1.000000
vt 0.900000 1.000000
vt 1.000000 1.000000
s 0
usemtl Material
f 1/1/1 2/2/1 13/3/1 12/4/1
f 2/2/1 3/5/1 14/6/1 13/3/1
f 3/5/2 4/7/2 15/8/2 14/9/2
f 4/7/3 5/10/3 16/11/3 15/8/3
f 5/10/4 6/12/4 17/13/4 16/11/4
f 6/12/5 7/14/5 18/15/5 17/13/5
f 7/14/6 8/16/6 19/17/6 18/15/6
f 8/16/7 9/18/7 20/19/7 19/17/7
f 9/18/8 10/20/8 21/21/8 20/19/8
f 10/20/9 11/22/9 22/23/9 21/21/9
f 12/4/1 13/3/1 24/24/1 23/25/1
f 13/3/10 14/6/10 25/26/10 24/24/10
f 14/6/11 15/8/11 26/27/11 25/28/11
f 15/8/12 16/11/12 27/29/12 26/27/12
f 16/11/13 17/13/13 28/30/13 27/29/13
f 17/13/14 18/15/14 29/31/14 28/30/14
f 18/15/15 19/17/15 30/32/15 29/31/15
f 19/17/16 20/19/16 31/33/16 30/32/16
f 20/19/17 21/21/17 32/34/17 31/33/17
f 21/21/18 22/23/18 33/35/18 32/34/18
f 23/36/19 24/37/19 35/38/19 34/39/19
f 24/37/20 25/40/20 36/41/20 35/38/20
f 25/40/21 26/42/21 37/43/21 36/44/21
f 26/42/22 27/45/22 38/46/22 37/43/22
f 27/45/23 28/47/23 39/48/23 38/46/23
f 28/47/24 29/49/24 40/50/24 39/48/24
f 29/49/25 30/51/25 41/52/25 40/50/25
f 30/51/26 31/53/26 42/54/26 41/52/26
f 31/53/27 32/55/27 43/56/27 42/54/27
f 32/55/28 33/57/28 44/58/28 43/56/28
f 34/39/29 35/38/29 46/59/29 45/60/29
f 35/38/30 36/41/30 47/61/30 46/59/30
f 36/41/31 37/43/31 48/62/31 47/63/31
f 37/43/32 38/46/32 49/64/32 48/62/32
f 38/46/33 39/48/33 50/65/33 49/64/33
f 39/48/34 40/50/34 51/66/34 50/65/34
f 40/50/35 41/52/35 52/67/35 51/66/35
f 41/52/36 42/54/36 53/68/36 52/67/36
f 42/54/37 43/56/37 54/69/37 53/68/37
f 43/56/38 44/58/38 55/70/38 54/69/38
f 45/60/39 46/59/39 57/71/39 56/72/39
f 46/59/40 47/61/40 58/73/40 57/71/40
f 47/61/41 48/62/41 59/74/41 58/75/41
f 48/62/42 49/64/42 60/76/42 59/74/42
f 49/64/43 50/65/43 61/77/43 60/76/43
f 50/65/44 51/66/44 62/78/44 61/77/44
f 51/66/45 52/67/45 63/79/45 62/78/45
f 52/67/46 53/68/46 64/80/46 63/79/46
f 53/68/47 54/69/47 65/81/47 64/80/47
f 54/69/48 55/70/48 66/82/48 65/81/48
f 56/72/49 57/71/49 68/83/49 67/84/49
f 57/71/50 58/73/50 69/85/50 68/83/50
f 58/73/51 59/74/51 70/86/51 69/87/51
f 59/74/52 60/76/52 71/88/52 70/86/52
f 60/76/53 61/77/53 72/89/53 71/88/53
f 61/77/54 62/78/54 73/90/54 72/89/54
f 62/78/55 63/79/55 74/91/55 73/90/55
f 63/79/56 64/80/56 75/92/56 74/91/56
f 64/80/57 65/81/57 76/93/57 75/92/57
f 65/81/58 66/82/58 77/94/58 76/93/58
f 67/84/59 68/83/59 79/95/59 78/96/59
f 68/83/60 69/85/60 80/97/60 79/95/60
f 69/85/61 70/86/61 81/98/61 80/99/61
f 70/86/62 71/88/62 82/100/62 81/98/62
f 71/88/63 72/89/63 83/101/63 82/100/63
f 72/89/64 73/90/64 84/102/64 83/101/64
f 73/90/65 74/91/65 85/103/65 84/102/65
f 74/91/66 75/92/66 86/104/66 85/103/66
f 75/92/67 76/93/67 87/105/67 86/104/67
f 76/93/68 77/94/68 88/106/68 87/105/68
f 78/96/69 79/95/69 90/107/69 89/108/69
f 79/95/70 80/97/70 91/109/70 90/107/70
f 80/97/71 81/98/71 92/110/71 91/111/71
f 81/98/72 82/100/72 93/112/72 92/110/72
f 82/100/73 83/101/73 94/113/73 93/112/73
f 83/101/74 84/102/74 95/114/74 94/113/74
f 84/102/75 85/103/75 96/115/75 95/114/75
f 85/103/76 86/104/76 97/116/76 96/115/76
f 86/104/77 87/105/77 98/117/77 97/116/77
f 87/105/78 88/106/78 99/118/78 98/117/78
f 89/108/1 90/107/1 101/119/1 100/120/1
f 90/107/79 91/109/79 102/121/79 101/119/79
f 91/109/80 92/110/80 103/122/80 102/123/80
f 92/110/81 93/112/81 104/124/81 103/122/81
f 93/112/82 94/113/82 105/125/82 104/124/82
f 94/113/83 95/114/83 106/126/83 105/125/83
f 95/114/84 96/115/84 107/127/84 106/126/84
f 96/115/85 97/116/85 108/128/85 107/127/85
f 97/116/86 98/117/86 109/129/86 108/128/86
f 98/117/1 99/118/1 110/130/1 109/129/1
f 100/120/1 101/119/1 112/131/1 111/132/1
f 101/119/1 102/121/1 113/133/1 112/131/1
f 102/121/87 103/122/87 114/134/87 113/135/87
f 103/122/88 104/124/88 115/136/88 114/134/88
f 104/124/89 105/125/89 116/137/89 115/136/89
f 105/125/90 106/126/90 117/138/90 116/137/90
f 106/126/91 107/127/91 118/139/91 117/138/91
f 107/127/92 108/128/92 119/140/92 118/139/92
f 108/128/1 109/129/1 120/141/1 119/140/1
f 109/129/1 110/130/1 121/142/1 120/141/1
f 100/120/93 111/132/93 151/132/93 149/120/93
f 55/70/94 44/58/94 138/58/94 140/70/94
f 10/20/95 9/18/95 130/18/95 131/20/95
f 23/36/96 34/39/96 137/39/96 135/36/96
f 117/138/97 118/139/97 158/139/97 157/138/97
f 6/12/98 5/10/98 126/10/98 127/12/98
f 111/132/99 112/131/99 152/131/99 151/132/99
f 77/94/100 66/82/100 142/82/100 144/94/100
f 1/1/101 12/4/101 133/4/101 122/1/101
f 45/60/102 56/72/102 141/72/102 139/60/102
f 118/139/103 119/140/103 159/140/103 158/139/103
f 2/2/104 1/1/104 122/1/104 123/2/104
f 11/22/105 10/20/105 131/20/105 132/22/105
f 99/118/106 88/106/106 146/106/106 148/118/106
f 112/131/107 113/133/107 153/133/107 152/131/107
f 67/84/108 78/96/108 145/96/108 143/84/108
f 22/23/109 11/22/109 132/22/109 134/23/109
f 119/140/110 120/141/110 160/141/110 159/140/110
f 7/14/111 6/12/111 127/12/111 128/14/111
f 121/142/112 110/130/112 150/130/112 161/142/112
f 89/108/113 100/120/113 149/120/113 147/108/113
f 113/135/114 114/134/114 154/134/114 153/135/114
f 44/58/115 33/57/115 136/57/115 138/58/115
f 3/5/116 2/2/116 123/2/116 124/5/116
f 12/4/117 23/25/117 135/25/117 133/4/117
f 120/141/118 121/142/118 161/142/118 160/141/118
f 8/16/119 7/14/119 128/14/119 129/16/119
f 66/82/120 55/70/120 140/70/120 142/82/120
f 114/134/121 115/136/121 155/136/121 154/134/121
f 34/39/122 45/60/122 139/60/122 137/39/122
f 4/7/123 3/5/123 124/5/123 125/7/123
f 88/106/124 77/94/124 144/94/124 146/106/124
f 56/72/125 67/84/125 143/84/125 141/72/125
f 115/136/126 116/137/126 156/137/126 155/136/126
f 9/18/127 8/16/127 129/16/127 130/18/127
f 110/130/128 99/118/128 148/118/128 150/130/128
f 78/96/129 89/108/129 147/108/129 145/96/129
f 33/35/130 22/23/130 134/23/130 136/35/130
f 116/137/131 117/138/131 157/138/131 156/137/131
f 5/10/132 4/7/132 125/7/132 126/10/132
