# Blender 3.6.0
# www.blender.org
mtllib płyty_chodnikowe.mtl
o Cube
v -0.250000 -0.050000 0.250000
v -0.250000 0.050000 0.250000
v -0.250000 -0.050000 -0.250000
v -0.250000 0.050000 -0.250000
v 0.250000 -0.050000 0.250000
v 0.250000 0.050000 0.250000
v 0.250000 -0.050000 -0.250000
v 0.250000 0.050000 -0.250000
vn -1.0000 -0.0000 -0.0000
vn -0.0000 -0.0000 -1.0000
vn 1.0000 -0.0000 -0.0000
vn -0.0000 -0.0000 1.0000
vn -0.0000 -1.0000 -0.0000
vn -0.0000 1.0000 -0.0000
vt 0.083333 0.583333
vt 0.083333 0.500000
vt 0.500000 0.500000
vt 0.500000 0.583333
vt 0.583333 0.500000
vt 0.500000 0.083333
vt 0.583333 0.083333
vt 0.500000 0.000000
vt 0.083333 0.083333
vt 0.083333 0.000000
vt 0.000000 0.083333
vt 0.000000 0.500000
vt 0.500000 1.000000
vt 0.083333 1.000000
s 0
usemtl Material
f 1/1/1 2/2/1 4/3/1 3/4/1
f 3/5/2 4/3/2 8/6/2 7/7/2
f 7/8/3 8/6/3 6/9/3 5/10/3
f 5/11/4 6/9/4 2/2/4 1/12/4
f 3/4/5 7/13/5 5/14/5 1/1/5
f 8/6/6 4/3/6 2/2/6 6/9/6
