# Blender v2.93.11 OBJ File: ''
# www.blender.org
mtllib znicz3.mtl
o znicz3
v 0.070000 0.000000 -0.121244
v 0.121244 0.000000 -0.070000
v 0.086603 0.060000 -0.050000
v 0.050000 0.060000 -0.086603
v -0.070000 0.000000 -0.121244
v 0.000000 0.000000 -0.140000
v 0.000000 0.060000 -0.100000
v -0.050000 0.060000 -0.086603
v 0.121244 -0.000000 0.070000
v 0.070000 -0.000000 0.121244
v 0.050000 0.060000 0.086603
v 0.086603 0.060000 0.050000
v -0.070000 -0.000000 0.121244
v -0.121244 -0.000000 0.070000
v -0.086310 0.059980 0.049304
v -0.050000 0.060000 0.086603
v -0.121244 0.000000 -0.070000
v -0.086603 0.060000 -0.050000
v 0.140000 0.000000 0.000000
v 0.100000 0.060000 0.000000
v 0.000000 -0.000000 0.140000
v 0.000000 0.060000 0.100000
v -0.140000 0.000000 0.000000
v -0.100000 0.060000 0.000000
v 0.149282 0.080000 0.040000
v -0.108989 0.079980 0.108586
v 0.040000 0.080000 0.149282
v -0.149282 0.080000 -0.040000
v 0.109282 0.080000 -0.109282
v -0.040000 0.080000 -0.149282
v 0.040000 0.480000 0.149282
v 0.149282 0.480000 0.040000
v -0.040000 0.480000 -0.149282
v -0.149282 0.480000 -0.040000
v 0.109282 0.480000 -0.109282
v -0.109282 0.480000 0.109282
v 0.050000 0.520000 0.086603
v 0.086603 0.520000 0.050000
v -0.050000 0.520000 0.086603
v 0.000000 0.520000 0.100000
v -0.100000 0.520000 0.000000
v -0.086603 0.520000 0.050000
v -0.050000 0.520000 -0.086603
v -0.086603 0.520000 -0.050000
v 0.050000 0.520000 -0.086603
v 0.000000 0.520000 -0.100000
v 0.100000 0.520000 0.000000
v 0.086603 0.520000 -0.050000
v 0.045000 0.580000 0.077942
v 0.077942 0.580000 0.045000
v -0.077942 0.580000 0.045000
v -0.045000 0.580000 0.077942
v 0.045000 0.580000 -0.077942
v 0.000000 0.580000 -0.090000
v -0.045000 0.580000 -0.077942
v -0.077942 0.580000 -0.045000
v 0.090000 0.580000 0.000000
v 0.000000 0.580000 0.090000
v -0.090000 0.580000 0.000000
v 0.077942 0.580000 -0.045000
v -0.051962 0.630000 0.030000
v -0.030000 0.630000 0.051962
v 0.030000 0.630000 -0.051962
v 0.000000 0.630000 -0.060000
v -0.030000 0.630000 -0.051962
v -0.051962 0.630000 -0.030000
v 0.051962 0.630000 0.030000
v 0.060000 0.630000 0.000000
v 0.000000 0.630000 0.060000
v -0.060000 0.630000 0.000000
v 0.051962 0.630000 -0.030000
v 0.030000 0.630000 0.051962
v 0.005000 0.680000 0.008660
v 0.008660 0.680000 0.005000
v -0.008660 0.680000 0.005000
v -0.005000 0.680000 0.008660
v 0.005000 0.680000 -0.008660
v 0.000000 0.680000 -0.010000
v -0.005000 0.680000 -0.008660
v -0.008660 0.680000 -0.005000
v 0.010000 0.680000 0.000000
v 0.000000 0.680000 0.010000
v -0.010000 0.680000 0.000000
v 0.008660 0.680000 -0.005000
v 0.000000 0.700000 -0.010000
v -0.005000 0.700000 -0.008660
v 0.005000 0.700000 0.008660
v 0.008660 0.700000 0.005000
v -0.008660 0.700000 0.005000
v -0.005000 0.700000 0.008660
v 0.005000 0.700000 -0.008660
v -0.008660 0.700000 -0.005000
v 0.010000 0.700000 0.000000
v 0.000000 0.700000 0.010000
v -0.010000 0.700000 0.000000
v 0.008660 0.700000 -0.005000
vt 0.880388 0.430607
vt 0.970599 0.459236
vt 0.973729 0.368157
vt 0.883080 0.388476
vt 0.814170 0.487586
vt 0.838564 0.582634
vt 0.920419 0.537203
vt 0.854177 0.465158
vt 0.828054 0.328356
vt 0.858168 0.244521
vt 0.774910 0.236014
vt 0.783367 0.321312
vt 0.717685 0.375338
vt 0.609967 0.340889
vt 0.611037 0.444721
vt 0.716773 0.421043
vt 0.770378 0.486631
vt 0.743159 0.582634
vt 0.865025 0.350635
vt 0.931286 0.289740
vt 0.742905 0.339305
vt 0.666586 0.243798
vt 0.734225 0.462621
vt 0.659139 0.532795
vt 0.583688 0.505983
vt 0.512171 0.500000
vt 0.557766 0.555422
vt 0.557766 0.722088
vt 0.512171 0.666667
vt 0.512171 0.833333
vt 0.557766 0.777911
vt 0.583688 0.005983
vt 0.512171 -0.000000
vt 0.557766 0.055422
vt 0.557766 0.388755
vt 0.512171 0.333333
vt 0.557766 0.444578
vt 0.583688 0.672649
vt 0.557766 0.888755
vt 0.512171 1.000000
vt 0.557766 0.944578
vt 0.583688 0.339316
vt 0.583688 0.172650
vt 0.512171 0.166667
vt 0.557766 0.222089
vt 0.557766 0.611245
vt 0.583688 0.839316
vt 0.557766 0.277911
vt 0.557766 0.111245
vt 0.080806 0.500000
vt 0.080806 0.666667
vt 0.080806 0.000000
vt 0.080806 0.166667
vt 0.080806 0.333333
vt 0.080806 0.833333
vt 0.080806 1.000000
vt 0.021861 0.555422
vt 0.021862 0.611245
vt 0.021862 0.722089
vt 0.021862 0.777911
vt 0.021862 0.888755
vt 0.021862 0.944578
vt 0.021861 0.055422
vt 0.021861 0.111245
vt 0.021861 0.222089
vt 0.021861 0.277911
vt 0.021861 0.388755
vt 0.021861 0.444578
vt 0.000000 0.504058
vt 0.000000 0.337391
vt 0.000000 0.170725
vt 0.000000 0.670725
vt 0.000000 0.837391
vt -0.000000 0.004058
vt 0.754087 0.624891
vt 0.774268 0.705405
vt 0.821857 0.707873
vt 0.845249 0.624873
vt 0.964635 0.757581
vt 0.883806 0.774406
vt 0.879995 0.820981
vt 0.962426 0.848418
vt 0.661287 0.914985
vt 0.728348 0.854363
vt 0.704811 0.813611
vt 0.623993 0.830433
vt 0.834508 0.963135
vt 0.814336 0.882617
vt 0.766751 0.880143
vt 0.743350 0.963135
vt 0.678064 0.667743
vt 0.731755 0.726721
vt 0.927330 0.673017
vt 0.860264 0.733651
vt 0.910544 0.920296
vt 0.856855 0.861307
vt 0.626200 0.739615
vt 0.708621 0.767045
vt 0.835361 0.784812
vt 0.835412 0.807129
vt 0.762727 0.823083
vt 0.753249 0.803207
vt 0.803332 0.835478
vt 0.781574 0.833822
vt 0.765434 0.762288
vt 0.785276 0.752542
vt 0.825885 0.764934
vt 0.823176 0.825736
vt 0.753204 0.780896
vt 0.807038 0.754193
vt 0.792453 0.789103
vt 0.795190 0.788906
vt 0.799245 0.792155
vt 0.799430 0.794900
vt 0.790973 0.798143
vt 0.789365 0.795861
vt 0.796151 0.798921
vt 0.793423 0.799117
vt 0.790162 0.790676
vt 0.797639 0.789878
vt 0.798441 0.797349
vt 0.789179 0.793120
vt 0.794426 0.794084
vt 0.794388 0.794131
vt 0.794166 0.794024
vt 0.794186 0.793940
vt 0.794296 0.793864
vt 0.794377 0.793885
vt 0.794317 0.794155
vt 0.794447 0.794000
vt 0.794187 0.794095
vt 0.794226 0.793890
vt 0.794425 0.793926
vt 0.794235 0.794134
vn 0.5945 0.5414 -0.5945
vn -0.2176 0.5414 -0.8121
vn 0.5945 0.5414 0.5945
vn -0.5963 0.5449 0.5895
vn 0.2176 0.5414 -0.8121
vn -0.5945 0.5414 -0.5945
vn 0.8121 0.5414 0.2176
vn -0.2176 0.5414 0.8121
vn -0.8121 0.5414 -0.2176
vn 0.8121 0.5414 -0.2176
vn 0.2176 0.5414 0.8121
vn -0.8098 0.5438 0.2203
vn 0.3151 -0.9453 0.0844
vn -0.1249 -0.8791 0.4599
vn -0.3151 -0.9453 -0.0844
vn 0.4569 -0.8810 -0.1224
vn 0.0844 -0.9453 0.3151
vn -0.4564 -0.8810 0.1243
vn 0.2307 -0.9453 -0.2307
vn -0.0844 -0.9453 -0.3151
vn 0.3345 -0.8810 0.3345
vn -0.2347 -0.9447 0.2289
vn 0.1224 -0.8810 -0.4569
vn -0.3345 -0.8810 -0.3345
vn 0.7071 -0.0000 0.7071
vn -0.7071 0.0000 -0.7071
vn 0.9659 0.0000 -0.2588
vn 0.2588 0.0000 -0.9659
vn -0.9655 -0.0006 0.2603
vn -0.2612 -0.0009 0.9653
vn -0.0000 -1.0000 -0.0000
vn 0.5175 0.6815 0.5175
vn -0.1894 0.6815 0.7069
vn -0.7069 0.6815 0.1894
vn -0.5175 0.6815 -0.5175
vn 0.1894 0.6815 -0.7069
vn 0.7069 0.6815 -0.1894
vn 0.5487 0.8230 0.1470
vn 0.4017 0.8230 -0.4017
vn -0.1470 0.8230 -0.5487
vn 0.1470 0.8230 0.5487
vn -0.4017 0.8230 0.4017
vn -0.5487 0.8230 -0.1470
vn 0.6981 0.1589 0.6981
vn -0.6981 0.1589 0.6981
vn 0.2555 0.1589 -0.9536
vn -0.6981 0.1589 -0.6981
vn 0.9536 0.1589 0.2555
vn -0.2555 0.1589 0.9536
vn -0.9536 0.1589 -0.2555
vn 0.9536 0.1589 -0.2555
vn 0.2555 0.1589 0.9536
vn -0.9536 0.1589 0.2555
vn 0.6981 0.1589 -0.6981
vn -0.2555 0.1589 -0.9536
vn -0.6118 0.5014 0.6118
vn 0.2239 0.5014 -0.8357
vn -0.6118 0.5014 -0.6118
vn 0.8357 0.5014 0.2239
vn -0.2239 0.5014 0.8357
vn -0.8357 0.5014 -0.2239
vn 0.8357 0.5014 -0.2239
vn 0.2239 0.5014 0.8357
vn -0.8357 0.5014 0.2239
vn 0.6118 0.5014 -0.6118
vn -0.2239 0.5014 -0.8357
vn 0.6118 0.5014 0.6118
vn 0.5086 0.6948 0.5086
vn -0.5086 0.6948 0.5086
vn 0.1862 0.6948 -0.6947
vn -0.5086 0.6948 -0.5086
vn 0.6947 0.6947 0.1862
vn -0.1862 0.6947 0.6947
vn -0.6947 0.6947 -0.1862
vn 0.6947 0.6947 -0.1862
vn 0.1862 0.6947 0.6947
vn -0.6947 0.6947 0.1862
vn 0.5086 0.6948 -0.5086
vn -0.1862 0.6947 -0.6947
vn -0.2589 0.0000 -0.9659
vn -0.7071 -0.0000 0.7071
vn 0.2589 0.0000 -0.9659
vn 0.9659 -0.0000 0.2589
vn -0.2589 -0.0000 0.9659
vn -0.9659 0.0000 -0.2589
vn 0.9659 0.0000 -0.2589
vn 0.2589 -0.0000 0.9659
vn -0.9659 -0.0000 0.2589
vn 0.7071 0.0000 -0.7071
vn 0.0000 1.0000 0.0000
usemtl Material.002
s 1
f 1/1/1 4/2/1 3/3/1 2/4/1
f 5/5/2 8/6/2 7/7/2 6/8/2
f 9/9/3 12/10/3 11/11/3 10/12/3
f 13/13/4 16/14/4 15/15/4 14/16/4
f 6/8/5 7/7/5 4/2/5 1/1/5
f 17/17/6 18/18/6 8/6/6 5/5/6
f 19/19/7 20/20/7 12/10/7 9/9/7
f 21/21/8 22/22/8 16/14/8 13/13/8
f 23/23/9 24/24/9 18/18/9 17/17/9
f 2/4/10 3/3/10 20/20/10 19/19/10
f 10/12/11 11/11/11 22/22/11 21/21/11
f 14/16/12 15/15/12 24/24/12 23/23/12
f 20/25/13 25/26/13 12/27/13
f 22/28/14 27/29/14 26/30/14 16/31/14
f 24/32/15 28/33/15 18/34/15
f 3/35/16 29/36/16 25/26/16 20/37/16
f 11/38/17 27/29/17 22/28/17
f 15/39/18 26/30/18 28/40/18 24/41/18
f 4/42/19 29/36/19 3/35/19
f 8/43/20 30/44/20 7/45/20
f 12/27/21 25/26/21 27/29/21 11/46/21
f 16/47/22 26/30/22 15/39/22
f 7/45/23 30/44/23 29/36/23 4/48/23
f 18/34/24 28/33/24 30/44/24 8/49/24
f 25/26/25 32/50/25 31/51/25 27/29/25
f 28/33/26 34/52/26 33/53/26 30/44/26
f 29/36/27 35/54/27 32/50/27 25/26/27
f 30/44/28 33/53/28 35/54/28 29/36/28
f 26/30/29 36/55/29 34/56/29 28/40/29
f 27/29/30 31/51/30 36/55/30 26/30/30
f 5/5/31 6/8/31 1/1/31 2/4/31 19/19/31 9/9/31 10/12/31 21/21/31 13/13/31 14/16/31 23/23/31 17/17/31
f 31/51/32 32/50/32 38/57/32 37/58/32
f 36/55/33 31/51/33 40/59/33 39/60/33
f 34/56/34 36/55/34 42/61/34 41/62/34
f 33/53/35 34/52/35 44/63/35 43/64/35
f 35/54/36 33/53/36 46/65/36 45/66/36
f 32/50/37 35/54/37 48/67/37 47/68/37
f 47/69/38 38/57/38 32/50/38
f 45/70/39 48/67/39 35/54/39
f 43/71/40 46/65/40 33/53/40
f 37/72/41 40/59/41 31/51/41
f 39/73/42 42/61/42 36/55/42
f 41/74/43 44/63/43 34/52/43
f 38/75/44 50/76/44 49/77/44 37/78/44
f 39/79/45 52/80/45 51/81/45 42/82/45
f 46/83/46 54/84/46 53/85/46 45/86/46
f 44/87/47 56/88/47 55/89/47 43/90/47
f 47/91/48 57/92/48 50/76/48 38/75/48
f 40/93/49 58/94/49 52/80/49 39/79/49
f 41/95/50 59/96/50 56/88/50 44/87/50
f 48/97/51 60/98/51 57/92/51 47/91/51
f 37/78/52 49/77/52 58/94/52 40/93/52
f 42/82/53 51/81/53 59/96/53 41/95/53
f 45/86/54 53/85/54 60/98/54 48/97/54
f 43/90/55 55/89/55 54/84/55 46/83/55
f 52/80/56 62/99/56 61/100/56 51/81/56
f 54/84/57 64/101/57 63/102/57 53/85/57
f 56/88/58 66/103/58 65/104/58 55/89/58
f 57/92/59 68/105/59 67/106/59 50/76/59
f 58/94/60 69/107/60 62/99/60 52/80/60
f 59/96/61 70/108/61 66/103/61 56/88/61
f 60/98/62 71/109/62 68/105/62 57/92/62
f 49/77/63 72/110/63 69/107/63 58/94/63
f 51/81/64 61/100/64 70/108/64 59/96/64
f 53/85/65 63/102/65 71/109/65 60/98/65
f 55/89/66 65/104/66 64/101/66 54/84/66
f 50/76/67 67/106/67 72/110/67 49/77/67
f 67/106/68 74/111/68 73/112/68 72/110/68
f 62/99/69 76/113/69 75/114/69 61/100/69
f 64/101/70 78/115/70 77/116/70 63/102/70
f 66/103/71 80/117/71 79/118/71 65/104/71
f 68/105/72 81/119/72 74/111/72 67/106/72
f 69/107/73 82/120/73 76/113/73 62/99/73
f 70/108/74 83/121/74 80/117/74 66/103/74
f 71/109/75 84/122/75 81/119/75 68/105/75
f 72/110/76 73/112/76 82/120/76 69/107/76
f 61/100/77 75/114/77 83/121/77 70/108/77
f 63/102/78 77/116/78 84/122/78 71/109/78
f 65/104/79 79/118/79 78/115/79 64/101/79
f 79/118/80 86/123/80 85/124/80 78/115/80
f 74/111/25 88/125/25 87/126/25 73/112/25
f 76/113/81 90/127/81 89/128/81 75/114/81
f 78/115/82 85/124/82 91/129/82 77/116/82
f 80/117/26 92/130/26 86/123/26 79/118/26
f 81/119/83 93/131/83 88/125/83 74/111/83
f 82/120/84 94/132/84 90/127/84 76/113/84
f 83/121/85 95/133/85 92/130/85 80/117/85
f 84/122/86 96/134/86 93/131/86 81/119/86
f 73/112/87 87/126/87 94/132/87 82/120/87
f 75/114/88 89/128/88 95/133/88 83/121/88
f 77/116/89 91/129/89 96/134/89 84/122/89
f 86/123/90 92/130/90 95/133/90 89/128/90 90/127/90 94/132/90 87/126/90 88/125/90 93/131/90 96/134/90 91/129/90 85/124/90
