# Blender 3.6.0
# www.blender.org
mtllib znicz2.mtl
o znicz2
v 0.000000 0.080000 -0.150000
v -0.088168 0.080000 -0.121353
v -0.142658 0.080000 -0.046353
v -0.142658 0.080000 0.046353
v -0.088168 0.080000 0.121353
v 0.000000 0.080000 0.150000
v 0.088168 0.080000 0.121353
v 0.142658 0.080000 0.046353
v 0.142658 0.080000 -0.046353
v 0.088168 0.080000 -0.121353
v 0.000000 0.060000 -0.150000
v -0.088168 0.060000 -0.121353
v -0.142658 0.060000 -0.046353
v -0.142658 0.060000 0.046353
v -0.088168 0.060000 0.121353
v 0.000000 0.060000 0.150000
v 0.088168 0.060000 0.121353
v 0.142658 0.060000 0.046353
v 0.142658 0.060000 -0.046353
v 0.088168 0.060000 -0.121353
v 0.000000 0.010000 -0.100000
v -0.058779 0.010000 -0.080902
v -0.095106 0.010000 -0.030902
v -0.095106 0.010000 0.030902
v -0.058779 0.010000 0.080902
v 0.000000 0.010000 0.100000
v 0.058779 0.010000 0.080902
v 0.095106 0.010000 0.030902
v 0.095106 0.010000 -0.030902
v 0.058779 0.010000 -0.080902
v 0.000000 0.000000 -0.100000
v -0.058779 0.000000 -0.080902
v -0.095106 0.000000 -0.030902
v -0.095106 0.000000 0.030902
v -0.058779 0.000000 0.080902
v 0.000000 0.000000 0.100000
v 0.058779 0.000000 0.080902
v 0.095106 0.000000 0.030902
v 0.095106 0.000000 -0.030902
v 0.058779 0.000000 -0.080902
v 0.000000 0.080000 -0.145000
v -0.085229 0.080000 -0.117307
v -0.137903 0.080000 -0.044807
v -0.137903 0.080000 0.044807
v -0.085229 0.080000 0.117307
v 0.000000 0.080000 0.145000
v 0.085229 0.080000 0.117307
v 0.137903 0.080000 0.044807
v 0.137903 0.080000 -0.044807
v 0.085229 0.080000 -0.117307
v 0.000000 0.060000 -0.145000
v -0.085229 0.060000 -0.117307
v -0.137903 0.060000 -0.044807
v -0.137903 0.060000 0.044807
v -0.085229 0.060000 0.117307
v 0.000000 0.060000 0.145000
v 0.085229 0.060000 0.117307
v 0.137903 0.060000 0.044807
v 0.137903 0.060000 -0.044807
v 0.085229 0.060000 -0.117307
v 0.000000 0.025000 -0.014672
v -0.002557 0.025000 -0.013841
v -0.004137 0.025000 -0.011666
v -0.004137 0.025000 -0.008978
v -0.002557 0.025000 -0.006803
v 0.000000 0.025000 -0.005972
v 0.002557 0.025000 -0.006803
v 0.004137 0.025000 -0.008978
v 0.004137 0.025000 -0.011666
v 0.002557 0.025000 -0.013841
v 0.000000 0.065000 -0.014672
v -0.002557 0.065000 -0.013841
v -0.004137 0.065000 -0.011666
v -0.004137 0.065000 -0.008978
v -0.002557 0.065000 -0.006803
v 0.000000 0.065000 -0.005972
v 0.002557 0.065000 -0.006803
v 0.004137 0.065000 -0.008978
v 0.004137 0.065000 -0.011666
v 0.002557 0.065000 -0.013841
v -0.076233 0.042874 -0.104925
v -0.000000 0.042874 -0.129695
v -0.123347 0.042874 -0.040078
v -0.123347 0.042874 0.040078
v -0.076233 0.042874 0.104925
v -0.000000 0.042874 0.129695
v 0.076233 0.042874 0.104925
v 0.123347 0.042874 0.040078
v 0.123347 0.042874 -0.040078
v 0.076233 0.042874 -0.104925
vn 0.3090 -0.0000 0.9511
vn -1.0000 -0.0000 -0.0000
vn 0.3090 -0.0000 -0.9511
vn 0.8090 -0.0000 0.5878
vn -0.8090 -0.0000 0.5878
vn -0.3090 -0.0000 -0.9511
vn 1.0000 -0.0000 -0.0000
vn -0.3090 -0.0000 0.9511
vn -0.8090 -0.0000 -0.5878
vn 0.8090 -0.0000 -0.5878
vn 0.2239 -0.6892 0.6892
vn -0.7246 -0.6892 -0.0000
vn 0.2239 -0.6892 -0.6892
vn 0.5862 -0.6892 0.4259
vn -0.5862 -0.6892 0.4259
vn -0.2239 -0.6892 -0.6892
vn 0.7246 -0.6892 -0.0000
vn -0.2239 -0.6892 0.6892
vn -0.5862 -0.6892 -0.4259
vn 0.5862 -0.6892 -0.4259
vn -0.0000 -1.0000 -0.0000
vn -0.0000 1.0000 -0.0000
vn -0.6164 0.6476 -0.4479
vn 0.6164 0.6476 -0.4479
vn 0.2355 0.6476 0.7247
vn -0.7620 0.6476 -0.0000
vn 0.2355 0.6476 -0.7247
vn 0.6164 0.6476 0.4479
vn -0.6164 0.6476 0.4479
vn -0.2355 0.6476 -0.7247
vn 0.7620 0.6476 -0.0000
vn -0.2355 0.6476 0.7247
vt 0.471802 0.849211
vt 0.337121 0.891056
vt 0.336913 0.859128
vt 0.452687 0.822830
vt 0.118693 0.730405
vt 0.119603 0.585016
vt 0.150990 0.594958
vt 0.149680 0.719679
vt 0.342260 0.427904
vt 0.475734 0.472517
vt 0.457170 0.498883
vt 0.342513 0.459858
vt 0.559769 0.733666
vt 0.528417 0.723702
vt 0.203495 0.845873
vt 0.222040 0.819422
vt 0.207527 0.469550
vt 0.226599 0.495918
vt 0.560418 0.588508
vt 0.529419 0.599325
vt 0.338553 0.773597
vt 0.404622 0.752919
vt 0.232360 0.621023
vt 0.230389 0.691337
vt 0.408023 0.568826
vt 0.341146 0.546893
vt 0.447533 0.698256
vt 0.272844 0.748233
vt 0.274003 0.565369
vt 0.447170 0.627604
vt 0.243351 0.624428
vt 0.241328 0.687417
vt 0.401324 0.578287
vt 0.341205 0.558435
vt 0.397876 0.743793
vt 0.436495 0.694940
vt 0.279625 0.738766
vt 0.280736 0.574533
vt 0.436148 0.631348
vt 0.338543 0.762077
vt 0.476303 0.855961
vt 0.337031 0.898144
vt 0.110948 0.733119
vt 0.110909 0.582057
vt 0.342340 0.420824
vt 0.480338 0.465912
vt 0.568462 0.736622
vt 0.198896 0.852475
vt 0.203035 0.462799
vt 0.568164 0.585791
vt 0.176567 0.881898
vt 0.074961 0.744066
vt 0.182138 0.432084
vt 0.343387 0.384238
vt 0.604159 0.574814
vt 0.604009 0.749293
vt 0.335947 0.934750
vt 0.075353 0.569371
vt 0.502671 0.436517
vt 0.497236 0.886687
vt 0.657402 0.767446
vt 0.528632 0.931897
vt 0.879543 0.918852
vt 0.876198 0.923456
vt 0.870786 0.925215
vt 0.865373 0.923456
vt 0.862028 0.918852
vt 0.862028 0.913162
vt 0.865373 0.908557
vt 0.870785 0.906799
vt 0.876198 0.908557
vt 0.879543 0.913161
vt 0.885684 0.671198
vt 0.880272 0.669440
vt 0.876927 0.664836
vt 0.876927 0.659145
vt 0.880272 0.654541
vt 0.885684 0.652782
vt 0.891097 0.654541
vt 0.894442 0.659145
vt 0.894442 0.664836
vt 0.891097 0.669440
vt 0.882618 0.906799
vt 0.878014 0.906799
vt 0.878014 0.822127
vt 0.882618 0.822127
vt 0.866632 0.822127
vt 0.862028 0.822127
vt 0.862028 0.737455
vt 0.866632 0.737455
vt 0.862028 0.652782
vt 0.866632 0.652782
vt 0.872323 0.906799
vt 0.872323 0.822127
vt 0.867719 0.906799
vt 0.867719 0.822127
vt 0.876927 0.822127
vt 0.872323 0.822127
vt 0.872323 0.737455
vt 0.876927 0.737455
vt 0.872323 0.652782
vt 0.876927 0.652782
vt 0.862028 0.906799
vt 0.862028 0.822127
vt 0.942643 0.331318
vt 0.873067 0.427081
vt 0.760492 0.463658
vt 0.647917 0.427081
vt 0.578342 0.331318
vt 0.578342 0.212950
vt 0.647917 0.117188
vt 0.760492 0.080610
vt 0.873067 0.117188
vt 0.942643 0.212950
vt 0.144310 0.926068
vt 0.021703 0.761364
vt 0.150791 0.386880
vt 0.344169 0.330192
vt 0.657402 0.557506
vt 0.335124 0.988857
vt 0.021955 0.551189
vt 0.534947 0.392320
s 0
usemtl Material.001
f 7/1/1 6/2/1 16/3/1 17/4/1
f 4/5/2 3/6/2 13/7/2 14/8/2
f 1/9/3 10/10/3 20/11/3 11/12/3
f 8/13/4 7/1/4 17/4/4 18/14/4
f 5/15/5 4/5/5 14/8/5 15/16/5
f 2/17/6 1/9/6 11/12/6 12/18/6
f 9/19/7 8/13/7 18/14/7 19/20/7
f 6/2/8 5/15/8 15/16/8 16/3/8
f 3/6/9 2/17/9 12/18/9 13/7/9
f 10/10/10 9/19/10 19/20/10 20/11/10
f 17/4/11 16/3/11 26/21/11 27/22/11
f 14/8/12 13/7/12 23/23/12 24/24/12
f 11/12/13 20/11/13 30/25/13 21/26/13
f 18/14/14 17/4/14 27/22/14 28/27/14
f 15/16/15 14/8/15 24/24/15 25/28/15
f 12/18/16 11/12/16 21/26/16 22/29/16
f 19/20/17 18/14/17 28/27/17 29/30/17
f 16/3/18 15/16/18 25/28/18 26/21/18
f 13/7/19 12/18/19 22/29/19 23/23/19
f 20/11/20 19/20/20 29/30/20 30/25/20
f 24/24/2 23/23/2 33/31/2 34/32/2
f 21/26/3 30/25/3 40/33/3 31/34/3
f 28/27/4 27/22/4 37/35/4 38/36/4
f 25/28/5 24/24/5 34/32/5 35/37/5
f 22/29/6 21/26/6 31/34/6 32/38/6
f 29/30/7 28/27/7 38/36/7 39/39/7
f 26/21/8 25/28/8 35/37/8 36/40/8
f 23/23/9 22/29/9 32/38/9 33/31/9
f 30/25/10 29/30/10 39/39/10 40/33/10
f 27/22/1 26/21/1 36/40/1 37/35/1
f 32/38/21 31/34/21 40/33/21 39/39/21 38/36/21 37/35/21 36/40/21 35/37/21 34/32/21 33/31/21
f 6/2/22 7/1/22 47/41/22 46/42/22
f 3/6/22 4/5/22 44/43/22 43/44/22
f 10/10/22 1/9/22 41/45/22 50/46/22
f 7/1/22 8/13/22 48/47/22 47/41/22
f 4/5/22 5/15/22 45/48/22 44/43/22
f 1/9/22 2/17/22 42/49/22 41/45/22
f 8/13/22 9/19/22 49/50/22 48/47/22
f 5/15/22 6/2/22 46/42/22 45/48/22
f 2/17/22 3/6/22 43/44/22 42/49/22
f 9/19/22 10/10/22 50/46/22 49/50/22
f 44/43/10 45/48/10 55/51/10 54/52/10
f 41/45/1 42/49/1 52/53/1 51/54/1
f 48/47/2 49/50/2 59/55/2 58/56/2
f 45/48/3 46/42/3 56/57/3 55/51/3
f 42/49/4 43/44/4 53/58/4 52/53/4
f 49/50/5 50/46/5 60/59/5 59/55/5
f 46/42/6 47/41/6 57/60/6 56/57/6
f 43/44/7 44/43/7 54/52/7 53/58/7
f 50/46/8 41/45/8 51/54/8 60/59/8
f 47/41/9 48/47/9 58/56/9 57/60/9
f 57/60/23 58/56/23 88/61/23 87/62/23
f 62/63/21 61/64/21 70/65/21 69/66/21 68/67/21 67/68/21 66/69/21 65/70/21 64/71/21 63/72/21
f 72/73/22 73/74/22 74/75/22 75/76/22 76/77/22 77/78/22 78/79/22 79/80/22 80/81/22 71/82/22
f 68/83/7 69/84/7 79/85/7 78/86/7
f 65/87/8 66/88/8 76/89/8 75/90/8
f 62/90/9 63/89/9 73/91/9 72/92/9
f 69/84/10 70/93/10 80/94/10 79/85/10
f 66/93/1 67/95/1 77/96/1 76/94/1
f 63/97/2 64/98/2 74/99/2 73/100/2
f 70/100/3 61/99/3 71/101/3 80/102/3
f 67/95/4 68/103/4 78/104/4 77/96/4
f 64/98/5 65/87/5 75/90/5 74/99/5
f 61/99/6 62/90/6 72/92/6 71/101/6
f 81/105/22 83/106/22 84/107/22 85/108/22 86/109/22 87/110/22 88/111/22 89/112/22 90/113/22 82/114/22
f 54/52/24 55/51/24 85/115/24 84/116/24
f 51/54/25 52/53/25 81/117/25 82/118/25
f 58/56/26 59/55/26 89/119/26 88/61/26
f 55/51/27 56/57/27 86/120/27 85/115/27
f 52/53/28 53/58/28 83/121/28 81/117/28
f 59/55/29 60/59/29 90/122/29 89/119/29
f 56/57/30 57/60/30 87/62/30 86/120/30
f 53/58/31 54/52/31 84/116/31 83/121/31
f 60/59/32 51/54/32 82/118/32 90/122/32
