# Blender 3.6.0
# www.blender.org
mtllib znicz1.mtl
o znicz1
v 0.000000 0.000000 -0.070000
v 0.000000 0.250000 -0.070000
v 0.041145 0.000000 -0.056631
v 0.041145 0.250000 -0.056631
v 0.066574 0.000000 -0.021631
v 0.066574 0.250000 -0.021631
v 0.066574 0.000000 0.021631
v 0.066574 0.250000 0.021631
v 0.041145 0.000000 0.056631
v 0.041145 0.250000 0.056631
v 0.000000 0.000000 0.070000
v 0.000000 0.250000 0.070000
v -0.041145 0.000000 0.056631
v -0.041145 0.250000 0.056631
v -0.066574 0.000000 0.021631
v -0.066574 0.250000 0.021631
v -0.066574 0.000000 -0.021631
v -0.066574 0.250000 -0.021631
v -0.041145 0.000000 -0.056631
v -0.041145 0.250000 -0.056631
v 0.000000 0.200000 -0.070000
v 0.041145 0.200000 -0.056631
v 0.066574 0.200000 -0.021631
v 0.066574 0.200000 0.021631
v 0.041145 0.200000 0.056631
v 0.000000 0.200000 0.070000
v -0.041145 0.200000 0.056631
v -0.066574 0.200000 0.021631
v -0.066574 0.200000 -0.021631
v -0.041145 0.200000 -0.056631
vn 0.3090 -0.0000 -0.9511
vn 0.8090 -0.0000 -0.5878
vn 1.0000 -0.0000 -0.0000
vn 0.8090 -0.0000 0.5878
vn 0.3090 -0.0000 0.9511
vn -0.3090 -0.0000 0.9511
vn -0.8090 -0.0000 0.5878
vn -1.0000 -0.0000 -0.0000
vn -0.0000 1.0000 -0.0000
vn -0.8090 -0.0000 -0.5878
vn -0.3090 -0.0000 -0.9511
vn -0.0000 -1.0000 -0.0000
vt 0.913928 0.296422
vt 0.817136 0.296422
vt 0.817136 0.212673
vt 0.913927 0.212673
vt 0.817136 0.128925
vt 0.913928 0.128925
vt 0.913927 0.966411
vt 0.817136 0.966411
vt 0.817136 0.882662
vt 0.913928 0.882662
vt 0.817136 0.798913
vt 0.913927 0.798913
vt 0.817136 0.715165
vt 0.913927 0.715165
vt 0.817136 0.631416
vt 0.913927 0.631416
vt 0.817136 0.547668
vt 0.913927 0.547668
vt 0.817136 0.463919
vt 0.913927 0.463919
vt 0.767910 0.280427
vt 0.688260 0.306307
vt 0.608611 0.280427
vt 0.559385 0.212673
vt 0.559385 0.128925
vt 0.608611 0.061171
vt 0.688260 0.035291
vt 0.767910 0.061171
vt 0.817136 0.380171
vt 0.913928 0.380171
vt 0.643130 0.966410
vt 0.563480 0.940531
vt 0.514254 0.872777
vt 0.514254 0.789028
vt 0.563480 0.721274
vt 0.643130 0.695395
vt 0.722779 0.721274
vt 0.772005 0.789028
vt 0.772005 0.872777
vt 0.722779 0.940531
vt 0.514254 0.705280
vt 0.127088 0.789028
vt 0.127088 0.705280
vt 0.514254 0.621531
vt 0.127088 0.621531
vt 0.514254 0.537783
vt 0.127088 0.537783
vt 0.514254 0.454034
vt 0.127088 0.454034
vt 0.514254 0.370285
vt 0.127088 0.370285
vt 0.127088 0.286537
vt 0.514254 0.286537
vt 0.514254 0.202788
vt 0.127088 0.202788
vt 0.514254 0.119040
vt 0.127088 0.119040
vt 0.514254 0.035291
vt 0.127088 0.035291
vt 0.127088 0.872777
s 0
usemtl Material
f 21/1/1 2/2/1 4/3/1 22/4/1
f 22/4/2 4/3/2 6/5/2 23/6/2
f 23/7/3 6/8/3 8/9/3 24/10/3
f 24/10/4 8/9/4 10/11/4 25/12/4
f 25/12/5 10/11/5 12/13/5 26/14/5
f 26/14/6 12/13/6 14/15/6 27/16/6
f 27/16/7 14/15/7 16/17/7 28/18/7
f 28/18/8 16/17/8 18/19/8 29/20/8
f 4/3/9 2/21/9 20/22/9 18/23/9 16/24/9 14/25/9 12/26/9 10/27/9 8/28/9 6/5/9
f 29/20/10 18/19/10 20/29/10 30/30/10
f 30/30/11 20/29/11 2/2/11 21/1/11
f 1/31/12 3/32/12 5/33/12 7/34/12 9/35/12 11/36/12 13/37/12 15/38/12 17/39/12 19/40/12
f 9/41/4 7/34/4 24/42/4 25/43/4
f 11/44/5 9/41/5 25/43/5 26/45/5
f 13/46/6 11/44/6 26/45/6 27/47/6
f 15/48/7 13/46/7 27/47/7 28/49/7
f 17/50/8 15/48/8 28/49/8 29/51/8
f 29/51/10 30/52/10 19/53/10 17/50/10
f 1/54/11 19/53/11 30/52/11 21/55/11
f 3/56/1 1/54/1 21/55/1 22/57/1
f 5/58/2 3/56/2 22/57/2 23/59/2
f 7/34/3 5/33/3 23/60/3 24/42/3
